<svg width="185" height="50" viewBox="0 0 185 50" fill="none" xmlns="http://www.w3.org/2000/svg">
<g clip-path="url(#clip0_210_213)">
<path d="M48.7101 0H1.28985C0.577487 0 0 0.577487 0 1.28985V48.7101C0 49.4225 0.577487 50 1.28985 50H48.7101C49.4225 50 50 49.4225 50 48.7101V1.28985C50 0.577487 49.4225 0 48.7101 0Z" fill="#F2B20E"/>
<path d="M44.8737 18.9707H30.4979C30.1539 18.9707 29.8739 19.2507 29.8739 19.5969V30.8462C29.8739 31.1923 30.1539 31.4724 30.4979 31.4724H44.8737C45.2198 31.4724 45.4999 31.1923 45.4999 30.8462V19.5969C45.4999 19.2507 45.2198 18.9707 44.8737 18.9707ZM40.8123 26.4717C40.8123 26.6459 40.6712 26.7848 40.4992 26.7848H34.8746C34.7004 26.7848 34.5615 26.6459 34.5615 26.4717V23.9714C34.5615 23.7994 34.7004 23.6605 34.8746 23.6605H40.4992C40.6712 23.6605 40.8123 23.7994 40.8123 23.9714V26.4717Z" fill="black"/>
<path d="M39.249 39.8777V42.3538C39.249 42.5324 39.3946 42.6779 39.5732 42.6779H45.4999V45.1782C45.4999 45.5244 45.2198 45.8022 44.8737 45.8022H30.4979C30.1539 45.8022 29.8739 45.5244 29.8739 45.1782V33.9289C29.8739 33.5828 30.1539 33.3027 30.4979 33.3027H44.8737C45.2198 33.3027 45.4999 33.5828 45.4999 33.9289V39.5536H39.5732C39.3946 39.5536 39.249 39.6991 39.249 39.8777Z" fill="black"/>
<path d="M14.0628 22.4123V24.906C14.0628 25.0802 14.2039 25.2213 14.3781 25.2213H20.3136V30.8481C20.3136 31.1921 20.0336 31.4721 19.6896 31.4721H5.31381C4.96764 31.4721 4.68762 31.1921 4.68762 30.8481V19.5966C4.68762 19.2527 4.96764 18.9727 5.31381 18.9727H19.6896C20.0336 18.9727 20.3136 19.2527 20.3136 19.5966V22.097H14.3781C14.2039 22.097 14.0628 22.2381 14.0628 22.4123Z" fill="black"/>
<path d="M19.6896 33.3027H5.31381C4.96764 33.3027 4.68762 33.5828 4.68762 33.9289V45.1782C4.68762 45.5244 4.96764 45.8022 5.31381 45.8022H19.6896C20.0336 45.8022 20.3136 45.5244 20.3136 45.1782V33.9289C20.3136 33.5828 20.0336 33.3027 19.6896 33.3027ZM10.8833 42.3648C10.8833 42.539 10.7422 42.6779 10.5702 42.6779H8.0699C7.89792 42.6779 7.75681 42.539 7.75681 42.3648V36.7401C7.75681 36.5682 7.89792 36.4293 8.0699 36.4293H10.5702C10.7422 36.4293 10.8833 36.5682 10.8833 36.7401V42.3648Z" fill="black"/>
<path d="M44.7987 4.38574H5.42183C5.07722 4.38574 4.79785 4.66511 4.79785 5.00972V10.0126C4.79785 10.3572 5.07722 10.6366 5.42183 10.6366H44.7987C45.1433 10.6366 45.4227 10.3572 45.4227 10.0126V5.00972C45.4227 4.66511 45.1433 4.38574 44.7987 4.38574Z" fill="black"/>
</g>
<path d="M68.4456 41.4137V16.2672H58.7688V8.83203H85.935V16.2672H76.3025V41.4137H68.4456Z" fill="#F2B20E"/>
<path d="M94.4133 42.1017C90.9806 42.1017 88.3394 41.1622 86.4899 39.283C84.6403 37.3891 83.7155 34.7035 83.7155 31.2264V28.0969C83.7155 24.6198 84.6403 21.9416 86.4899 20.0625C88.3394 18.1686 90.9806 17.2216 94.4133 17.2216H96.2111C99.5699 17.2216 102.174 18.1316 104.024 19.9515C105.873 21.7715 106.835 24.3535 106.909 27.6974H99.3627C99.2887 26.3954 98.9632 25.4336 98.3862 24.8121C97.8239 24.1759 96.9509 23.8578 95.7672 23.8578H94.9016C93.7179 23.8578 92.8153 24.1907 92.1939 24.8565C91.5724 25.5224 91.2617 26.4989 91.2617 27.7862V31.5593C91.2617 32.8466 91.5724 33.8232 92.1939 34.489C92.8153 35.14 93.7179 35.4656 94.9016 35.4656H95.7672C97.0545 35.4656 97.9719 35.1104 98.5193 34.4002C99.0816 33.69 99.3627 32.7874 99.3627 31.6925H106.909C106.835 35.0217 105.873 37.5888 104.024 39.394C102.174 41.1992 99.5699 42.1017 96.2111 42.1017H94.4133Z" fill="#F2B20E"/>
<path d="M119.982 42.1017C116.504 42.1017 113.826 41.1622 111.947 39.283C110.083 37.3891 109.151 34.7035 109.151 31.2264V28.0969C109.151 24.6198 110.083 21.9416 111.947 20.0625C113.826 18.1686 116.504 17.2216 119.982 17.2216H121.89C125.382 17.2216 128.053 18.1686 129.902 20.0625C131.767 21.9416 132.699 24.6198 132.699 28.0969V31.2264C132.699 34.7035 131.767 37.3891 129.902 39.283C128.053 41.1622 125.382 42.1017 121.89 42.1017H119.982ZM121.291 35.4656C123.895 35.4656 125.197 34.1265 125.197 31.4483V27.9194C125.197 25.2116 123.895 23.8578 121.291 23.8578H120.603C117.999 23.8578 116.697 25.2116 116.697 27.9194V31.4483C116.697 34.1265 117.999 35.4656 120.603 35.4656H121.291Z" fill="#F2B20E"/>
<path d="M145.949 42.1017C142.472 42.1017 139.794 41.1622 137.915 39.283C136.05 37.3891 135.118 34.7035 135.118 31.2264V28.0969C135.118 24.6494 135.984 21.9786 137.715 20.0847C139.461 18.176 141.873 17.2216 144.95 17.2216H146.216C148.553 17.2216 150.344 17.9688 151.587 19.4632L151.254 15.7789V8.83203H158.8V31.2264C158.8 34.7035 157.86 37.3891 155.981 39.283C154.117 41.1622 151.453 42.1017 147.991 42.1017H145.949ZM147.481 35.4656C150.026 35.4656 151.298 34.1265 151.298 31.4483V27.9194C151.298 25.2116 150.026 23.8578 147.481 23.8578H146.482C143.937 23.8578 142.664 25.2116 142.664 27.9194V31.4483C142.664 34.1265 143.937 35.4656 146.482 35.4656H147.481Z" fill="#F2B20E"/>
<path d="M172.405 42.1017C168.898 42.1017 166.198 41.1622 164.304 39.283C162.425 37.3891 161.485 34.7035 161.485 31.2264V28.0969C161.485 24.6198 162.425 21.9416 164.304 20.0625C166.198 18.1686 168.898 17.2216 172.405 17.2216H173.848C177.384 17.2216 180.092 18.1686 181.971 20.0625C183.865 21.9416 184.812 24.6198 184.812 28.0969V31.9588H168.854C168.898 34.5334 170.186 35.8207 172.716 35.8207H173.581C175.416 35.8207 176.585 35.1844 177.088 33.9119H184.634C184.176 36.5605 183.022 38.5876 181.172 39.9933C179.322 41.3989 176.881 42.1017 173.848 42.1017H172.405ZM168.854 27.3201H177.443C177.414 25.9885 177.096 25.0119 176.489 24.3904C175.897 23.769 174.943 23.4583 173.626 23.4583H172.716C171.399 23.4583 170.43 23.769 169.808 24.3904C169.202 25.0119 168.884 25.9885 168.854 27.3201Z" fill="#F2B20E"/>
<defs>
<clipPath id="clip0_210_213">
<rect width="50" height="50" fill="white"/>
</clipPath>
</defs>
</svg>
