<svg width="178" height="49" viewBox="0 0 178 49" fill="none" xmlns="http://www.w3.org/2000/svg">
<g clip-path="url(#clip0_2204_104)">
<path d="M46.9147 0.24707H1.24231C0.556201 0.24707 0 0.803272 0 1.48938V47.1618C0 47.8479 0.556201 48.4041 1.24231 48.4041H46.9147C47.6008 48.4041 48.1571 47.8479 48.1571 47.1618V1.48938C48.1571 0.803272 47.6008 0.24707 46.9147 0.24707Z" fill="white"/>
<path d="M43.2197 18.5186H29.3737C29.0425 18.5186 28.7728 18.7883 28.7728 19.1217V29.9563C28.7728 30.2897 29.0425 30.5594 29.3737 30.5594H43.2197C43.5531 30.5594 43.8228 30.2897 43.8228 29.9563V19.1217C43.8228 18.7883 43.5531 18.5186 43.2197 18.5186ZM39.308 25.7431C39.308 25.9108 39.1721 26.0446 39.0064 26.0446H33.5891C33.4213 26.0446 33.2876 25.9108 33.2876 25.7431V23.3349C33.2876 23.1693 33.4213 23.0355 33.5891 23.0355H39.0064C39.1721 23.0355 39.308 23.1693 39.308 23.3349V25.7431Z" fill="black"/>
<path d="M37.8023 38.6549V41.0397C37.8023 41.2117 37.9425 41.3518 38.1145 41.3518H43.8228V43.76C43.8228 44.0934 43.5531 44.361 43.2197 44.361H29.3737C29.0425 44.361 28.7728 44.0934 28.7728 43.76V32.9254C28.7728 32.592 29.0425 32.3223 29.3737 32.3223H43.2197C43.5531 32.3223 43.8228 32.592 43.8228 32.9254V38.3427H38.1145C37.9425 38.3427 37.8023 38.4829 37.8023 38.6549Z" fill="black"/>
<path d="M13.5443 21.8333V24.2351C13.5443 24.4029 13.6803 24.5388 13.848 24.5388H19.5648V29.9583C19.5648 30.2895 19.2951 30.5592 18.9638 30.5592H5.11788C4.78447 30.5592 4.51477 30.2895 4.51477 29.9583V19.1215C4.51477 18.7902 4.78447 18.5205 5.11788 18.5205H18.9638C19.2951 18.5205 19.5648 18.7902 19.5648 19.1215V21.5297H13.848C13.6803 21.5297 13.5443 21.6656 13.5443 21.8333Z" fill="black"/>
<path d="M18.9638 32.3223H5.11788C4.78447 32.3223 4.51477 32.592 4.51477 32.9254V43.76C4.51477 44.0934 4.78447 44.361 5.11788 44.361H18.9638C19.2951 44.361 19.5648 44.0934 19.5648 43.76V32.9254C19.5648 32.592 19.2951 32.3223 18.9638 32.3223ZM10.4821 41.0503C10.4821 41.2181 10.3462 41.3518 10.1806 41.3518H7.77238C7.60674 41.3518 7.47083 41.2181 7.47083 41.0503V35.633C7.47083 35.4673 7.60674 35.3335 7.77238 35.3335H10.1806C10.3462 35.3335 10.4821 35.4673 10.4821 35.633V41.0503Z" fill="black"/>
<path d="M43.1475 4.4707H5.22195C4.89004 4.4707 4.62097 4.73977 4.62097 5.07168V9.89015C4.62097 10.2221 4.89004 10.4911 5.22195 10.4911H43.1475C43.4794 10.4911 43.7484 10.2221 43.7484 9.89015V5.07168C43.7484 4.73977 43.4794 4.4707 43.1475 4.4707Z" fill="black"/>
</g>
<path d="M65.9228 40.1347V15.915H56.6027V8.75391H82.7675V15.915H73.4901V40.1347H65.9228Z" fill="white"/>
<path d="M90.9334 40.7973C87.6271 40.7973 85.0833 39.8924 83.3019 38.0825C81.5206 36.2584 80.6299 33.6718 80.6299 30.3228V27.3087C80.6299 23.9597 81.5206 21.3803 83.3019 19.5704C85.0833 17.7463 87.6271 16.8342 90.9334 16.8342H92.6649C95.8999 16.8342 98.408 17.7107 100.189 19.4635C101.971 21.2164 102.897 23.7032 102.968 26.924H95.7003C95.6291 25.6699 95.3156 24.7436 94.7598 24.145C94.2182 23.5322 93.3774 23.2258 92.2373 23.2258H91.4037C90.2636 23.2258 89.3943 23.5465 88.7957 24.1878C88.1972 24.8291 87.8979 25.7696 87.8979 27.0095V30.6435C87.8979 31.8833 88.1972 32.8239 88.7957 33.4652C89.3943 34.0922 90.2636 34.4057 91.4037 34.4057H92.2373C93.4772 34.4057 94.3607 34.0637 94.888 33.3797C95.4296 32.6956 95.7003 31.8263 95.7003 30.7717H102.968C102.897 33.9782 101.971 36.4508 100.189 38.1894C98.408 39.928 95.8999 40.7973 92.6649 40.7973H90.9334Z" fill="white"/>
<path d="M115.559 40.7973C112.21 40.7973 109.631 39.8924 107.821 38.0825C106.025 36.2584 105.127 33.6718 105.127 30.3228V27.3087C105.127 23.9597 106.025 21.3803 107.821 19.5704C109.631 17.7463 112.21 16.8342 115.559 16.8342H117.398C120.761 16.8342 123.333 17.7463 125.114 19.5704C126.91 21.3803 127.808 23.9597 127.808 27.3087V30.3228C127.808 33.6718 126.91 36.2584 125.114 38.0825C123.333 39.8924 120.761 40.7973 117.398 40.7973H115.559ZM116.82 34.4057C119.329 34.4057 120.583 33.116 120.583 30.5366V27.1377C120.583 24.5298 119.329 23.2258 116.82 23.2258H116.158C113.649 23.2258 112.395 24.5298 112.395 27.1377V30.5366C112.395 33.116 113.649 34.4057 116.158 34.4057H116.82Z" fill="white"/>
<path d="M140.57 40.7973C137.221 40.7973 134.641 39.8924 132.831 38.0825C131.036 36.2584 130.138 33.6718 130.138 30.3228V27.3087C130.138 23.9882 130.972 21.4159 132.639 19.5918C134.321 17.7534 136.644 16.8342 139.608 16.8342H140.826C143.078 16.8342 144.802 17.5539 145.999 18.9933L145.679 15.4448V8.75391H152.947V30.3228C152.947 33.6718 152.042 36.2584 150.232 38.0825C148.436 39.8924 145.871 40.7973 142.536 40.7973H140.57ZM142.045 34.4057C144.496 34.4057 145.721 33.116 145.721 30.5366V27.1377C145.721 24.5298 144.496 23.2258 142.045 23.2258H141.083C138.632 23.2258 137.406 24.5298 137.406 27.1377V30.5366C137.406 33.116 138.632 34.4057 141.083 34.4057H142.045Z" fill="white"/>
<path d="M166.05 40.7973C162.673 40.7973 160.072 39.8924 158.248 38.0825C156.438 36.2584 155.533 33.6718 155.533 30.3228V27.3087C155.533 23.9597 156.438 21.3803 158.248 19.5704C160.072 17.7463 162.673 16.8342 166.05 16.8342H167.44C170.846 16.8342 173.454 17.7463 175.264 19.5704C177.088 21.3803 178 23.9597 178 27.3087V31.0282H162.63C162.673 33.5079 163.913 34.7478 166.35 34.7478H167.183C168.951 34.7478 170.076 34.135 170.561 32.9094H177.829C177.387 35.4603 176.276 37.4127 174.494 38.7666C172.713 40.1204 170.361 40.7973 167.44 40.7973H166.05ZM162.63 26.5606H170.903C170.874 25.278 170.568 24.3374 169.984 23.7389C169.414 23.1403 168.495 22.841 167.226 22.841H166.35C165.081 22.841 164.148 23.1403 163.549 23.7389C162.965 24.3374 162.659 25.278 162.63 26.5606Z" fill="white"/>
<defs>
<clipPath id="clip0_2204_104">
<rect width="48.1571" height="48.1571" fill="white" transform="translate(0 0.24707)"/>
</clipPath>
</defs>
</svg>
