<svg width="100" height="100" viewBox="0 0 100 100" fill="none" xmlns="http://www.w3.org/2000/svg">
<circle cx="50" cy="50" r="50" fill="white"/>
<g clip-path="url(#clip0_88_12)">
<path d="M44.0308 66.1153C44.0308 66.1153 44.1435 63.6653 42.1711 59.8112C40.5557 56.6639 32.3376 53.0361 34.3005 41.4739C35.4558 34.6705 41.1662 29.3936 47.8252 27.622C53.9019 26.0107 64.9095 26.7739 69.0608 39.0239C72.9303 50.4541 63.8106 56.8995 60.8521 60.3389C58.4946 63.0811 59.1615 66.6618 59.1615 66.6618C59.1615 66.6618 48.9147 69.3851 44.0308 66.1153Z" fill="#FFC346"/>
<g style="mix-blend-mode:multiply">
<path d="M56.7947 47.7496C55.9494 47.7685 54.4185 47.1371 54.4185 47.1371C54.4185 47.1371 51.5069 47.6365 49.0744 46.8733C49.0744 46.8733 45.7026 48.2867 44.8761 48.3527C44.8761 48.3527 44.6788 48.9369 45.1203 48.8238C45.1954 48.805 45.3551 48.7579 45.5523 48.6919C46.3131 50.4823 49.5627 58.1621 50.1263 60.3483C50.1263 60.5744 50.1544 60.7629 50.1638 60.8854C50.1169 60.876 50.0699 60.8665 50.0324 60.8477C50.0324 60.8477 49.8351 61.4885 50.0887 61.6486C49.6003 62.9113 49.5627 64.2588 49.5909 64.9938C49.6661 65.0221 49.7412 65.0504 49.8163 65.0692C49.976 65.1069 50.1357 65.1446 50.2953 65.1729C50.3141 63.3731 50.6241 62.1763 50.7462 61.7617C50.9246 61.7711 51.1124 61.79 51.3191 61.79C51.2064 62.3742 50.9058 64.0327 50.8682 65.2483C51.0843 65.2765 51.3003 65.2954 51.5163 65.3048C51.5445 65.3048 51.5727 65.3048 51.5914 65.3048C51.5914 64.306 51.6008 62.5156 51.5727 61.79C51.6948 61.79 51.8169 61.79 51.9296 61.79C51.9296 62.3742 51.9671 64.2117 52.0141 65.3048C52.1738 65.3048 52.3334 65.286 52.4837 65.2577C52.4649 64.2306 52.4273 62.4119 52.3334 61.7711C52.3616 61.7711 52.3804 61.7711 52.4086 61.7711C52.5213 62.3836 52.85 64.1646 52.9815 65.1635C53.2069 65.1069 53.4229 65.0221 53.6483 64.9373C53.5732 63.9479 53.3666 62.1104 52.9063 61.5733C52.9063 61.4885 52.9063 61.4036 52.9063 61.3283C53.0942 61.1115 53.1881 60.1692 53.0003 59.2835C53.5732 57.7192 55.9024 51.3775 57.1516 48.3056C57.4521 48.3433 57.6681 48.3433 57.7433 48.2585C58.0344 47.9192 57.6588 47.7496 56.8135 47.7685L56.7947 47.7496ZM54.1273 47.6271L52.8969 51.2644C52.8124 51.2738 52.7467 51.2927 52.6809 51.3021C52.0047 51.1325 51.4506 51.2079 51.1312 51.2833C51.0467 51.2361 50.7837 51.1042 50.4268 51.1796L49.3279 47.2879C49.9572 47.4763 52.0892 48.0417 54.1273 47.6177V47.6271ZM52.8688 51.7167L51.6666 57.6533C51.5633 57.6438 51.4506 57.6533 51.3285 57.6533C51.3285 57.6533 51.3191 57.6533 51.3097 57.6533L50.6334 51.7356C50.6334 51.7356 50.6804 51.7073 50.7086 51.6979C51.1124 51.5942 52.1738 51.6225 52.7561 51.6413C52.7936 51.6696 52.8312 51.6885 52.8688 51.7073V51.7167ZM50.2765 58.7652C49.5252 56.6733 47.1678 50.3692 45.7026 48.6354C46.6794 48.2961 48.492 47.6083 49.0837 47.269L50.1732 51.2833C50.023 51.3586 49.8727 51.4811 49.7224 51.6602C49.7224 51.6602 49.929 51.8486 50.2484 51.8486L50.7931 57.8888C50.5395 58.0961 50.3799 58.4071 50.2765 58.7558V58.7652ZM52.2301 60.9985C51.8356 61.0361 51.3097 61.0644 50.7837 60.9985C50.7837 60.2446 51.0655 57.936 51.4787 58.049C52.4649 58.3317 52.324 60.3011 52.2395 60.989L52.2301 60.9985ZM52.6152 58.294C52.4743 58.0679 52.2865 57.8794 52.061 57.7758L53.1693 51.811C53.5356 51.8392 53.8362 51.5942 53.8362 51.5942C53.6859 51.3681 53.4511 51.2833 53.2163 51.255L54.3621 47.5706C54.3621 47.5706 56.0997 48.136 57.0858 48.2773C56.3814 49.4646 53.8737 53.8652 52.6152 58.2846V58.294Z" fill="#D6C5A4"/>
</g>
<path d="M46.0218 71.166C46.0218 71.166 46.1909 75.7079 50.3328 75.9529C54.672 76.2167 56.3814 75.4158 57.02 71.166C57.02 71.166 47.4964 72.0423 46.0125 71.166H46.0218Z" fill="#6A6A6A"/>
<path d="M43.8241 64.2494C43.8241 64.2494 51.4505 65.1823 59.1896 64.2494C59.1896 64.2494 59.8283 72.0706 55.4797 72.3061C52.8499 72.4475 50.3798 72.4192 48.8301 72.3721C46.7732 72.3156 44.9418 70.855 44.2937 68.6877C43.965 67.5758 43.7584 66.1246 43.8147 64.24L43.8241 64.2494Z" fill="#8D8D8D"/>
<path d="M45.2423 68.3107C45.2423 68.3107 54.6063 70.3933 57.7996 67.8773C57.7996 67.8773 56.8416 72.4475 45.6743 69.7336C45.6743 69.7336 45.2235 69.0834 45.2517 68.3107H45.2423Z" fill="#777777"/>
<path d="M57.8841 65.5969C57.8841 65.5969 48.0881 67.6794 44.7539 65.1635C44.7539 65.1635 45.7589 69.7336 57.4427 67.0198C57.4427 67.0198 57.9123 66.3696 57.8841 65.5969Z" fill="#777777"/>
<g style="mix-blend-mode:screen" opacity="0.35">
<path d="M54.1461 49.7662C61.185 49.7662 66.8912 45.2098 66.8912 39.5892C66.8912 33.9687 61.185 29.4123 54.1461 29.4123C47.1072 29.4123 41.401 33.9687 41.401 39.5892C41.401 45.2098 47.1072 49.7662 54.1461 49.7662Z" fill="#E5F19C"/>
</g>
<g style="mix-blend-mode:screen" opacity="0.85">
<path d="M63.3503 36.7623C63.3503 38.8825 61.1995 40.5975 58.551 40.5975C55.9024 40.5975 53.7516 38.8825 53.7516 36.7623C53.7516 34.6421 55.9024 32.9271 58.551 32.9271C61.1995 32.9271 63.3503 34.6421 63.3503 36.7623Z" fill="#E5F19C"/>
</g>
<g style="mix-blend-mode:overlay" opacity="0.55">
<path d="M69.0608 39.024C64.9095 26.7834 53.9019 26.0107 47.8252 27.6221C41.1662 29.3936 35.4558 34.6705 34.3005 41.474C32.3376 53.0361 40.5557 56.6546 42.1711 59.8113C43.1385 61.6959 43.5987 63.2413 43.8242 64.325C43.7772 66.1625 43.9744 67.5948 44.3032 68.6879C44.6225 69.7621 45.2424 70.6667 46.0313 71.3169C46.097 72.0802 46.623 75.7363 50.3329 75.9625C54.4185 76.2075 56.1748 75.5102 56.898 71.8823C59.6687 70.2144 59.1803 64.2496 59.1803 64.2496C59.1709 64.2496 59.1615 64.2496 59.1427 64.2496C59.3024 63.0529 59.7438 61.6111 60.8333 60.3296C63.7918 56.8902 72.9116 50.4448 69.042 39.0146L69.0608 39.024Z" fill="url(#paint0_linear_88_12)"/>
</g>
</g>
<defs>
<linearGradient id="paint0_linear_88_12" x1="34" y1="51.5002" x2="70" y2="51.5002" gradientUnits="userSpaceOnUse">
<stop stop-color="#A8675F"/>
<stop offset="0.21" stop-color="#BC7D67"/>
<stop offset="0.74" stop-color="#ECB37B"/>
<stop offset="1" stop-color="#FFC983"/>
</linearGradient>
<clipPath id="clip0_88_12">
<rect width="36" height="49" fill="white" transform="translate(34 27)"/>
</clipPath>
</defs>
</svg>
