<svg width="100" height="100" viewBox="0 0 100 100" fill="none" xmlns="http://www.w3.org/2000/svg">
<circle cx="50" cy="50" r="50" fill="white"/>
<path d="M59.8728 33.8831C59.8728 33.8831 56.5002 36.1011 55.1157 36.0421C53.7312 35.9831 49.7434 35.2988 48.3352 35.7472C47.8973 35.8887 44.5603 37.2101 44.1935 38.1186C43.945 38.7321 45.3768 39.8647 47.0927 39.2158C50.0629 38.1068 51.9562 38.8265 53.317 39.1922C55.6246 39.8057 56.9736 39.9945 55.9086 40.1361C55.9086 40.1361 52.5597 40.1007 51.1279 40.4192C50.7374 40.5018 47.85 41.6934 47.6607 42.5429C47.566 43.003 48.4653 44.3244 51.1515 43.4631C52.9147 42.9086 54.2164 43.7817 55.5417 44.3834C56.6896 44.9025 59.7781 47.734 59.7781 47.734L62.5353 43.1564L59.8728 33.8831Z" fill="#DB7665"/>
<path d="M53.743 31.8066C53.743 31.8066 47.8737 30.438 45.5307 30.5442C44.5958 30.5914 41.531 31.0161 41.0813 31.8302C40.3358 33.1752 42.7025 34.3786 45.507 33.9303C48.2878 33.4937 50.7847 35.9713 52.7727 37.0803C57.7191 39.8293 60.7011 41.4928 60.7011 41.4928L53.743 31.8066Z" fill="#EA8F7D"/>
<path d="M48.4535 25.2233C49.4712 25.589 56.3346 28.7273 57.4469 29.447C60.2041 31.2049 68.7478 39.145 70.2388 40.6788C72.9723 43.4985 74.3923 52.524 76.2857 58.5647C76.2857 58.6001 77.2442 61.7737 78.9482 65.2778C79.4334 66.2924 79.9777 67.3071 80.4984 68.2155C77.2679 71.8965 74.061 74.846 70.9252 77.2292C69.5406 77.6658 68.2153 78.0787 66.9136 78.4445C66.3575 77.0759 64.9611 73.6072 64.2748 72.2976C63.7186 71.2358 63.0914 69.5487 62.0856 68.2155C61.4111 67.3189 60.5473 66.5874 59.4231 66.316C57.2221 65.8087 53.8259 63.0361 52.1455 61.5142C51.3764 60.8299 50.5599 60.0394 50.5717 60.0394C48.844 58.3523 47.6843 56.9837 47.5542 56.8303C46.359 55.45 44.6077 53.9634 43.0693 52.8072C42.525 52.3943 42.1936 52.1701 41.8031 51.8988C41.4008 51.6156 41.0458 51.4032 40.6316 51.1673C40.0045 50.8251 38.4188 49.9049 37.6614 49.4212C37.2354 49.1498 36.1113 48.4183 35.8983 47.9582C35.6734 47.4509 36.8804 46.0941 37.7443 45.6812C38.1939 45.4688 38.8803 45.4216 39.3773 45.457C41.0695 45.5632 43.3415 46.6958 44.8325 47.4981C46.3827 48.3121 48.0748 49.4447 50.264 50.07C51.6012 50.4358 52.7017 50.5302 54.2045 50.2706C55.4116 50.0582 56.5949 49.6571 57.5179 48.0644C57.6244 47.8756 58.0267 47.2975 58.3936 46.4834C59.1627 44.7845 59.8018 42.0473 57.4469 39.6995C56.4292 38.6849 55.6837 37.2573 54.9382 36.0185C54.169 34.7443 53.3525 33.6235 52.1219 33.2224C50.761 32.774 49.4239 31.8538 48.2287 31.0515C47.6252 30.6504 47.6607 30.674 47.6488 30.6622C46.5128 29.9071 45.294 29.1402 43.874 28.5621C40.4305 27.1346 40.4068 25.0463 41.6848 24.185C42.3711 23.7249 47.6843 24.9519 48.4653 25.2233H48.4535Z" fill="#F9A58F"/>
<path d="M81.1966 66.5874L76.2502 58.5293L62.0856 68.2155L65.3043 76.2382L81.1966 66.5874Z" fill="#F7F7F7"/>
<path d="M65.0676 70.0914C65.3516 70.3274 65.3753 70.7403 65.1386 71.0234C64.902 71.3066 64.4878 71.3302 64.2038 71.0942C63.9198 70.8583 63.8961 70.4453 64.1328 70.1622C64.3695 69.879 64.7836 69.8554 65.0676 70.0914Z" fill="#0B0755"/>
<g opacity="0.97">
<path d="M43.0338 17.2596L21 19.2062L24.5264 58.895L52.7372 56.4056L49.696 22.1794L43.0338 17.2596Z" fill="#E2E2E2"/>
<path d="M49.9327 22.4389L43.4835 23.0052C43.3651 23.0052 43.2586 22.9108 43.2468 22.7575L42.7616 17.2832C42.7498 17.1416 42.8326 17.0118 42.951 17C43.0693 17 43.1758 17.0944 43.1876 17.2478L43.6491 22.4507L49.8735 21.8962C49.9919 21.8962 50.0984 21.9906 50.1102 22.144C50.122 22.2855 50.0392 22.4153 49.9209 22.4271L49.9327 22.4389Z" fill="#D6D6D6"/>
</g>
<path d="M58.2516 65.9149C55.2932 64.5581 50.8084 60.6411 47.637 56.9601C45.6608 54.6595 42.5841 52.4297 41.3535 51.6274C40.3831 51.0021 36.2888 48.902 35.8864 47.9818C35.6498 47.4391 37.0579 45.8935 37.9336 45.634C39.8151 45.0559 42.383 46.1177 46.3708 48.3829C50.1694 50.542 52.2284 50.6246 54.1217 50.306C54.169 50.306 54.2045 50.2942 54.2519 50.2824L58.2516 65.9149Z" fill="#F9A58F"/>
<path d="M36.2533 29.6004L36.9041 38.2012" stroke="#60C99A" stroke-linecap="round" stroke-linejoin="round"/>
<path d="M32.5494 34.2016L41.1878 33.5527" stroke="#60C99A" stroke-linecap="round" stroke-linejoin="round"/>
<path d="M36.8686 40.5018C40.535 40.5018 43.5071 37.5385 43.5071 33.8831C43.5071 30.2276 40.535 27.2643 36.8686 27.2643C33.2022 27.2643 30.2301 30.2276 30.2301 33.8831C30.2301 37.5385 33.2022 40.5018 36.8686 40.5018Z" stroke="#60C99A" stroke-width="0.5" stroke-linecap="round" stroke-linejoin="round"/>
<mask id="mask0_88_15" style="mask-type:alpha" maskUnits="userSpaceOnUse" x="0" y="0" width="100" height="100">
<circle cx="50" cy="50" r="50" fill="white"/>
</mask>
<g mask="url(#mask0_88_15)">
<path d="M98.6779 88.4872C97.5064 88.3928 94.1694 93.0412 88.4183 95.2947C81.9573 97.8076 73.0585 97.961 72.8692 98.0082C71.8989 95.3772 65 76.7127 65 76.7127C65.0237 76.7009 78.4783 68.0175 81.6141 66L98.6779 88.4872Z" fill="#DB7963"/>
</g>
</svg>
