<svg width="100" height="100" viewBox="0 0 100 100" fill="none" xmlns="http://www.w3.org/2000/svg">
<circle cx="50" cy="50" r="50" fill="white"/>
<g clip-path="url(#clip0_88_10)">
<mask id="mask0_88_10" style="mask-type:luminance" maskUnits="userSpaceOnUse" x="11" y="11" width="77" height="77">
<path d="M49.5 88C70.763 88 88 70.763 88 49.5C88 28.237 70.763 11 49.5 11C28.237 11 11 28.237 11 49.5C11 70.763 28.237 88 49.5 88Z" fill="white"/>
</mask>
<g mask="url(#mask0_88_10)">
<path d="M60.1568 35.3166L59.9951 35.8633L59.4946 37.5419L59.0018 39.2051L58.3781 41.2995L55.5676 50.7782L54.8284 53.2653L54.7976 53.3654L54.6513 53.8351L54.505 54.3433L54.4665 54.4742L52.4491 61.2656L52.1257 62.3513L51.8716 63.2137L51.7099 63.7758L50.4009 68.1725L49.8619 69.982L49.7849 70.2361L49.6155 70.8059L49.4384 71.3988L49.115 72.4922L48.5529 74.3787L48.2064 75.5568L46.959 79.7764L41.2995 98.8416H16.2437C15.7201 98.8416 15.2889 98.4181 15.2889 97.8868V63.7681L15.466 63.1675L16.1898 60.7189L18.0455 54.4665L18.1918 53.966L18.2303 53.8351L19.1389 50.7782L21.7569 41.9463L26.6772 25.3759L37.3956 28.556L39.9366 29.3106L48.5452 31.867L49.7926 32.2366L52.9111 33.1606L58.7015 34.8854L60.1568 35.3166Z" fill="#D3DBDD"/>
<path d="M71.8531 40.8914L65.9472 48.6992L64.3764 50.7782L60.3108 56.1605L59.6255 57.0691L55.275 62.821L54.5974 63.7219L49.8696 69.9743L49.6771 70.2284L48.9841 71.1447L48.4374 71.8685L48.2988 72.0533L47.4133 73.2237L47.3902 73.2622L47.0206 73.7473L45.6192 75.603L44.341 77.2893L39.4207 83.7958L30.6735 95.3766L30.3655 95.777L28.0555 98.8339H16.2437C15.7201 98.8339 15.2889 98.4104 15.2889 97.8791V57.8083L15.851 57.0691L15.8664 57.0537L17.8222 54.4742L18.1995 53.9737L18.2996 53.8428L20.2323 51.2864L20.6096 50.7859L22.4576 48.345L28.6792 40.1137L30.5426 37.6497L33.5841 33.6303L35.3859 31.251L37.411 28.5714L44.0099 19.8396L56.6995 29.4415L63.2753 34.408L67.21 37.3802L70.9907 40.2369L71.8608 40.8991L71.8531 40.8914Z" fill="#E8EEF0"/>
<g style="mix-blend-mode:multiply" opacity="0.4">
<path d="M37.4033 28.556L35.3782 31.2356L33.5764 33.6226L30.5349 37.642L28.6792 40.106L22.4499 48.3373L20.6096 50.7782H19.1466L24.0361 43.0012L32.0595 30.2577L33.7997 27.4857L37.4033 28.556Z" fill="#999999"/>
</g>
<g style="mix-blend-mode:multiply" opacity="0.58">
<path d="M56.6918 29.4261L54.4357 31.6591L52.9111 33.1606L52.0949 33.9768L50.3624 35.6862L47.7213 38.3042L41.9617 44.0022C41.7461 44.187 41.5382 44.3795 41.3534 44.6028L39.0819 46.8512L35.1087 50.7782H33.6072L37.3032 46.4739L45.0263 37.5034L47.3594 34.793L49.6078 32.1827L49.808 32.2443L49.654 32.1288L51.7869 29.6494L53.8428 27.2624L56.7072 29.4338L56.6918 29.4261Z" fill="#7D7D7D"/>
</g>
<path d="M24.5443 57.662L88.9702 54.505C88.9702 54.505 78.2826 83.9575 75.1487 85.0971C66.1782 88.3696 25.9919 91.9501 15.62 90.7951C13.4178 90.5487 11.5082 89.9481 10.7767 87.8614C8.42051 81.1239 5.78711 51.0323 5.78711 51.0323L75.1487 46.4123V55.1749L24.5443 57.6543V57.662Z" fill="#DB7963"/>
<g style="mix-blend-mode:multiply" opacity="0.58">
<path d="M15.7201 50.4548L74.8484 45.6731L74.7329 54.4434L24.3903 56.9151L14.6267 88.0539L15.7124 50.4625L15.7201 50.4548Z" fill="#999999"/>
</g>
<path d="M62.0741 26.2537L82.3328 45.3882C82.9488 45.9734 82.9488 46.9282 82.3328 47.5365L49.5 80.0151C48.884 80.6234 47.8907 80.6465 47.2747 80.069L27.016 60.9345C26.4077 60.357 26.4 59.3945 27.016 58.7862L59.8565 26.2999C60.4725 25.6916 61.4658 25.6685 62.0818 26.246L62.0741 26.2537Z" fill="#60C99A"/>
<g opacity="0.47">
<path d="M64.6382 52.4029L64.6151 52.3798C64.3995 52.1411 64.1685 51.9101 63.9375 51.6791C63.3908 51.1401 62.8056 50.6396 62.1896 50.1776C61.5351 49.6771 60.8421 49.2228 60.1183 48.8147C59.972 48.73 59.8334 48.653 59.6871 48.576C59.6332 48.5452 59.5716 48.5144 59.5177 48.4836C59.2867 48.3604 59.0634 48.2449 58.8247 48.1371C58.1471 47.8137 57.4541 47.5365 56.7457 47.2901C56.738 47.2901 56.7226 47.2824 56.7072 47.2747C55.9218 47.0129 55.121 46.7973 54.3125 46.6356C53.119 46.3892 51.8947 46.2583 50.6704 46.2429C49.1073 46.2121 47.5288 46.3738 45.9734 46.7126C45.7963 46.7511 45.6269 46.7896 45.4575 46.8281C44.6413 47.0283 43.8405 47.2747 43.0551 47.5673C43.032 47.575 43.0012 47.5827 42.9858 47.5981C42.493 47.7829 42.0079 47.9985 41.5305 48.2218C41.5305 48.2218 41.5151 48.2218 41.5074 48.2372C41.3457 48.3142 41.1763 48.3989 41.0146 48.4759C40.5449 48.7146 40.0752 48.9764 39.6286 49.2536C39.5285 49.3075 39.4361 49.3691 39.336 49.4384C39.2436 49.4923 39.1512 49.5539 39.0588 49.6155C39.0203 49.6386 38.9895 49.6617 38.951 49.6848C38.8355 49.7618 38.72 49.8388 38.6122 49.9158C38.258 50.1622 37.9038 50.424 37.565 50.6935C37.0491 51.1016 36.5486 51.5405 36.0789 51.9948C35.4321 52.6185 34.8238 53.2884 34.2694 53.9968C34.1385 54.1662 34.0076 54.3356 33.8844 54.505C33.6996 54.7514 33.5225 55.0132 33.3531 55.2673C33.1683 55.5368 32.9989 55.814 32.8372 56.0912C32.7987 56.1605 32.7525 56.2375 32.714 56.3068C32.483 56.6995 32.2674 57.0999 32.0749 57.508C32.0287 57.6004 31.9825 57.6928 31.944 57.7929L32.1057 57.9469L32.7987 58.6091C32.9142 58.3396 33.0374 58.0778 33.176 57.8237C33.2684 57.6235 33.3762 57.4233 33.484 57.2231C33.4994 57.1846 33.5225 57.1461 33.5456 57.0999C33.5918 57.0229 33.6303 56.9382 33.6842 56.8535C33.7304 56.7688 33.7766 56.6918 33.8228 56.6148C33.869 56.5378 33.9152 56.4531 33.9691 56.3761C34.0153 56.2991 34.0692 56.2144 34.1154 56.1451C34.1154 56.1451 34.1154 56.1374 34.1154 56.1297C34.1154 56.1297 34.1154 56.1297 34.1231 56.1143C34.2848 55.8602 34.4542 55.6061 34.6236 55.3674C34.6929 55.275 34.7545 55.1826 34.8238 55.0902C34.9316 54.9439 35.0394 54.7976 35.1472 54.659C35.178 54.6205 35.2011 54.5897 35.2319 54.5512C35.3012 54.4588 35.3782 54.3664 35.4552 54.274C35.5245 54.1816 35.6015 54.0892 35.6862 54.0045C35.8248 53.8428 35.9711 53.6811 36.1251 53.5194C36.2791 53.35 36.4408 53.1806 36.6025 53.0189C36.6949 52.9265 36.7873 52.8341 36.872 52.7417C37.0183 52.5954 37.1646 52.4568 37.3186 52.3182C37.5034 52.1488 37.6959 51.9794 37.8884 51.8254C37.9115 51.8023 37.9346 51.7792 37.9577 51.7638C38.1194 51.6329 38.2734 51.502 38.4351 51.3788C38.7354 51.1478 39.0357 50.9245 39.3514 50.7089C39.5439 50.5703 39.7441 50.4394 39.9443 50.3162C40.2754 50.1083 40.6142 49.9081 40.953 49.7156C41.5536 49.3845 42.1773 49.0842 42.8164 48.8224C42.8318 48.8224 42.8395 48.8224 42.8549 48.8224C43.0397 48.7454 43.2168 48.6761 43.4093 48.6068C43.5248 48.5606 43.6403 48.5144 43.7558 48.4759C43.8328 48.4451 43.9098 48.422 43.9868 48.3912C44.3718 48.2603 44.7645 48.1371 45.1572 48.0293H45.1649C45.342 47.9754 45.5114 47.9369 45.6885 47.8907C45.7732 47.8676 45.8579 47.8522 45.9426 47.8368C46.0504 47.806 46.1659 47.7829 46.2814 47.7598C47.6212 47.4672 48.9841 47.3286 50.3239 47.3286C51.5559 47.3286 52.7802 47.4518 53.9814 47.6905C54.197 47.7367 54.4126 47.7829 54.6359 47.8368C55.1056 47.9446 55.5599 48.0755 56.0142 48.2218C56.1297 48.2603 56.2529 48.2988 56.3684 48.345C56.4762 48.3758 56.5763 48.4143 56.6764 48.4528C57.3309 48.6915 57.9777 48.961 58.6014 49.2767C58.7708 49.3537 58.9325 49.4384 59.1019 49.5308C59.2097 49.5847 59.3098 49.6463 59.4176 49.7079C59.4715 49.7387 59.5331 49.7695 59.587 49.8003C60.2569 50.1853 60.8883 50.6088 61.4889 51.0708C62.0587 51.502 62.6054 51.9717 63.1136 52.4722C63.2291 52.5877 63.3446 52.7032 63.4524 52.8187C65.0309 54.4357 66.2629 56.3453 67.0945 58.4551L67.9723 57.585C67.1561 55.6754 66.0242 53.9198 64.6151 52.4029H64.6382Z" fill="#209BBB"/>
<path d="M46.4739 48.4451C46.4277 48.2449 46.3738 48.0447 46.3199 47.8445C46.3199 47.8214 46.3045 47.7906 46.3045 47.7675C46.2506 47.5827 46.189 47.3902 46.1274 47.19L45.9734 46.7126L45.4575 46.8281C44.6413 47.0283 43.8405 47.2747 43.0551 47.5673C43.032 47.575 43.0012 47.5827 42.9858 47.5981C42.493 47.7829 42.0079 47.9985 41.5305 48.2218C41.5305 48.2218 41.5151 48.2218 41.5074 48.2372C41.3457 48.3142 41.1763 48.3989 41.0146 48.4759C40.5449 48.7146 40.0752 48.9764 39.6286 49.2536C39.5285 49.3075 39.4361 49.3691 39.336 49.4384C39.2436 49.4923 39.1512 49.5539 39.0588 49.6155C39.0203 49.6386 38.9895 49.6617 38.951 49.6848C38.8355 49.7618 38.72 49.8388 38.6122 49.9158C38.258 50.1622 37.9038 50.424 37.565 50.6935C37.0491 51.1016 36.5486 51.5405 36.0789 51.9948C35.4321 52.6185 34.8238 53.2884 34.2694 53.9968C34.1385 54.1662 34.0076 54.3356 33.8844 54.505C33.6996 54.7514 33.5225 55.0132 33.3531 55.2673C33.1683 55.5368 32.9989 55.814 32.8372 56.0912C32.7987 56.1605 32.7525 56.2375 32.714 56.3068C32.483 56.6995 32.2674 57.0999 32.0749 57.508C32.0287 57.6004 31.9825 57.6928 31.944 57.7929L32.1057 57.9469L32.7987 58.6091C32.9142 58.3396 33.0374 58.0778 33.176 57.8237C33.2684 57.6235 33.3762 57.4233 33.484 57.2231C33.4994 57.1846 33.5225 57.1461 33.5456 57.0999C33.5918 57.0229 33.6303 56.9382 33.6842 56.8535C33.7304 56.7688 33.7766 56.6918 33.8228 56.6148C33.869 56.5378 33.9152 56.4531 33.9691 56.3761C34.0153 56.2991 34.0692 56.2144 34.1154 56.1451C34.1154 56.1451 34.1154 56.1297 34.1231 56.1297C34.1231 56.1297 34.1231 56.1297 34.1308 56.1143C34.2925 55.8602 34.4619 55.6061 34.6313 55.3674C34.7006 55.275 34.7622 55.1826 34.8315 55.0902C34.9393 54.9439 35.0471 54.7976 35.1549 54.659C35.1857 54.6205 35.2088 54.5897 35.2396 54.5512C35.3089 54.4588 35.3859 54.3664 35.4629 54.274C35.5399 54.1816 35.6169 54.0969 35.6939 54.0045C35.8325 53.8428 35.9788 53.6734 36.1251 53.5117C36.2868 53.3346 36.4485 53.1652 36.6179 53.0035C36.7026 52.9111 36.795 52.8264 36.8797 52.7494C37.026 52.6031 37.18 52.4645 37.334 52.3259C37.5265 52.1488 37.7113 51.9871 37.9115 51.8254C38.0963 51.6637 38.2811 51.5174 38.4659 51.3788C38.7585 51.1478 39.0588 50.9322 39.3668 50.7243C39.567 50.5857 39.7672 50.4548 39.9674 50.3316C40.2831 50.1314 40.5988 49.9389 40.9299 49.7541C40.9299 49.7541 40.9376 49.7541 40.9453 49.7464C40.9684 49.731 40.9992 49.7156 41.0223 49.7079C41.03 49.7079 41.0377 49.6925 41.0454 49.6925C41.0916 49.6694 41.1378 49.6386 41.1917 49.6155C41.3996 49.5077 41.6075 49.3999 41.8231 49.2998H41.8385C42.1619 49.1381 42.5007 48.9841 42.8318 48.8378C42.8472 48.8378 42.8549 48.8378 42.8703 48.8378C43.0551 48.7608 43.2322 48.6915 43.4247 48.6222C43.5402 48.576 43.6557 48.5298 43.7712 48.4913C43.8482 48.4605 43.9252 48.4374 44.0022 48.4066C44.3872 48.2757 44.7799 48.1525 45.1726 48.0447H45.1803C45.2188 48.191 45.265 48.3373 45.2958 48.4836C45.6346 49.7849 45.804 51.1324 45.8271 52.4722C45.8348 52.8341 45.8271 53.2037 45.804 53.5733C45.6808 56.2298 44.9339 58.8632 43.6095 61.2733C43.5248 61.435 43.4324 61.5967 43.34 61.7584C43.3015 61.82 43.2707 61.8816 43.2322 61.9432C43.1706 62.0433 43.109 62.1434 43.0474 62.2435C42.9396 62.4206 42.8241 62.59 42.7009 62.7671C41.9848 63.822 41.1609 64.7845 40.2369 65.67L40.3678 65.7932L41.0531 66.44C41.7384 65.7778 42.3698 65.0771 42.9396 64.3302C43.3323 63.8297 43.6942 63.3138 44.0253 62.7748C44.1254 62.6131 44.2255 62.4514 44.3179 62.2897C44.418 62.128 44.5104 61.9663 44.5951 61.8046C45.9734 59.3021 46.7588 56.5686 46.9282 53.8043C46.9513 53.4347 46.9667 53.0651 46.959 52.6955C46.9667 51.2787 46.7973 49.8542 46.4662 48.4605L46.4739 48.4451Z" fill="#209BBB"/>
<path d="M62.2358 60.7266C61.897 60.9114 61.5659 61.1193 61.2348 61.3272C58.7862 62.9057 56.6764 64.9924 55.1287 67.4487C55.0286 67.6104 54.9285 67.7644 54.8361 67.9261C54.736 68.0878 54.6436 68.2495 54.5589 68.4112C53.8197 69.751 53.2499 71.137 52.8649 72.5615L52.8803 72.5461L54.659 70.7828C54.9208 70.1514 55.2134 69.5431 55.5445 68.9348C55.6369 68.7654 55.7293 68.6037 55.8217 68.4497C55.9218 68.288 56.0142 68.1263 56.1143 67.9723C57.4002 65.9472 59.0788 64.1916 61.0192 62.7979C61.3503 62.5592 61.6968 62.3282 62.0433 62.1126C62.3667 61.9047 62.6978 61.7199 63.0289 61.5351C63.0828 61.5043 63.1367 61.4812 63.1906 61.4504C63.7527 61.1501 64.3225 60.8883 64.9154 60.6419L66.7172 58.8555C65.1464 59.2944 63.6372 59.9335 62.2281 60.7343L62.2358 60.7266Z" fill="#209BBB"/>
<path d="M59.8949 49.3152L59.6023 49.808L55.8832 56.0912L55.3134 57.0537L50.601 65.0155L50.0389 65.978L46.6432 71.6991L45.8116 70.9137L49.0456 65.4467L49.6231 64.4765L54.3278 56.5224L54.9053 55.5599L58.6167 49.2767L58.9093 48.7839L59.8949 49.3152Z" fill="#209BBB"/>
<path d="M56.1143 67.9723L57.0075 68.4497L56.1759 69.2813L55.5368 68.9348L54.5512 68.4035L50.039 65.978L49.0457 65.4467L44.033 62.7517L43.0474 62.2281L33.561 57.123L33.5456 57.1153L33.0297 56.8458L33.6072 55.8833L34.1077 56.1451V56.1528L34.1308 56.1605L43.6172 61.2579L44.6105 61.7892L49.6232 64.4765L50.6011 65.0155L55.1287 67.441L56.1143 67.9723Z" fill="#209BBB"/>
<path d="M63.0288 61.5274C63.0288 61.5274 63.0057 61.5043 62.9903 61.4889C62.7439 61.2271 62.4821 60.973 62.228 60.7189C60.7727 59.3252 59.071 58.0008 57.146 56.8227C56.7302 56.5686 56.3144 56.3222 55.8755 56.0835C55.7215 55.9834 55.5521 55.8987 55.3827 55.8063C55.2441 55.7293 55.1055 55.66 54.9669 55.5907L54.8899 55.5522C54.6974 55.4521 54.5126 55.3597 54.3201 55.2596C53.5655 54.89 52.8032 54.5435 52.0409 54.2355C51.8946 54.1739 51.7483 54.12 51.5943 54.0584C50.601 53.6734 49.6 53.3423 48.6221 53.0728C48.06 52.9188 47.5056 52.7802 46.9512 52.6647C46.5739 52.5877 46.1889 52.503 45.8116 52.4491C44.4256 52.2104 43.0781 52.0949 41.8076 52.1026C40.3446 52.1103 38.9817 52.2874 37.7651 52.6185C37.4956 52.6878 37.2338 52.7725 36.9874 52.8649C36.8565 52.9111 36.7333 52.9573 36.6024 53.0112C36.5947 53.0112 36.587 53.0189 36.587 53.0189C35.8016 53.3346 35.0932 53.7273 34.4849 54.2124C34.431 54.2509 34.3771 54.2971 34.3232 54.3356C34.2154 54.428 34.1076 54.5204 33.9998 54.6205C33.7842 54.8207 33.584 55.0363 33.3992 55.2673C33.1836 55.5291 32.9911 55.8063 32.8217 56.0912C32.7832 56.1605 32.737 56.2375 32.6985 56.3068C32.4906 56.6918 32.3289 57.0922 32.2057 57.5003C32.1595 57.6466 32.121 57.7929 32.0902 57.9392L32.7832 58.6014L33.0758 58.8786C33.1297 58.2934 33.276 57.7313 33.507 57.2C33.5224 57.1692 33.5301 57.1384 33.5455 57.1076C33.584 57.0229 33.6225 56.9382 33.661 56.8535C33.7072 56.7688 33.7534 56.6918 33.7996 56.6148C33.8458 56.5378 33.892 56.4531 33.9459 56.3761C33.9998 56.2991 34.0537 56.2221 34.1153 56.1451C34.3155 55.8756 34.5388 55.6292 34.7929 55.3905C34.8776 55.3135 34.9623 55.2365 35.0547 55.1672C35.0701 55.1518 35.0932 55.1364 35.1086 55.1287C35.432 54.8592 35.7939 54.6205 36.1866 54.4126C37.8575 53.504 40.0751 53.1036 42.5699 53.196C43.6017 53.2345 44.6797 53.35 45.7962 53.5579C46.1658 53.6272 46.5431 53.6965 46.9281 53.7812C47.3824 53.889 47.8444 54.0045 48.3141 54.1277C49.1688 54.3741 50.0389 54.659 50.9013 54.9901C51.1708 55.0979 51.448 55.2057 51.7252 55.3135C52.4875 55.6215 53.2421 55.968 53.9967 56.3453C54.0891 56.3915 54.1892 56.4377 54.2816 56.4916L54.3201 56.507C54.4818 56.584 54.6512 56.6687 54.8129 56.7611C54.9746 56.8458 55.1517 56.9382 55.298 57.0306C55.6984 57.2462 56.0757 57.4772 56.4607 57.7082C58.2548 58.8016 59.8564 60.0182 61.2193 61.2964C61.458 61.512 61.689 61.7276 61.9046 61.9509C61.9508 61.9894 61.9893 62.0356 62.0278 62.0818C62.2588 62.3128 62.4821 62.5515 62.6977 62.7825L63.4831 62.0048C63.3368 61.8354 63.1751 61.666 63.0134 61.4966L63.0288 61.5274Z" fill="#209BBB"/>
</g>
<path d="M49.4615 74.1246C49.4615 74.1246 49.4307 74.0553 49.3999 74.0245L49.2921 74.1323C49.2921 74.1323 49.2844 74.1246 49.2613 74.1092C49.2459 74.0938 49.2228 74.0784 49.1997 74.063C49.1766 74.0476 49.1458 74.0399 49.1227 74.0322C49.0919 74.0322 49.0688 74.0322 49.0457 74.0476L48.6453 74.4403L48.5683 74.371L47.3979 73.2622L46.9436 72.831C46.9128 72.8002 46.8743 72.7848 46.8358 72.7925C46.7973 72.7925 46.7511 72.8156 46.7049 72.8618L46.6048 72.9542C46.5355 73.0235 46.4816 73.0851 46.4277 73.139C46.3815 73.1929 46.3353 73.2468 46.3122 73.3007C46.3122 73.3084 46.3045 73.3161 46.2968 73.3315L46.2814 73.3931C46.2814 73.3931 46.2814 73.4316 46.2814 73.447C46.2814 73.4932 46.3122 73.5394 46.3584 73.5856C46.3892 73.6164 46.42 73.6318 46.4508 73.6395C46.4893 73.6395 46.5201 73.6395 46.5586 73.6395C46.5971 73.6318 46.6279 73.6164 46.6664 73.5933C46.7049 73.5702 46.7357 73.5394 46.7742 73.5163L47.0283 73.755L47.0822 73.8089L48.2218 74.8869L47.8291 75.2719C47.8291 75.2719 47.7906 75.3181 47.7752 75.3489C47.7598 75.3797 47.7444 75.4105 47.7444 75.4413C47.7444 75.4721 47.7444 75.5029 47.7521 75.5414C47.7598 75.5722 47.7829 75.603 47.8137 75.6338C47.8522 75.6646 47.883 75.6877 47.9138 75.6954C47.9523 75.7031 47.9831 75.7031 48.0139 75.6954C48.0524 75.6954 48.0832 75.68 48.1063 75.6646C48.1371 75.6492 48.1602 75.6261 48.1833 75.6107L48.2218 75.5722L49.3999 74.4095C49.3999 74.4095 49.4307 74.371 49.4461 74.3402C49.4615 74.3094 49.4692 74.2863 49.4769 74.2478C49.4846 74.217 49.4769 74.1785 49.4769 74.1477L49.4615 74.1246Z" fill="#666666"/>
<path d="M51.7176 71.8993C51.7176 71.8993 51.6868 71.8377 51.656 71.8069C51.6175 71.7838 51.5867 71.7607 51.5482 71.753C51.5097 71.753 51.4789 71.753 51.4404 71.753C51.4019 71.753 51.3711 71.7761 51.3403 71.7915C51.3018 71.8069 51.2787 71.83 51.2479 71.8608L50.9245 72.1842L50.193 72.908L49.9928 72.7232C49.9004 72.6385 49.8465 72.5692 49.8157 72.5076C49.7849 72.446 49.7772 72.3844 49.8003 72.3228C49.8234 72.2612 49.8696 72.1842 49.9389 72.1072C50.0082 72.0302 50.1006 71.9301 50.2161 71.8223C50.3393 71.6991 50.4394 71.5759 50.5087 71.4681C50.578 71.3603 50.6088 71.2525 50.6165 71.1447C50.6165 71.0446 50.6011 70.9445 50.5395 70.8367C50.4856 70.7289 50.3932 70.6211 50.27 70.5133H50.2623C50.1468 70.3978 50.039 70.3285 49.9235 70.2746C49.8773 70.2592 49.8311 70.2438 49.7849 70.2361C49.7464 70.2361 49.7079 70.2284 49.6694 70.2361C49.6386 70.2361 49.6155 70.2361 49.577 70.2361C49.4538 70.2515 49.3306 70.3054 49.1997 70.3978C49.1304 70.444 49.0534 70.5056 48.9687 70.5749C48.8994 70.6288 48.8378 70.6904 48.7685 70.7674C48.7069 70.829 48.653 70.8829 48.5991 70.9445C48.5606 70.983 48.5221 71.0292 48.4913 71.0677C48.4066 71.1678 48.3373 71.2602 48.2911 71.3526C48.2372 71.445 48.2141 71.5297 48.1987 71.599C48.191 71.676 48.2064 71.7376 48.2526 71.7838C48.3065 71.8377 48.3604 71.8608 48.4297 71.8685C48.499 71.8685 48.5529 71.8454 48.6068 71.7915L48.6222 71.7761C48.6684 71.7299 48.6992 71.6837 48.7146 71.6452C48.73 71.599 48.7531 71.5528 48.7839 71.4989C48.807 71.445 48.8455 71.3834 48.8994 71.3141C48.9379 71.2679 48.9764 71.2217 49.0303 71.1678C49.0457 71.1447 49.0688 71.1216 49.0919 71.0985C49.1843 71.0061 49.269 70.9368 49.3383 70.8829C49.4076 70.829 49.4769 70.7982 49.5308 70.7905C49.5539 70.7905 49.5847 70.7905 49.6078 70.7905C49.6386 70.7905 49.6617 70.7905 49.6925 70.8059C49.7464 70.829 49.8003 70.8675 49.8542 70.9214V70.9368C49.9158 70.983 49.9543 71.0292 49.9774 71.0754C50.0005 71.1216 50.0159 71.1601 50.0159 71.2063C50.0159 71.2448 50.0005 71.291 49.9697 71.3372C49.9389 71.3834 49.9004 71.4296 49.8388 71.4912L49.7695 71.5605L49.5385 71.7992C49.4307 71.907 49.3537 72.0148 49.2844 72.1149C49.2228 72.215 49.1843 72.3228 49.1766 72.4229C49.1766 72.4537 49.1766 72.4768 49.1766 72.5076C49.1766 72.5846 49.1997 72.6539 49.2382 72.7309C49.2844 72.8387 49.3691 72.9465 49.4923 73.0543L49.9312 73.4701C49.9928 73.524 50.0467 73.5548 50.116 73.5548C50.1776 73.5548 50.2623 73.5086 50.3547 73.4162L50.5318 73.2391L51.3634 72.4152L51.5944 72.1842C51.5944 72.1842 51.6483 72.1226 51.6637 72.0918C51.6791 72.061 51.7022 72.0225 51.7022 71.9917C51.7099 71.9532 51.7022 71.9224 51.7022 71.8839L51.7176 71.8993Z" fill="#666666"/>
<path d="M53.7735 69.4276C53.7196 69.3198 53.6195 69.2043 53.4963 69.0888C53.4193 69.0195 53.35 68.9579 53.2961 68.9117C53.2345 68.8732 53.1806 68.8347 53.1344 68.8116C53.0805 68.7885 53.042 68.7808 53.0035 68.7731C52.965 68.7654 52.9342 68.7731 52.9034 68.7731C52.9034 68.7346 52.9034 68.6961 52.888 68.6499C52.8726 68.6114 52.8572 68.5652 52.8341 68.519C52.8033 68.4728 52.7725 68.4266 52.7263 68.3727C52.6801 68.3188 52.6339 68.2649 52.5646 68.2033C52.4337 68.0878 52.3182 68.0031 52.2104 67.9569C52.1026 67.9107 51.9948 67.903 51.8793 67.9261C51.7638 67.9492 51.6483 68.0031 51.5174 68.1032C51.3942 68.1956 51.2479 68.3188 51.0862 68.4728C50.9553 68.596 50.8552 68.7192 50.7782 68.8193C50.7012 68.9271 50.6473 69.0118 50.6165 69.0965C50.5857 69.1812 50.578 69.2505 50.5857 69.3198C50.5934 69.3814 50.6242 69.443 50.6704 69.4969C50.7089 69.5354 50.7705 69.5585 50.8398 69.5585C50.9091 69.5585 50.9707 69.52 51.0246 69.4738L51.04 69.4584C51.04 69.4584 51.0862 69.4122 51.0939 69.3891C51.1093 69.3737 51.117 69.3506 51.1324 69.3275C51.1324 69.3044 51.1478 69.2813 51.1478 69.2582C51.1478 69.2351 51.1632 69.212 51.1709 69.1812C51.1863 69.1273 51.2248 69.0657 51.2787 68.9964C51.3326 68.9271 51.3865 68.8655 51.4481 68.8039L51.4635 68.7885C51.5559 68.6961 51.6329 68.6345 51.6945 68.5883C51.7638 68.5498 51.8177 68.519 51.8639 68.519C51.9178 68.519 51.9717 68.519 52.0179 68.5575C52.0641 68.5883 52.1103 68.6345 52.1719 68.6807C52.2258 68.7346 52.2643 68.7731 52.2874 68.8116C52.3105 68.8501 52.3259 68.8886 52.3259 68.9194C52.3259 68.9579 52.3259 68.9887 52.3028 69.0195C52.2874 69.0503 52.2643 69.0811 52.2258 69.1196L51.7946 69.5431C51.7407 69.597 51.7022 69.6509 51.6945 69.7202C51.6791 69.7895 51.6945 69.8511 51.7638 69.9127C51.8023 69.9512 51.8331 69.9666 51.8639 69.9743C51.8947 69.9743 51.9255 69.9743 51.964 69.9743C51.9948 69.9743 52.0256 69.9589 52.0564 69.9358C52.0872 69.9127 52.1103 69.8896 52.1411 69.8665L52.6031 69.4199C52.6724 69.3506 52.7417 69.3198 52.8033 69.3352C52.8726 69.3506 52.9573 69.4045 53.0574 69.4969C53.119 69.5508 53.1575 69.6047 53.1883 69.6509C53.2191 69.6971 53.2268 69.751 53.2268 69.8126C53.2268 69.8665 53.196 69.9281 53.1498 69.9974C53.1036 70.0667 53.042 70.1437 52.9573 70.2284L52.9265 70.2592C52.8572 70.3285 52.7879 70.3901 52.734 70.4286C52.6878 70.4671 52.6416 70.5056 52.6108 70.521C52.5723 70.5441 52.5415 70.5595 52.5184 70.5672C52.4953 70.5749 52.4645 70.5826 52.4414 70.5903C52.426 70.5903 52.4106 70.5903 52.3952 70.5903C52.3798 70.5903 52.3644 70.5903 52.349 70.6057C52.3336 70.6057 52.3105 70.6211 52.2874 70.6365C52.272 70.6519 52.2412 70.675 52.2104 70.7058C52.1642 70.7597 52.1411 70.8136 52.1334 70.8829C52.1334 70.9522 52.1488 71.0138 52.2027 71.0677C52.2566 71.1216 52.3105 71.1447 52.3721 71.1524C52.426 71.1524 52.4876 71.1524 52.5569 71.137C52.6185 71.1139 52.6801 71.0831 52.7494 71.0446C52.811 71.0061 52.8726 70.9599 52.9342 70.9137C52.9958 70.8675 53.0497 70.8213 53.1113 70.7674C53.1652 70.7135 53.2114 70.6673 53.2576 70.6211L53.2884 70.5903C53.4655 70.4209 53.5964 70.2669 53.6888 70.1283C53.7812 69.9974 53.8351 69.8742 53.8505 69.751C53.8659 69.6432 53.8505 69.5277 53.7889 69.4199L53.7735 69.4276Z" fill="#666666"/>
<path d="M56.1604 67.4949C56.1604 67.4949 56.1296 67.441 56.1142 67.4256L55.3827 66.7403L55.452 66.671C55.5059 66.6171 55.5367 66.5555 55.5521 66.4862C55.5675 66.4169 55.5367 66.3553 55.4751 66.2937C55.4135 66.2398 55.3519 66.2167 55.2826 66.2321C55.2133 66.2475 55.1594 66.286 55.0978 66.3399H55.0824L55.0362 66.4092L54.2662 65.6854C54.22 65.6392 54.1584 65.6161 54.0814 65.6238C54.0121 65.6238 53.9351 65.6623 53.8658 65.7316C53.7965 65.8009 53.758 65.8625 53.758 65.9318C53.758 66.0011 53.7811 66.055 53.835 66.1089L54.5973 66.8327L54.0583 67.364L53.3037 66.6479C53.2498 66.594 53.1805 66.5709 53.1112 66.5709C53.0419 66.5709 52.9726 66.6094 52.8956 66.6864C52.8571 66.7249 52.834 66.7557 52.8186 66.8019C52.8109 66.8404 52.8032 66.8712 52.8032 66.9097C52.8032 66.9482 52.8186 66.979 52.8263 67.0021C52.8417 67.0329 52.8648 67.056 52.8802 67.0714L53.8735 68.0031C53.912 68.0416 53.9505 68.057 53.9813 68.0647C54.0121 68.0647 54.0583 68.0416 54.1045 67.9877L54.9361 67.1638L55.6676 67.8491C55.6676 67.8491 55.7138 67.8799 55.7369 67.8953C55.7677 67.903 55.7985 67.9107 55.8293 67.9107C55.8678 67.9107 55.8986 67.9107 55.9371 67.8876C55.9756 67.8722 56.0141 67.8491 56.0526 67.8106C56.0911 67.7721 56.1142 67.7336 56.1296 67.6951C56.145 67.6566 56.1527 67.6258 56.1527 67.5873C56.1527 67.5488 56.145 67.5257 56.1373 67.4949H56.1604Z" fill="#666666"/>
<path d="M60.0028 63.2676C59.9489 63.1598 59.8565 63.052 59.7333 62.9288C59.6101 62.8133 59.5023 62.7286 59.3945 62.667C59.2944 62.6131 59.1943 62.5823 59.1019 62.59C59.0018 62.59 58.9094 62.6285 58.8093 62.6901C58.7092 62.7517 58.5937 62.8364 58.4782 62.9596L57.9161 63.5217L57.3694 63.0058L58.2164 62.1665C58.2164 62.1665 58.278 62.1049 58.3088 62.0741C58.3319 62.0433 58.355 62.0125 58.3627 61.9817C58.3781 61.9509 58.3781 61.9201 58.3627 61.8816C58.3473 61.8431 58.3242 61.8123 58.2857 61.7661C58.2472 61.7276 58.2087 61.7045 58.1702 61.7045C58.1317 61.6968 58.0932 61.7045 58.0547 61.7122C58.0162 61.7276 57.9777 61.743 57.9469 61.7661C57.9161 61.7892 57.8853 61.8123 57.8622 61.8354C57.8468 61.8508 57.8237 61.8739 57.7698 61.9278L57.6004 62.0972C57.5311 62.1588 57.4618 62.2358 57.3848 62.3128C57.3078 62.3898 57.2308 62.4668 57.1615 62.5361C57.0922 62.6054 57.0229 62.6747 56.969 62.7286C56.9074 62.7825 56.8689 62.8287 56.8381 62.8518C56.7457 62.9442 56.6995 63.0212 56.6995 63.0828C56.6995 63.1444 56.7303 63.206 56.7919 63.2599L57.6004 64.0222C57.6543 64.0761 57.7005 64.1146 57.739 64.1377C57.7775 64.1608 57.816 64.1762 57.8622 64.1762C57.9007 64.1762 57.9392 64.1531 57.9854 64.1223C58.0316 64.0915 58.0855 64.0453 58.1471 63.9837L58.8709 63.2676C58.9402 63.1983 59.0095 63.1675 59.0711 63.1829C59.1327 63.1983 59.2174 63.2522 59.3175 63.3446C59.3714 63.3985 59.4176 63.4447 59.4407 63.4909C59.4715 63.5371 59.4792 63.591 59.4792 63.6526C59.4792 63.7065 59.4561 63.7681 59.4099 63.8297C59.3714 63.899 59.3098 63.976 59.2251 64.0607C59.1404 64.1454 59.0634 64.2147 59.0095 64.2609C58.9556 64.3071 58.9017 64.3379 58.8632 64.3687C58.8247 64.3918 58.7862 64.4072 58.7631 64.4149C58.7323 64.4149 58.7092 64.4303 58.6784 64.438C58.6553 64.438 58.6245 64.4534 58.5937 64.4688C58.5629 64.4842 58.5244 64.5073 58.4859 64.5458H58.4782C58.432 64.5997 58.4089 64.6536 58.4012 64.7306C58.4012 64.7999 58.4166 64.8538 58.4705 64.9077C58.5475 64.977 58.6245 65.0001 58.7092 64.9924C58.8016 64.9924 58.8863 64.9539 58.971 64.9077C59.0634 64.8615 59.1404 64.7999 59.2251 64.7229C59.3021 64.6536 59.3791 64.5843 59.4484 64.5227L59.5408 64.4303C59.7179 64.2609 59.8488 64.1069 59.9412 63.976C60.0336 63.8451 60.0875 63.7219 60.1029 63.6064C60.1183 63.4986 60.1029 63.3831 60.0336 63.283L60.0028 63.2676Z" fill="#666666"/>
<path d="M62.3282 60.896C62.2743 60.7882 62.1896 60.6881 62.0818 60.588C61.974 60.4802 61.8585 60.4032 61.7507 60.3493C61.6429 60.2954 61.5274 60.2646 61.4119 60.2646C61.2964 60.2646 61.1732 60.3031 61.0577 60.3647C60.9345 60.434 60.8036 60.5341 60.665 60.6727C60.6111 60.7266 60.5495 60.7882 60.4725 60.8729C60.3955 60.9499 60.3108 61.0423 60.2184 61.1578L59.5177 60.4879C59.4638 60.4417 59.4099 60.4186 59.3406 60.4186C59.2713 60.4186 59.202 60.4571 59.125 60.5264C59.0865 60.5649 59.0557 60.6034 59.0403 60.6419C59.0249 60.6804 59.0172 60.7189 59.0172 60.7497C59.0172 60.7882 59.0172 60.8113 59.0326 60.8421C59.048 60.8729 59.0711 60.896 59.0865 60.9114L60.5033 62.2512C60.6188 62.359 60.7343 62.4283 60.8498 62.4668C60.9653 62.4976 61.0808 62.5053 61.204 62.4745C61.3272 62.4514 61.4427 62.4052 61.5659 62.3205C61.6891 62.2435 61.8046 62.1511 61.9278 62.0356C62.0818 61.8816 62.1973 61.7353 62.2743 61.6044C62.3513 61.4735 62.3898 61.3503 62.3975 61.2348C62.3975 61.1193 62.3821 61.0038 62.3282 60.896ZM61.7507 61.4966C61.7045 61.5505 61.6506 61.6198 61.5813 61.6814C61.512 61.7507 61.435 61.8123 61.3734 61.8431C61.3118 61.8816 61.2502 61.897 61.1963 61.9047C61.1424 61.9047 61.0808 61.897 61.0269 61.8662C60.973 61.8354 60.9191 61.7969 60.8575 61.743L60.5726 61.4812C60.5726 61.4812 60.6188 61.4196 60.6342 61.3965C60.6496 61.3734 60.6727 61.3426 60.6958 61.3195C60.7189 61.2887 60.7497 61.2656 60.7882 61.2271C60.8267 61.1886 60.8806 61.1347 60.9345 61.0808C61.0115 61.0038 61.0808 60.9422 61.1424 60.9037C61.204 60.8575 61.2579 60.8344 61.3118 60.8267C61.3657 60.8267 61.4196 60.8267 61.4735 60.8575C61.5274 60.8806 61.589 60.9268 61.6583 60.9884C61.7276 61.0577 61.7738 61.1116 61.8046 61.1732C61.8354 61.2271 61.8431 61.281 61.8354 61.3426C61.82 61.3965 61.7969 61.4504 61.7584 61.5043L61.7507 61.4966Z" fill="#666666"/>
<path d="M64.4611 59.1635L62.7594 57.5619C62.6978 57.508 62.6439 57.4695 62.5977 57.4387C62.5515 57.4079 62.5053 57.4002 62.4514 57.4002C62.3975 57.4002 62.3513 57.4233 62.2897 57.4618C62.2358 57.5003 62.1665 57.5619 62.0895 57.6389L62.0587 57.6697L61.2502 58.4705L60.9961 58.7246C60.9422 58.7785 60.9114 58.8324 60.896 58.9094C60.8883 58.9787 60.9114 59.0403 60.9653 59.0942C61.0269 59.1558 61.0962 59.1789 61.1655 59.1635C61.2348 59.1481 61.2964 59.1096 61.3503 59.0557L61.589 58.817L62.3821 58.0316L62.7363 58.3704L62.7594 58.3935L64.0299 59.587C64.0838 59.6409 64.1454 59.664 64.2147 59.664C64.284 59.664 64.3533 59.6255 64.4303 59.5562C64.4919 59.4946 64.5304 59.4253 64.5304 59.356C64.5304 59.2867 64.5073 59.2251 64.4534 59.1712L64.4611 59.1635Z" fill="#666666"/>
<path d="M66.6556 56.6841C66.6017 56.5763 66.5093 56.4685 66.3784 56.3453C66.2552 56.2298 66.1397 56.1451 66.0396 56.0835C65.9395 56.0296 65.8394 56.0065 65.747 56.0065C65.6469 56.0065 65.5468 56.045 65.4544 56.1066C65.3543 56.1682 65.2388 56.2606 65.1233 56.3761L64.5535 56.9382L64.0068 56.4223L64.8615 55.583C64.8615 55.583 64.9231 55.5214 64.9539 55.4906C64.977 55.4598 65.0001 55.429 65.0078 55.3982C65.0232 55.3674 65.0232 55.3366 65.0078 55.2981C64.9924 55.2596 64.9693 55.2211 64.9308 55.1826C64.8923 55.1441 64.8538 55.121 64.8153 55.121C64.7768 55.121 64.7383 55.121 64.6921 55.1364C64.6536 55.1518 64.6228 55.1672 64.5843 55.1903C64.5535 55.2134 64.5227 55.2442 64.4996 55.2596C64.4842 55.275 64.4611 55.3058 64.4072 55.352C64.361 55.3982 64.2994 55.4598 64.2301 55.5214C64.1608 55.5907 64.0915 55.66 64.0145 55.737C63.9375 55.814 63.8605 55.891 63.7912 55.9603C63.7219 56.0296 63.6526 56.0912 63.5987 56.1528C63.5371 56.2144 63.4986 56.2529 63.4678 56.2837C63.3754 56.3761 63.3292 56.4531 63.3292 56.5147C63.3292 56.5763 63.36 56.6379 63.4216 56.6918L64.2301 57.4541C64.284 57.508 64.3302 57.5465 64.3687 57.5619C64.4072 57.5927 64.4457 57.6004 64.4919 57.6004C64.5304 57.6004 64.5689 57.585 64.6151 57.5465C64.6613 57.5157 64.7152 57.4695 64.7768 57.4079L65.5006 56.6918C65.5699 56.6225 65.6392 56.5917 65.7008 56.6071C65.7701 56.6225 65.8471 56.6764 65.9472 56.7688C66.0011 56.8227 66.0396 56.8766 66.0704 56.9228C66.1012 56.969 66.1089 57.0229 66.1089 57.0768C66.1089 57.1307 66.0781 57.1923 66.0319 57.2616C65.9934 57.3309 65.9318 57.4079 65.8471 57.4926C65.7624 57.5773 65.6854 57.6466 65.6315 57.6928C65.5776 57.7467 65.5237 57.7775 65.4852 57.8006C65.4467 57.8237 65.4159 57.8391 65.3851 57.8468C65.3543 57.8468 65.3312 57.8622 65.3081 57.8622C65.285 57.8699 65.2542 57.8776 65.2234 57.9007C65.1926 57.9161 65.1541 57.9392 65.1156 57.9777C65.0694 58.0316 65.0386 58.0855 65.0386 58.1548C65.0386 58.2241 65.054 58.2857 65.1079 58.3319C65.1849 58.4012 65.2696 58.4243 65.3543 58.4166C65.439 58.4166 65.5237 58.3781 65.6084 58.3319C65.7008 58.2857 65.7778 58.2241 65.8625 58.1548C65.9395 58.0855 66.0165 58.0162 66.0858 57.9469L66.1782 57.8545C66.3553 57.6851 66.4862 57.5311 66.5786 57.4002C66.671 57.2616 66.7249 57.1461 66.7403 57.0306C66.7557 56.9151 66.7403 56.8073 66.6787 56.6995L66.6556 56.6841Z" fill="#666666"/>
<path d="M70.5363 52.8341C70.4824 52.7417 70.4054 52.657 70.313 52.5723C70.2283 52.4953 70.159 52.426 70.1051 52.3875C70.0512 52.3413 69.9973 52.3182 69.9434 52.3028C69.8895 52.2874 69.8356 52.2874 69.7663 52.3028C69.697 52.3182 69.6123 52.349 69.5045 52.3952C69.5507 52.2951 69.5815 52.2181 69.6046 52.1565C69.62 52.0949 69.6277 52.041 69.6046 51.9871C69.5892 51.9332 69.5584 51.8793 69.5045 51.8254C69.4506 51.7715 69.3813 51.7022 69.2889 51.6175C69.1811 51.5097 69.0733 51.4404 68.9655 51.3942C68.8577 51.3557 68.7499 51.3403 68.6421 51.3634C68.5343 51.3865 68.4111 51.4327 68.2802 51.5251C68.157 51.6098 68.0107 51.7253 67.8644 51.8793C67.7104 52.0256 67.5949 52.1642 67.5102 52.2874C67.4255 52.4106 67.3793 52.5261 67.3562 52.6339C67.3408 52.7417 67.3562 52.8495 67.4024 52.9496C67.4563 53.0497 67.5333 53.1575 67.6488 53.2653C67.7412 53.35 67.8182 53.4193 67.8721 53.4655C67.926 53.5117 67.9799 53.5425 68.0338 53.5502C68.0877 53.5656 68.1493 53.5579 68.2109 53.5348C68.2802 53.5194 68.3649 53.4809 68.465 53.427C68.4265 53.5425 68.3957 53.6349 68.3803 53.7042C68.3726 53.7504 68.3649 53.7966 68.3726 53.8274C68.3726 53.8428 68.3726 53.8659 68.3726 53.8813C68.388 53.9352 68.4111 53.9814 68.4573 54.0276C68.5035 54.0738 68.5651 54.1354 68.6344 54.2047C68.7268 54.2894 68.8192 54.351 68.9039 54.4049C68.9578 54.4357 69.0117 54.4511 69.0733 54.4588C69.1195 54.4588 69.1657 54.4588 69.2119 54.4588C69.2119 54.4588 69.2273 54.4588 69.235 54.4588C69.3428 54.4434 69.4583 54.4049 69.5815 54.3356C69.7201 54.2586 69.8741 54.1354 70.0435 53.966C70.082 53.9275 70.1205 53.889 70.159 53.8505C70.2822 53.7196 70.3746 53.5964 70.4439 53.4963C70.5286 53.3577 70.5748 53.2422 70.5825 53.1267C70.5825 53.0189 70.5671 52.9188 70.5132 52.8264L70.5363 52.8341ZM68.3495 52.9881C68.3033 52.9881 68.2571 52.9881 68.2263 52.9573C68.1878 52.9342 68.1416 52.888 68.0877 52.8418C68.0338 52.7879 67.9953 52.734 67.9722 52.6878C67.9568 52.6416 67.9568 52.5954 67.9645 52.5415C67.9799 52.4953 68.003 52.4414 68.0569 52.3875C68.1031 52.3336 68.157 52.272 68.2263 52.2104C68.2879 52.1488 68.3495 52.0949 68.3957 52.0487C68.4496 52.0025 68.5035 51.9717 68.5497 51.9486C68.5959 51.9255 68.6498 51.9178 68.696 51.9332C68.7422 51.9409 68.7884 51.9717 68.8423 52.0102C68.9116 52.0795 68.9655 52.1257 68.9963 52.1719C69.0348 52.2104 69.0425 52.2566 69.0425 52.3028C69.0425 52.349 69.0271 52.4029 68.9886 52.4722C68.9501 52.5415 68.8962 52.6339 68.8192 52.7494C68.696 52.8264 68.5959 52.8803 68.5266 52.9265C68.4573 52.965 68.4034 52.9804 68.3572 52.9958L68.3495 52.9881ZM69.3505 53.8813C69.2966 53.8967 69.2581 53.8967 69.2119 53.8813C69.1888 53.8736 69.1657 53.8582 69.1426 53.8428C69.1272 53.8274 69.1041 53.812 69.081 53.7966C69.081 53.7966 69.0656 53.7735 69.0425 53.7427C69.0271 53.7119 69.0194 53.6734 69.0117 53.6195C69.0117 53.5656 69.0117 53.4886 69.0271 53.4039C69.0425 53.3115 69.081 53.2037 69.1349 53.0805C69.2581 53.0189 69.3659 52.9727 69.4583 52.9573C69.5507 52.9419 69.62 52.9265 69.6816 52.9342C69.7432 52.9342 69.7817 52.9419 69.8125 52.9573C69.8356 52.965 69.851 52.9727 69.851 52.9727L69.8972 53.0112C69.8972 53.0112 69.9665 53.0882 69.9819 53.1267C69.9973 53.1652 69.9973 53.2191 69.9819 53.2576C69.9742 53.3038 69.9434 53.3577 69.9049 53.4193C69.8664 53.4732 69.8048 53.5425 69.7355 53.6195C69.6508 53.7042 69.5738 53.7658 69.5122 53.8197C69.4891 53.8351 69.4737 53.8505 69.4506 53.8582C69.4121 53.8813 69.3813 53.8967 69.3428 53.9044L69.3505 53.8813Z" fill="#666666"/>
<path d="M73.0697 50.7782C73.0697 50.7782 73.0389 50.7243 73.0158 50.7089L71.599 49.3691C71.4835 49.2613 71.368 49.192 71.2525 49.1535C71.137 49.115 71.0215 49.115 70.8983 49.1381C70.7828 49.1612 70.6596 49.2151 70.5441 49.2921C70.4209 49.3691 70.3054 49.4692 70.1899 49.5847C70.0282 49.7387 69.9204 49.885 69.8434 50.0159C69.7664 50.1468 69.7202 50.27 69.7125 50.3855C69.7125 50.501 69.7279 50.6165 69.7818 50.7243C69.7895 50.7397 69.8049 50.7628 69.8203 50.7782C69.8742 50.8629 69.9435 50.9476 70.0282 51.0323C70.136 51.1401 70.2515 51.2171 70.3593 51.2787C70.4671 51.3326 70.5749 51.3557 70.6904 51.3634C70.7982 51.3634 70.9214 51.3326 71.0369 51.271C71.1601 51.2094 71.291 51.1093 71.4219 50.9784L71.4758 50.9245C71.522 50.8783 71.5682 50.8321 71.6067 50.7936C71.6375 50.7628 71.6683 50.732 71.6991 50.7012C71.7607 50.6319 71.8223 50.5549 71.8916 50.4856L72.2227 50.7936L72.5923 51.1401C72.6385 51.1863 72.7001 51.2094 72.7694 51.2094C72.8387 51.2094 72.9157 51.1709 72.985 51.1016C73.0235 51.0631 73.0543 51.0246 73.0697 50.9861C73.0851 50.9476 73.0928 50.9168 73.0928 50.8783C73.0928 50.8398 73.0928 50.8167 73.0697 50.7859V50.7782ZM70.7982 50.7782C70.7982 50.7782 70.7289 50.7782 70.6904 50.7782C70.675 50.7782 70.6519 50.7628 70.6365 50.7551C70.5826 50.732 70.5287 50.6858 70.4594 50.6242C70.3901 50.5549 70.3362 50.501 70.3131 50.4394C70.29 50.3855 70.2746 50.3316 70.2823 50.27C70.29 50.2161 70.3208 50.1622 70.3593 50.1083C70.3978 50.0544 70.4594 49.9928 70.5287 49.9235C70.598 49.8542 70.6673 49.7926 70.7289 49.7618C70.7905 49.7233 70.8521 49.7079 70.9137 49.7002C70.9676 49.7002 71.0215 49.7079 71.0831 49.7387C71.137 49.7695 71.1909 49.808 71.2602 49.8619L71.5374 50.1237C71.4989 50.1622 71.4681 50.2084 71.4296 50.2546C71.3911 50.2931 71.3526 50.3316 71.3218 50.3701C71.291 50.4086 71.2602 50.4317 71.2294 50.4625C71.2063 50.4856 71.1832 50.5087 71.1755 50.5164L71.1601 50.5318C71.0831 50.6088 71.0138 50.6704 70.9599 50.7166C70.906 50.7551 70.8598 50.7705 70.8136 50.7859C70.8059 50.7859 70.7982 50.7859 70.7828 50.7859L70.7982 50.7782Z" fill="#666666"/>
<path d="M75.218 48.2757C75.1795 48.1602 75.1025 48.0524 74.9947 47.9446L73.9629 46.9744C73.8705 46.882 73.7627 46.8281 73.6549 46.7896C73.5394 46.7588 73.4316 46.7511 73.3084 46.7742C73.1852 46.7973 73.0697 46.8512 72.9465 46.9282C72.8233 47.0052 72.7001 47.1053 72.5769 47.2208C72.3151 47.4826 72.1611 47.729 72.1072 47.96C72.061 48.191 72.1303 48.3989 72.3228 48.576L73.3777 49.577C73.4778 49.6771 73.5856 49.7387 73.6934 49.7695C73.8089 49.808 73.9167 49.808 74.0399 49.7849C74.1554 49.7618 74.2786 49.7079 74.3941 49.6309C74.5173 49.5539 74.6405 49.4538 74.7714 49.3229C74.8946 49.1997 74.9947 49.0765 75.0794 48.961C75.1641 48.8378 75.218 48.7223 75.2411 48.6068C75.2642 48.4913 75.2565 48.3758 75.2257 48.268L75.218 48.2757ZM74.6405 48.653C74.602 48.7608 74.525 48.8686 74.4018 48.9918C74.2709 49.115 74.1631 49.1997 74.063 49.2305C73.9629 49.2536 73.8705 49.2305 73.7858 49.1535L72.754 48.1756C72.6847 48.114 72.6616 48.0293 72.6847 47.9215C72.7078 47.8214 72.7771 47.7059 72.9157 47.575C73.0466 47.4441 73.1698 47.3594 73.2776 47.3363C73.3854 47.3132 73.4778 47.3363 73.5548 47.4133L74.5712 48.3758C74.6559 48.4528 74.679 48.5452 74.6482 48.653H74.6405Z" fill="#666666"/>
<path d="M77.6127 46.2814C77.6127 46.2814 77.5819 46.2121 77.5511 46.1813L77.4433 46.2814C77.4433 46.2814 77.4356 46.2737 77.4125 46.2583C77.3971 46.2429 77.374 46.2275 77.3509 46.2121C77.3278 46.1967 77.297 46.189 77.2739 46.1813C77.2431 46.1813 77.22 46.1813 77.1969 46.1967L76.7965 46.5894L75.0871 44.9724C75.0871 44.9724 75.0178 44.9339 74.9793 44.9339C74.9408 44.9339 74.8946 44.9647 74.8407 45.0109L74.7483 45.1033C74.679 45.1726 74.6251 45.2265 74.5712 45.2881C74.5173 45.342 74.4788 45.3959 74.4557 45.4498C74.4249 45.5037 74.4172 45.5499 74.4172 45.5961C74.4172 45.6423 74.4557 45.6885 74.5019 45.7347C74.5327 45.7655 74.5635 45.7809 74.5943 45.7886C74.6328 45.7886 74.6636 45.7886 74.7021 45.7886C74.7406 45.7809 74.7714 45.7578 74.8099 45.7347C74.8484 45.7116 74.8792 45.6885 74.9177 45.6577L76.3653 47.0283L75.9726 47.4133C75.9726 47.4133 75.9264 47.4595 75.9187 47.4903C75.9033 47.5211 75.8879 47.5442 75.8879 47.5827C75.8879 47.6135 75.8879 47.6443 75.8956 47.6751C75.9033 47.7136 75.9264 47.7367 75.9572 47.7675C75.988 47.7983 76.0188 47.8214 76.0573 47.8214C76.0958 47.8368 76.1266 47.8368 76.1574 47.8214C76.1959 47.8214 76.2267 47.806 76.2498 47.7829C76.2806 47.7675 76.3037 47.7444 76.3268 47.7213L77.5357 46.5278C77.5357 46.5278 77.5742 46.4893 77.5819 46.4585C77.5973 46.4277 77.605 46.4046 77.6127 46.3661C77.6127 46.3353 77.6127 46.2968 77.6127 46.266V46.2814Z" fill="#666666"/>
<path d="M55.4213 37.9269C55.3982 37.8576 55.3751 37.8037 55.3597 37.7652V37.7806C55.3597 37.7806 55.3289 37.719 55.3058 37.6882C55.2827 37.6651 55.2519 37.6497 55.2134 37.6343C55.1826 37.6266 55.1441 37.6189 55.1056 37.6343C55.0671 37.6343 55.0286 37.642 54.9901 37.6574C54.9516 37.6728 54.9208 37.7036 54.89 37.7267C54.8361 37.7806 54.8053 37.8345 54.7899 37.9038C54.7745 37.9654 54.7899 38.0193 54.813 38.0732C54.8207 38.0963 54.8284 38.1271 54.8438 38.1656C54.8515 38.2041 54.8592 38.2426 54.8515 38.2811C54.8515 38.3196 54.8515 38.3658 54.8284 38.412C54.813 38.4582 54.7822 38.5044 54.736 38.5429C54.6821 38.5968 54.6282 38.6353 54.5512 38.6661C54.4819 38.7046 54.3972 38.7123 54.2971 38.7046C54.2047 38.6969 54.0892 38.6507 53.9583 38.5891C53.8351 38.5198 53.6811 38.4043 53.5117 38.2426L53.4809 38.2118C53.2268 37.9731 53.0805 37.7575 53.042 37.5573C52.9958 37.3648 53.042 37.2031 53.1652 37.0876C53.2114 37.0414 53.2653 37.0029 53.3269 36.9875C53.3808 36.9721 53.4347 36.9644 53.4732 36.9721C53.4732 37.0106 53.4963 37.0414 53.5271 37.0645L53.6503 37.18C53.6888 37.2185 53.7427 37.2339 53.7966 37.2185C53.8505 37.2031 53.9044 37.18 53.9429 37.1415L54.197 36.8951C54.2894 36.795 54.2971 36.6949 54.2201 36.6179C54.2201 36.6179 54.1893 36.5871 54.1816 36.5794C54.1816 36.5717 54.1662 36.564 54.1585 36.5563L54.1431 36.5409C54.1431 36.5409 54.1123 36.5101 54.0892 36.487C54.0661 36.4716 54.0353 36.4639 54.0122 36.4562C54.0122 36.4562 53.9429 36.4562 53.9121 36.4562C53.8351 36.4254 53.7504 36.4023 53.658 36.3946C53.5656 36.3946 53.4732 36.3946 53.3731 36.4177C53.273 36.4331 53.1729 36.4716 53.0728 36.5255C52.9727 36.5794 52.8803 36.6487 52.7956 36.7334C52.6724 36.8566 52.58 36.9952 52.5184 37.1415C52.4568 37.2878 52.4337 37.4418 52.4491 37.6112C52.4645 37.7729 52.5184 37.9423 52.6108 38.1194C52.7032 38.2965 52.8495 38.4659 53.0343 38.643C53.427 39.0126 53.7966 39.2205 54.1431 39.259C54.4896 39.2975 54.8053 39.1666 55.0902 38.8817C55.2211 38.7508 55.3135 38.6276 55.3597 38.5121C55.4059 38.3889 55.4367 38.2811 55.4367 38.181C55.4367 38.0732 55.4367 37.9885 55.4059 37.9192L55.4213 37.9269Z" fill="#666666"/>
<path d="M58.1548 35.6939C58.1548 35.6939 58.1394 35.6554 58.1163 35.64C58.1009 35.6246 58.0855 35.6015 58.0701 35.5938C58.0547 35.5784 58.047 35.5707 58.047 35.563C58.0085 35.5322 57.97 35.5014 57.9315 35.4706C57.893 35.4475 57.8391 35.4398 57.7852 35.4629L55.9064 34.6929L55.6677 34.6005C55.6677 34.6005 55.6446 34.5466 55.6215 34.5158C55.5984 34.485 55.5753 34.4619 55.5599 34.4465C55.5214 34.408 55.4829 34.3772 55.4521 34.3695C55.4136 34.3541 55.3828 34.3541 55.3443 34.3541C55.3058 34.3541 55.2673 34.3849 55.2288 34.408C55.1903 34.4465 55.1364 34.485 55.0825 34.5466C55.0671 34.562 55.044 34.5851 55.0286 34.6005C55.0132 34.6159 54.9901 34.6467 54.9593 34.6698H54.9516C54.9054 34.7237 54.8823 34.7699 54.8823 34.8161C54.8823 34.8623 54.8977 34.9085 54.9362 34.947L55.0055 35.0086C55.0055 35.0086 55.044 35.0471 55.0748 35.0702C55.1056 35.0856 55.1287 35.101 55.1518 35.1087L56.1143 37.1184C56.0989 37.1723 56.0989 37.2108 56.1143 37.2493C56.1297 37.2878 56.1605 37.3263 56.2067 37.3648C56.2529 37.4033 56.2837 37.4341 56.3145 37.4495C56.353 37.4649 56.3838 37.4726 56.4146 37.4649C56.4531 37.4649 56.4839 37.4418 56.5224 37.411C56.5609 37.3879 56.6071 37.3417 56.6533 37.2955C56.6687 37.2801 56.6918 37.257 56.7149 37.2339C56.738 37.2108 56.7534 37.1954 56.7842 37.1646L56.8227 37.1261C56.892 37.0568 56.9151 37.0029 56.892 36.9413C56.8766 36.8874 56.8381 36.8335 56.7842 36.7796C56.7688 36.7642 56.7457 36.7488 56.7149 36.7257C56.6764 36.7026 56.6456 36.6795 56.6071 36.6795L56.43 36.3561L57.0152 35.7786L57.3617 35.9249C57.3617 35.9711 57.3771 36.0096 57.4079 36.0404L57.4464 36.0789C57.4464 36.0789 57.5157 36.1405 57.5465 36.1636C57.5773 36.1867 57.6081 36.2021 57.6466 36.2021C57.6851 36.2021 57.7236 36.1867 57.7698 36.1636C57.8083 36.1328 57.8622 36.0943 57.9315 36.0327C57.9469 36.0173 57.97 35.9942 57.9931 35.9711C57.9931 35.9711 58.0316 35.9249 58.0547 35.9018L58.0855 35.871C58.1394 35.8171 58.1548 35.7632 58.1625 35.7093H58.1702C58.1702 35.7093 58.1702 35.6862 58.1702 35.6708L58.1548 35.6939ZM56.1682 35.9326L55.814 35.2627L56.5224 35.5784L56.1682 35.9326Z" fill="#666666"/>
<path d="M60.4571 33.2838L60.4186 33.2453C60.4186 33.2453 60.3724 33.1991 60.3416 33.1837C60.3185 33.1606 60.2877 33.1452 60.2646 33.1375C60.2338 33.1221 60.2107 33.1221 60.1722 33.1221C60.1414 33.1221 60.1106 33.1375 60.0798 33.1606L59.0634 32.8757L59.0865 32.8141C59.1019 32.7602 59.1173 32.714 59.1327 32.6524C59.1481 32.5908 59.1481 32.5215 59.1327 32.4522C59.1173 32.3829 59.0942 32.3059 59.0557 32.2212C59.0172 32.1442 58.9556 32.0595 58.8709 31.9825C58.7554 31.8747 58.6322 31.7977 58.509 31.7746C58.3858 31.7515 58.2549 31.7515 58.1317 31.79C58.0085 31.8285 57.8853 31.8824 57.7621 31.9671C57.6389 32.0518 57.5234 32.1442 57.4156 32.252L56.8458 32.8141C56.7765 32.8834 56.7534 32.945 56.7765 32.9989C56.7996 33.0528 56.8304 33.1067 56.8843 33.1606C56.9228 33.1914 56.9536 33.2145 56.9921 33.2453C57.0306 33.2607 57.0691 33.2684 57.123 33.253L58.6168 34.6621C58.6014 34.716 58.6091 34.7545 58.6322 34.793C58.6553 34.8238 58.6861 34.8623 58.7169 34.8931C58.7708 34.9393 58.8093 34.9701 58.8478 34.9855C58.8786 35.0009 58.9171 35.0009 58.9556 34.9932C58.9941 34.9778 59.0326 34.9547 59.0788 34.9239C59.125 34.8854 59.1789 34.8315 59.2482 34.7622C59.279 34.7314 59.3098 34.7006 59.3406 34.6698C59.3637 34.639 59.3868 34.6005 59.4022 34.5697C59.4176 34.5312 59.4176 34.5081 59.4176 34.4773C59.4176 34.4388 59.4022 34.4157 59.3637 34.3849L59.3021 34.331C59.3021 34.331 59.2328 34.2694 59.1943 34.254C59.1558 34.2309 59.1096 34.2309 59.0634 34.2386L58.4474 33.6611L58.7246 33.3839L59.6871 33.6688C59.6871 33.6688 59.6871 33.715 59.7025 33.7304C59.7102 33.7458 59.7179 33.7689 59.741 33.7843L59.7564 33.7997C59.8103 33.8536 59.8565 33.8921 59.895 33.9152C59.9335 33.946 59.972 33.9537 60.0105 33.9537C60.0567 33.9537 60.1029 33.9229 60.1568 33.8844C60.2107 33.8382 60.28 33.7766 60.357 33.6996C60.3955 33.6688 60.4186 33.6303 60.4494 33.5995C60.4802 33.5687 60.4956 33.5302 60.511 33.4994C60.5264 33.4686 60.5341 33.4301 60.5264 33.3993C60.5264 33.3685 60.511 33.3377 60.4802 33.2992L60.4571 33.2838ZM58.3781 32.9989L58.0701 33.2992L57.5465 32.8064L57.8622 32.5061C57.97 32.3983 58.0778 32.3367 58.1779 32.329C58.278 32.329 58.3627 32.3521 58.432 32.4137C58.5167 32.4984 58.5552 32.5831 58.5552 32.6755C58.5552 32.7679 58.4859 32.8757 58.3704 32.9912L58.3781 32.9989Z" fill="#666666"/>
<path d="M62.305 30.9507C62.2742 30.8275 62.228 30.712 62.1664 30.6042C62.1048 30.4887 62.0355 30.3886 61.9508 30.2808C61.8661 30.1807 61.7814 30.0806 61.689 29.9959C61.5735 29.8881 61.4349 29.788 61.2809 29.7033C61.1269 29.6186 60.9652 29.5647 60.7881 29.5493C60.611 29.5339 60.4339 29.5493 60.2491 29.6186C60.0643 29.6879 59.8795 29.8034 59.6947 29.9805L59.148 30.5195C59.1018 30.5734 59.0787 30.6196 59.071 30.6658C59.071 30.712 59.0864 30.7582 59.1249 30.7967C59.1403 30.8121 59.148 30.8198 59.1634 30.8352C59.1634 30.8352 59.1788 30.8506 59.1942 30.8583C59.2327 30.8968 59.2635 30.9199 59.3097 30.943C59.3405 30.9661 59.3867 30.9738 59.4329 30.9584L60.919 32.3675C60.9113 32.4137 60.919 32.4522 60.9344 32.483C60.9575 32.5215 60.9806 32.5523 61.0114 32.5754C61.073 32.637 61.1346 32.6678 61.1962 32.6832C61.2578 32.6986 61.3194 32.6755 61.381 32.6139L61.9739 32.0287C62.0894 31.9132 62.1741 31.7977 62.2357 31.6745C62.2896 31.5513 62.3281 31.4358 62.3358 31.3126C62.3435 31.1894 62.3358 31.0739 62.305 30.9507ZM61.7352 31.5051C61.6967 31.5975 61.6428 31.6822 61.5658 31.7592L61.381 31.944L59.8641 30.5118L60.0181 30.3655C60.2029 30.1807 60.4031 30.096 60.6033 30.096C60.8035 30.096 61.0268 30.2192 61.2732 30.4502C61.4272 30.5965 61.5427 30.7274 61.6197 30.8583C61.6967 30.9815 61.7506 31.097 61.766 31.2048C61.7814 31.3126 61.7737 31.4127 61.7429 31.5051H61.7352Z" fill="#666666"/>
<path d="M66.2783 35.1241C67.5103 36.2791 67.518 38.2118 66.2783 39.4284L63.514 42.1619C62.282 43.3862 60.2954 43.4324 59.0634 42.2774C57.8314 41.1147 57.8314 39.1897 59.0634 37.9731L61.8277 35.2319C63.0597 34.0153 65.0463 33.9614 66.2783 35.1241Z" fill="#F2FAFC"/>
<path d="M72.138 40.9145C73.37 42.0772 73.37 44.0022 72.138 45.2188L69.3737 47.96C68.1494 49.1843 66.1551 49.2305 64.9231 48.0678C63.6911 46.9128 63.6911 44.9878 64.9231 43.7635L67.6797 41.0223C68.9117 39.8057 70.906 39.7518 72.138 40.9145Z" fill="#F2FAFC"/>
<path d="M75.0948 55.2673L24.3288 57.7159L15.3737 88.0539L77.3509 81.9632C81.6706 74.4018 88.9703 54.5974 88.9703 54.5974L75.1026 55.2673H75.0948Z" fill="#DB7963"/>
</g>
<path d="M63.7758 66.1705C64.6921 68.6037 63.4601 71.3218 61.0269 72.2381C58.5937 73.1544 55.8756 71.9224 54.9593 69.4892C54.043 67.056 55.275 64.3379 57.7082 63.4216C60.1414 62.5053 62.8595 63.7373 63.7758 66.1705Z" fill="#E2C495"/>
<g style="mix-blend-mode:multiply" opacity="0.58">
<path d="M63.4139 70.2284C62.9827 71.5297 61.9894 72.6231 60.6034 73.1467C58.1702 74.063 55.4521 72.831 54.5358 70.3978C54.0122 69.0118 54.1893 67.5334 54.8823 66.3553C54.5512 67.3409 54.5435 68.4497 54.9439 69.5046C55.8602 71.9378 58.5783 73.1698 61.0115 72.2535C62.0587 71.8608 62.8903 71.1293 63.4139 70.2361V70.2284Z" fill="#999999"/>
</g>
</g>
<defs>
<clipPath id="clip0_88_10">
<rect width="77" height="77" fill="white" transform="translate(11 11)"/>
</clipPath>
</defs>
</svg>
