<svg width="100" height="100" viewBox="0 0 100 100" fill="none" xmlns="http://www.w3.org/2000/svg">
<circle cx="50" cy="50" r="50" fill="white"/>
<g clip-path="url(#clip0_88_14)">
<path d="M64.1653 83C48.4253 73.2927 51.4692 64.0565 51.4692 64.0565L54.9984 62.4564L55.0337 62.4386L58.8892 60.6874C58.8892 60.6874 67.2621 64.2787 64.0241 82.5822L64.0506 82.6355C64.0506 82.6355 64.033 82.6267 64.0241 82.6178C64.0241 82.6267 64.0241 82.6355 64.0241 82.6533L64.1741 83H64.1653Z" fill="#FFC500"/>
<path d="M61.0685 75.8173C48.9018 68.4212 53.3397 63.3098 53.3397 63.3098L55.3248 62.4119H55.3424C55.3424 62.4119 56.7541 61.2563 57.3276 61.5052C64.4653 64.5365 61.0597 75.8262 61.0597 75.8262L61.0685 75.8173Z" fill="#FDEBA1"/>
<path d="M59.6215 60.5807L50.9046 64.3943L49.7223 61.6297L58.4393 57.8161L59.6215 60.5807Z" fill="#DB7963"/>
<path d="M49.2635 47.8332C57.6629 44.1529 67.2886 47.7265 70.756 55.7981C71.5589 57.6738 71.9559 59.6295 72 61.5674C67.4474 57.0871 60.2833 55.6381 53.8338 58.465C47.3843 61.2918 43.5287 67.5589 43.661 73.9683C42.2846 72.6171 41.1377 70.9814 40.3348 69.1057C36.8674 61.0252 40.8642 51.5045 49.2723 47.8243L49.2635 47.8332Z" fill="#DB7963"/>
<g style="mix-blend-mode:multiply" opacity="0.58">
<path d="M50.1546 60.6607C45.955 63.9231 43.5551 68.9012 43.6522 73.9772C42.2758 72.6259 41.1289 70.9903 40.326 69.1146C37.4144 62.3319 39.7701 54.518 45.5844 50.02L50.1546 60.6607Z" fill="#999999"/>
</g>
<path d="M56.6219 38.9614C59.5776 45.8508 60.7775 52.829 60.3628 58.8117C58.4482 59.0339 56.5249 59.5406 54.6544 60.3585C52.784 61.1763 51.0988 62.2519 49.6254 63.5053C45.011 59.7184 40.7849 54.0736 37.8292 47.1753C33.1178 36.2412 32.8708 25.0938 36.4529 18C44.0229 20.2135 51.9193 28.0185 56.6219 38.9614Z" fill="#C6C6C6"/>
<path d="M36.541 18.1867C44.0227 20.5157 51.9809 28.1607 56.6218 38.9614C59.5774 45.8508 60.7773 52.829 60.3627 58.8117C58.7304 59.0072 56.2512 59.7806 54.6455 60.4029L36.541 18.1867Z" fill="#E2E2E2"/>
<path d="M47.9401 25.5561L48.9194 26.6317C48.9194 26.6317 40.4936 29.2719 34.0441 33.3077L34.0618 31.6187C34.0618 31.6187 42.8493 26.4628 47.9401 25.5472V25.5561Z" fill="#FFAE00"/>
<path d="M55.1395 56.6071C57.0982 61.1585 57.9717 65.461 57.6011 67.9234C55.5719 66.51 53.0573 62.9275 51.1075 58.3761C49.1488 53.8247 48.2754 49.5222 48.6459 47.0598C50.6752 48.4732 53.1897 52.0557 55.1395 56.6071Z" fill="#DB7963"/>
<g style="mix-blend-mode:multiply" opacity="0.58">
<path d="M57.6188 67.799C57.6188 67.799 57.6188 67.879 57.6011 67.9145C55.5719 66.5011 53.0573 62.9186 51.1075 58.3672C49.1488 53.8158 48.2754 49.5133 48.6459 47.0509C48.6812 47.0687 48.7077 47.1042 48.743 47.122L57.6188 67.799Z" fill="#999999"/>
</g>
<path d="M47.9401 25.5561C45.6197 26.4006 43.2728 27.334 40.9083 28.3652C38.5438 29.3963 36.2675 30.4897 34.0706 31.6276C33.7882 26.3917 34.6088 21.6536 36.4527 18C40.3524 19.1379 44.3404 21.778 47.9401 25.5561Z" fill="#DB7963"/>
<g style="mix-blend-mode:multiply" opacity="0.58">
<path d="M40.6701 28.4629C38.3849 29.4675 36.1792 30.5253 34.0618 31.6187C33.7882 26.3917 34.6088 21.6536 36.4527 18C36.5233 18.0178 36.5939 18.0444 36.6645 18.0622L40.6701 28.4629Z" fill="#999999"/>
</g>
<path d="M43.264 34.0189L43.3257 33.9922C44.4374 33.5033 45.6638 33.4677 46.7755 33.8766C47.8872 34.2856 48.7518 35.1034 49.2106 36.1701C50.1458 38.3481 49.0694 40.9527 46.8196 41.975L46.7578 42.0016C44.4551 43.0062 41.817 42.0283 40.873 39.8148C39.9378 37.6369 41.0142 35.0323 43.264 34.01V34.0189Z" fill="#FFAE00"/>
<path d="M43.7404 34.9701C45.4785 34.2056 47.4813 34.9523 48.196 36.6235C48.9106 38.2947 48.0813 40.2771 46.3432 41.0416C44.6051 41.8061 42.6023 41.0594 41.8876 39.3881C41.173 37.7169 42.0023 35.7346 43.7404 34.9789V34.9701Z" fill="#60C99A"/>
</g>
<defs>
<clipPath id="clip0_88_14">
<rect width="38" height="65" fill="white" transform="translate(34 18)"/>
</clipPath>
</defs>
</svg>
