<svg width="100" height="100" viewBox="0 0 100 100" fill="none" xmlns="http://www.w3.org/2000/svg">
<circle cx="50" cy="50" r="50" fill="white"/>
<g clip-path="url(#clip0_88_13)">
<path d="M77.6545 61.9076C77.6545 61.9076 78.9026 57.1092 78.065 54.7647C77.2273 52.4202 74.6137 50.6807 74.7226 49.2017C74.8315 47.7227 76.5069 43.7395 75.1415 40.7731C75.1415 40.7731 74.6221 43.4202 74.1111 44.0084C73.6001 44.5966 70.0735 46.9748 70.7017 50.1092C71.33 53.2437 74.7477 53.9748 75.5938 54.8992C76.4399 55.8235 77.5791 55.8235 77.5791 56.437C77.5791 57.0504 77.8053 59.2857 77.4283 61.4874L77.6629 61.9076H77.6545Z" fill="#3C8F7C"/>
<path d="M74.1027 44.0084C73.5917 44.5966 70.0651 46.9748 70.6934 50.1092C71.3216 53.2437 74.7394 53.9748 75.5854 54.8992C76.4315 55.8235 77.5707 55.8235 77.5707 56.437C77.5707 57.0504 77.7969 59.2857 77.4199 61.4874L77.5205 61.6723C77.7047 60.8151 77.9644 59.5042 78.0482 58.5126C78.1822 56.8992 77.9225 56.2269 77.4032 54.9244C76.8838 53.6134 73.6755 50.9496 72.863 49.5546C72.0588 48.1513 74.4127 45.8151 74.9404 44.6807C75.4598 43.5546 75.1331 40.7815 75.1331 40.7815C75.1331 40.7815 74.6137 43.4286 74.1027 44.0168V44.0084Z" fill="#327F6B"/>
<path d="M20.3236 74.8067H74.354C75.2755 74.8067 76.0797 74.0084 76.1383 73.0336L78.6011 34.7815C78.6513 33.9496 78.065 33.2857 77.2859 33.2857H22.9958C22.2167 33.2857 21.5382 33.958 21.4879 34.7815L19 73.3025C18.9498 74.1344 19.5361 74.7983 20.3152 74.7983L20.3236 74.8067Z" fill="#EDD7BE"/>
<path d="M21.7057 38.2269L19.3602 73.6975C19.4272 74.563 20.1895 74.7983 20.6251 74.7983H27.6449L23.4565 35.0336L21.6974 38.2353L21.7057 38.2269Z" fill="#FEF8F8"/>
<path d="M27.3014 47.084H23.6575C23.1382 47.084 22.7528 46.6387 22.7947 46.0924L23.1298 42.2857C23.18 41.7395 23.6408 41.2941 24.1685 41.2941H27.8124C28.3318 41.2941 28.7171 41.7395 28.6752 42.2857L28.3402 46.0924C28.2899 46.6387 27.8292 47.084 27.3014 47.084Z" fill="#9BC1F9"/>
<path d="M35.1589 47.084H31.515C30.9956 47.084 30.6103 46.6387 30.6522 46.0924L30.9872 42.2857C31.0375 41.7395 31.4982 41.2941 32.026 41.2941H35.6699C36.1892 41.2941 36.5746 41.7395 36.5327 42.2857L36.1976 46.0924C36.1474 46.6387 35.6866 47.084 35.1589 47.084Z" fill="#9BC1F9"/>
<path d="M43.0163 47.084H39.3724C38.8531 47.084 38.4677 46.6387 38.5096 46.0924L38.8447 42.2857C38.8949 41.7395 39.3557 41.2941 39.8834 41.2941H43.5273C44.0467 41.2941 44.432 41.7395 44.3901 42.2857L44.0551 46.0924C44.0048 46.6387 43.5441 47.084 43.0163 47.084Z" fill="#9BC1F9"/>
<path d="M50.8822 47.084H47.2383C46.7189 47.084 46.3336 46.6387 46.3755 46.0924L46.7105 42.2857C46.7608 41.7395 47.2215 41.2941 47.7493 41.2941H51.3932C51.9125 41.2941 52.2979 41.7395 52.256 42.2857L51.9209 46.0924C51.8707 46.6387 51.4099 47.084 50.8822 47.084Z" fill="#9BC1F9"/>
<path d="M58.7396 47.084H55.0957C54.5764 47.084 54.191 46.6387 54.2329 46.0924L54.568 42.2857C54.6182 41.7395 55.079 41.2941 55.6067 41.2941H59.2506C59.77 41.2941 60.1553 41.7395 60.1134 42.2857L59.7784 46.0924C59.7281 46.6387 59.2674 47.084 58.7396 47.084Z" fill="#9BC1F9"/>
<path d="M66.5971 47.084H62.9532C62.4338 47.084 62.0485 46.6387 62.0904 46.0924L62.4254 42.2857C62.4757 41.7395 62.9364 41.2941 63.4642 41.2941H67.1081C67.6274 41.2941 68.0128 41.7395 67.9709 42.2857L67.6358 46.0924C67.5856 46.6387 67.1248 47.084 66.5971 47.084Z" fill="#F47458"/>
<path d="M74.4545 47.084H70.8106C70.2913 47.084 69.9059 46.6387 69.9478 46.0924L70.2829 42.2857C70.3332 41.7395 70.7939 41.2941 71.3216 41.2941H74.9655C75.4849 41.2941 75.8702 41.7395 75.8283 42.2857L75.4933 46.0924C75.443 46.6387 74.9823 47.084 74.4545 47.084Z" fill="#F47458"/>
<path d="M26.5308 55.7983H22.8785C22.3591 55.7983 21.9738 55.3529 22.0157 54.8067L22.3507 51C22.401 50.4538 22.8617 50.0084 23.3895 50.0084H27.0334C27.5527 50.0084 27.9381 50.4538 27.8962 51L27.5611 54.8067C27.5109 55.3529 27.0501 55.7983 26.5224 55.7983H26.5308Z" fill="#9BC1F9"/>
<path d="M34.3882 55.7983H30.7443C30.225 55.7983 29.8396 55.3529 29.8815 54.8067L30.2166 51C30.2668 50.4538 30.7276 50.0084 31.2553 50.0084H34.8992C35.4186 50.0084 35.8039 50.4538 35.762 51L35.427 54.8067C35.3767 55.3529 34.916 55.7983 34.3882 55.7983Z" fill="#9BC1F9"/>
<path d="M42.2457 55.7983H38.6018C38.0824 55.7983 37.6971 55.3529 37.739 54.8067L38.074 51C38.1243 50.4538 38.585 50.0084 39.1128 50.0084H42.7567C43.276 50.0084 43.6614 50.4538 43.6195 51L43.2844 54.8067C43.2341 55.3529 42.7734 55.7983 42.2457 55.7983Z" fill="#9BC1F9"/>
<path d="M50.1031 55.7983H46.4592C45.9399 55.7983 45.5545 55.3529 45.5964 54.8067L45.9315 51C45.9817 50.4538 46.4425 50.0084 46.9702 50.0084H50.6141C51.1335 50.0084 51.5188 50.4538 51.4769 51L51.1419 54.8067C51.0916 55.3529 50.6309 55.7983 50.1031 55.7983Z" fill="#9BC1F9"/>
<path d="M57.9606 55.7983H54.3167C53.7973 55.7983 53.412 55.3529 53.4539 54.8067L53.7889 51C53.8392 50.4538 54.2999 50.0084 54.8277 50.0084H58.4716C58.9909 50.0084 59.3763 50.4538 59.3344 51L58.9993 54.8067C58.9491 55.3529 58.4883 55.7983 57.9606 55.7983Z" fill="#9BC1F9"/>
<path d="M65.8264 55.7983H62.1825C61.6632 55.7983 61.2778 55.3529 61.3197 54.8067L61.6548 51C61.705 50.4538 62.1658 50.0084 62.6935 50.0084H66.3374C66.8568 50.0084 67.2421 50.4538 67.2002 51L66.8652 54.8067C66.8149 55.3529 66.3542 55.7983 65.8264 55.7983Z" fill="#F47458"/>
<path d="M73.6839 55.7983H70.04C69.5206 55.7983 69.1353 55.3529 69.1772 54.8067L69.5122 51C69.5625 50.4538 70.0232 50.0084 70.551 50.0084H74.1949C74.7142 50.0084 75.0996 50.4538 75.0577 51L74.7226 54.8067C74.6723 55.3529 74.2116 55.7983 73.6839 55.7983Z" fill="#F47458"/>
<path d="M25.7517 64.5042H22.1078C21.5884 64.5042 21.2031 64.0588 21.245 63.5126L21.5801 59.7059C21.6303 59.1597 22.0911 58.7143 22.6188 58.7143H26.2627C26.7821 58.7143 27.1674 59.1597 27.1255 59.7059L26.7905 63.5126C26.7402 64.0588 26.2795 64.5042 25.7517 64.5042Z" fill="#60C99A"/>
<path d="M33.6092 64.5042H29.9653C29.4459 64.5042 29.0606 64.0588 29.1024 63.5126L29.4375 59.7059C29.4878 59.1597 29.9485 58.7143 30.4762 58.7143H34.1202C34.6395 58.7143 35.0249 59.1597 34.983 59.7059L34.6479 63.5126C34.5976 64.0588 34.1369 64.5042 33.6092 64.5042Z" fill="#9BC1F9"/>
<path d="M41.475 64.5042H37.8311C37.3117 64.5042 36.9264 64.0588 36.9683 63.5126L37.3034 59.7059C37.3536 59.1597 37.8144 58.7143 38.3421 58.7143H41.986C42.5054 58.7143 42.8907 59.1597 42.8488 59.7059L42.5137 63.5126C42.4635 64.0588 42.0028 64.5042 41.475 64.5042Z" fill="#9BC1F9"/>
<path d="M49.3325 64.5042H45.6886C45.1692 64.5042 44.7839 64.0588 44.8257 63.5126L45.1608 59.7059C45.2111 59.1597 45.6718 58.7143 46.1995 58.7143H49.8435C50.3628 58.7143 50.7482 59.1597 50.7063 59.7059L50.3712 63.5126C50.3209 64.0588 49.8602 64.5042 49.3325 64.5042Z" fill="#9BC1F9"/>
<path d="M57.1899 64.5042H53.546C53.0267 64.5042 52.6413 64.0588 52.6832 63.5126L53.0183 59.7059C53.0685 59.1597 53.5293 58.7143 54.057 58.7143H57.7009C58.2203 58.7143 58.6056 59.1597 58.5637 59.7059L58.2287 63.5126C58.1784 64.0588 57.7177 64.5042 57.1899 64.5042Z" fill="#9BC1F9"/>
<path d="M65.0474 64.5042H61.4035C60.8841 64.5042 60.4988 64.0588 60.5407 63.5126L60.8757 59.7059C60.926 59.1597 61.3867 58.7143 61.9144 58.7143H65.5584C66.0777 58.7143 66.4631 59.1597 66.4212 59.7059L66.0861 63.5126C66.0358 64.0588 65.5751 64.5042 65.0474 64.5042Z" fill="#F47458"/>
<path d="M72.9049 64.5042H69.2609C68.7416 64.5042 68.3563 64.0588 68.3981 63.5126L68.7332 59.7059C68.7835 59.1597 69.2442 58.7143 69.7719 58.7143H73.4158C73.9352 58.7143 74.3205 59.1597 74.2787 59.7059L73.9436 63.5126C73.8933 64.0588 73.4326 64.5042 72.9049 64.5042Z" fill="#F47458"/>
<path d="M24.9811 73.2185H21.3288C20.8094 73.2185 20.4241 72.7731 20.4659 72.2269L20.801 68.4202C20.8513 67.8739 21.312 67.4286 21.8397 67.4286H25.492C26.0114 67.4286 26.3967 67.8739 26.3548 68.4202L26.0198 72.2269C25.9695 72.7731 25.5088 73.2185 24.9811 73.2185Z" fill="#60C99A"/>
<path d="M32.8385 73.2185H29.1946C28.6752 73.2185 28.2899 72.7731 28.3318 72.2269L28.6669 68.4202C28.7171 67.8739 29.1778 67.4286 29.7056 67.4286H33.3495C33.8689 67.4286 34.2542 67.8739 34.2123 68.4202L33.8772 72.2269C33.827 72.7731 33.3663 73.2185 32.8385 73.2185Z" fill="#9BC1F9"/>
<path d="M40.696 73.2185H37.0521C36.5327 73.2185 36.1474 72.7731 36.1892 72.2269L36.5243 68.4202C36.5746 67.8739 37.0353 67.4286 37.563 67.4286H41.207C41.7263 67.4286 42.1117 67.8739 42.0698 68.4202L41.7347 72.2269C41.6844 72.7731 41.2237 73.2185 40.696 73.2185Z" fill="#9BC1F9"/>
<path d="M48.5534 73.2185H44.9095C44.3901 73.2185 44.0048 72.7731 44.0467 72.2269L44.3818 68.4202C44.432 67.8739 44.8928 67.4286 45.4205 67.4286H49.0644C49.5838 67.4286 49.9691 67.8739 49.9272 68.4202L49.5921 72.2269C49.5419 72.7731 49.0812 73.2185 48.5534 73.2185Z" fill="#9BC1F9"/>
<path d="M56.4193 73.2185H52.7754C52.256 73.2185 51.8707 72.7731 51.9125 72.2269L52.2476 68.4202C52.2979 67.8739 52.7586 67.4286 53.2863 67.4286H56.9303C57.4496 67.4286 57.835 67.8739 57.7931 68.4202L57.458 72.2269C57.4077 72.7731 56.947 73.2185 56.4193 73.2185Z" fill="#9BC1F9"/>
<path d="M78.2325 75.9748H24.202C23.2806 75.9748 22.5099 75.2101 22.4931 74.2689L21.6471 37.4538C21.6303 36.6555 22.2502 36.0084 23.0293 36.0084H77.3111C78.0901 36.0084 78.7435 36.6555 78.7602 37.4538L79.6063 74.5378C79.6231 75.3361 79.0032 75.9832 78.2241 75.9832L78.2325 75.9748Z" fill="#E0C8A9"/>
<path d="M78.6178 76H24.5874C23.6659 76 22.8952 75.2353 22.8785 74.2941L22.0324 37.479C22.0157 36.6807 22.6356 36.0336 23.4146 36.0336H77.7048C78.4838 36.0336 79.1372 36.6807 79.154 37.479L80 74.563C80.0168 75.3613 79.3969 76.0084 78.6178 76.0084V76Z" fill="#FEF8F8"/>
<path d="M75.0074 30.4622H24.5706C22.7193 30.4622 21.3204 31.9496 21.446 33.7899L21.7811 38.7143H78.9278L78.5927 33.7899C78.4671 31.958 76.8671 30.4622 75.0158 30.4622H75.0074Z" fill="#B75742"/>
<path d="M75.2671 30.4622H24.8303C22.979 30.4622 21.5801 31.9496 21.7057 33.7899L22.0408 38.7143H79.1875L78.8524 33.7899C78.7267 31.958 77.1268 30.4622 75.2755 30.4622H75.2671Z" fill="#DB7963"/>
<path d="M29.0773 47.7731H25.4334C24.9141 47.7731 24.4701 47.3361 24.4533 46.7983L24.3277 43.0336C24.3109 42.4958 24.7214 42.0588 25.2407 42.0588H28.8847C29.404 42.0588 29.848 42.4958 29.8648 43.0336L29.9904 46.7983C30.0072 47.3361 29.5967 47.7731 29.0773 47.7731Z" fill="#DB7963"/>
<path d="M36.9348 47.7731H33.2909C32.7715 47.7731 32.3275 47.3361 32.3108 46.7983L32.1851 43.0336C32.1684 42.4958 32.5788 42.0588 33.0982 42.0588H36.7421C37.2615 42.0588 37.7055 42.4958 37.7222 43.0336L37.8479 46.7983C37.8646 47.3361 37.4541 47.7731 36.9348 47.7731Z" fill="#60C99A"/>
<path d="M44.7922 47.7731H41.1483C40.629 47.7731 40.185 47.3361 40.1682 46.7983L40.0426 43.0336C40.0258 42.4958 40.4363 42.0588 40.9557 42.0588H44.5996C45.1189 42.0588 45.5629 42.4958 45.5797 43.0336L45.7053 46.7983C45.7221 47.3361 45.3116 47.7731 44.7922 47.7731Z" fill="#60C99A"/>
<path d="M52.6497 47.7731H49.0058C48.4864 47.7731 48.0424 47.3361 48.0257 46.7983L47.9 43.0336C47.8833 42.4958 48.2937 42.0588 48.8131 42.0588H52.457C52.9764 42.0588 53.4204 42.4958 53.4371 43.0336L53.5628 46.7983C53.5795 47.3361 53.169 47.7731 52.6497 47.7731Z" fill="#60C99A"/>
<path d="M60.5155 47.7731H56.8716C56.3523 47.7731 55.9083 47.3361 55.8915 46.7983L55.7659 43.0336C55.7491 42.4958 56.1596 42.0588 56.6789 42.0588H60.3229C60.8422 42.0588 61.2862 42.4958 61.303 43.0336L61.4286 46.7983C61.4454 47.3361 61.0349 47.7731 60.5155 47.7731Z" fill="#60C99A"/>
<path d="M68.373 47.7731H64.7291C64.2097 47.7731 63.7657 47.3361 63.749 46.7983L63.6233 43.0336C63.6066 42.4958 64.017 42.0588 64.5364 42.0588H68.1803C68.6997 42.0588 69.1437 42.4958 69.1604 43.0336L69.2861 46.7983C69.3028 47.3361 68.8923 47.7731 68.373 47.7731Z" fill="#60C99A"/>
<path d="M76.2304 47.7731H72.5865C72.0672 47.7731 71.6232 47.3361 71.6064 46.7983L71.4808 43.0336C71.464 42.4958 71.8745 42.0588 72.3939 42.0588H76.0378C76.5571 42.0588 77.0011 42.4958 77.0179 43.0336L77.1435 46.7983C77.1603 47.3361 76.7498 47.7731 76.2304 47.7731Z" fill="#DB7963"/>
<path d="M29.3622 56.3949H25.7182C25.1989 56.3949 24.7549 55.958 24.7381 55.4202L24.6125 51.6555C24.5957 51.1176 25.0062 50.6807 25.5256 50.6807H29.1695C29.6888 50.6807 30.1328 51.1176 30.1496 51.6555L30.2752 55.4202C30.292 55.958 29.8815 56.3949 29.3622 56.3949Z" fill="#DB7963"/>
<path d="M37.2196 56.3949H33.5757C33.0563 56.3949 32.6124 55.958 32.5956 55.4202L32.4699 51.6555C32.4532 51.1176 32.8637 50.6807 33.383 50.6807H37.0269C37.5463 50.6807 37.9903 51.1176 38.007 51.6555L38.1327 55.4202C38.1494 55.958 37.739 56.3949 37.2196 56.3949Z" fill="#60C99A"/>
<path d="M45.0771 56.3949H41.4331C40.9138 56.3949 40.4698 55.958 40.4531 55.4202L40.3274 51.6555C40.3106 51.1176 40.7211 50.6807 41.2405 50.6807H44.8844C45.4038 50.6807 45.8477 51.1176 45.8645 51.6555L45.9901 55.4202C46.0069 55.958 45.5964 56.3949 45.0771 56.3949Z" fill="#60C99A"/>
<path d="M52.9345 56.3949H49.2906C48.7712 56.3949 48.3273 55.958 48.3105 55.4202L48.1849 51.6555C48.1681 51.1176 48.5786 50.6807 49.0979 50.6807H52.7418C53.2612 50.6807 53.7052 51.1176 53.7219 51.6555L53.8476 55.4202C53.8643 55.958 53.4539 56.3949 52.9345 56.3949Z" fill="#60C99A"/>
<path d="M60.792 56.3949H57.148C56.6287 56.3949 56.1847 55.958 56.168 55.4202L56.0423 51.6555C56.0256 51.1176 56.436 50.6807 56.9554 50.6807H60.5993C61.1187 50.6807 61.5626 51.1176 61.5794 51.6555L61.705 55.4202C61.7218 55.958 61.3113 56.3949 60.792 56.3949Z" fill="#60C99A"/>
<path d="M68.6578 56.3949H65.0139C64.4945 56.3949 64.0506 55.958 64.0338 55.4202L63.9081 51.6555C63.8914 51.1176 64.3019 50.6807 64.8212 50.6807H68.4651C68.9845 50.6807 69.4285 51.1176 69.4452 51.6555L69.5709 55.4202C69.5876 55.958 69.1772 56.3949 68.6578 56.3949Z" fill="#60C99A"/>
<path d="M76.5153 56.3949H72.8713C72.352 56.3949 71.908 55.958 71.8913 55.4202L71.7656 51.6555C71.7488 51.1176 72.1593 50.6807 72.6787 50.6807H76.3226C76.842 50.6807 77.2859 51.1176 77.3027 51.6555L77.4283 55.4202C77.4451 55.958 77.0346 56.3949 76.5153 56.3949Z" fill="#DB7963"/>
<path d="M29.6386 65.0084H25.9947C25.4753 65.0084 25.0313 64.5714 25.0146 64.0336L24.8889 60.2689C24.8722 59.7311 25.2826 59.2941 25.802 59.2941H29.4459C29.9653 59.2941 30.4092 59.7311 30.426 60.2689L30.5517 64.0336C30.5684 64.5714 30.1579 65.0084 29.6386 65.0084Z" fill="#DB7963"/>
<path d="M37.5044 65.0084H33.8605C33.3411 65.0084 32.8971 64.5714 32.8804 64.0336L32.7547 60.2689C32.738 59.7311 33.1484 59.2941 33.6678 59.2941H37.3117C37.8311 59.2941 38.2751 59.7311 38.2918 60.2689L38.4175 64.0336C38.4342 64.5714 38.0238 65.0084 37.5044 65.0084Z" fill="#60C99A"/>
<path d="M45.3619 65.0084H41.718C41.1986 65.0084 40.7546 64.5714 40.7379 64.0336L40.6122 60.2689C40.5955 59.7311 41.0059 59.2941 41.5253 59.2941H45.1692C45.6886 59.2941 46.1325 59.7311 46.1493 60.2689L46.275 64.0336C46.2917 64.5714 45.8812 65.0084 45.3619 65.0084Z" fill="#60C99A"/>
<path d="M53.2193 65.0084H49.5754C49.056 65.0084 48.6121 64.5714 48.5953 64.0336L48.4697 60.2689C48.4529 59.7311 48.8634 59.2941 49.3827 59.2941H53.0267C53.546 59.2941 53.99 59.7311 54.0068 60.2689L54.1324 64.0336C54.1492 64.5714 53.7387 65.0084 53.2193 65.0084Z" fill="#60C99A"/>
<path d="M61.0768 65.0084H57.4329C56.9135 65.0084 56.4695 64.5714 56.4528 64.0336L56.3271 60.2689C56.3104 59.7311 56.7208 59.2941 57.2402 59.2941H60.8841C61.4035 59.2941 61.8474 59.7311 61.8642 60.2689L61.9899 64.0336C62.0066 64.5714 61.5961 65.0084 61.0768 65.0084Z" fill="#60C99A"/>
<path d="M68.9342 65.0084H65.2903C64.771 65.0084 64.327 64.5714 64.3102 64.0336L64.1846 60.2689C64.1678 59.7311 64.5783 59.2941 65.0977 59.2941H68.7416C69.2609 59.2941 69.7049 59.7311 69.7217 60.2689L69.8473 64.0336C69.8641 64.5714 69.4536 65.0084 68.9342 65.0084Z" fill="#60C99A"/>
<path d="M76.8001 65.0084H73.1562C72.6368 65.0084 72.1928 64.5714 72.1761 64.0336L72.0504 60.2689C72.0337 59.7311 72.4441 59.2941 72.9635 59.2941H76.6074C77.1268 59.2941 77.5707 59.7311 77.5875 60.2689L77.7131 64.0336C77.7299 64.5714 77.3194 65.0084 76.8001 65.0084Z" fill="#DB7963"/>
<path d="M29.9234 73.6302H26.2795C25.7601 73.6302 25.3161 73.1933 25.2994 72.6555L25.1737 68.8907C25.157 68.3529 25.5675 67.916 26.0868 67.916H29.7307C30.2501 67.916 30.6941 68.3529 30.7108 68.8907L30.8365 72.6555C30.8532 73.1933 30.4428 73.6302 29.9234 73.6302Z" fill="#DB7963"/>
<path d="M37.7809 73.6302H34.1369C33.6176 73.6302 33.1736 73.1933 33.1568 72.6555L33.0312 68.8907C33.0144 68.3529 33.4249 67.916 33.9443 67.916H37.5882C38.1075 67.916 38.5515 68.3529 38.5683 68.8907L38.6939 72.6555C38.7107 73.1933 38.3002 73.6302 37.7809 73.6302Z" fill="#60C99A"/>
<path d="M45.6467 73.6302H42.0028C41.4834 73.6302 41.0394 73.1933 41.0227 72.6555L40.897 68.8907C40.8803 68.3529 41.2907 67.916 41.8101 67.916H45.454C45.9734 67.916 46.4173 68.3529 46.4341 68.8907L46.5597 72.6555C46.5765 73.1933 46.166 73.6302 45.6467 73.6302Z" fill="#60C99A"/>
<path d="M53.5041 73.6302H49.8602C49.3408 73.6302 48.8969 73.1933 48.8801 72.6555L48.7545 68.8907C48.7377 68.3529 49.1482 67.916 49.6675 67.916H53.3115C53.8308 67.916 54.2748 68.3529 54.2915 68.8907L54.4172 72.6555C54.4339 73.1933 54.0235 73.6302 53.5041 73.6302Z" fill="#60C99A"/>
<path d="M61.3616 73.6302H57.7177C57.1983 73.6302 56.7543 73.1933 56.7376 72.6555L56.6119 68.8907C56.5952 68.3529 57.0057 67.916 57.525 67.916H61.1689C61.6883 67.916 62.1323 68.3529 62.149 68.8907L62.2747 72.6555C62.2914 73.1933 61.881 73.6302 61.3616 73.6302Z" fill="#60C99A"/>
<path d="M54.2748 46.0588C54.1408 46.7227 53.8308 47.4286 53.1774 47.9076C52.3481 48.5042 51.1167 48.5126 50.1869 47.9244H50.1785C49.7932 47.6891 48.5953 46.8067 49.232 45.0924L49.5838 45.2185C49.0644 46.6219 49.9607 47.3445 50.3712 47.5882L50.388 47.5966C51.2005 48.1092 52.256 48.1008 52.968 47.5966C54.0486 46.8151 54.0486 45.2353 53.99 44.5966C53.9649 44.3277 53.9313 44.0168 53.7973 43.7563C53.5125 43.2017 52.8089 42.6807 52.0968 42.479C51.3848 42.2857 50.7398 42.2101 50.1785 42.2605C49.5419 42.3193 48.9388 42.6807 48.6372 43.1765C48.6121 43.2185 48.5869 43.2521 48.5618 43.2941C48.2267 43.8403 47.9335 44.3109 48.0257 45.1513L47.6571 45.1933C47.5566 44.2269 47.9084 43.6555 48.2435 43.1008C48.2686 43.0588 48.2937 43.0252 48.3189 42.9832C48.6791 42.395 49.3911 41.9664 50.145 41.8908C50.7482 41.8319 51.4351 41.9076 52.1973 42.1177C52.8759 42.3025 53.7387 42.8319 54.1324 43.5798C54.2999 43.8992 54.3418 44.2521 54.3669 44.563C54.3921 44.8992 54.4088 45.4538 54.2832 46.0504L54.2748 46.0588Z" fill="#DB7963"/>
<path d="M71.9918 33.4286C72.4961 33.4286 72.9049 32.9395 72.9049 32.3361C72.9049 31.7328 72.4961 31.2437 71.9918 31.2437C71.4875 31.2437 71.0787 31.7328 71.0787 32.3361C71.0787 32.9395 71.4875 33.4286 71.9918 33.4286Z" fill="#B75742"/>
<path d="M71.9918 31.2437C71.8996 31.2437 71.8075 31.2605 71.7237 31.2941C72.0923 31.4286 72.3687 31.8487 72.3687 32.3361C72.3687 32.8235 72.1007 33.2437 71.7237 33.3782C71.8075 33.4118 71.8996 33.4286 71.9918 33.4286C72.4944 33.4286 72.9049 32.9412 72.9049 32.3361C72.9049 31.7311 72.4944 31.2437 71.9918 31.2437Z" fill="#A54737"/>
<path d="M68.1384 24C65.4914 24 63.3385 26.3697 63.3385 29.2773C63.3385 29.6807 63.3804 30.084 63.4642 30.4622H64.2013C64.1092 30.084 64.0589 29.6891 64.0589 29.2773C64.0589 26.7647 65.8935 24.7227 68.1468 24.7227C70.4002 24.7227 72.2347 26.7647 72.2347 29.2773C72.2347 30.563 71.7572 31.7227 70.9866 32.5462C70.8525 32.6975 70.8609 32.9244 71.0201 33.0588C71.1625 33.1849 71.3803 33.1681 71.5143 33.0336C72.4022 32.0756 72.9551 30.7395 72.9551 29.2689C72.9551 26.3613 70.8023 23.9916 68.1552 23.9916L68.1384 24Z" fill="#184655"/>
<path d="M71.0871 32.3697C71.0871 32.3697 71.1289 32.9916 71.5729 33.3025C72.0085 33.605 70.9614 33.7647 70.9112 33.7143C70.8609 33.6639 70.375 33.3445 70.3583 33.0336C70.3499 32.7227 70.4504 32.4622 70.4672 32.4202C70.4839 32.3781 70.618 32.1344 70.6598 32.1344C70.7017 32.1344 71.0954 32.3697 71.0954 32.3697H71.0871Z" fill="#DB7963"/>
<path d="M59.6527 33.4286C60.157 33.4286 60.5658 32.9395 60.5658 32.3361C60.5658 31.7328 60.157 31.2437 59.6527 31.2437C59.1485 31.2437 58.7397 31.7328 58.7397 32.3361C58.7397 32.9395 59.1485 33.4286 59.6527 33.4286Z" fill="#B75742"/>
<path d="M59.6527 31.2437C59.5606 31.2437 59.4684 31.2605 59.3846 31.2941C59.7532 31.4286 60.0297 31.8487 60.0297 32.3361C60.0297 32.8235 59.7616 33.2437 59.3846 33.3782C59.4684 33.4118 59.5606 33.4286 59.6527 33.4286C60.1553 33.4286 60.5658 32.9412 60.5658 32.3361C60.5658 31.7311 60.1553 31.2437 59.6527 31.2437Z" fill="#A54737"/>
<path d="M55.7994 24C53.1523 24 50.9995 26.3697 50.9995 29.2773C50.9995 29.6807 51.0413 30.084 51.1251 30.4622H51.8623C51.7701 30.084 51.7199 29.6891 51.7199 29.2773C51.7199 26.7647 53.5544 24.7227 55.8077 24.7227C58.0611 24.7227 59.8956 26.7647 59.8956 29.2773C59.8956 30.563 59.4182 31.7227 58.6475 32.5462C58.5135 32.6975 58.5218 32.9244 58.681 33.0588C58.8234 33.1849 59.0412 33.1681 59.1752 33.0336C60.0632 32.0756 60.616 30.7395 60.616 29.2689C60.616 26.3613 58.4632 23.9916 55.8161 23.9916L55.7994 24Z" fill="#184655"/>
<path d="M58.7397 32.3697C58.7397 32.3697 58.7815 32.9916 59.2255 33.3025C59.6611 33.605 58.614 33.7647 58.5637 33.7143C58.5135 33.6639 58.0276 33.3445 58.0109 33.0336C58.0025 32.7227 58.103 32.4622 58.1198 32.4202C58.1365 32.3781 58.2706 32.1344 58.3124 32.1344C58.3543 32.1344 58.748 32.3697 58.748 32.3697H58.7397Z" fill="#DB7963"/>
<path d="M48.2184 32.3361C48.2184 32.9412 47.8079 33.4286 47.3053 33.4286C46.8027 33.4286 46.3922 32.9412 46.3922 32.3361C46.3922 31.7311 46.8027 31.2437 47.3053 31.2437C47.8079 31.2437 48.2184 31.7311 48.2184 32.3361Z" fill="#B75742"/>
<path d="M47.3137 31.2437C47.2215 31.2437 47.1294 31.2605 47.0456 31.2941C47.4142 31.4286 47.6906 31.8487 47.6906 32.3361C47.6906 32.8235 47.4226 33.2437 47.0456 33.3782C47.1294 33.4118 47.2215 33.4286 47.3137 33.4286C47.8163 33.4286 48.2267 32.9412 48.2267 32.3361C48.2267 31.7311 47.8163 31.2437 47.3137 31.2437Z" fill="#A54737"/>
<path d="M43.4603 24C40.8132 24 38.6604 26.3697 38.6604 29.2773C38.6604 29.6807 38.7023 30.084 38.7861 30.4622H39.5232C39.4311 30.084 39.3808 29.6891 39.3808 29.2773C39.3808 26.7647 41.2153 24.7227 43.4687 24.7227C45.7221 24.7227 47.5566 26.7647 47.5566 29.2773C47.5566 30.563 47.0791 31.7227 46.3084 32.5462C46.1744 32.6975 46.1828 32.9244 46.3419 33.0588C46.4844 33.1849 46.7021 33.1681 46.8362 33.0336C47.7241 32.0756 48.277 30.7395 48.277 29.2689C48.277 26.3613 46.1241 23.9916 43.4771 23.9916L43.4603 24Z" fill="#184655"/>
<path d="M46.4006 32.3697C46.4006 32.3697 46.4425 32.9916 46.8865 33.3025C47.3221 33.605 46.275 33.7647 46.2247 33.7143C46.1744 33.6639 45.6886 33.3445 45.6718 33.0336C45.6634 32.7227 45.764 32.4622 45.7807 32.4202C45.7975 32.3781 45.9315 32.1344 45.9734 32.1344C46.0153 32.1344 46.409 32.3697 46.409 32.3697H46.4006Z" fill="#DB7963"/>
<path d="M34.9662 33.4286C35.4705 33.4286 35.8793 32.9395 35.8793 32.3361C35.8793 31.7328 35.4705 31.2437 34.9662 31.2437C34.462 31.2437 34.0532 31.7328 34.0532 32.3361C34.0532 32.9395 34.462 33.4286 34.9662 33.4286Z" fill="#B75742"/>
<path d="M34.9662 31.2437C34.8741 31.2437 34.7819 31.2605 34.6982 31.2941C35.0668 31.4286 35.3432 31.8487 35.3432 32.3361C35.3432 32.8235 35.0751 33.2437 34.6982 33.3782C34.7819 33.4118 34.8741 33.4286 34.9662 33.4286C35.4688 33.4286 35.8793 32.9412 35.8793 32.3361C35.8793 31.7311 35.4688 31.2437 34.9662 31.2437Z" fill="#A54737"/>
<path d="M31.1129 24C28.4658 24 26.313 26.3697 26.313 29.2773C26.313 29.6807 26.3549 30.084 26.4386 30.4622H27.1758C27.0837 30.084 27.0334 29.6891 27.0334 29.2773C27.0334 26.7647 28.8679 24.7227 31.1213 24.7227C33.3746 24.7227 35.2092 26.7647 35.2092 29.2773C35.2092 30.563 34.7317 31.7227 33.961 32.5462C33.827 32.6975 33.8354 32.9244 33.9945 33.0588C34.1369 33.1849 34.3547 33.1681 34.4888 33.0336C35.3767 32.0756 35.9296 30.7395 35.9296 29.2689C35.9296 26.3613 33.7767 23.9916 31.1297 23.9916L31.1129 24Z" fill="#184655"/>
<path d="M34.0615 32.3697C34.0615 32.3697 34.1034 32.9916 34.5474 33.3025C34.983 33.605 33.9359 33.7647 33.8856 33.7143C33.8353 33.6639 33.3495 33.3445 33.3327 33.0336C33.3244 32.7227 33.4249 32.4622 33.4416 32.4202C33.4584 32.3781 33.5924 32.1344 33.6343 32.1344C33.6762 32.1344 34.0699 32.3697 34.0699 32.3697H34.0615Z" fill="#DB7963"/>
<path d="M79.9414 74.563L79.8827 72.0504L77.1435 72.5882C77.1435 72.5882 68.9929 73.5378 68.9594 73.5378C68.9258 73.5378 61.0935 75.8403 61.0935 75.8403L60.1134 76.0084H78.5592C79.3382 76.0084 79.9581 75.3613 79.9414 74.563Z" fill="#F7CC7F"/>
<path d="M60.1134 76C60.1134 76 66.6222 74.5714 71.7656 65.6302C71.7656 65.6302 74.287 72.521 79.8911 72.042C79.8911 72.042 72.3855 75.5462 60.1218 76H60.1134Z" fill="#FAE0B2"/>
</g>
<defs>
<clipPath id="clip0_88_13">
<rect width="61" height="52" fill="white" transform="translate(19 24)"/>
</clipPath>
</defs>
</svg>
