<svg width="100" height="100" viewBox="0 0 100 100" fill="none" xmlns="http://www.w3.org/2000/svg">
<circle cx="50" cy="50" r="50" fill="white"/>
<g clip-path="url(#clip0_88_11)">
<path d="M67.6776 73.1563V70.0638L50.0128 67.8427L32.3481 70.2518V73.1563C32.3481 73.1563 32.2029 74.5573 37.5587 76.4025C44.8877 78.9312 56.7866 78.094 62.467 76.4025C67.8997 74.7794 67.6776 73.1563 67.6776 73.1563Z" fill="#DB7963"/>
<path d="M86.0001 38.1739H14.0257C14.0257 38.1739 13.4705 45.5633 17.6048 54.4734C23.7977 67.8427 32.3567 70.2518 32.3567 70.2518L49.842 70.5935L67.3274 70.2518C67.3274 70.2518 75.8864 67.8427 82.0793 54.4734C86.2051 45.5548 86.0086 38.1739 86.0086 38.1739H86.0001Z" fill="#DB7963"/>
<g style="mix-blend-mode:multiply" opacity="0.58">
<path d="M85.9829 38.1739H73.1359C73.1359 38.1739 74.8015 45.6744 70.2487 54.3794C65.2089 64.0156 60.434 66.698 54.5999 68.6799C47.3563 71.1487 38.8741 70.5251 38.8741 70.5251C38.8741 70.5251 47.3819 72.4729 54.1984 72.4729C61.0149 72.4729 67.3017 70.2518 67.3017 70.2518C67.3017 70.2518 75.8607 67.8427 82.0536 54.4734C86.1794 45.5548 85.9829 38.1739 85.9829 38.1739Z" fill="#999999"/>
</g>
<path d="M14.0256 38.1739C14.3417 43.5472 27.5817 48.2457 50.0128 48.2457C72.444 48.2457 85.8121 44.6749 86 38.1739C86.1794 31.6729 73.6313 26.906 50.5595 27C31.1266 27.0854 14.8457 28.4693 14.0256 38.1739Z" fill="#AF5E51"/>
<path d="M15.5803 38.1141C15.8792 42.9065 28.5469 47.101 50.0128 47.101C71.4787 47.101 84.266 43.9146 84.4368 38.1141C84.6162 32.3136 72.6062 28.0593 50.5339 28.1447C31.9466 28.2216 16.3747 29.4518 15.5803 38.1141Z" fill="#DB7963"/>
<path opacity="0.38" d="M22.6701 49.5015C22.2942 50.4925 22.6103 51.5945 22.9861 52.5854C24.0026 55.302 25.4291 57.8477 27.0436 60.2568C28.2053 61.9909 29.6574 63.7849 31.7075 64.1693C32.425 64.306 33.2023 64.2462 33.8429 63.8874C34.4836 63.5286 34.9619 62.8538 34.979 62.1276C34.9961 61.3844 34.5605 60.7095 34.1675 60.0774C33.2108 58.5312 32.3993 56.8653 31.9979 55.0884C31.7331 53.9095 31.6306 52.6538 31.0241 51.603C29.982 49.809 23.8318 46.3834 22.6701 49.493V49.5015Z" fill="white"/>
<path opacity="0.38" d="M35.0644 71.4306C34.8936 71.4306 34.7228 71.4563 34.5775 71.5417C34.2786 71.7296 34.2444 72.1824 34.4152 72.4899C34.5861 72.7975 34.9021 72.994 35.2182 73.1563C36.5166 73.8311 37.9601 74.1729 39.4037 74.4377C39.959 74.5402 40.5484 74.6256 41.0609 74.4035C41.5819 74.1814 41.9578 73.5492 41.7015 73.0452C41.4538 72.5754 40.8302 72.4899 40.3006 72.4387C38.5666 72.2764 36.7728 71.3794 35.073 71.4306H35.0644Z" fill="white"/>
<g style="mix-blend-mode:multiply" opacity="0.58">
<path d="M15.5803 38.1312C15.8194 41.9754 24.0112 45.4266 38.3018 46.6482C37.533 46.1271 36.7899 45.5719 36.0638 44.991C31.6391 41.4286 28.0942 36.7814 25.8562 31.5533C25.6683 31.1176 25.4633 30.6563 25.2668 30.1779C19.595 31.6301 15.9561 34.0563 15.5803 38.1312Z" fill="#999999"/>
</g>
<path d="M83.241 40.8648C79.7815 36.6789 68.4805 33.8598 50.4656 33.9281C34.6032 33.9879 20.9361 34.902 16.7762 40.5402C20.4919 44.2392 32.22 47.0925 49.9445 47.0925C67.6691 47.0925 79.7559 44.9055 83.241 40.8563V40.8648Z" fill="#DD9F3C"/>
<path d="M33.9455 38.8317C34.2615 38.6608 34.6117 38.5839 34.9449 38.4472C35.4232 38.2422 35.8247 37.9176 36.2689 37.6442C37.2512 37.0462 38.4044 36.7387 39.5575 36.79C39.8394 36.7985 40.1213 36.8412 40.3605 36.9864C40.7534 37.2427 40.8901 37.7553 41.1549 38.1482C41.6076 38.8317 42.4276 39.1563 43.0683 39.6774C43.8712 40.3266 44.3752 41.3261 44.435 42.3513C44.4435 42.5392 44.435 42.7357 44.3496 42.898C44.1873 43.1799 43.8285 43.2568 43.5039 43.3166C42.1884 43.5387 40.873 43.7608 39.5575 43.9744C38.7717 44.1025 37.9858 44.2392 37.1914 44.2477C36.2518 44.2648 35.2951 44.1111 34.4494 43.6839C33.6721 43.291 32.5446 42.4025 32.5361 41.4543C32.519 40.5231 33.134 39.2759 33.954 38.8402L33.9455 38.8317Z" fill="#FFB83B"/>
<path d="M49.133 34.6457C48.9366 34.7482 48.7401 34.8678 48.6376 35.0643C48.5607 35.2181 48.5522 35.3889 48.5522 35.5598C48.5436 36.0724 48.5351 36.5849 48.518 37.0889C48.518 37.2598 48.518 37.4392 48.612 37.5759C48.7059 37.7211 48.8768 37.7894 49.0391 37.8492C49.8164 38.1397 50.5937 38.4301 51.371 38.7206C52.2508 39.0538 53.1477 39.3869 54.0788 39.4553C55.7616 39.5834 57.3845 38.8744 58.9221 38.1739C59.0758 37.4819 59.1271 36.7643 59.0588 36.0553C59.0246 35.6709 58.9477 35.2693 58.7256 34.9533C58.5206 34.6628 58.2216 34.4663 57.9227 34.2784C56.9745 33.706 55.9837 33.2106 54.9501 32.8176C54.4717 32.6296 53.8311 32.3648 53.3015 32.4246C52.8829 32.4759 52.5754 32.7663 52.2081 32.9628C51.1831 33.5266 50.1581 34.0819 49.133 34.6372V34.6457Z" fill="#FFB83B"/>
<path d="M65.021 40.9502C64.6025 41.0442 64.1583 41.1553 63.8252 41.4286C63.6031 41.608 63.4408 41.8558 63.287 42.095C62.9026 42.6844 62.5183 43.2739 62.1339 43.8633C62.0826 43.9487 62.0228 44.0342 62.0228 44.1367C62.0228 44.3332 62.2022 44.4698 62.373 44.5638C63.4579 45.1362 64.7392 45.1533 65.9607 45.1533C66.8319 45.1533 67.6947 45.1533 68.566 45.1276C69.0016 45.1276 69.4458 45.1106 69.8643 44.9739C70.3427 44.8286 71.9486 44.6065 72.3757 44.3417C73.3409 43.7523 74.5197 43.4618 74.2891 42.9663C74.2891 42.9663 72.7173 41.3261 72.5038 41.1894C71.7948 40.7025 70.9919 40.3437 70.1547 40.1558C69.386 39.9849 68.882 40.1729 68.1559 40.3437C67.1224 40.5829 66.0546 40.7111 65.0125 40.9502H65.021Z" fill="#FFB83B"/>
<path d="M20.5688 37.6186C20.3638 38.2422 20.4577 38.9598 20.8165 39.5065C20.8934 39.6261 20.9873 39.7372 21.0984 39.8141C21.2777 39.9337 21.4913 39.9678 21.7048 39.9935C23.157 40.1985 24.6176 40.4121 26.0698 40.6171C26.2406 40.6427 26.42 40.6683 26.5823 40.6171C26.7788 40.5658 26.9411 40.4291 27.0863 40.2839C27.6927 39.7116 28.2223 39.0538 28.658 38.3362C28.7178 38.2422 28.7776 38.1312 28.769 38.0201C28.7605 37.892 28.658 37.7894 28.564 37.6955C28.0771 37.2342 27.5561 36.7985 27.0179 36.397C26.4798 35.9955 25.8819 35.6196 25.2156 35.6025C24.8824 35.6025 24.5579 35.6794 24.2418 35.7563C22.858 36.1151 21.1411 36.0638 20.5688 37.6015V37.6186Z" fill="#FFB83B"/>
<path d="M65.021 34.2015C65.5506 33.9367 66.1571 33.8598 66.755 33.8171C67.8313 33.7402 68.9076 33.7487 69.9839 33.8427C70.1718 33.8598 70.3768 33.8854 70.5391 33.9794C70.6587 34.0477 70.7527 34.1588 70.8466 34.2613C71.3677 34.8507 71.8717 35.4658 72.3586 36.0894C72.4696 36.2261 72.5807 36.3884 72.5721 36.5678C72.5636 36.7558 72.4098 36.901 72.2561 37.0121C71.7094 37.3879 71.0089 37.4477 70.3427 37.4819C68.8991 37.5502 67.4469 37.5075 66.0034 37.3794C65.4652 37.3281 64.91 37.2598 64.4744 36.9437C63.4237 36.1834 64.0729 34.6884 65.0296 34.21L65.021 34.2015Z" fill="#FFB83B"/>
<path opacity="0.38" d="M38.1737 37.3025C37.8662 37.3965 37.627 37.6271 37.422 37.8663C37.217 38.1055 37.0206 38.3704 36.7643 38.5497C36.3543 38.8317 35.8332 38.8829 35.3463 38.9854C34.8595 39.0965 34.3384 39.3101 34.1419 39.7628C34.0736 39.9251 34.048 40.1045 34.048 40.2839C34.048 40.4291 34.0736 40.5658 34.1419 40.694C34.2444 40.8734 34.4238 40.993 34.6032 41.104C35.1243 41.4286 35.6539 41.7618 36.1749 42.0864C36.303 42.1633 36.4312 42.2402 36.5764 42.2658C36.8754 42.3085 37.1402 42.1035 37.3452 41.8814C37.5331 41.6764 37.7039 41.4457 37.7466 41.1724C37.815 40.7367 37.5331 40.3095 37.5673 39.8653C37.6185 39.2075 38.2592 38.8573 38.635 38.396C39.0536 37.9005 39.1304 37.0035 38.1652 37.294L38.1737 37.3025Z" fill="white"/>
<path opacity="0.38" d="M21.6878 37.0719C21.4913 37.2085 21.3034 37.4136 21.3205 37.6442C21.3376 37.8834 21.5426 38.0457 21.7305 38.1909C21.927 38.3362 22.1747 38.4899 22.4053 38.4045C22.5505 38.3533 22.653 38.2166 22.7726 38.1141C23.3193 37.6442 24.2333 37.9347 24.8312 37.5332C25.1046 37.3538 25.2754 37.0377 25.2925 36.7131C25.2925 36.602 25.2839 36.4909 25.2156 36.397C25.1644 36.3201 25.0789 36.2688 24.9935 36.2432C24.6945 36.1322 24.3614 36.2261 24.0624 36.3116C23.3449 36.5251 22.2772 36.5935 21.6878 37.0633V37.0719Z" fill="white"/>
<path opacity="0.38" d="M49.7651 35.2181C49.7309 35.2779 49.6968 35.3377 49.6968 35.4146C49.7053 35.5342 49.8334 35.6111 49.9445 35.6623C50.6791 35.9528 51.4991 35.8844 52.2594 36.098C52.7035 36.2261 53.1221 36.4397 53.5492 36.6106C53.9848 36.7814 54.4546 36.8925 54.9074 36.79C55.3601 36.6874 55.7872 36.3372 55.8299 35.8759C55.8982 35.2352 55.2832 34.7397 55.0611 34.1332C55.0013 33.9623 54.9672 33.7829 54.8817 33.6292C54.2496 32.5271 53.0623 33.3558 52.3277 33.689C51.4308 34.099 50.3118 34.3297 49.748 35.2181H49.7651Z" fill="white"/>
<path opacity="0.38" d="M65.32 42.1548C66.4305 42.1121 67.4897 42.5392 68.5745 42.7869C69.1724 42.9236 69.8643 42.992 70.3597 42.6246C70.7014 42.3683 70.8893 41.9412 70.915 41.5141C70.9235 41.3347 70.915 41.1553 70.8296 41.0015C70.6843 40.7281 70.3683 40.5744 70.0608 40.5573C69.7533 40.5317 69.4458 40.6171 69.1382 40.694C67.8997 41.0015 66.6611 41.1126 65.3969 41.2492C65.1406 41.2749 64.5683 41.2749 64.4573 41.5824C64.2779 42.1035 65.0125 42.1719 65.3285 42.1633L65.32 42.1548Z" fill="white"/>
<path opacity="0.38" d="M65.0125 36.2688C65.115 36.3628 65.2773 36.4311 65.3969 36.3543C65.4567 36.3115 65.4908 36.2432 65.5335 36.1834C65.9179 35.5256 66.7977 35.3121 67.558 35.3889C68.3182 35.4658 69.0443 35.7648 69.8045 35.8588C70.1633 35.9015 70.616 35.8502 70.7612 35.5171C70.8466 35.3206 70.7868 35.0985 70.6929 34.9105C70.4622 34.492 70.0181 34.2271 69.5482 34.1246C69.087 34.0221 68.6001 34.0477 68.1217 34.099C67.3359 34.1759 66.5586 34.2955 65.7898 34.4578C65.32 34.5603 64.9612 34.6286 64.7818 35.0985C64.6281 35.4914 64.6879 35.9869 65.021 36.2688H65.0125Z" fill="white"/>
<path d="M45.8102 42.6844C45.7333 43.2312 45.3319 43.6839 44.8621 43.9573C44.3837 44.2307 43.8456 44.3588 43.3074 44.4784C42.6582 44.6236 42.0176 44.7774 41.3684 44.9226C41.189 44.9653 40.9926 45.0251 40.9242 45.196C40.8644 45.3498 40.9584 45.5377 41.1036 45.6231C41.2488 45.7171 41.4197 45.7342 41.5905 45.7427C43.2391 45.8709 44.9133 45.6658 46.4765 45.1447C46.9121 44.9995 47.3478 44.8286 47.7065 44.5382C48.0653 44.2477 48.3386 43.8291 48.3643 43.3678C48.3984 42.8211 48.0738 42.3171 47.7321 41.8814C47.493 41.5739 47.2196 41.2749 46.878 41.0869C46.4509 40.8477 45.9383 40.7965 45.4514 40.7623C45.2208 40.7452 44.956 40.7367 44.8023 40.9075C44.435 41.2834 45.1439 41.4286 45.3233 41.5482C45.6821 41.7874 45.87 42.2573 45.8102 42.6759V42.6844Z" fill="#CE8111"/>
<path d="M25.3096 41.1724C26.1808 41.1724 27.0948 41.1126 27.8636 40.7025C28.1711 40.5402 28.453 40.3181 28.7861 40.2156C29.1193 40.1131 29.5378 40.1558 29.7428 40.4377C29.9308 40.7025 29.871 41.0869 29.6745 41.3432C29.478 41.5995 29.162 41.7447 28.8545 41.8387C28.3249 42.001 27.7782 42.0352 27.2315 42.0779C25.711 42.1804 24.1393 42.2829 22.7128 41.7533C22.448 41.6508 22.1661 41.5141 22.0636 41.2492C22.038 41.1894 22.0295 41.1296 22.0551 41.0784C22.0807 41.01 22.1576 40.9759 22.2259 40.9502C22.7128 40.7709 23.0289 40.9332 23.4816 41.0528C24.0539 41.2065 24.7287 41.1809 25.3181 41.1894L25.3096 41.1724Z" fill="#CE8111"/>
<path d="M47.2965 36.7985C47.2111 37.2 47.3392 37.6357 47.6296 37.9261C48.0909 38.3874 48.8511 38.4301 49.3295 38.8744C48.0738 39.2246 46.7498 38.7975 45.5454 38.302C45.1952 38.1568 44.8364 37.9945 44.5716 37.7211C44.3068 37.4477 44.1701 37.0206 44.3324 36.6704C44.5033 36.2945 44.9474 36.1492 45.3489 36.0467C46.186 35.8417 47.0317 35.705 47.8859 35.6367C48.2959 35.6025 48.3984 35.8332 48.1165 36.0126C47.9969 36.0894 47.8004 36.0382 47.6467 36.1578C47.4673 36.303 47.3392 36.5678 47.2965 36.7814V36.7985Z" fill="#CE8111"/>
<path d="M59.8958 38.4045C60.2034 38.1141 60.4254 37.6186 60.1777 37.2683C60.0411 37.0719 59.7848 36.9693 59.7165 36.7387C60.4511 36.4995 61.254 36.79 61.9374 37.1658C62.2192 37.3196 62.5182 37.5246 62.5866 37.8322C62.6463 38.0884 62.5268 38.3618 62.3474 38.5583C62.1595 38.7462 61.9203 38.8658 61.6726 38.9683C60.7757 39.3528 59.8104 39.5834 58.8281 39.6603C58.1875 39.7116 57.0428 39.8312 56.4876 39.4724C56.8378 39.2417 57.4101 39.2417 57.8202 39.1734C58.5633 39.0538 59.3235 38.9427 59.8958 38.396V38.4045Z" fill="#CE8111"/>
<path d="M60.7842 43.4191C60.5878 43.5985 60.3998 43.8121 60.3315 44.0598C60.2546 44.3161 60.3315 44.6322 60.5536 44.7688C60.733 44.8799 60.9722 44.8628 61.1772 44.9055C61.3907 44.9568 61.6043 45.1533 61.5188 45.3583C61.4847 45.4352 61.4163 45.4864 61.348 45.5377C60.4596 46.1186 59.2979 46.0246 58.2473 45.8538C57.5895 45.7427 56.9318 45.606 56.2741 45.4523C55.9751 45.3839 55.6591 45.29 55.4797 45.0422C55.3003 44.7945 55.3174 44.4357 55.4626 44.1623C55.6078 43.889 55.8641 43.6839 56.1289 43.5302C56.7354 43.1714 57.4443 43.0005 58.1277 42.8382C59.3919 42.5392 61.0832 41.9754 62.3816 42.3C62.0399 42.7528 61.2284 43.0091 60.7842 43.4276V43.4191Z" fill="#CE8111"/>
<path d="M73.375 37.3281C73.2384 37.4905 73.0248 37.5673 72.8284 37.6186C72.1963 37.7894 71.5044 37.8065 70.9662 38.1739C70.8893 38.2251 70.8039 38.2935 70.7868 38.3874C70.7527 38.5583 70.9406 38.695 71.1114 38.7377C71.3079 38.7889 71.5044 38.7975 71.7094 38.806C72.7686 38.8487 73.8534 38.8829 74.8784 38.601C75.2543 38.4985 75.6643 38.2935 75.7497 37.9176C75.8437 37.499 75.4764 37.1231 75.1091 36.901C74.6649 36.6362 74.1524 36.4739 73.6398 36.4312C73.5373 36.4226 73.4177 36.4226 73.3409 36.491C73.1786 36.6362 73.6569 36.995 73.3836 37.3111L73.375 37.3281Z" fill="#CE8111"/>
<path d="M31.2804 37.2513C31.1095 37.2513 30.9045 37.2256 30.8106 37.0804C30.7081 36.9266 30.785 36.7131 30.9216 36.5935C31.0583 36.4739 31.2462 36.4312 31.4256 36.3884C31.195 36.3714 30.9729 36.3201 30.7593 36.2261C30.691 36.2005 30.6312 36.1663 30.5885 36.1065C30.4945 35.9869 30.5629 35.799 30.6825 35.705C30.802 35.6111 30.9643 35.5854 31.1181 35.5598C30.8362 35.5342 30.6227 35.2095 30.6995 34.9362C30.785 34.6628 31.1437 34.5176 31.4 34.6543C31.2121 34.4663 31.1266 34.1588 31.2633 33.9281C31.4 33.6975 31.7673 33.6377 31.9381 33.8342C31.9979 33.5095 32.1431 33.108 32.4763 33.108C32.835 33.108 32.9717 33.595 33.2963 33.7487C33.3134 33.4839 33.4073 33.2106 33.5953 33.0226C33.7832 32.8347 34.0821 32.7407 34.3299 32.8347C34.5776 32.9286 34.7399 33.2362 34.6374 33.4839C34.868 33.3301 35.1072 33.1764 35.3805 33.1337C35.6539 33.0824 35.9614 33.1593 36.1322 33.3814C36.286 33.5779 36.2945 33.8513 36.2176 34.0904C36.1493 34.3296 36.0041 34.5347 35.8589 34.7312C36.2518 34.6116 36.7216 34.5005 37.0462 34.7568C37.3879 35.0301 37.2768 35.6794 36.8668 35.8246C37.2 35.7136 37.6698 35.6538 37.815 35.9698C37.9175 36.192 37.7637 36.4482 37.5673 36.5935C37.311 36.7814 36.9949 36.8412 36.6874 36.8925C35.7137 37.0462 34.663 37.2342 33.6807 37.1658C32.8777 37.1146 32.1004 37.2854 31.2889 37.2683L31.2804 37.2513Z" fill="#629B4B"/>
<path d="M49.7566 44.4955C49.6455 44.5809 49.5345 44.7347 49.6285 44.8286C49.6712 44.8714 49.7395 44.8799 49.7993 44.8799C50.2435 44.8799 50.6962 44.7945 51.1062 44.6151C50.8329 44.7261 50.8927 45.1789 51.1489 45.3156C51.4052 45.4523 51.7298 45.3668 51.986 45.2301C52.3277 45.0507 52.6267 44.7945 52.8488 44.4784C52.9171 44.7261 53.1648 44.8884 53.4125 44.9312C53.6603 44.9739 53.9251 44.9055 54.1557 44.803C54.5913 44.6236 54.9843 44.3502 55.3003 44C55.958 44.2477 56.7439 44.1025 57.282 43.6497C57.5041 43.4618 57.6921 43.1543 57.581 42.8894C57.4443 42.5648 57.0002 42.5563 56.6499 42.5904C56.8122 42.4452 57.0343 42.3854 57.2308 42.2829C57.4273 42.1804 57.6066 41.9668 57.5468 41.7533C57.4956 41.5482 57.2564 41.4543 57.0514 41.4201C56.5389 41.3518 55.9922 41.5226 55.6164 41.8814C55.6591 41.497 55.2747 41.1553 54.8903 41.1467C54.4974 41.1467 54.1471 41.4116 53.9421 41.7362C53.7201 41.3603 53.199 41.2322 52.789 41.3774C52.379 41.5226 52.08 41.8899 51.9092 42.2915C51.6956 42.804 51.8408 43.3678 51.3112 43.6156C50.7645 43.8804 50.2349 44.111 49.7395 44.4784L49.7566 44.4955Z" fill="#629B4B"/>
<path d="M59.315 32.2196C59.6652 31.5703 60.2803 31.0578 60.9807 30.8271C61.0149 31.092 60.9551 31.3653 60.8269 31.6045C61.2711 31.3739 61.758 31.2286 62.262 31.1859C62.3816 31.1774 62.5268 31.1859 62.5695 31.297C62.5951 31.3568 62.578 31.4251 62.5695 31.4849C62.4841 31.7668 62.3303 32.0317 62.1253 32.2452C62.5097 32.0573 62.988 32.0487 63.381 32.2196C63.6116 32.3221 63.8422 32.5357 63.8081 32.792C63.7824 32.9799 63.6202 33.1166 63.4664 33.2276C63.1333 33.4668 62.783 33.6719 62.4157 33.8342C62.7318 33.8513 63.0393 33.9452 63.3041 34.1246C63.3895 34.1844 63.4749 34.2698 63.4493 34.3724C63.4322 34.4236 63.3895 34.4578 63.3383 34.492C63.1333 34.6286 62.877 34.6884 62.6293 34.6543C62.8172 34.7055 62.988 34.7995 63.1247 34.9276C63.1589 34.9618 63.1931 34.996 63.2016 35.0472C63.2187 35.1668 63.0735 35.2352 62.9624 35.2523C62.3132 35.3719 61.6555 35.2523 61.0234 35.107C60.528 34.9874 59.8788 34.9191 59.4346 34.6543C58.6573 34.193 58.9819 32.8603 59.3321 32.2281L59.315 32.2196Z" fill="#629B4B"/>
<path d="M75.7155 41.8729C75.613 41.9327 75.5105 42.001 75.3909 42.0096C75.2884 42.0181 75.1944 41.9925 75.1005 41.9498C74.699 41.7618 74.5025 41.2407 74.6734 40.8307C74.8442 40.4291 75.3653 40.207 75.7753 40.3693C75.6472 39.9422 75.5703 39.4638 75.7753 39.0623C75.9803 38.6608 76.5526 38.4387 76.8857 38.7377C77.048 38.3447 77.2274 37.9347 77.5862 37.704C77.9449 37.4734 78.5173 37.5417 78.6625 37.9432C78.8931 37.6357 79.175 37.3025 79.5594 37.3111C79.8925 37.3281 80.1573 37.6357 80.2 37.9688C80.2342 38.302 80.0804 38.6266 79.8583 38.8744C79.6363 39.1221 79.3458 39.293 79.0639 39.4724C79.4142 39.5493 79.6875 39.8995 79.679 40.2583C79.679 40.6171 79.3885 40.9503 79.0298 41.0186C79.286 41.1211 79.4227 41.4457 79.3202 41.702C79.2262 41.9583 78.9102 42.1035 78.6454 42.0181C78.5087 41.9754 78.4062 41.8814 78.2952 41.7874C77.9962 41.5226 77.5435 40.9075 77.1164 40.993C76.6722 41.0869 76.0828 41.6251 75.6984 41.8729H75.7155Z" fill="#629B4B"/>
</g>
<defs>
<clipPath id="clip0_88_11">
<rect width="72" height="51" fill="white" transform="translate(14 27)"/>
</clipPath>
</defs>
</svg>
