<svg width="129" height="29" viewBox="0 0 129 29" fill="none" xmlns="http://www.w3.org/2000/svg">
<path fill-rule="evenodd" clip-rule="evenodd" d="M36.2315 4.64744H41.3027V27.2053C41.3027 27.7566 41.7506 28.2024 42.2999 28.2024C42.8492 28.2024 43.299 27.7566 43.299 27.2053V4.64744H48.2627C48.619 4.64744 48.9494 4.45836 49.1265 4.14787C49.3057 3.83938 49.3057 3.45924 49.1265 3.15074C48.9494 2.84225 48.619 2.65118 48.2627 2.65118H36.2315C35.6802 2.65118 35.2344 3.099 35.2344 3.64831C35.2344 4.19763 35.6802 4.64744 36.2315 4.64744Z" fill="#28735F"/>
<path d="M86.896 23.5153V16.4259H81.6974V23.5153H81.6934V23.5392C81.6815 24.0129 81.7969 24.4706 82.0198 24.8707C82.2427 25.2707 82.5691 25.613 82.9751 25.8519C83.3792 26.0907 83.8369 26.2081 84.2987 26.2081C84.7604 26.2081 85.2182 26.0887 85.6222 25.8519C86.0282 25.613 86.3546 25.2707 86.5776 24.8707C86.7885 24.4925 86.904 24.0606 86.904 23.6128C86.9 23.581 86.9 23.5491 86.9 23.5153M81.7014 9.89381C81.7014 10.4451 81.2536 10.8929 80.7022 10.8929C80.1509 10.8929 79.7031 10.4451 79.7031 9.89381V7.27062C79.7031 6.47053 79.9061 5.6983 80.2823 5.01962C80.6724 4.31705 81.2496 3.71399 81.9701 3.29006C82.6925 2.86414 83.4966 2.65118 84.2987 2.65118C85.1008 2.65118 85.9048 2.86414 86.6273 3.29006C87.3478 3.71399 87.925 4.31705 88.3151 5.01962C88.7032 5.71821 88.9082 6.51631 88.8903 7.34028H88.8942V23.5849C88.8942 24.385 88.6912 25.1573 88.3151 25.836C87.925 26.5385 87.3478 27.1416 86.6273 27.5655C85.9048 27.9914 85.0988 28.2024 84.2987 28.2024C83.4986 28.2024 82.6925 27.9894 81.9701 27.5655C81.2496 27.1416 80.6724 26.5385 80.2823 25.836C79.8942 25.1374 79.6892 24.3393 79.7071 23.5153H79.7031V15.4288C79.7031 14.8775 80.1509 14.4297 80.7022 14.4297H86.9V7.34028H86.904V7.3164C86.9159 6.84271 86.8005 6.38495 86.5776 5.9849C86.3546 5.58486 86.0282 5.24253 85.6222 5.0037C85.2182 4.76486 84.7604 4.64744 84.2987 4.64744C83.8369 4.64744 83.3792 4.76685 82.9751 5.0037C82.5691 5.24253 82.2427 5.58486 82.0198 5.9849C81.8088 6.36306 81.6934 6.79495 81.6934 7.24276C81.6974 7.2746 81.6974 7.30645 81.6974 7.34028V9.89381H81.7014Z" fill="#28735F"/>
<path d="M112.623 23.5153V16.4259H107.424V23.5153H107.42V23.5392C107.408 24.0129 107.523 24.4706 107.746 24.8707C107.969 25.2707 108.296 25.613 108.702 25.8519C109.106 26.0907 109.564 26.2081 110.025 26.2081C110.487 26.2081 110.945 26.0887 111.349 25.8519C111.755 25.613 112.081 25.2707 112.304 24.8707C112.515 24.4925 112.631 24.0606 112.631 23.6128C112.627 23.581 112.627 23.5491 112.627 23.5153M107.428 9.89381C107.428 10.4451 106.98 10.8929 106.429 10.8929C105.878 10.8929 105.43 10.4451 105.43 9.89381V7.27062C105.43 6.47053 105.633 5.6983 106.009 5.01962C106.399 4.31705 106.976 3.71399 107.697 3.29006C108.419 2.86414 109.223 2.65118 110.025 2.65118C110.827 2.65118 111.631 2.86414 112.354 3.29006C113.074 3.71399 113.652 4.31705 114.042 5.01962C114.43 5.71821 114.635 6.51631 114.617 7.34028H114.621V23.5849C114.621 24.385 114.418 25.1573 114.042 25.836C113.652 26.5385 113.074 27.1416 112.354 27.5655C111.631 27.9914 110.825 28.2024 110.025 28.2024C109.225 28.2024 108.419 27.9894 107.697 27.5655C106.976 27.1416 106.399 26.5385 106.009 25.836C105.621 25.1374 105.416 24.3393 105.434 23.5153H105.43V15.4288C105.43 14.8775 105.878 14.4297 106.429 14.4297H112.627V7.34028H112.631V7.3164C112.642 6.84271 112.527 6.38495 112.304 5.9849C112.081 5.58486 111.755 5.24253 111.349 5.0037C110.945 4.76486 110.487 4.64744 110.025 4.64744C109.564 4.64744 109.106 4.76685 108.702 5.0037C108.296 5.24253 107.969 5.58486 107.746 5.9849C107.535 6.36306 107.42 6.79495 107.42 7.24276C107.424 7.2746 107.424 7.30645 107.424 7.34028V9.89381H107.428Z" fill="#28735F"/>
<path d="M91.1947 4.64747C90.6434 4.64747 90.1956 4.19966 90.1956 3.64835C90.1956 3.09704 90.6434 2.64923 91.1947 2.64923H103.226C103.777 2.64923 104.225 3.09704 104.225 3.64835C104.225 4.19966 103.777 4.64747 103.226 4.64747H98.2622V27.2053C98.2622 27.7566 97.8144 28.2044 97.263 28.2044C96.7117 28.2044 96.2639 27.7566 96.2639 27.2053V4.64747H91.1927H91.1947Z" fill="#28735F"/>
<path d="M121.805 17.8291V3.65033C121.805 3.29407 121.616 2.96369 121.305 2.78655C120.997 2.60743 120.617 2.60743 120.308 2.78655C120 2.96369 119.809 3.29407 119.809 3.65033V27.2073C119.809 27.7586 120.256 28.2044 120.808 28.2044C121.359 28.2044 121.805 27.7586 121.805 27.2073V22.0863C125.35 15.393 127.003 12.2663 127.003 12.2663V27.2073C127.003 27.7586 127.451 28.2044 128.003 28.2044C128.554 28.2044 129 27.7586 129 27.2073V3.65033C129 3.29407 128.811 2.96369 128.5 2.78655C128.192 2.60743 127.812 2.60743 127.503 2.78655C127.195 2.96369 127.003 3.29407 127.003 3.65033V8.00905C123.536 14.5551 121.805 17.8271 121.805 17.8271M121.837 1.58044C121.514 1.13462 121.614 0.511663 122.06 0.189237C122.505 -0.133188 123.128 -0.033674 123.451 0.412149C123.56 0.56341 123.706 0.684817 123.869 0.768409C124.032 0.852001 124.215 0.895787 124.404 0.895787C124.593 0.895787 124.778 0.85001 124.94 0.768409C125.103 0.684817 125.248 0.56341 125.357 0.412149C125.68 -0.033674 126.305 -0.133188 126.749 0.189237C127.195 0.511663 127.294 1.13661 126.972 1.58044C126.673 1.99243 126.283 2.32083 125.843 2.54374C125.403 2.76864 124.91 2.89005 124.402 2.89005C123.895 2.89005 123.403 2.76864 122.961 2.54374C122.521 2.31884 122.133 1.99044 121.835 1.58044H121.837Z" fill="#28735F"/>
<path fill-rule="evenodd" clip-rule="evenodd" d="M14.7022 14.4058C12.081 14.4058 9.95737 16.5315 9.95737 19.1507C10.0569 22.1301 11.6392 25.1394 14.7022 28.1806C12.8373 28.2025 11.2968 27.7666 9.50956 27.1675C3.87707 25.2807 0 19.702 0 13.4087V3.60459C4.4224 3.60459 7.87156 6.13026 7.87156 12.2205C7.87156 6.27953 10.5306 4.2176 14.7042 1.73572C18.8758 4.21561 21.5368 6.27953 21.5368 12.2205C21.5368 6.13026 24.986 3.60459 29.4084 3.60459V13.4087C29.4084 19.7 25.5313 25.2807 19.8988 27.1675C18.1115 27.7666 16.5711 28.2025 14.7062 28.1806C17.7692 25.1394 19.3515 22.1301 19.451 19.1507C19.451 16.5295 17.3274 14.4058 14.7062 14.4058" fill="#D66B51"/>
<path fill-rule="evenodd" clip-rule="evenodd" d="M53.1504 17.0708V3.65033C53.1504 3.09902 52.7026 2.6532 52.1513 2.6532C51.6 2.6532 51.1542 3.09902 51.1542 3.65033V17.0708C51.2119 19.2243 52.6748 21.0832 54.7526 21.6504V27.2073C54.7526 27.7586 55.2004 28.2044 55.7497 28.2044C56.299 28.2044 56.7489 27.7586 56.7489 27.2073V21.6305C58.8406 21.0991 60.3154 19.2302 60.3473 17.0728V3.65033C60.3473 3.09902 59.8995 2.6532 59.3482 2.6532C58.7969 2.6532 58.351 3.09902 58.349 3.65033V17.0708C58.3829 18.0201 57.8953 18.9138 57.0753 19.3994C56.2573 19.885 55.2382 19.885 54.4222 19.3994C53.6042 18.9138 53.1166 18.0201 53.1484 17.0708" fill="#28735F"/>
<path fill-rule="evenodd" clip-rule="evenodd" d="M67.5265 23.6128C67.5305 16.1592 67.5305 12.4315 67.5305 12.4315C67.7494 11.1557 68.862 10.2262 70.1577 10.2421C71.4513 10.2581 72.544 11.2134 72.7311 12.4951C72.7351 19.9069 72.7351 23.6128 72.7351 23.6128C72.7291 25.0478 71.5668 26.2082 70.1298 26.2082C68.6928 26.2082 67.5305 25.0478 67.5245 23.6128M67.5285 4.70121H73.9233C74.4746 4.70121 74.9204 4.25339 74.9204 3.70209C74.9204 3.15078 74.4746 2.70496 73.9233 2.70496H66.5294C65.9781 2.70496 65.5302 3.15277 65.5302 3.70408V23.5153C65.4964 25.1792 66.3662 26.7316 67.8012 27.5735C69.2362 28.4154 71.0155 28.4154 72.4505 27.5735C73.8854 26.7316 74.7552 25.1792 74.7214 23.5153C74.7214 16.1274 74.7214 12.4315 74.7214 12.4315C74.5402 10.8173 73.5471 9.41021 72.0902 8.6957C70.6313 7.98119 68.9117 8.06279 67.5265 8.91065V4.70121H67.5285Z" fill="#28735F"/>
</svg>
