<svg width="130" height="23" viewBox="0 0 130 23" fill="none" xmlns="http://www.w3.org/2000/svg">
<path d="M26.8686 4.19992C26.2117 4.19992 25.8965 4.75205 25.8965 5.83009C25.8965 6.90816 26.2117 7.46037 26.8686 7.46037H30.5204V21.8167C30.5204 22.553 31.1509 22.9211 32.4383 22.9211C33.7257 22.9211 34.3562 22.553 34.3562 21.8167V7.46037H38.0081C38.6649 7.46037 38.9801 6.9082 38.9801 5.83009C38.9801 4.75205 38.6649 4.19992 38.0081 4.19992H26.8685H26.8686Z" fill="white"/>
<path fill-rule="evenodd" clip-rule="evenodd" d="M11.1882 12.4315C9.19412 12.4315 7.57737 14.0489 7.57737 16.0449C7.65364 18.3136 8.85676 20.6054 11.1882 22.921C9.7692 22.9374 8.59696 22.6061 7.23661 22.1495C2.95093 20.7127 0.00012207 16.4633 0.00012207 11.6716V4.20498C3.36458 4.20498 5.98931 6.12929 5.98931 10.7665C5.98931 6.24286 8.01314 4.672 11.1882 2.78247C14.3628 4.672 16.3866 6.24286 16.3866 10.7665C16.3866 6.12929 19.011 4.20498 22.3755 4.20498V11.6716C22.3755 16.4633 19.4251 20.7127 15.1397 22.1495C13.779 22.6061 12.607 22.9374 11.1882 22.921C13.5189 20.6054 14.7226 18.3136 14.7989 16.0449C14.7989 14.0489 13.1821 12.4315 11.1882 12.4315H11.1882Z" fill="white"/>
<path d="M47.6129 22.9211C48.9002 22.9211 49.5308 22.553 49.5308 21.8168V16.6895C51.0021 16.3476 52.158 15.664 52.9725 14.6123C53.787 13.5605 54.2073 12.2195 54.2073 10.6157V5.12026C54.2073 4.38399 53.5768 4.01584 52.2894 4.01584C51.0021 4.01584 50.3715 4.38399 50.3715 5.12026V10.7471C50.3715 11.6673 50.1351 12.3773 49.6622 12.9031C49.1893 13.429 48.5062 13.692 47.6392 13.692C46.7722 13.692 46.0891 13.429 45.6162 12.9031C45.1433 12.3773 44.9069 11.6673 44.9069 10.7471V5.12026C44.9069 4.38399 44.2763 4.01584 42.989 4.01584C41.7016 4.01584 41.071 4.38399 41.071 5.12026V10.6157C41.071 12.2195 41.4914 13.5605 42.3059 14.6123C43.1203 15.664 44.2763 16.374 45.7476 16.7157V21.8431C45.7476 22.5793 46.3781 22.9474 47.6655 22.9474L47.613 22.9211L47.6129 22.9211Z" fill="white"/>
<path d="M60.7055 7.46037H68.257C68.9137 7.46037 69.229 6.9082 69.229 5.83009C69.229 4.75205 68.9134 4.19992 68.257 4.19992H57.868C57.2116 4.19992 56.8698 4.59461 56.8698 5.38308V16.8472C56.8698 18.7404 57.5002 20.2391 58.7613 21.3434C60.0224 22.4478 61.5725 22.9999 63.4378 22.9999C65.3032 22.9999 66.8533 22.4478 68.1144 21.3434C69.3754 20.2391 70.0061 18.7404 70.0061 16.8472V16.1373C70.0061 14.4019 69.4018 12.982 68.2195 11.8513C67.0372 10.7207 65.5922 10.1686 63.9107 10.1686C62.5971 10.1686 61.5199 10.4578 60.6792 11.01L60.7055 7.46033V7.46037ZM66.1439 16.8735C66.1439 17.7413 65.8812 18.4511 65.3557 18.977C64.8303 19.5029 64.1735 19.7658 63.3853 19.7658C62.5971 19.7658 61.9403 19.5029 61.4148 18.977C60.8894 18.4511 60.6266 17.7413 60.6266 16.8735V16.3739C60.6266 15.5062 60.8894 14.7963 61.4148 14.2441C61.9403 13.692 62.5971 13.429 63.3853 13.429C64.1735 13.429 64.8303 13.692 65.3557 14.2441C65.8812 14.7963 66.1439 15.5062 66.1439 16.3739V16.8735Z" fill="white"/>
<path d="M88.239 4.19992C87.5821 4.19992 87.2669 4.75205 87.2669 5.83009C87.2669 6.90816 87.5821 7.46037 88.239 7.46037H91.8909V21.8167C91.8909 22.553 92.5213 22.9211 93.8087 22.9211C95.0961 22.9211 95.7266 22.553 95.7266 21.8167V7.46037H99.3786C100.035 7.46037 100.351 6.9082 100.351 5.83009C100.351 4.75205 100.035 4.19992 99.3786 4.19992H88.2389H88.239Z" fill="white"/>
<path d="M121.251 5.12023C121.251 4.38397 120.621 4.01581 119.333 4.01581C118.046 4.01581 117.415 4.38397 117.415 5.12023V21.8167C117.415 22.553 118.046 22.9211 119.333 22.9211C120.621 22.9211 121.251 22.553 121.251 21.8167V14.3098L126.19 9.63395V21.8167C126.19 22.553 126.821 22.9211 128.082 22.9211C129.369 22.9211 130 22.553 130 21.8167V5.1465C130 4.38397 129.369 4.01581 128.082 4.01581C127.346 4.01581 126.742 4.25249 126.243 4.69946L121.251 9.47616V5.12019V5.12023ZM123.792 4.19995C124.738 4.19995 125.552 3.91065 126.235 3.30593C126.918 2.70122 127.26 1.85975 127.26 0.781716V0.762508C127.26 0.262995 126.813 -3.05176e-05 125.92 -3.05176e-05C125.027 -3.05176e-05 124.58 0.236876 124.58 0.736236V0.86057C124.58 1.57034 124.318 1.91233 123.766 1.91233C123.214 1.91233 122.951 1.57056 122.951 0.86057V0.736236C122.951 0.236647 122.505 -3.05176e-05 121.611 -3.05176e-05C120.718 -3.05176e-05 120.272 0.263148 120.272 0.762508V0.781716C120.272 1.85952 120.613 2.70126 121.296 3.30593C121.979 3.91053 122.794 4.22626 123.74 4.22626L123.792 4.19995Z" fill="white"/>
<path d="M76.5042 15.0856L76.4924 16.6888C76.4858 17.5852 76.5504 18.2499 77.2043 18.9771C77.6772 19.5029 78.3078 19.7659 79.096 19.7659C79.8841 19.7659 80.5146 19.5029 80.9875 18.9771C81.4604 18.4512 81.6969 17.7413 81.6969 16.821V15.0856H77.9925H76.5042ZM72.6684 16.6203V13.0083C72.6684 12.2196 73.01 11.8252 73.6668 11.8252C76.3435 11.8252 79.0203 11.8251 81.6969 11.8251L81.6181 10.0372C81.6181 9.1169 81.3816 8.40698 80.9087 7.88112C80.4358 7.35522 79.8053 7.09231 79.0172 7.09231C77.9981 7.09231 76.7005 7.812 76.7005 8.94212C76.7005 9.67827 76.0699 10.0465 74.7825 10.0465C73.4951 10.0465 72.8646 9.67835 72.8646 8.94212C72.8646 5.6494 76.1331 3.85809 79.0697 3.85809C80.8824 3.85809 82.4062 4.41026 83.6411 5.51465C84.8759 6.61895 85.5064 8.09145 85.5064 9.90575V16.9524C85.5064 18.7667 84.9021 20.2392 83.6673 21.3435C82.4325 22.4479 80.9087 23 79.096 23C77.2569 23 75.7331 22.4479 74.4982 21.3699C73.2188 20.2528 72.6684 18.3483 72.6684 16.6203L72.6684 16.6203Z" fill="white"/>
<path d="M105.751 15.0856L105.739 16.6888C105.732 17.5852 105.797 18.2499 106.451 18.9771C106.924 19.5029 107.554 19.7659 108.342 19.7659C109.131 19.7659 109.761 19.5029 110.234 18.9771C110.707 18.4512 110.943 17.7413 110.943 16.821V15.0856H107.239H105.751H105.751ZM101.915 16.6203V13.0083C101.915 12.2196 102.257 11.8252 102.913 11.8252C105.59 11.8252 108.267 11.8251 110.943 11.8251L110.865 10.0372C110.865 9.1169 110.628 8.40698 110.155 7.88112C109.682 7.35522 109.052 7.09231 108.264 7.09231C107.245 7.09231 105.947 7.812 105.947 8.94212C105.947 9.67827 105.316 10.0465 104.029 10.0465C102.742 10.0465 102.111 9.67835 102.111 8.94212C102.111 5.6494 105.38 3.85809 108.316 3.85809C110.129 3.85809 111.653 4.41026 112.888 5.51465C114.122 6.61895 114.753 8.09145 114.753 9.90575V16.9524C114.753 18.7667 114.149 20.2392 112.914 21.3435C111.679 22.4479 110.155 23 108.342 23C106.503 23 104.98 22.4479 103.745 21.3699C102.465 20.2528 101.915 18.3483 101.915 16.6203L101.915 16.6203Z" fill="white"/>
</svg>
