<svg width="20" height="18" viewBox="0 0 20 18" fill="none" xmlns="http://www.w3.org/2000/svg">
<mask id="path-1-outside-1_5_393" maskUnits="userSpaceOnUse" x="0" y="0" width="20" height="18" fill="black">
<rect fill="white" width="20" height="18"/>
<path fill-rule="evenodd" clip-rule="evenodd" d="M10.0003 8.70765C8.57437 8.70765 7.41828 9.83202 7.41828 11.2196C7.47282 12.7967 8.33313 14.3899 10.0003 15.9996C8.98559 16.011 8.14735 15.7807 7.17461 15.4633C4.11004 14.4644 2 11.5104 2 8.17942V2.98888C4.40583 2.98888 6.2827 4.32659 6.2827 7.55021C6.2827 4.40554 7.72988 3.31353 10.0003 2C12.2703 3.31353 13.7175 4.40554 13.7175 7.55021C13.7175 4.32659 15.5941 2.98888 18 2.98888V8.17942C18 11.5104 15.8902 14.4644 12.8259 15.4633C11.8529 15.7807 11.0148 16.011 10.0002 15.9996C11.6669 14.3899 12.5276 12.7967 12.5822 11.2196C12.5822 9.83202 11.4261 8.70765 10.0002 8.70765H10.0003Z"/>
</mask>
<path fill-rule="evenodd" clip-rule="evenodd" d="M10.0003 8.70765C8.57437 8.70765 7.41828 9.83202 7.41828 11.2196C7.47282 12.7967 8.33313 14.3899 10.0003 15.9996C8.98559 16.011 8.14735 15.7807 7.17461 15.4633C4.11004 14.4644 2 11.5104 2 8.17942V2.98888C4.40583 2.98888 6.2827 4.32659 6.2827 7.55021C6.2827 4.40554 7.72988 3.31353 10.0003 2C12.2703 3.31353 13.7175 4.40554 13.7175 7.55021C13.7175 4.32659 15.5941 2.98888 18 2.98888V8.17942C18 11.5104 15.8902 14.4644 12.8259 15.4633C11.8529 15.7807 11.0148 16.011 10.0002 15.9996C11.6669 14.3899 12.5276 12.7967 12.5822 11.2196C12.5822 9.83202 11.4261 8.70765 10.0002 8.70765H10.0003Z" fill="#F37757"/>
<path d="M10.0003 10.7077C11.1048 10.7077 12.0003 9.81222 12.0003 8.70765C12.0003 7.60308 11.1048 6.70765 10.0003 6.70765V10.7077ZM7.41828 11.2196H5.41828C5.41828 11.2426 5.41868 11.2656 5.41947 11.2887L7.41828 11.2196ZM10.0003 15.9996L10.0227 17.9995C10.8339 17.9904 11.5592 17.4922 11.8588 16.7383C12.1585 15.9845 11.9731 15.1243 11.3895 14.5608L10.0003 15.9996ZM7.17461 15.4633L7.79501 13.5619L7.79439 13.5617L7.17461 15.4633ZM2 2.98888V0.988877C0.89543 0.988877 0 1.88431 0 2.98888H2ZM4.2827 7.55021C4.2827 8.65478 5.17813 9.55021 6.2827 9.55021C7.38727 9.55021 8.2827 8.65478 8.2827 7.55021H4.2827ZM10.0003 2L11.0019 0.268911C10.3823 -0.0896144 9.61835 -0.0896385 8.99872 0.268848L10.0003 2ZM11.7175 7.55021C11.7175 8.65478 12.6129 9.55021 13.7175 9.55021C14.8221 9.55021 15.7175 8.65478 15.7175 7.55021H11.7175ZM18 2.98888H20C20 1.88431 19.1046 0.988877 18 0.988877V2.98888ZM12.8259 15.4633L12.2061 13.5617L12.2056 13.5619L12.8259 15.4633ZM10.0002 15.9996L8.6108 14.561C8.02735 15.1246 7.84206 15.9847 8.14174 16.7385C8.44141 17.4922 9.16669 17.9904 9.9778 17.9995L10.0002 15.9996ZM12.5822 11.2196L14.581 11.2887C14.5818 11.2657 14.5822 11.2426 14.5822 11.2196H12.5822ZM10.0002 6.70765C8.89568 6.70765 8.00025 7.60308 8.00025 8.70765C8.00025 9.81222 8.89568 10.7077 10.0002 10.7077V6.70765ZM10.0003 6.70765C7.52223 6.70765 5.41828 8.67574 5.41828 11.2196H9.41828C9.41828 10.9883 9.62651 10.7077 10.0003 10.7077V6.70765ZM5.41947 11.2887C5.49881 13.583 6.74388 15.6355 8.61105 17.4384L11.3895 14.5608C9.92238 13.1442 9.44682 12.0104 9.41708 11.1504L5.41947 11.2887ZM9.97783 13.9997C9.30364 14.0073 8.72228 13.8645 7.79501 13.5619L6.5542 17.3646C7.57243 17.6969 8.66754 18.0147 10.0227 17.9995L9.97783 13.9997ZM7.79439 13.5617C5.58232 12.8407 4 10.6759 4 8.17942H0C0 12.345 2.63776 16.0881 6.55482 17.3648L7.79439 13.5617ZM4 8.17942V2.98888H0V8.17942H4ZM2 4.98888C2.84825 4.98888 3.36441 5.22184 3.6602 5.50512C3.93769 5.77087 4.2827 6.3304 4.2827 7.55021H8.2827C8.2827 5.5464 7.68927 3.82526 6.42687 2.61625C5.18276 1.42477 3.55758 0.988877 2 0.988877V4.98888ZM8.2827 7.55021C8.2827 6.31455 8.55592 5.71868 8.86896 5.3161C9.24969 4.82645 9.86078 4.3913 11.0018 3.73115L8.99872 0.268848C7.86938 0.922227 6.62168 1.68985 5.71122 2.86075C4.73307 4.11872 4.2827 5.6412 4.2827 7.55021H8.2827ZM8.99861 3.73109C10.1395 4.39125 10.7505 4.82639 11.1313 5.31605C11.4443 5.71866 11.7175 6.31455 11.7175 7.55021H15.7175C15.7175 5.6412 15.2671 4.11875 14.2891 2.8608C13.3787 1.68991 12.1311 0.92228 11.0019 0.268911L8.99861 3.73109ZM15.7175 7.55021C15.7175 6.33032 16.0625 5.77079 16.34 5.50506C16.6357 5.22184 17.1517 4.98888 18 4.98888V0.988877C16.4424 0.988877 14.8172 1.42477 13.5732 2.61631C12.3108 3.82534 11.7175 5.54648 11.7175 7.55021H15.7175ZM16 2.98888V8.17942H20V2.98888H16ZM16 8.17942C16 10.6761 14.4178 12.8408 12.2061 13.5617L13.4457 17.3648C17.3627 16.088 20 12.3448 20 8.17942H16ZM12.2056 13.5619C11.2779 13.8645 10.6968 14.0073 10.0227 13.9997L9.9778 17.9995C11.3329 18.0147 12.4279 17.6968 13.4461 17.3647L12.2056 13.5619ZM11.3897 17.4382C13.2559 15.6356 14.5016 13.5832 14.581 11.2887L10.5834 11.1504C10.5537 12.0102 10.0778 13.1441 8.6108 14.561L11.3897 17.4382ZM14.5822 11.2196C14.5822 8.67574 12.4782 6.70765 10.0002 6.70765V10.7077C10.374 10.7077 10.5822 10.9883 10.5822 11.2196H14.5822ZM10.0002 10.7077H10.0003V6.70765H10.0002V10.7077Z" fill="#1C5444" mask="url(#path-1-outside-1_5_393)"/>
</svg>
