<svg width="42" height="42" viewBox="0 0 42 42" fill="none" xmlns="http://www.w3.org/2000/svg">
<g clip-path="url(#clip0_103_749)">
<path d="M41.9999 9.625V27.3018C41.9999 30.807 40.6349 34.104 38.1552 36.582L32.9927 41.7445C32.8212 41.916 32.5972 42 32.3732 42C32.1492 42 31.9252 41.9142 31.7537 41.7445C31.4124 41.4033 31.4124 40.8485 31.7537 40.5072L36.9162 35.3447C39.0652 33.1958 40.2482 30.3398 40.2482 27.3018V9.625C40.2482 8.17775 39.0704 7 37.6232 7C36.1759 7 34.9982 8.17775 34.9982 9.625C34.9982 9.625 34.9947 23.7038 34.9894 23.7423C34.9632 24.6995 34.6254 25.6515 33.9762 26.425L29.3597 31.2305C29.1882 31.409 28.9589 31.4983 28.7297 31.4983C28.5109 31.4983 28.2922 31.4177 28.1224 31.2532C27.7742 30.919 27.7637 30.3643 28.0979 30.016L32.6759 25.2542C33.0574 24.7992 33.2499 24.22 33.2499 23.6372C33.2499 23.632 33.2499 23.6285 33.2499 23.6232V23.5568C33.2324 22.953 33.0102 22.3475 32.5814 21.868C31.6189 20.7952 29.9617 20.7025 28.8837 21.665L24.1079 26.061C23.2049 26.8905 22.4822 27.8687 21.9537 28.9713C22.4734 30.289 22.7517 31.7048 22.7517 33.145V41.1233C22.7517 41.6063 22.3597 41.9983 21.8767 41.9983C21.3937 41.9983 21.0017 41.6063 21.0017 41.1233V33.145C21.0017 30.4605 19.8694 27.8792 17.8937 26.0627L13.1092 21.6597C12.0434 20.7043 10.3844 20.7952 9.42017 21.8697C8.55567 22.834 8.53292 24.3092 9.36417 25.2997L13.9019 30.016C14.2362 30.3643 14.2257 30.919 13.8774 31.2532C13.5274 31.5875 12.9744 31.577 12.6402 31.2287L8.06217 26.467C7.40592 25.6865 7.05942 24.7432 7.01742 23.7965C7.00692 23.7405 6.99992 9.6215 6.99992 9.6215C6.99992 8.17425 5.82217 6.9965 4.37492 6.9965C2.92767 6.9965 1.74992 8.17425 1.74992 9.6215V27.2983C1.74992 30.3363 2.93292 33.194 5.08192 35.3412L10.2444 40.5037C10.5857 40.845 10.5857 41.3997 10.2444 41.741C10.0729 41.9125 9.84892 41.9965 9.62492 41.9965C9.40092 41.9965 9.17692 41.9107 9.00542 41.741L3.84292 36.5785C1.36317 34.0988 -0.00183105 30.8035 -0.00183105 27.2983V9.625C-0.00183105 7.2135 1.96167 5.25 4.37317 5.25C6.78467 5.25 8.74817 7.2135 8.74817 9.625V20.1215C10.3809 18.8983 12.7067 18.9525 14.2817 20.363L19.0749 24.7747C19.8204 25.4607 20.4644 26.2412 20.9964 27.0865C21.5302 26.2377 22.1742 25.4642 22.9214 24.7747L27.7059 20.3717C29.2879 18.9543 31.6154 18.8983 33.2482 20.1215V9.625C33.2482 7.2135 35.2117 5.25 37.6232 5.25C40.0347 5.25 41.9999 7.2135 41.9999 9.625ZM12.2499 5.1275C12.2499 2.2995 14.4077 0 17.0624 0C18.7459 0 20.1512 0.72625 20.9999 1.9075C21.8487 0.72625 23.2539 0 24.9374 0C27.5922 0 29.7499 2.2995 29.7499 5.1275C29.7499 8.82875 25.2892 13.3665 22.9319 15.2478C22.3632 15.701 21.6824 15.9268 20.9999 15.9268C20.3174 15.9268 19.6384 15.701 19.0697 15.2478C16.7107 13.3665 12.2499 8.8305 12.2499 5.1275ZM13.9999 5.1275C13.9999 7.7735 17.6032 11.8387 20.1617 13.8775C20.6552 14.273 21.3464 14.273 21.8399 13.8775C24.3967 11.837 27.9999 7.7735 27.9999 5.1275C27.9999 3.2655 26.6262 1.75 24.9374 1.75C23.1349 1.75 21.8749 2.98025 21.8749 4.74075C21.8749 5.22375 21.4829 5.61575 20.9999 5.61575C20.5169 5.61575 20.1249 5.22375 20.1249 4.74075C20.1249 2.98025 18.8649 1.75 17.0624 1.75C15.3737 1.75 13.9999 3.2655 13.9999 5.1275Z" fill="white"/>
</g>
<defs>
<clipPath id="clip0_103_749">
<rect width="42" height="42" fill="white"/>
</clipPath>
</defs>
</svg>
