<svg width="40" height="40" viewBox="0 0 40 40" fill="none" xmlns="http://www.w3.org/2000/svg">
<g clip-path="url(#clip0_103_742)">
<path d="M25 10H13.3333V8.33333H25V10ZM25 16.6667H13.3333V18.3333H25V16.6667ZM8.33333 24.1667C7.41333 24.1667 6.66667 24.9133 6.66667 25.8333C6.66667 26.7533 7.41333 27.5 8.33333 27.5C9.25333 27.5 10 26.7533 10 25.8333C10 24.9133 9.25333 24.1667 8.33333 24.1667ZM8.33333 7.5C7.41333 7.5 6.66667 8.24667 6.66667 9.16667C6.66667 10.0867 7.41333 10.8333 8.33333 10.8333C9.25333 10.8333 10 10.0867 10 9.16667C10 8.24667 9.25333 7.5 8.33333 7.5ZM8.33333 15.8333C7.41333 15.8333 6.66667 16.58 6.66667 17.5C6.66667 18.42 7.41333 19.1667 8.33333 19.1667C9.25333 19.1667 10 18.42 10 17.5C10 16.58 9.25333 15.8333 8.33333 15.8333ZM40 27.5833C40 33.305 30.8333 39.1317 30.4433 39.375L30 39.655L29.5567 39.375C29.1667 39.1317 20 33.3033 20 27.5833C20 24.3217 22.43 21.6667 25.4167 21.6667C27.4383 21.6667 29.0733 22.7683 30 24.575C30.9267 22.7683 32.5617 21.6667 34.5833 21.6667C37.57 21.6667 40 24.3217 40 27.5833ZM38.3333 27.5833C38.3333 25.24 36.6517 23.3333 34.5833 23.3333C32.34 23.3333 30.8333 25.3433 30.8333 28.3333H29.1667C29.1667 25.3433 27.66 23.3333 25.4167 23.3333C23.3483 23.3333 21.6667 25.24 21.6667 27.5833C21.6667 31.3467 27.315 35.8883 30 37.6783C32.685 35.89 38.3333 31.3467 38.3333 27.5833ZM1.66667 38.3333V4.16667C1.66667 2.78833 2.78833 1.66667 4.16667 1.66667H27.5C28.8783 1.66667 30 2.78833 30 4.16667V19.3417C30.535 19.065 31.095 18.8467 31.6667 18.6833V4.16667C31.6667 1.86833 29.7967 0 27.5 0H4.16667C1.87 0 0 1.86833 0 4.16667V40H24.69C24.07 39.5117 23.4083 38.945 22.74 38.3333H1.66667ZM13.3333 26.6667H16.7C16.7267 26.095 16.8017 25.5417 16.9183 25H13.3333V26.6667Z" fill="white"/>
</g>
<defs>
<clipPath id="clip0_103_742">
<rect width="40" height="40" fill="white"/>
</clipPath>
</defs>
</svg>
