<svg width="42" height="42" viewBox="0 0 42 42" fill="none" xmlns="http://www.w3.org/2000/svg">
<g clip-path="url(#clip0_103_735)">
<path d="M16.625 21H14.875V19.9167C14.875 18.158 16.0247 16.0948 17.437 15.3178C18.7705 14.5828 19.46 13.1267 19.1922 11.6095C18.9473 10.206 17.7957 9.0545 16.3905 8.806C15.3352 8.624 14.3063 8.89 13.4995 9.569C12.705 10.2358 12.25 11.2122 12.25 12.25H10.5C10.5 10.6943 11.1842 9.22775 12.3743 8.2285C13.5642 7.22925 15.1392 6.8075 16.6932 7.084C18.809 7.455 20.545 9.191 20.916 11.3068C21.308 13.5345 20.2493 15.764 18.2805 16.8507C17.4125 17.3285 16.6232 18.788 16.6232 19.9167V21H16.625ZM17.5 24.5C17.5 23.534 16.716 22.75 15.75 22.75C14.784 22.75 14 23.534 14 24.5C14 25.466 14.784 26.25 15.75 26.25C16.716 26.25 17.5 25.466 17.5 24.5ZM34.993 15.89C34.9878 16.5585 34.9492 17.2183 34.8775 17.8693C38.1185 20.076 40.25 23.793 40.25 28V40.25H28C23.793 40.25 20.076 38.1167 17.8693 34.8775C17.2183 34.9492 16.5585 34.9895 15.89 34.993C18.3137 39.1738 22.8288 42 28 42H42V28C42 22.8288 39.1738 18.3137 34.993 15.89ZM31.5 15.75C31.5 7.06475 24.4352 0 15.75 0C7.06475 0 0 7.06475 0 15.75V31.5H15.75C24.4352 31.5 31.5 24.4352 31.5 15.75ZM1.75 15.75C1.75 8.03075 8.03075 1.75 15.75 1.75C23.4692 1.75 29.75 8.03075 29.75 15.75C29.75 23.4692 23.4692 29.75 15.75 29.75H1.75V15.75Z" fill="white"/>
</g>
<defs>
<clipPath id="clip0_103_735">
<rect width="42" height="42" fill="white"/>
</clipPath>
</defs>
</svg>
