<svg width="45" height="45" viewBox="0 0 45 45" fill="none" xmlns="http://www.w3.org/2000/svg">
<g clip-path="url(#clip0_103_756)">
<path d="M44.9807 35.7153C44.9076 35.0459 44.6057 34.4141 44.1295 33.9322L37.447 27.2497C37.4245 26.9759 37.3814 26.7041 37.3214 26.4341C37.0964 25.4459 37.5501 24.3941 38.4482 23.8147C39.2882 23.2709 39.9726 22.5322 40.4789 21.6172C40.957 20.7547 41.2064 19.7609 41.2026 18.7522C41.2064 17.7359 40.957 16.7422 40.4789 15.8797C39.9707 14.9647 39.2882 14.2259 38.4464 13.6822C37.5482 13.1028 37.0964 12.0509 37.3195 11.0647C37.5482 10.0672 37.5145 9.03781 37.2182 8.00844C36.6632 6.07719 35.1201 4.53594 33.1926 3.98469C32.167 3.69031 31.1395 3.65469 30.1401 3.88156C29.1595 4.10844 28.102 3.65469 27.5226 2.75656C26.9789 1.91656 26.2401 1.23406 25.327 0.725937C23.5701 -0.247188 21.3895 -0.247188 19.6326 0.725937C18.7176 1.23406 17.9789 1.91844 17.437 2.75844C16.8576 3.65656 15.802 4.11031 14.8195 3.88344C13.8201 3.65656 12.7926 3.69219 11.767 3.98656C9.8376 4.53969 8.29448 6.08094 7.74135 8.01219C7.44698 9.03969 7.41135 10.0672 7.63823 11.0666C7.86323 12.0528 7.41135 13.1047 6.51323 13.6841C5.67135 14.2278 4.98698 14.9684 4.4826 15.8797C4.00448 16.7422 3.7551 17.7359 3.75885 18.7466C3.7551 19.7647 4.00448 20.7584 4.4826 21.6191C4.98885 22.5322 5.67135 23.2728 6.5151 23.8166C7.41323 24.3959 7.8651 25.4478 7.6401 26.4341C7.57635 26.7153 7.5351 26.9984 7.5126 27.2834L0.871354 33.9359C0.396979 34.4141 0.0951042 35.0459 0.0219792 35.7153C-0.158021 37.3522 1.02698 38.8297 2.66385 39.0116L5.6601 39.3434L5.9901 42.3116C6.05573 42.9922 6.36135 43.6353 6.84885 44.1228C7.16385 44.4378 7.55385 44.6834 7.96635 44.8259C8.29448 44.9422 8.63385 45.0003 8.97135 45.0003C9.75323 45.0003 10.5201 44.6928 11.0751 44.1247L18.8957 36.2928C19.1282 36.4672 19.3757 36.6266 19.6382 36.7728C20.5157 37.2584 21.5001 37.5022 22.4845 37.5022C23.4689 37.5022 24.4532 37.2584 25.3326 36.7709C25.6007 36.6209 25.8557 36.4559 26.0939 36.2778L33.9314 44.1153C34.492 44.6909 35.2607 45.0003 36.0445 45.0003C36.3782 45.0003 36.7139 44.9441 37.0382 44.8278C37.4582 44.6816 37.8482 44.4378 38.1651 44.1209C38.6507 43.6334 38.9564 42.9903 39.022 42.3228L39.352 39.3416L42.3482 39.0097C43.9851 38.8278 45.1682 37.3503 44.9901 35.7153H44.9807ZM9.7326 42.8066C9.44198 43.1066 8.99198 43.2022 8.58323 43.0578C8.4276 43.0034 8.2851 42.9134 8.16885 42.7972C7.98698 42.6153 7.87448 42.3772 7.8501 42.1147L7.35323 37.6428L2.86635 37.1441C2.25698 37.0766 1.81448 36.5253 1.88198 35.9159C1.9101 35.6666 2.02073 35.4303 2.1951 35.2559L7.78823 29.6534C8.38073 31.5059 9.88823 32.9741 11.7632 33.5103C12.7907 33.8047 13.8201 33.8403 14.8157 33.6134C15.8001 33.3922 16.8539 33.8422 17.4332 34.7384C17.4801 34.8097 17.527 34.8791 17.5757 34.9484L9.73073 42.8047L9.7326 42.8066ZM24.4157 35.1322C23.2382 35.7866 21.7157 35.7866 20.5401 35.1322C19.897 34.7778 19.3832 34.3034 19.0101 33.7241C18.1814 32.4378 16.7751 31.6841 15.322 31.6841C15.0145 31.6841 14.707 31.7178 14.4014 31.7872C13.7151 31.9428 13.0007 31.9184 12.2807 31.7103C10.987 31.3409 9.9126 30.2647 9.54135 28.9728C9.3351 28.2509 9.30885 27.5366 9.46448 26.8503C9.86198 25.0972 9.08385 23.2466 7.5276 22.2416C6.94635 21.8666 6.47385 21.3509 6.11948 20.7097C5.79698 20.1284 5.62823 19.4516 5.6301 18.7466C5.62823 18.0472 5.7951 17.3722 6.11948 16.7891C6.47385 16.1478 6.94823 15.6341 7.5276 15.2591C9.08573 14.2541 9.86385 12.4034 9.46448 10.6503C9.30885 9.96406 9.3351 9.24969 9.54135 8.52781C9.9126 7.23406 10.987 6.15969 12.2807 5.78844C13.0026 5.58406 13.717 5.55594 14.4014 5.71156C16.1526 6.11094 18.007 5.33281 19.0101 3.77469C19.3832 3.19531 19.897 2.72094 20.5382 2.36656C21.7157 1.71219 23.2364 1.71406 24.4139 2.36656C25.0551 2.72281 25.5707 3.19719 25.9439 3.77469C26.947 5.33281 28.7976 6.10531 30.5526 5.71156C31.2389 5.55594 31.9532 5.58219 32.6732 5.78844C33.967 6.15781 35.0432 7.23406 35.4145 8.52594C35.6207 9.24781 35.647 9.96219 35.4895 10.6484C35.092 12.4016 35.872 14.2522 37.4264 15.2572C38.0057 15.6322 38.4801 16.1459 38.8345 16.7891C39.157 17.3722 39.3257 18.0491 39.3238 18.7522C39.3257 19.4497 39.1589 20.1266 38.8345 20.7078C38.4801 21.3509 38.0057 21.8647 37.4264 22.2397C35.8701 23.2428 35.0901 25.0953 35.4895 26.8484C35.6451 27.5347 35.6207 28.2491 35.4126 28.9691C35.0414 30.2628 33.9651 31.3391 32.6713 31.7084C31.9514 31.9147 31.237 31.9391 30.5507 31.7853C28.7957 31.3916 26.9451 32.1659 25.942 33.7222C25.567 34.3016 25.0532 34.7759 24.412 35.1303L24.4157 35.1322ZM42.1326 37.1459L37.6457 37.6447L37.147 42.1278C37.1226 42.3791 37.0101 42.6172 36.8301 42.7972C36.7139 42.9134 36.5695 43.0034 36.4064 43.0616C36.0032 43.2022 35.5551 43.1028 35.257 42.7991L27.3914 34.9334C27.4364 34.8697 27.4795 34.8059 27.5207 34.7422C28.102 33.8459 29.1595 33.3941 30.1382 33.6172C31.1357 33.8422 32.1632 33.8103 33.1907 33.5141C35.0732 32.9759 36.5863 31.4947 37.1751 29.6291L42.8001 35.2541C42.9763 35.4322 43.0889 35.6684 43.1151 35.9178C43.1826 36.5272 42.7401 37.0766 42.1307 37.1441L42.1326 37.1459ZM29.9789 18.7278C29.9789 14.5916 26.6151 11.2278 22.4789 11.2278C18.3426 11.2278 14.9789 14.5916 14.9789 18.7278C14.9789 22.8641 18.3426 26.2278 22.4789 26.2278C26.6151 26.2278 29.9789 22.8641 29.9789 18.7278ZM22.4789 24.3528C19.3776 24.3528 16.8539 21.8291 16.8539 18.7278C16.8539 15.6266 19.3776 13.1028 22.4789 13.1028C25.5801 13.1028 28.1039 15.6266 28.1039 18.7278C28.1039 21.8291 25.5801 24.3528 22.4789 24.3528Z" fill="white"/>
</g>
<defs>
<clipPath id="clip0_103_756">
<rect width="45" height="45" fill="white"/>
</clipPath>
</defs>
</svg>
