<svg width="216" height="49" viewBox="0 0 216 49" fill="none" xmlns="http://www.w3.org/2000/svg">
<path d="M125.926 21.4375C126.56 21.4375 127.155 21.5571 127.71 21.7964C128.265 22.0356 128.749 22.3626 129.161 22.7773C129.573 23.1921 129.898 23.6785 130.136 24.2368C130.374 24.7951 130.493 25.3932 130.493 26.0312V35.2188C130.493 37.1169 130.136 38.9033 129.423 40.5781C128.709 42.2529 127.726 43.7124 126.473 44.9565C125.22 46.2007 123.769 47.1816 122.12 47.8994C120.471 48.6172 118.695 48.9841 116.792 49C114.508 49 112.383 48.5614 110.417 47.6841C108.451 46.8068 106.659 45.5627 105.041 43.9517L93.814 32.6587C93.3699 32.2121 93.029 31.6937 92.7911 31.1035C92.5533 30.5133 92.4343 29.9072 92.4343 29.2852C92.4343 28.6152 92.5612 27.9932 92.8149 27.4189C93.0686 26.8447 93.4096 26.3343 93.8377 25.8877C94.2659 25.4411 94.7654 25.1061 95.3363 24.8828C95.9072 24.6595 96.5256 24.5319 97.1917 24.5C98.492 24.5 99.61 24.9705 100.546 25.9116L103.091 28.4478V20.4087C102.155 19.9621 101.315 19.4038 100.569 18.7339C99.8241 18.064 99.1898 17.3063 98.6665 16.4609C98.1431 15.6156 97.7308 14.7064 97.4295 13.7334C97.1282 12.7604 96.9855 11.7555 97.0014 10.7188C97.0014 9.23535 97.2789 7.84766 97.8339 6.55566C98.3889 5.26367 99.1501 4.12321 100.117 3.13428C101.085 2.14534 102.211 1.37972 103.495 0.837402C104.78 0.295085 106.167 0.0159505 107.658 0C109.133 0 110.512 0.279134 111.797 0.837402C113.081 1.39567 114.215 2.1613 115.198 3.13428C116.181 4.10726 116.943 5.23975 117.482 6.53174C118.021 7.82373 118.298 9.2194 118.314 10.7188C118.314 12.2021 118.021 13.6217 117.434 14.9775C116.847 16.3333 116.015 17.5216 114.937 18.5425C115.492 18.686 115.991 18.9253 116.435 19.2603C116.879 19.5952 117.268 20.0099 117.601 20.5044C118.314 20.1056 119.06 19.9062 119.837 19.9062C120.63 19.9062 121.367 20.0897 122.049 20.4565C122.731 20.8234 123.278 21.3498 123.69 22.0356C124.404 21.6369 125.149 21.4375 125.926 21.4375ZM100.046 10.7188C100.046 11.915 100.316 13.0555 100.855 14.1401C101.394 15.2248 102.139 16.126 103.091 16.8438V10.7188C103.091 10.0807 103.21 9.48258 103.448 8.92432C103.685 8.36605 104.011 7.87956 104.423 7.46484C104.835 7.05013 105.319 6.72314 105.874 6.48389C106.429 6.24463 107.024 6.125 107.658 6.125C108.292 6.125 108.887 6.24463 109.442 6.48389C109.997 6.72314 110.481 7.05013 110.893 7.46484C111.305 7.87956 111.63 8.36605 111.868 8.92432C112.106 9.48258 112.225 10.0807 112.225 10.7188V16.8438C113.176 16.126 113.922 15.2248 114.461 14.1401C115 13.0555 115.27 11.915 115.27 10.7188C115.27 9.66602 115.071 8.67708 114.675 7.75195C114.279 6.82682 113.731 6.02132 113.034 5.33545C112.336 4.64958 111.527 4.09928 110.607 3.68457C109.688 3.26986 108.704 3.0625 107.658 3.0625C106.611 3.0625 105.628 3.26188 104.708 3.66064C103.789 4.05941 102.98 4.6097 102.282 5.31152C101.584 6.01335 101.037 6.82682 100.641 7.75195C100.244 8.67708 100.046 9.66602 100.046 10.7188ZM127.448 26.0312C127.448 25.6165 127.298 25.2577 126.996 24.9546C126.695 24.6515 126.338 24.5 125.926 24.5C125.387 24.5 125.014 24.6515 124.808 24.9546C124.602 25.2577 124.475 25.6325 124.428 26.0791C124.38 26.5257 124.372 27.0202 124.404 27.5625C124.435 28.1048 124.435 28.5913 124.404 29.022C124.372 29.4526 124.245 29.8354 124.023 30.1704C123.801 30.5054 123.421 30.6569 122.881 30.625C122.295 30.625 121.898 30.4416 121.692 30.0747C121.486 29.7078 121.359 29.2293 121.311 28.6392C121.264 28.049 121.28 27.4349 121.359 26.7969C121.438 26.1589 121.454 25.5448 121.407 24.9546C121.359 24.3644 121.24 23.8939 121.05 23.543C120.86 23.1921 120.455 23.0007 119.837 22.9688C119.298 22.9688 118.925 23.1203 118.719 23.4233C118.513 23.7264 118.386 24.1012 118.338 24.5479C118.291 24.9945 118.283 25.4889 118.314 26.0312C118.346 26.5736 118.346 27.0601 118.314 27.4907C118.283 27.9214 118.156 28.3042 117.934 28.6392C117.712 28.9741 117.331 29.1257 116.792 29.0938C116.205 29.0938 115.809 28.9103 115.603 28.5435C115.396 28.1766 115.27 27.6981 115.222 27.1079C115.174 26.5177 115.19 25.9036 115.27 25.2656C115.349 24.6276 115.365 24.0135 115.317 23.4233C115.27 22.8332 115.151 22.3626 114.96 22.0117C114.77 21.6608 114.366 21.4694 113.747 21.4375C113.208 21.4375 112.835 21.589 112.629 21.8921C112.423 22.1952 112.296 22.57 112.249 23.0166C112.201 23.4632 112.193 23.9577 112.225 24.5C112.257 25.0423 112.257 25.5288 112.225 25.9595C112.193 26.3901 112.066 26.7729 111.844 27.1079C111.622 27.4429 111.242 27.5944 110.703 27.5625C110.29 27.5625 109.933 27.411 109.632 27.1079C109.331 26.8048 109.18 26.446 109.18 26.0312V10.7188C109.18 10.304 109.03 9.94515 108.728 9.64209C108.427 9.33903 108.07 9.1875 107.658 9.1875C107.246 9.1875 106.889 9.33903 106.587 9.64209C106.286 9.94515 106.135 10.304 106.135 10.7188V29.5483C106.135 29.9152 106.072 30.2502 105.945 30.5532C105.818 30.8563 105.636 31.1354 105.398 31.3906C105.16 31.6458 104.883 31.8293 104.566 31.9409C104.248 32.0526 103.915 32.1243 103.567 32.1562C103.218 32.1562 102.885 32.0924 102.567 31.9648C102.25 31.8372 101.957 31.6458 101.687 31.3906L98.381 28.0649C98.048 27.73 97.6516 27.5625 97.1917 27.5625C96.7318 27.5625 96.3354 27.73 96.0023 28.0649C95.6693 28.3999 95.4949 28.8066 95.479 29.2852C95.479 29.7477 95.6455 30.1465 95.9786 30.4814L107.206 41.7983C108.538 43.1382 109.997 44.159 111.583 44.8608C113.168 45.5627 114.905 45.9216 116.792 45.9375C118.267 45.9375 119.646 45.6584 120.931 45.1001C122.215 44.5418 123.341 43.7762 124.309 42.8032C125.276 41.8302 126.037 40.6978 126.592 39.4058C127.147 38.1138 127.433 36.7181 127.448 35.2188V26.0312Z" fill="#1C5444"/>
<path d="M117.281 10.3939L211.147 10.3939M211.147 10.3939L201.921 4.45455M211.147 10.3939L201.921 16.3333" stroke="#1C5444" stroke-width="3" stroke-linecap="round" stroke-linejoin="round"/>
<path d="M97.875 10.3939L5.06249 10.3939M5.06249 10.3939L14.2889 4.45455M5.06249 10.3939L14.2889 16.3333" stroke="#1C5444" stroke-width="3" stroke-linecap="round" stroke-linejoin="round"/>
</svg>
