<svg width="58" height="58" viewBox="0 0 58 58" fill="none" xmlns="http://www.w3.org/2000/svg">
<g clip-path="url(#clip0_23_499)">
<path fill-rule="evenodd" clip-rule="evenodd" d="M0.027947 30.2624C-0.668041 14.2867 11.7637 0.723924 27.7391 0.0279363C43.7162 -0.668052 57.2759 11.7615 57.9719 27.7377C58.6679 43.7145 46.2404 57.2759 30.2633 57.9719C14.2875 58.6679 0.723935 46.2384 0.027947 30.2623V30.2624Z" fill="#1C5444"/>
<path d="M1.88725 30.181C2.53967 45.1553 15.2091 56.765 30.182 56.1126C45.1571 55.4602 56.765 42.7929 56.1126 27.8188C55.4601 12.8452 42.7953 1.23484 27.82 1.88726C12.8471 2.53967 1.23484 15.2071 1.88725 30.181Z" fill="#F37757"/>
<path d="M27.1486 49.7249C30.2876 49.7249 32.8322 47.2198 32.8322 44.1295C32.8322 41.0393 30.2876 38.5342 27.1486 38.5342C24.0096 38.5342 21.4649 41.0393 21.4649 44.1295C21.4649 47.2198 24.0096 49.7249 27.1486 49.7249Z" fill="#FF9175"/>
<path d="M26.6738 20.8854C30.366 20.8854 33.3591 17.9387 33.3591 14.3038C33.3591 10.669 30.366 7.72232 26.6738 7.72232C22.9816 7.72232 19.9885 10.669 19.9885 14.3038C19.9885 17.9387 22.9816 20.8854 26.6738 20.8854Z" fill="#FF9175"/>
<path d="M14.6294 40.3819C16.0686 40.3819 17.2353 39.2334 17.2353 37.8165C17.2353 36.3997 16.0686 35.2511 14.6294 35.2511C13.1901 35.2511 12.0234 36.3997 12.0234 37.8165C12.0234 39.2334 13.1901 40.3819 14.6294 40.3819Z" fill="#FF9175"/>
<path d="M31.9493 29.6321C32.9498 29.6321 33.7609 28.8336 33.7609 27.8486C33.7609 26.8636 32.9498 26.0651 31.9493 26.0651C30.9488 26.0651 30.1378 26.8636 30.1378 27.8486C30.1378 28.8336 30.9488 29.6321 31.9493 29.6321Z" fill="#FF9175"/>
<path d="M42.8711 25.5322C44.9746 25.5322 46.6798 23.8534 46.6798 21.7825C46.6798 19.7117 44.9746 18.0329 42.8711 18.0329C40.7677 18.0329 39.0625 19.7117 39.0625 21.7825C39.0625 23.8534 40.7677 25.5322 42.8711 25.5322Z" fill="#FF9175"/>
</g>
<defs>
<clipPath id="clip0_23_499">
<rect width="58" height="58" fill="white"/>
</clipPath>
</defs>
</svg>
