<svg width="20" height="19" viewBox="0 0 20 19" fill="none" xmlns="http://www.w3.org/2000/svg">
<mask id="path-1-outside-1_5_223" maskUnits="userSpaceOnUse" x="0" y="0.666656" width="20" height="18" fill="black">
<rect fill="white" y="0.666656" width="20" height="18"/>
<path fill-rule="evenodd" clip-rule="evenodd" d="M10.0003 9.23456C8.57437 9.23456 7.41828 10.3355 7.41828 11.6941C7.47282 13.2384 8.33313 14.7984 10.0003 16.3746C8.98559 16.3857 8.14735 16.1602 7.17461 15.8494C4.11004 14.8714 2 11.979 2 8.71734V3.63493C4.40583 3.63493 6.2827 4.94478 6.2827 8.10124C6.2827 5.02208 7.72988 3.95282 10.0003 2.66666C12.2703 3.95282 13.7175 5.02208 13.7175 8.10124C13.7175 4.94478 15.5941 3.63493 18 3.63493V8.71734C18 11.979 15.8902 14.8714 12.8259 15.8494C11.8529 16.1602 11.0148 16.3857 10.0002 16.3746C11.6669 14.7984 12.5276 13.2384 12.5822 11.6941C12.5822 10.3355 11.4261 9.23456 10.0002 9.23456H10.0003Z"/>
</mask>
<path fill-rule="evenodd" clip-rule="evenodd" d="M10.0003 9.23456C8.57437 9.23456 7.41828 10.3355 7.41828 11.6941C7.47282 13.2384 8.33313 14.7984 10.0003 16.3746C8.98559 16.3857 8.14735 16.1602 7.17461 15.8494C4.11004 14.8714 2 11.979 2 8.71734V3.63493C4.40583 3.63493 6.2827 4.94478 6.2827 8.10124C6.2827 5.02208 7.72988 3.95282 10.0003 2.66666C12.2703 3.95282 13.7175 5.02208 13.7175 8.10124C13.7175 4.94478 15.5941 3.63493 18 3.63493V8.71734C18 11.979 15.8902 14.8714 12.8259 15.8494C11.8529 16.1602 11.0148 16.3857 10.0002 16.3746C11.6669 14.7984 12.5276 13.2384 12.5822 11.6941C12.5822 10.3355 11.4261 9.23456 10.0002 9.23456H10.0003Z" fill="#F37757"/>
<path d="M10.0003 11.2346C11.1048 11.2346 12.0003 10.3391 12.0003 9.23456C12.0003 8.12999 11.1048 7.23456 10.0003 7.23456V11.2346ZM7.41828 11.6941H5.41828C5.41828 11.7177 5.41869 11.7412 5.41952 11.7647L7.41828 11.6941ZM10.0003 16.3746L10.0223 18.3745C10.8373 18.3655 11.5654 17.8628 11.8626 17.1038C12.1598 16.3447 11.9666 15.4813 11.3743 14.9213L10.0003 16.3746ZM7.17461 15.8494L7.78329 13.9443L7.78268 13.9441L7.17461 15.8494ZM2 3.63493V1.63493C0.89543 1.63493 0 2.53036 0 3.63493H2ZM4.2827 8.10124C4.2827 9.20581 5.17813 10.1012 6.2827 10.1012C7.38727 10.1012 8.2827 9.20581 8.2827 8.10124H4.2827ZM10.0003 2.66666L10.9862 0.926545C10.3746 0.580049 9.62606 0.580025 9.01447 0.926484L10.0003 2.66666ZM11.7175 8.10124C11.7175 9.20581 12.6129 10.1012 13.7175 10.1012C14.8221 10.1012 15.7175 9.20581 15.7175 8.10124H11.7175ZM18 3.63493H20C20 2.53036 19.1046 1.63493 18 1.63493V3.63493ZM12.8259 15.8494L12.2178 13.9441L12.2173 13.9443L12.8259 15.8494ZM10.0002 16.3746L8.62601 14.9215C8.03382 15.4816 7.84074 16.345 8.13796 17.1039C8.43518 17.8629 9.16324 18.3655 9.97827 18.3745L10.0002 16.3746ZM12.5822 11.6941L14.581 11.7648C14.5818 11.7412 14.5822 11.7177 14.5822 11.6941H12.5822ZM10.0002 7.23456C8.89568 7.23456 8.00025 8.12999 8.00025 9.23456C8.00025 10.3391 8.89568 11.2346 10.0002 11.2346V7.23456ZM10.0003 7.23456C7.56264 7.23456 5.41828 9.14032 5.41828 11.6941H9.41828C9.41828 11.5307 9.5861 11.2346 10.0003 11.2346V7.23456ZM5.41952 11.7647C5.49992 14.0411 6.76031 16.0637 8.62626 17.8279L11.3743 14.9213C9.90594 13.5331 9.44571 12.4357 9.41703 11.6235L5.41952 11.7647ZM9.9783 14.3747C9.29707 14.3822 8.71077 14.2406 7.78329 13.9443L6.56592 17.7546C7.58394 18.0798 8.67411 18.3893 10.0223 18.3745L9.9783 14.3747ZM7.78268 13.9441C5.55515 13.2332 4 11.117 4 8.71734H0C0 12.8409 2.66493 16.5096 6.56653 17.7548L7.78268 13.9441ZM4 8.71734V3.63493H0V8.71734H4ZM2 5.63493C2.85901 5.63493 3.38084 5.86703 3.67546 6.1433C3.94545 6.39649 4.2827 6.92737 4.2827 8.10124H8.2827C8.2827 6.11864 7.68151 4.41637 6.41161 3.22552C5.16633 2.05776 3.54681 1.63493 2 1.63493V5.63493ZM8.2827 8.10124C8.2827 6.90766 8.55094 6.33989 8.85632 5.95533C9.23379 5.47999 9.84296 5.05439 10.9861 4.40683L9.01447 0.926484C7.8872 1.56508 6.63758 2.3172 5.72386 3.46782C4.73806 4.70922 4.2827 6.21565 4.2827 8.10124H8.2827ZM9.01437 4.40677C10.1573 5.05434 10.7664 5.47993 11.1439 5.95528C11.4493 6.33986 11.7175 6.90766 11.7175 8.10124H15.7175C15.7175 6.21565 15.2622 4.70925 14.2764 3.46787C13.3628 2.31726 12.1133 1.56513 10.9862 0.926545L9.01437 4.40677ZM15.7175 8.10124C15.7175 6.9273 16.0548 6.39641 16.3247 6.14325C16.6192 5.86703 17.141 5.63493 18 5.63493V1.63493C16.4532 1.63493 14.8337 2.05776 13.5884 3.22557C12.3186 4.41645 11.7175 6.11872 11.7175 8.10124H15.7175ZM16 3.63493V8.71734H20V3.63493H16ZM16 8.71734C16 11.1171 14.445 13.2333 12.2178 13.9441L13.434 17.7547C17.3355 16.5095 20 12.8408 20 8.71734H16ZM12.2173 13.9443C11.2894 14.2407 10.7033 14.3822 10.0222 14.3747L9.97827 18.3745C11.3264 18.3893 12.4164 18.0798 13.4344 17.7546L12.2173 13.9443ZM11.3745 17.8277C13.2395 16.0639 14.5005 14.0413 14.581 11.7648L10.5835 11.6235C10.5548 12.4355 10.0942 13.5329 8.62601 14.9215L11.3745 17.8277ZM14.5822 11.6941C14.5822 9.14032 12.4378 7.23456 10.0002 7.23456V11.2346C10.4144 11.2346 10.5822 11.5307 10.5822 11.6941H14.5822ZM10.0002 11.2346H10.0003V7.23456H10.0002V11.2346Z" fill="#1C5444" mask="url(#path-1-outside-1_5_223)"/>
</svg>
