<svg width="272" height="376" viewBox="0 0 272 376" fill="none" xmlns="http://www.w3.org/2000/svg">
<g clip-path="url(#clip0_37_453)">
<path fill-rule="evenodd" clip-rule="evenodd" d="M192.359 208.528C200.366 232.365 206.047 258.439 205.608 283.578C205.241 304.531 200.48 326.112 187.207 342.84C186.849 343.292 186.403 343.583 185.859 343.719C185.674 343.969 185.488 344.219 185.298 344.466C185.295 344.572 185.285 344.678 185.269 344.786L185.146 345.583C185.142 345.606 185.138 345.626 185.134 345.65L185.018 346.389C185.015 346.406 185.013 346.421 185.01 346.438L184.709 348.279L184.433 349.894L184.316 350.563L184.182 351.319L184.033 352.137L183.878 352.982L183.802 353.386C182.527 360.182 181.015 366.983 179.198 373.656C178.285 377.007 177.23 380.757 175.924 384.2C178.818 384.625 181.812 385.741 183.941 387.201C188.753 390.499 189.367 395.427 185.372 399.813C184.868 400.366 184.222 400.648 183.474 400.64C176.051 400.569 168.626 400.478 161.202 400.398C160.244 400.387 159.427 399.886 158.984 399.037L143.462 369.279C140.992 369.749 138.499 370.11 135.999 370.385L135.881 370.752C135.873 370.775 135.868 370.793 135.861 370.816L135.84 370.878C134.298 375.564 132.521 380.256 130.388 384.737C133.899 385.424 137.757 386.614 139.934 388.953C142.908 392.148 141.988 396.161 140.109 399.664C139.649 400.524 138.801 401.019 137.826 400.999C128.908 400.821 119.991 400.637 111.074 400.456C110.029 400.434 109.15 399.822 108.767 398.851L96.8233 368.495C30.2664 354.987 20.0769 290.001 34.3716 233.488C25.0703 240.142 17.7254 250.844 14.7742 261.492C13.6916 265.398 11.17 272.158 6.65771 273.233C4.45087 273.758 2.4828 272.72 1.33959 270.819C0.231649 268.977 -0.0342564 266.552 0.00192127 264.444C0.442384 238.51 3.77073 211.06 14.5553 187.226C18.5366 178.429 25.9296 163.079 35.5827 159.265C42.2629 156.625 48.3877 159.787 53.4653 164.029C55.9941 140.212 53.0782 115.486 42.0747 94.0371C36.6526 96.5109 30.9356 96.5597 25.2919 93.9232C17.8321 90.4397 11.9876 82.9947 7.80906 76.1254C7.12169 74.9955 7.41563 73.5367 8.48739 72.7612C12.6641 69.736 16.1788 68.7445 19.8309 70.1247C18.2762 66.2869 18.5122 62.648 21.5909 58.3221C21.9771 57.778 22.4954 57.4418 23.1493 57.3089C27.3206 56.4584 31.8636 58.1558 35.0074 61.1376C35.1711 56.2423 36.5242 52.3314 42.2782 50.0094C43.1981 49.6379 44.1848 49.8123 44.9219 50.4758C48.5551 53.7468 51.6636 61.4522 52.9045 66.0691C54.8029 73.1309 55.1946 81.4925 50.7547 87.7146C50.666 87.8393 50.581 87.9397 50.4716 88.0472C50.4616 88.0572 50.4508 88.068 50.4399 88.0779C54.3118 93.793 57.3951 99.8941 59.8181 106.255C60.4883 104.777 61.6912 103.471 63.3942 102.673C67.7319 100.476 72.1655 98.4434 76.6271 96.5055C76.5412 92.8431 76.5765 89.1779 76.7384 85.5182C72.0922 83.452 67.5203 81.1472 63.0243 78.7908C63.0044 78.78 62.9872 78.7709 62.9673 78.7592C58.0463 76.016 59.4608 68.9885 64.8368 67.3851C69.8583 65.7166 74.9747 64.2722 80.0975 62.9399C81.2551 59.4583 82.7873 56.1276 84.7183 53.0056C82.5051 49.1579 80.4421 45.2054 78.4514 41.2438C78.4414 41.223 78.4324 41.2058 78.4224 41.185C77.3688 38.9444 77.868 36.3648 79.6244 34.6447C81.4125 32.8922 83.9866 32.4682 86.3173 33.2718C89.2794 34.1919 92.2188 35.1997 95.1365 36.259C95.511 29.5398 95.5191 22.7093 95.7335 16.0009C95.6412 11.4789 103.819 9.13431 107.142 8.12471C115.032 5.72678 123.578 4.1152 131.703 2.72055C139.988 1.29879 148.678 0.235856 157.089 0.0333921C159.777 -0.0307816 162.646 -0.0307816 165.315 0.309972C167.222 0.554013 169.805 1.03396 170.575 3.07306C173.864 10.9791 177.596 18.4612 180.375 26.604C180.454 26.8381 180.514 27.0731 180.555 27.309C192.24 29.6916 206.799 34.8147 211.613 46.3587C217.734 61.0346 222.476 80.2488 209.373 92.7455C201.624 100.135 189.51 103.507 179.242 105.384C171.74 106.756 164.075 107.534 156.469 108.048C148.179 108.607 139.855 108.848 131.543 108.929C132.726 112.561 135.402 116.796 137.331 119.661L138.223 119.886L139.129 120.121C139.146 120.125 139.16 120.129 139.177 120.134L140.263 120.426C140.606 120.518 140.949 120.615 141.292 120.713L142.745 121.134L142.883 121.176C142.914 121.184 142.939 121.192 142.97 121.201L143.633 121.401C151.769 123.899 159.659 127.265 166.884 131.78C167.001 131.755 167.118 131.731 167.236 131.708L167.363 131.602C167.378 131.591 167.39 131.581 167.403 131.571L167.614 131.409L167.714 131.335C167.727 131.326 167.737 131.318 167.75 131.309L167.945 131.172C167.962 131.16 167.977 131.15 167.995 131.139L168.205 131L168.31 130.934C168.324 130.926 168.336 130.919 168.349 130.911L168.458 130.846L168.703 130.706L168.83 130.636L169.064 130.515C169.079 130.507 169.094 130.5 169.109 130.492L169.32 130.392C169.334 130.385 169.347 130.379 169.361 130.373L169.603 130.267L169.735 130.212L169.869 130.159L170.003 130.107L170.247 130.02C170.263 130.015 170.277 130.011 170.293 130.005L170.518 129.932C170.534 129.926 170.549 129.923 170.565 129.917L170.813 129.846L170.954 129.808L171.092 129.774L171.366 129.711L171.509 129.682L171.784 129.631L171.902 129.612C171.917 129.609 171.93 129.607 171.945 129.605L172.21 129.568L172.351 129.551L172.497 129.536L172.778 129.513L173.061 129.499L173.208 129.494L173.354 129.493L173.638 129.495L173.9 129.505C173.918 129.506 173.933 129.507 173.951 129.508L174.11 129.52C176.004 127.57 178.048 125.809 180.75 125.047L180.88 125.009C180.919 124.999 180.953 124.991 180.992 124.981L181.255 124.918C181.274 124.914 181.29 124.91 181.309 124.906L181.484 124.871L181.587 124.852C181.604 124.849 181.618 124.847 181.635 124.844L181.896 124.803C184.292 124.455 186.888 125.119 188.664 126.7C189.982 126.182 191.503 126.129 192.872 126.567C193.557 126.786 194.186 127.1 194.77 127.488C197.236 125.821 200.03 124.7 202.987 124.193C209.292 123.112 215.695 124.952 220.457 129.147C221.335 129.225 222.203 129.382 223.056 129.602C223.495 128.898 224.112 128.296 224.859 127.891C226.477 127.012 228.316 127.07 230.044 127.532C233.044 128.334 235.725 130.183 237.572 132.663C239.196 132.416 240.937 132.878 242.236 133.938C243.98 135.36 244.819 137.575 244.882 139.78C244.906 140.597 244.831 141.395 244.699 142.184C252.981 142.857 260.261 148.361 263.099 156.25C263.135 156.28 263.171 156.31 263.206 156.34C266.289 158.945 268.135 163.235 267.389 167.22C268.267 167.822 269.095 168.482 269.826 169.295C271.301 170.934 272.223 173.118 271.943 175.35C271.734 177.014 270.794 178.549 269.446 179.488C269.819 182.557 269.155 185.748 267.538 188.391C266.949 189.356 266.217 190.234 265.308 190.872C265.445 192.069 265.547 193.27 265.615 194.474C265.687 195.761 264.796 196.884 263.527 197.109C244.037 200.557 224.539 204.163 204.933 206.905C200.745 207.491 196.552 208.038 192.351 208.532L192.359 208.528ZM62.5775 114.555C65.4193 124.466 66.879 134.852 67.3964 145.28C67.9002 144.697 68.5098 144.173 69.2234 143.734C73.3042 141.039 77.4927 138.491 81.7209 136.031C80.5343 130.645 79.5087 125.223 78.692 119.768C73.4977 118.313 68.3451 116.613 63.2568 114.843C63.2351 114.835 63.217 114.828 63.1953 114.82C62.9809 114.74 62.7747 114.65 62.5784 114.555H62.5775ZM67.6189 154.909C67.6044 161.88 67.2282 168.809 66.6231 175.57C79.5982 183.724 91.0548 178.473 88.4726 161.773C88.2781 161.118 88.0846 160.461 87.8928 159.805C82.0673 158.884 76.2554 157.68 70.5077 156.394C70.4851 156.389 70.4661 156.385 70.4444 156.379C69.3029 156.092 68.3605 155.577 67.6198 154.908L67.6189 154.909ZM166.742 132.154C166.743 132.153 166.745 132.151 166.747 132.15L166.742 132.154ZM166.765 132.133C166.765 132.132 166.766 132.131 166.767 132.13L166.765 132.133ZM92.5236 226.813C96.8278 223.757 101.265 220.864 105.747 218.069C105.53 217.257 105.311 216.446 105.089 215.635C100.607 209.731 95.5082 209.001 89.7424 213.867C83.7243 218.946 79.3106 228.234 77.6926 235.885C77.0558 238.893 75.3799 242.576 72.0723 243.343C68.0304 244.28 65.3949 240.323 64.0789 237.129C62.7358 233.867 60.7424 230.979 57.8202 229.189C57.6013 230.189 57.3806 231.19 57.1572 232.19C54.3571 244.754 53.7909 257.888 56.1668 270.57C58.0047 280.379 61.7084 290.317 67.6243 298.42C71.7269 304.039 77.6365 309.65 84.5356 311.483C89.8003 312.882 94.6138 311.745 98.6521 308.462C96.6506 305.856 94.7476 303.158 92.8971 300.455C92.8845 300.436 92.8736 300.42 92.8609 300.401C90.3258 296.483 94.0412 291.827 98.6014 292.732C101.617 293.24 104.621 293.861 107.607 294.541C108.126 293.125 108.586 291.687 108.995 290.236C109.902 287.021 110.628 283.76 111.188 280.469C106.806 278.49 102.492 276.291 98.2523 274.045C98.2324 274.034 98.2152 274.025 98.1953 274.014C93.4099 271.319 94.8073 264.472 100.054 262.93C104.178 261.579 108.367 260.388 112.568 259.286C112.391 253.537 111.812 247.805 110.94 242.12C105.349 241.406 99.7664 240.444 94.2348 239.402C94.2122 239.399 94.1932 239.394 94.1715 239.39C88.1018 238.085 87.3737 230.23 92.5227 226.814L92.5236 226.813Z" fill="#1C5444"/>
<path fill-rule="evenodd" clip-rule="evenodd" d="M188.946 206.371C194.178 205.789 199.392 205.131 204.589 204.394H204.588C223.131 201.811 241.481 198.436 263.093 194.613C262.993 192.831 262.814 191.066 262.561 189.322C262.671 189.31 262.779 189.29 262.884 189.261C263.98 188.965 264.792 188.038 265.384 187.069C267.039 184.361 267.47 180.937 266.539 177.903C268.022 177.876 269.251 176.502 269.436 175.032C269.62 173.561 268.94 172.087 267.948 170.984C266.957 169.882 265.675 169.089 264.413 168.31C265.966 164.912 264.431 160.68 261.576 158.27C261.372 158.097 261.163 157.932 260.949 157.775C258.422 149.811 250.86 144.435 242.513 144.648C242.236 144.487 241.946 144.344 241.643 144.223C242.02 142.789 242.399 141.331 242.356 139.849C242.313 138.368 241.788 136.831 240.638 135.894C239.49 134.956 237.651 134.809 236.559 135.812C235.139 132.973 232.462 130.792 229.395 129.974C228.297 129.681 227.071 129.569 226.072 130.111C225.074 130.652 224.489 132.042 225.127 132.982C223.317 132.207 221.375 131.655 219.414 131.62C215.319 127.668 209.461 125.649 203.419 126.684C200.081 127.257 197.109 128.689 194.686 130.715C193.951 129.945 193.108 129.295 192.105 128.974C190.648 128.508 188.797 128.974 188.127 130.349C187.42 128.046 184.684 126.961 182.265 127.304L182.221 127.311L182.176 127.318L182.133 127.325L182.088 127.332L182.06 127.337L182.045 127.34H182.043L181.958 127.355L181.936 127.36L181.915 127.364L181.871 127.373L181.828 127.382L181.812 127.386L181.786 127.392L181.743 127.402L181.7 127.412L181.689 127.415L181.657 127.423L181.615 127.434L181.572 127.445L181.567 127.445L181.53 127.455L181.487 127.467L181.445 127.479C178.862 128.232 176.877 130.252 175.043 132.217L174.941 132.192L174.838 132.169L174.734 132.148L174.631 132.129L174.527 132.111L174.423 132.095L174.318 132.08L174.214 132.068L174.109 132.057L174.004 132.048L173.899 132.04L173.794 132.033L173.689 132.029L173.583 132.026L173.477 132.025H173.371L173.267 132.026L173.161 132.029L173.055 132.033L172.95 132.04L172.845 132.048L172.74 132.057L172.635 132.067L172.53 132.079L172.425 132.092L172.321 132.108L172.217 132.124L172.113 132.142L172.009 132.162L171.906 132.183L171.803 132.207L171.7 132.231L171.598 132.257L171.496 132.284L171.394 132.313L171.293 132.343L171.192 132.374L171.091 132.407L170.991 132.441L170.891 132.477L170.793 132.515L170.695 132.554L170.598 132.595L170.501 132.636L170.405 132.68L170.31 132.725L170.215 132.771L170.121 132.818L170.028 132.867L169.935 132.917L169.842 132.969L169.751 133.022L169.661 133.076L169.571 133.132L169.482 133.189L169.395 133.247L169.308 133.307L169.222 133.368L169.137 133.431L169.053 133.495L168.97 133.56L168.888 133.627L168.808 133.695L168.728 133.764L168.723 133.769L168.717 133.773L168.712 133.778L168.706 133.782L168.701 133.787L168.696 133.791L168.69 133.796L168.685 133.8L168.679 133.805L168.669 133.814L168.664 133.819L168.658 133.823L168.653 133.828L168.648 133.832L168.647 133.833L168.642 133.837L168.637 133.841L168.631 133.846L168.626 133.85L168.62 133.855L168.615 133.859L168.61 133.864L168.604 133.868L168.579 133.892L168.573 133.896L168.568 133.901L168.566 133.903L168.563 133.905L168.557 133.91L168.547 133.919L168.542 133.924L168.536 133.929L168.531 133.933L168.522 133.942L168.516 133.947L168.511 133.951L168.506 133.956L168.501 133.961L168.496 133.966L168.49 133.97L168.488 133.973L168.486 133.976L168.48 133.98L168.476 133.985L168.47 133.99L168.465 133.995L168.46 134L168.455 134.005L168.45 134.009L168.445 134.015L168.44 134.019L168.435 134.025L168.43 134.029L168.425 134.035L168.42 134.039L168.415 134.044L168.412 134.048L168.41 134.049L168.405 134.054L168.395 134.064C167.73 134.17 167.073 134.311 166.43 134.486C159.557 130.061 151.701 126.505 142.885 123.814L142.776 123.781L142.749 123.773L142.667 123.749L142.233 123.618L142.225 123.616L142.016 123.553L141.907 123.521L141.797 123.489L141.699 123.46L141.688 123.458L141.579 123.426L141.171 123.308L141.141 123.299L140.702 123.173L140.642 123.156L140.592 123.141C140.262 123.047 139.931 122.955 139.598 122.864L139.575 122.857L139.487 122.833L139.375 122.802L139.153 122.742L139.042 122.712L139.039 122.711L138.929 122.682L138.818 122.652L138.707 122.622L138.596 122.593L138.501 122.567L138.484 122.563L137.961 122.426L137.924 122.416L137.586 122.33L137.473 122.301L137.417 122.286L137.361 122.272L137.022 122.186L136.909 122.157L136.872 122.148L136.795 122.129L136.341 122.017L136.324 122.013L136.227 121.99L136.113 121.962L135.774 121.879C131.545 115.689 128.734 110.394 128.428 106.414C169.159 106.198 195.57 102.393 207.616 90.9062C219.846 79.2428 214.974 61.0084 209.268 47.325C205.055 37.2217 191.874 31.8853 177.725 29.3383C178.085 28.6857 178.185 28.043 177.97 27.4139C174.878 18.3519 171.873 12.8076 168.206 3.9842C167.499 1.86195 151.438 1.89358 132.124 5.20893C112.809 8.52427 98.0532 12.5157 98.2603 15.991C97.9619 25.2682 97.9166 33.3062 97.4644 39.4135C97.4545 39.5536 97.4662 39.6856 97.4734 39.8194C93.0625 38.1581 89.0766 36.7752 85.5176 35.6698C82.1784 34.4911 79.4561 37.4395 80.7087 40.1014C83.2701 45.2 85.5945 49.5213 87.6802 53.0654C85.2599 56.6853 83.3226 60.787 81.9659 65.4292L81.8239 65.1011C75.5977 66.7009 70.1855 68.2655 65.5892 69.7948C62.004 70.8361 61.4866 75.0327 64.1954 76.543C70.077 79.6261 75.1292 82.0764 79.3484 83.8941C79.0834 88.6854 79.0418 93.4352 79.2019 98.1424C73.6034 100.545 68.7014 102.813 64.4948 104.945C60.7965 106.645 60.915 111.254 64.0797 112.446C70.6143 114.718 76.2381 116.489 80.9511 117.76C81.8836 124.342 83.1272 130.848 84.5897 137.285C79.2625 140.352 74.5902 143.211 70.5745 145.864C66.8373 148.131 67.5292 153.034 71.052 153.918C78.378 155.558 84.6503 156.767 89.8653 157.543C90.559 159.943 91.2699 162.332 91.9925 164.715C91.6172 163.516 91.2645 162.35 90.9416 161.218C93.9968 180.421 79.6406 187.651 63.9521 176.843C67.0869 143.822 64.3067 111.683 47.0942 87.7138C47.6261 87.2501 48.1561 86.7611 48.6843 86.2405C56.3594 75.4837 47.5401 56.2433 43.2187 52.3522C37.8789 54.507 37.2132 57.5666 37.6437 66.2246C38.1222 67.7205 36.3594 67.9293 35.8312 66.6377C34.3651 63.0548 29.2171 58.6494 23.6466 59.7846C20.2151 64.6067 20.9098 68.0965 24.6225 73.5223C25.3234 74.5473 24.258 75.7431 22.8742 75.0327C18.6568 71.3341 15.4189 70.8569 9.96602 74.8067C20.4404 92.027 32.1465 97.1672 43.1265 90.6197C56.0419 114.317 59.1116 142.091 55.3744 169.229C41.8422 155.753 31.432 156.052 16.8561 188.265C6.60511 210.92 2.98553 237.54 2.52698 264.483C2.37323 273.575 8.84632 273.37 12.3257 260.812C16.3704 246.221 27.2671 233.718 38.4614 228.029C22.3125 284.222 29.6313 353.151 98.6655 366.274L98.6718 366.289H98.6709L105.088 382.594L111.118 397.92C124.03 398.182 137.869 398.463 137.869 398.463C141.464 391.761 138.584 388.321 126.574 386.677C128.518 382.995 130.939 377.662 133.427 370.082L133.437 370.05L133.447 370.019L133.448 370.014L133.457 369.988L133.467 369.956L133.487 369.894L133.496 369.862L133.506 369.831L133.516 369.799L133.526 369.767L133.598 369.548L133.608 369.516L133.7 369.231V369.23L133.71 369.199L133.935 368.494L133.945 368.461L133.954 368.431L133.955 368.429L133.965 368.396L134.026 368.201L134.036 368.168L134.046 368.136L134.056 368.103L134.066 368.071L134.076 368.038L134.08 368.026C137.84 367.669 141.428 367.139 144.816 366.412L158.496 392.639V392.638L161.219 397.857C179.239 398.052 183.489 398.1 183.489 398.1C190.266 390.657 177.854 385.847 172.137 386.619C174.892 380.851 178.615 367.258 181.301 352.909L181.302 352.909L181.376 352.511L181.382 352.476L181.53 351.669L181.547 351.582L181.677 350.862L181.691 350.784L181.81 350.118L181.821 350.054L181.833 349.986L181.927 349.452L181.95 349.319L181.963 349.245L181.973 349.186L182.087 348.52L182.101 348.436L182.109 348.387L182.199 347.854L182.221 347.721L182.237 347.627L182.243 347.589L182.266 347.456L182.287 347.323L182.31 347.19L182.332 347.057L182.353 346.924L182.371 346.82L182.375 346.791L182.397 346.658L182.419 346.526L182.483 346.126L182.501 346.012L182.505 345.993L182.525 345.86L182.589 345.461L182.609 345.328L182.628 345.204L182.63 345.195L182.651 345.062L182.733 344.531L182.754 344.398C182.37 344.622 181.978 344.842 181.582 345.056C182.576 343.865 183.52 342.632 184.426 341.368C184.688 341.337 184.949 341.309 185.211 341.267C208.639 311.74 208.147 261.804 188.934 206.371H188.946ZM107.405 214.506C107.841 216.084 108.263 217.658 108.672 219.232C103.032 222.716 98.1255 225.939 93.9552 228.902C90.3076 231.289 91.1623 236.153 94.705 236.914C101.858 238.262 108.005 239.237 113.143 239.839C114.325 247.009 115.045 254.136 115.147 261.232C109.69 262.631 104.908 264.003 100.804 265.348C97.364 266.332 96.8512 270.35 99.4406 271.808C105.096 274.804 109.948 277.183 113.999 278.944C113.399 282.943 112.56 286.934 111.436 290.922C110.762 293.313 110.003 295.5 109.172 297.503C105.031 296.521 101.354 295.76 98.1418 295.22C95.5217 294.676 93.7824 297.159 94.9899 299.025C97.6697 302.942 100.038 306.181 102.095 308.746C80.772 330.386 41.8458 289.251 54.6861 231.638C55.1338 229.631 55.5761 227.61 56.012 225.578C60.3669 227.014 64.0453 230.391 66.4231 236.164C69.5298 243.707 73.9272 241.452 75.2151 235.359C78.9794 217.558 95.1038 197.637 107.406 214.505L107.405 214.506Z" fill="#42A67D"/>
<path fill-rule="evenodd" clip-rule="evenodd" d="M184.809 179.451C186.283 188.264 182.12 188.767 177.159 177.912C171.768 166.116 163.008 159.242 147.058 158.799C121.823 155.38 112.794 122.976 133.709 121.406C165.144 128.435 186.049 144.958 195.594 171.278C199.234 181.313 195.744 183.83 190.948 177.004C192.672 184.986 187.981 186.559 184.809 179.452V179.451Z" fill="#52BA90"/>
<path fill-rule="evenodd" clip-rule="evenodd" d="M100.638 41.0314C99.4668 46.6941 95.5099 51.3074 88.7691 54.8731C86.4148 51.0272 83.7314 46.1048 80.7178 40.1068C79.4651 37.4458 82.1866 34.4975 85.5267 35.6761C89.9159 37.0391 94.9528 38.8242 100.638 41.0323V41.0314Z" fill="#349972"/>
<path fill-rule="evenodd" clip-rule="evenodd" d="M130.409 25.1751C127.306 28.3214 122.852 29.6401 117.048 29.1322C117.135 25.6885 117.457 21.4187 118.015 16.3218C118.316 14.0947 121.286 13.3319 122.94 15.4731C125.19 18.1666 127.679 21.4006 130.41 25.1751H130.409Z" fill="#349972"/>
<path fill-rule="evenodd" clip-rule="evenodd" d="M81.8329 65.1065C84.312 70.6752 83.7612 77.0564 80.1805 84.2502C75.7994 82.4018 70.474 79.8348 64.2044 76.5493C61.4956 75.039 62.0129 70.8424 65.5982 69.8011C70.1954 68.2718 75.6067 66.7081 81.8329 65.1074V65.1065Z" fill="#349972"/>
<path fill-rule="evenodd" clip-rule="evenodd" d="M81.2541 97.2774C84.8239 102.884 85.258 109.853 82.5564 118.185C77.5341 116.897 71.3776 114.986 64.0887 112.451C60.924 111.258 60.8055 106.65 64.5038 104.95C69.2141 102.562 74.7982 100.004 81.2541 97.2765V97.2774Z" fill="#349972"/>
<path fill-rule="evenodd" clip-rule="evenodd" d="M87.5128 135.628C92.0105 141.172 93.3292 148.555 91.4697 157.776C85.9526 157.018 79.1503 155.733 71.061 153.923C67.5382 153.039 66.8463 148.136 70.5834 145.869C75.3164 142.742 80.9592 139.329 87.5137 135.627L87.5128 135.628Z" fill="#349972"/>
<path fill-rule="evenodd" clip-rule="evenodd" d="M110.483 218.12C115.154 223.494 116.72 230.808 115.179 240.064C109.653 239.495 102.829 238.445 94.7049 236.915C91.1622 236.153 90.3075 231.289 93.9551 228.903C98.5668 225.627 104.076 222.033 110.483 218.121V218.12Z" fill="#349972"/>
<path fill-rule="evenodd" clip-rule="evenodd" d="M116.376 260.92C118.728 266.265 118.174 272.376 114.714 279.252C110.524 277.464 105.432 274.982 99.4405 271.808C96.8502 270.35 97.364 266.332 100.804 265.348C105.214 263.902 110.405 262.426 116.377 260.919L116.376 260.92Z" fill="#349972"/>
<path fill-rule="evenodd" clip-rule="evenodd" d="M109.999 297.701C109.696 302.059 107.202 305.915 102.516 309.267C100.363 306.625 97.8542 303.211 94.9898 299.025C93.7824 297.16 95.5207 294.676 98.1418 295.22C101.567 295.796 105.518 296.623 110 297.701H109.999Z" fill="#349972"/>
<path fill-rule="evenodd" clip-rule="evenodd" d="M126.583 386.682C129.763 380.661 134.216 370.226 138.159 352.749C126.729 353.743 105.238 352.758 93.3546 352.758L111.127 397.924C124.04 398.186 137.879 398.467 137.879 398.467C141.474 391.765 138.594 388.325 126.584 386.681L126.583 386.682Z" fill="#41AC81"/>
<path fill-rule="evenodd" clip-rule="evenodd" d="M139.132 355.5L161.232 397.866C179.251 398.062 183.501 398.109 183.501 398.109C190.279 390.666 177.866 385.856 172.15 386.628C175.447 379.723 180.135 361.605 182.766 344.399C171.272 351.099 154.341 353.698 139.133 355.5H139.132Z" fill="#41AC81"/>
<path fill-rule="evenodd" clip-rule="evenodd" d="M80.214 74.1062C70.323 155.119 130.421 223.585 111.434 290.922C96.3121 344.558 39.5548 299.528 54.6852 231.639C67.9733 172.015 77.1823 101.161 25.7865 67.3996C63.5252 105.253 63.1571 163.113 44.5256 210.231C20.4521 271.112 22.2185 359.054 109.132 367.796C147.024 371.608 171.492 360.436 185.221 341.267C211.06 305.193 200.778 240.558 183.789 192.49C172.567 160.736 129.683 122.661 128.437 106.42C169.168 106.204 195.579 102.4 207.625 90.9125C219.855 79.2491 214.983 61.0139 209.277 47.3313C201.386 28.4082 162.038 26.2037 143.791 27.7393C113.637 30.2773 84.2794 40.7973 80.2131 74.1053L80.214 74.1062Z" fill="#52BA90"/>
<path fill-rule="evenodd" clip-rule="evenodd" d="M183.79 192.49C207.915 253.39 210.591 309.294 185.222 341.267C159.649 345.442 135.768 294.081 134.764 225.696C134.733 223.513 134.764 221.983 137.05 221.9C167.435 220.274 169.292 236.588 169.345 235.918C164.398 222.587 169.571 198.135 183.789 192.49H183.79Z" fill="#9BD0B7"/>
<path fill-rule="evenodd" clip-rule="evenodd" d="M97.4733 39.4198C96.4459 53.2823 181.637 38.1409 177.98 27.4212C174.889 18.3591 171.884 12.8149 168.217 3.99142C168.217 3.99142 144.901 7.9937 98.2701 15.9973C97.9717 25.2745 97.9265 33.3125 97.4742 39.4198H97.4733Z" fill="#FD6963"/>
<path fill-rule="evenodd" clip-rule="evenodd" d="M132.134 5.21525C151.449 1.8999 167.511 1.86917 168.216 3.99143C169.412 7.58515 162.699 13.6681 134.711 18.4712C106.724 23.2743 98.5207 20.2238 98.2692 15.9973C98.063 12.522 112.819 8.53059 132.133 5.21525H132.134Z" fill="#F29988"/>
<path fill-rule="evenodd" clip-rule="evenodd" d="M136.13 32.7349C136.458 35.2802 138.359 37.2081 139.284 37.8589C129.85 40.1212 125.83 29.7287 126.21 24.7042C128.068 23.8274 130.21 24.9464 132.634 28.0602C131.652 25.9822 132.259 23.9097 134.452 21.8426C137.551 22.1155 139.342 23.5183 139.826 26.0473C140.196 22.7166 142.841 20.5374 144.586 21.5488C146.999 25.6324 146.291 36.9017 139.284 37.8598C140.438 35.2793 140.281 33.5177 140.111 32.0146C139.338 29.4955 136.091 30.5521 136.129 32.7358L136.13 32.7349Z" fill="#FEFEFE"/>
<path fill-rule="evenodd" clip-rule="evenodd" d="M43.2277 52.3567C47.5501 56.2478 56.3684 75.4882 48.6933 86.245C36.1948 98.579 22.2393 94.9744 9.97412 74.8103C15.427 70.8605 18.6649 71.3377 22.8823 75.0363C24.2661 75.7458 25.3315 74.5509 24.6306 73.5259C20.9179 68.1001 20.2233 64.6103 23.6547 59.7882C29.2243 58.653 34.3732 63.0584 35.8393 66.6413C36.3684 67.9329 38.1312 67.7241 37.6518 66.2282C37.2213 57.5702 37.887 54.5106 43.2268 52.3558L43.2277 52.3567Z" fill="#349972"/>
<path fill-rule="evenodd" clip-rule="evenodd" d="M108.282 373.141C117.619 373.595 126.004 372.577 133.436 370.086C133.654 369.423 133.872 368.743 134.091 368.045C126.53 368.762 118.228 368.711 109.133 367.796C105.502 367.43 102.019 366.927 98.6818 366.294L109.634 394.124C107.469 385.995 107.019 379 108.283 373.141H108.282Z" fill="#349972"/>
<path fill-rule="evenodd" clip-rule="evenodd" d="M155.508 370.661C165.616 367.101 172.236 363.022 181.315 352.918C181.844 350.088 182.32 347.319 182.752 344.486C173.835 355.165 161.454 362.877 144.829 366.418L158.511 392.646C155.373 381.861 155.388 375.36 155.508 370.661Z" fill="#349972"/>
<path d="M199.472 65.9785C200.258 65.888 200.814 65.1147 200.714 64.2514C200.615 63.388 199.897 62.7614 199.111 62.8519C198.326 62.9424 197.77 63.7157 197.869 64.5791C197.969 65.4425 198.687 66.069 199.472 65.9785Z" fill="#1D6E50"/>
<path d="M205.29 64.984C206.076 64.8935 206.632 64.1202 206.532 63.2569C206.433 62.3935 205.715 61.7669 204.93 61.8574C204.144 61.9479 203.588 62.7212 203.688 63.5846C203.787 64.448 204.505 65.0745 205.29 64.984Z" fill="#1D6E50"/>
<path fill-rule="evenodd" clip-rule="evenodd" d="M119.001 79.4541C137.256 87.2258 202.687 77.8007 215.03 66.0471C215.724 72.1671 215.48 81.0867 211.549 86.4572C201.879 96.66 170.303 100.541 146.36 98.5784C134.162 97.5783 119.712 92.9783 119 79.4541H119.001Z" fill="#349972"/>
<path fill-rule="evenodd" clip-rule="evenodd" d="M157.129 92.6172C156.852 93.7054 153.601 94.7575 152.545 92.0658L150.442 82.0366L162.011 81.3868C160.186 85.1224 158.952 88.8824 157.13 92.6172H157.129Z" fill="#FEFEFE"/>
<path fill-rule="evenodd" clip-rule="evenodd" d="M170.888 89.4591C170.307 90.5293 168.6 90.9414 167.814 89.4772L165.333 80.6293L174.607 79.6929L170.887 89.4591H170.888Z" fill="#FEFEFE"/>
<path fill-rule="evenodd" clip-rule="evenodd" d="M130.951 89.018C130.449 89.8839 128.794 89.8134 128.819 88.3907L128.979 81.836L135.885 81.9607L130.952 89.0171L130.951 89.018Z" fill="#FEFEFE"/>
<path d="M114.825 70.8044C115.325 70.3362 116.112 70.3624 116.581 70.8623C117.049 71.3621 117.023 72.1485 116.523 72.6167L114.826 70.8044H114.825ZM107.44 75.829L107.487 73.3479L107.734 73.3506H107.978L108.224 73.347L108.466 73.3388L108.708 73.3271L108.951 73.3117L109.189 73.2918L109.428 73.2674L109.665 73.2385L109.9 73.2042L110.136 73.1653L110.369 73.121L110.6 73.0713L110.832 73.0162L111.061 72.9556L111.289 72.8878L111.516 72.8146L111.742 72.7351L111.968 72.6492L112.191 72.5561L112.414 72.4558L112.637 72.3482L112.859 72.2325L113.079 72.1096L113.299 71.9785L113.518 71.8384L113.738 71.6902L113.956 71.5329L114.175 71.3657L114.393 71.1895L114.61 71.0024L114.827 70.8053L116.524 72.6176L116.256 72.8607L115.985 73.093L115.712 73.3144L115.438 73.525L115.162 73.7248L114.883 73.9137L114.602 74.0926L114.319 74.2608L114.035 74.4189L113.751 74.5672L113.465 74.7055L113.177 74.8347L112.888 74.9549L112.599 75.0652L112.31 75.1673L112.021 75.2604L111.731 75.3463L111.441 75.424L111.152 75.4936L110.863 75.556L110.573 75.6111L110.285 75.659L109.996 75.7006L109.71 75.7359L109.423 75.7657L109.135 75.7892L108.851 75.8073L108.567 75.8217L108.284 75.8299L108.003 75.8344H107.722L107.442 75.8308L107.44 75.829ZM107.44 75.829C106.755 75.8163 106.209 75.2496 106.223 74.5654C106.236 73.8802 106.803 73.3352 107.487 73.3488L107.44 75.8299V75.829Z" fill="#1D6E50"/>
<path d="M111.133 75.6735C110.735 75.1158 110.866 74.3403 111.424 73.9426C111.982 73.5449 112.758 73.676 113.156 74.2336L111.134 75.6735H111.133ZM213.668 65.1336L215.344 66.9657L213.783 68.2095L211.895 69.4116L209.699 70.5839L207.212 71.73L204.454 72.848L201.447 73.9363L198.212 74.9911L194.771 76.0088L191.149 76.9832L187.368 77.9114L183.45 78.7882L179.42 79.608L175.301 80.3654L171.117 81.056L166.892 81.6751L162.648 82.2165L158.41 82.6766L154.201 83.049L150.044 83.3282L145.963 83.5099L141.982 83.5885L138.123 83.5578L134.41 83.4132L130.864 83.1484L127.509 82.7579L124.365 82.2337L121.454 81.5693L118.796 80.7541L116.41 79.7761L114.318 78.6182L112.546 77.2579L111.135 75.6735L113.157 74.2336L114.228 75.4331L115.671 76.5376L117.477 77.5363L119.626 78.4167L122.09 79.1714L124.843 79.7996L127.854 80.3012L131.099 80.679L134.549 80.9366L138.18 81.0776L141.965 81.1075L145.882 81.0306L149.904 80.8517L154.006 80.576L158.165 80.2081L162.355 79.7535L166.553 79.2175L170.734 78.6047L174.874 77.9214L178.947 77.1721L182.93 76.3613L186.8 75.4954L190.53 74.5798L194.097 73.6199L197.475 72.6212L200.639 71.589L203.566 70.5296L206.228 69.4504L208.598 68.3595L210.647 67.2658L212.347 66.183L213.668 65.1327V65.1336ZM213.668 65.1336C214.174 64.6718 214.959 64.7061 215.422 65.2123C215.885 65.7184 215.85 66.503 215.344 66.9657L213.668 65.1336Z" fill="#1D6E50"/>
<path fill-rule="evenodd" clip-rule="evenodd" d="M193.065 86.9509C192.353 86.3155 190.985 86.4628 190.794 87.7508L191.309 94.9346L198.398 93.1685L193.065 86.9509Z" fill="#FEFEFE"/>
<path d="M131.513 96.4351C130.899 96.1305 130.648 95.3848 130.954 94.772C131.259 94.1582 132.005 93.9079 132.618 94.2134L131.513 96.4359V96.4351ZM210.108 85.5662L211.985 87.1913L210.696 88.492L209.182 89.7013L207.461 90.8284L205.547 91.8805L203.454 92.8612L201.197 93.775L198.787 94.6246L196.239 95.411L193.568 96.1359L190.786 96.7993L187.91 97.4022L184.953 97.9454L181.93 98.429L178.855 98.8538L175.745 99.2189L172.613 99.5262L169.473 99.7739L166.342 99.9637L163.234 100.095L160.163 100.168L157.145 100.182L154.195 100.139L151.326 100.038L148.554 99.8787L145.892 99.6609L143.357 99.3852L140.96 99.0499L138.717 98.6549L136.639 98.1994L134.739 97.6806L133.028 97.0949L131.515 96.4351L132.62 94.2125L133.922 94.7792L135.465 95.307L137.229 95.7888L139.195 96.2199L141.345 96.5977L143.661 96.9213L146.126 97.1898L148.725 97.4022L151.44 97.5585L154.255 97.658L157.156 97.7005L160.126 97.686L163.15 97.6146L166.214 97.4853L169.3 97.2982L172.393 97.0542L175.478 96.7523L178.539 96.3935L181.563 95.9759L184.531 95.5005L187.43 94.9681L190.242 94.3779L192.954 93.7307L195.547 93.0275L198.008 92.2683L200.318 91.4539L202.463 90.5862L204.424 89.667L206.185 88.6999L207.729 87.6893L209.041 86.6418L210.109 85.5662H210.108ZM210.108 85.5662C210.557 85.0483 211.342 84.9922 211.859 85.4415C212.377 85.8898 212.433 86.6743 211.984 87.1913L210.107 85.5662H210.108Z" fill="#1D6E50"/>
<path fill-rule="evenodd" clip-rule="evenodd" d="M171.937 66.5454C165.571 68.0106 160.56 65.1409 158.731 59.4918C155.999 51.0525 157.674 45.9068 166.034 43.4682C171.436 41.8919 175.434 44.4118 177.001 49.966C179.463 58.6964 177.821 65.1915 171.937 66.5454Z" fill="#FEFEFE"/>
<path fill-rule="evenodd" clip-rule="evenodd" d="M147.933 52.2465C151.555 60.778 151.087 67.302 146.523 69.8527C139.357 73.8586 130.512 72.6546 126.809 63.5862C123.53 55.5546 126.204 48.9998 134.241 45.1286C140.302 42.2091 144.954 45.2307 147.933 52.2465Z" fill="#FEFEFE"/>
<path fill-rule="evenodd" clip-rule="evenodd" d="M176.438 55.8601C177.458 60.2799 176.676 63.3838 174.26 64.2253C170.465 65.5458 166.304 64.2135 165.292 59.5288C164.396 55.3792 166.243 52.4471 170.446 51.2658C173.616 50.3746 175.6 52.2266 176.438 55.861V55.8601Z" fill="#1D6E50"/>
<path fill-rule="evenodd" clip-rule="evenodd" d="M146.072 68.731C141.782 70.5486 137.906 69.1549 135.92 65.4129C132.954 59.8244 133.492 56.0029 139.061 53.2533C142.659 51.4764 145.781 52.7499 147.57 56.4575C150.383 62.2847 150.037 67.0507 146.072 68.731Z" fill="#1D6E50"/>
<path d="M125.949 41.8404L125.462 40.0435C125.959 39.9097 126.47 40.2026 126.605 40.6988C126.738 41.195 126.445 41.7057 125.949 41.8404ZM118.502 51.9355L118.442 51.4303L118.406 50.9259L118.394 50.4243L118.404 49.9254L118.437 49.4301L118.491 48.9402L118.565 48.4548L118.659 47.9757L118.774 47.503L118.907 47.0375L119.058 46.5802L119.226 46.1319L119.412 45.6926L119.613 45.2633L119.83 44.8448L120.063 44.4372L120.311 44.0422L120.572 43.6598L120.847 43.2911L121.135 42.9349L121.437 42.5942L121.75 42.2697L122.075 41.9606L122.412 41.6677L122.759 41.3939L123.118 41.1381L123.486 40.9013L123.864 40.6853L124.251 40.49L124.648 40.3174L125.053 40.1682L125.464 40.0435L125.951 41.8404L125.646 41.9335L125.343 42.0447L125.043 42.1748L124.747 42.3248L124.453 42.493L124.164 42.6783L123.88 42.8816L123.602 43.1013L123.33 43.3372L123.065 43.5893L122.808 43.8569L122.558 44.138L122.319 44.4326L122.09 44.7409L121.871 45.0608L121.664 45.3925L121.468 45.7351L121.286 46.0885L121.116 46.45L120.959 46.8206L120.817 47.1993L120.69 47.5844L120.578 47.9757L120.482 48.3734L120.403 48.7757L120.34 49.1824L120.295 49.5927L120.268 50.0049L120.26 50.4198L120.27 50.8365L120.299 51.2531L120.349 51.6707L118.504 51.9328L118.502 51.9355ZM118.502 51.9355L120.346 51.6734C120.418 52.1823 120.065 52.6541 119.555 52.7264C119.046 52.7987 118.574 52.4453 118.502 51.9364V51.9355Z" fill="#1D6E50"/>
<path d="M167.696 33.0956C167.184 33.1426 166.73 32.7666 166.683 32.255C166.636 31.7434 167.012 31.2897 167.524 31.2427L167.696 33.0956ZM175.082 37.388L173.263 37.7857L173.199 37.5227L173.122 37.2633L173.035 37.0093L172.936 36.7607L172.827 36.5167L172.708 36.2781L172.578 36.0467L172.439 35.8207L172.291 35.6011L172.134 35.3887L171.97 35.1835L171.799 34.9855L171.619 34.7957L171.434 34.6141L171.243 34.4414L171.048 34.2778L170.847 34.1233L170.643 33.9786L170.434 33.844L170.223 33.7192L170.01 33.6054L169.794 33.5014L169.578 33.4092L169.362 33.3279L169.147 33.2583L168.932 33.1995L168.719 33.1534L168.508 33.1182L168.3 33.0947L168.095 33.0838H167.894L167.697 33.0965L167.525 31.2436L167.834 31.2246L168.145 31.2237L168.454 31.2409L168.762 31.2752L169.069 31.3258L169.374 31.3927L169.677 31.4741L169.976 31.5708L170.273 31.6819L170.565 31.8067L170.853 31.945L171.136 32.0959L171.414 32.2595L171.687 32.4358L171.953 32.6238L172.214 32.8244L172.468 33.0359L172.714 33.2583L172.952 33.4924L173.181 33.7364L173.402 33.9904L173.614 34.2552L173.815 34.5291L174.006 34.812L174.186 35.1039L174.355 35.4067L174.511 35.7177L174.654 36.0358L174.783 36.363L174.899 36.6974L174.999 37.04L175.084 37.3889L175.082 37.388ZM175.082 37.388C175.191 37.8896 174.873 38.3867 174.371 38.4961C173.869 38.6055 173.371 38.2873 173.262 37.7857L175.081 37.388H175.082Z" fill="#1D6E50"/>
<path fill-rule="evenodd" clip-rule="evenodd" d="M111.474 221.831C105.803 200.391 95.5334 177.267 90.9515 161.222C94.4715 183.35 74.8759 189.586 56.7599 170.639C42.5476 155.773 31.9321 154.974 16.865 188.269C6.61409 210.925 2.99452 237.544 2.53687 264.487C2.38312 273.58 8.8553 273.375 12.3356 260.817C20.4303 231.616 55.9704 210.782 66.4221 236.166C69.5289 243.708 73.9262 241.454 75.2151 235.361C79.4126 215.513 98.9766 193.018 111.474 221.831V221.831Z" fill="#349972"/>
<path d="M8.3081 270.843C8.26197 271.727 7.51128 272.408 6.63126 272.364C5.75124 272.32 5.07472 271.566 5.11994 270.682L8.3081 270.844V270.843ZM31.734 194.588L34.1742 196.653L32.7027 198.464L31.2737 200.339L29.8863 202.273L28.5414 204.264L27.2381 206.309L25.9791 208.405L24.7617 210.549L23.5868 212.737L22.4554 214.968L21.3664 217.237L20.3209 219.543L19.3179 221.881L18.3573 224.249L17.4411 226.644L16.5675 229.062L15.7372 231.501L14.9494 233.958L14.2051 236.429L13.5041 238.912L12.8466 241.403L12.2316 243.899L11.66 246.398L11.1309 248.896L10.6461 251.39L10.2038 253.879L9.80495 256.356L9.44769 258.821L9.13476 261.269L8.86433 263.699L8.63641 266.107L8.451 268.489L8.309 270.843L5.12084 270.681L5.26646 268.271L5.45549 265.835L5.68883 263.374L5.96559 260.891L6.28576 258.39L6.64935 255.872L7.05725 253.343L7.50947 250.805L8.00511 248.259L8.54416 245.709L9.12752 243.159L9.7552 240.61L10.4263 238.066L11.1426 235.531L11.9033 233.006L12.7073 230.494L13.5575 227.999L14.452 225.525L15.3908 223.072L16.3748 220.646L17.4032 218.247L18.4767 215.88L19.5955 213.547L20.7604 211.251L21.9706 208.996L23.2269 206.784L24.5293 204.618L25.8778 202.501L27.2724 200.436L28.7132 198.427L30.201 196.476L31.7358 194.587L31.734 194.588ZM31.734 194.588C32.302 193.91 33.3096 193.824 33.9834 194.393C34.6572 194.963 34.7422 195.975 34.1742 196.653L31.734 194.588Z" fill="#1D6E50"/>
<path d="M72.7486 240.63C72.9123 241.499 72.3434 242.34 71.477 242.506C70.6105 242.673 69.7748 242.102 69.6111 241.233L72.7477 240.631L72.7486 240.63ZM68.8541 201.202L71.9808 201.846L71.7727 202.897L71.5792 203.955L71.4001 205.02L71.2355 206.093L71.0863 207.174L70.9515 208.263L70.8312 209.361L70.7254 210.468L70.635 211.584L70.559 212.709L70.4984 213.845L70.4523 214.992L70.4206 216.149L70.4052 217.318L70.4043 218.496L70.4188 219.688L70.4486 220.891L70.4939 222.108L70.5545 223.337L70.6304 224.579L70.7209 225.835L70.8276 227.105L70.9497 228.388L71.0872 229.686L71.24 230.999L71.4083 232.327L71.5919 233.67L71.7917 235.03L72.007 236.405L72.2385 237.797L72.4854 239.205L72.7486 240.632L69.612 241.234L69.3443 239.78L69.0929 238.344L68.8568 236.923L68.637 235.518L68.4335 234.127L68.2445 232.753L68.0727 231.392L67.9162 230.047L67.776 228.714L67.6512 227.396L67.5418 226.09L67.4477 224.798L67.3699 223.518L67.3075 222.252L67.2605 220.996L67.2297 219.753L67.2144 218.521L67.2153 217.299L67.2315 216.089L67.2632 214.89L67.3102 213.7L67.3726 212.521L67.4504 211.35L67.5445 210.189L67.6539 209.037L67.7787 207.894L67.9189 206.76L68.0754 205.633L68.2472 204.514L68.4335 203.403L68.6361 202.299L68.8532 201.202H68.8541ZM68.8541 201.202C69.0323 200.335 69.877 199.776 70.7399 199.954C71.6027 200.132 72.158 200.979 71.9808 201.846L68.8541 201.202Z" fill="#1D6E50"/>
<path d="M251.126 154.812C254.86 154.981 258.723 155.859 261.577 158.271C264.431 160.681 265.966 164.913 264.413 168.311C265.676 169.089 266.957 169.882 267.949 170.985C268.94 172.088 269.621 173.561 269.437 175.033C269.252 176.503 268.022 177.877 266.54 177.904C267.471 180.937 267.04 184.362 265.385 187.07C264.792 188.039 263.981 188.965 262.885 189.262C261.788 189.558 260.404 188.955 260.219 187.836C259.316 189.939 258.08 191.947 256.31 193.402C254.542 194.856 252.189 195.703 249.932 195.318C248.512 195.076 247.207 194.374 245.795 194.09C244.296 193.788 242.747 193.971 241.217 194.012C239.688 194.051 238.077 193.923 236.793 193.092C235.509 192.26 234.695 190.534 235.336 189.144C232.847 190.163 229.934 188.269 228.881 185.796C227.828 183.323 228.134 180.507 228.493 177.844C226.687 176.494 225.605 174.232 225.687 171.981C225.769 169.73 227.013 167.553 228.911 166.338C227.523 165.391 227.405 163.248 228.285 161.816C229.164 160.385 230.754 159.548 232.338 158.989C235.223 157.972 237.918 156.22 240.794 155.349C243.917 154.404 247.914 154.669 251.128 154.814L251.126 154.812Z" fill="#7CD18A"/>
<path d="M228.491 177.843C228.132 180.506 227.826 183.322 228.88 185.795C229.246 186.657 229.841 187.443 230.563 188.065C230.462 184.631 232.384 181.043 231.695 177.482C231.451 176.219 230.963 175.064 230.508 173.868C230.223 173.123 229.747 172.155 230.167 171.378C230.635 170.514 231.695 169.958 232.235 169.097C232.887 168.058 233.119 166.951 232.914 165.754C232.796 165.055 232.236 164.321 232.518 163.838C232.985 163.039 234.54 162.74 235.308 162.442C237.491 161.595 238.853 160.271 240.57 158.763C242.27 157.271 244.596 157.755 246.577 156.847C247.56 156.396 248.349 155.721 249.091 154.948C249.162 154.874 249.229 154.801 249.294 154.728C246.478 154.611 243.344 154.575 240.791 155.347C237.915 156.218 235.22 157.97 232.336 158.987C230.751 159.546 229.16 160.383 228.282 161.815C227.402 163.246 227.521 165.389 228.909 166.337C227.01 167.551 225.768 169.729 225.684 171.979C225.602 174.231 226.685 176.492 228.49 177.842L228.491 177.843Z" fill="#5FB07A"/>
<path d="M236.714 179.36C239.876 177.28 242.573 174.603 244.617 171.455C244.659 171.639 244.698 171.824 244.741 172.008C244.577 172.128 244.446 172.316 244.385 172.585C243.596 176.082 242.983 179.423 241.314 182.651C241.166 182.937 241.587 183.21 241.789 182.956C243.41 180.895 244.896 178.473 245.675 175.893C246.719 180.041 247.893 184.146 249.118 188.175C249.311 188.808 250.418 188.58 250.275 187.915C249.527 184.423 248.83 180.918 248.221 177.401C248.977 177.872 249.757 178.293 250.515 178.671C252.56 179.689 255.317 180.832 257.609 180.966C258.015 180.991 258.171 180.52 257.825 180.3C256.838 179.675 255.702 179.314 254.678 178.746C253.65 178.176 252.642 177.549 251.637 176.937C250.297 176.121 249.026 175.165 247.71 174.297C247.567 173.388 247.429 172.479 247.301 171.568C247.253 171.219 247.207 170.871 247.16 170.522C249.336 172.465 252.235 173.813 254.72 174.557C255.089 174.667 255.242 174.098 254.922 173.934C252.822 172.866 250.894 171.389 249.32 169.63C248.339 168.533 247.521 167.258 246.605 166.092C246.512 165.298 246.42 164.505 246.331 163.713C249.316 165.385 253.135 165.96 256.314 166.148C256.471 166.158 256.513 165.951 256.358 165.907C254.275 165.329 252.11 164.385 250.249 163.285C248.76 162.406 247.407 161.285 245.951 160.356C245.748 158.576 245.539 156.796 245.307 155.019C245.029 152.897 241.774 153.154 241.974 155.308C242.113 156.8 242.287 158.293 242.49 159.786C241.723 161.42 241.461 163.312 240.973 165.043C240.384 167.129 239.344 169.033 238.103 170.8C237.759 171.291 238.382 171.8 238.809 171.392C240.409 169.859 242.249 167.66 243.362 165.285C243.516 166.132 243.675 166.978 243.845 167.822C241.826 171.853 239.378 175.602 236.357 178.97C236.15 179.202 236.468 179.526 236.717 179.362L236.714 179.36Z" fill="#B4EDBF"/>
<path d="M171.558 164.313C174.055 167.092 177.182 169.523 180.857 170.201C184.531 170.88 188.78 169.386 190.426 166.033C191.829 166.516 193.255 167.004 194.737 167.071C196.218 167.139 197.79 166.731 198.811 165.657C199.834 164.582 200.118 162.761 199.199 161.597C202.138 160.395 204.516 157.892 205.563 154.896C205.938 153.824 206.141 152.611 205.675 151.575C205.21 150.539 203.866 149.851 202.881 150.417C203.938 148.387 204.708 146.157 204.715 143.869C204.72 141.581 203.884 139.225 202.156 137.724C201.07 136.78 199.699 136.215 198.584 135.303C197.4 134.335 196.56 133.021 195.622 131.813C194.684 130.605 193.564 129.441 192.107 128.976C190.65 128.51 188.798 128.976 188.129 130.35C187.34 127.781 184.029 126.729 181.446 127.482C178.864 128.234 176.879 130.255 175.045 132.22C172.856 131.679 170.419 132.276 168.729 133.765C167.038 135.256 166.14 137.596 166.403 139.834C164.79 139.361 163.055 140.626 162.504 142.214C161.953 143.802 162.313 145.561 162.884 147.14C163.924 150.015 164.275 153.209 165.424 155.984C166.671 158.997 169.408 161.919 171.558 164.313Z" fill="#7CD18A"/>
<path d="M175.044 132.221C176.878 130.256 178.864 128.235 181.445 127.483C182.345 127.22 183.331 127.181 184.27 127.345C181.548 129.444 179.987 133.202 176.795 134.926C175.662 135.537 174.459 135.891 173.244 136.298C172.486 136.55 171.435 136.795 171.099 137.612C170.728 138.521 170.969 139.693 170.645 140.656C170.254 141.819 169.544 142.699 168.487 143.301C167.87 143.652 166.948 143.684 166.754 144.209C166.431 145.075 167.184 146.467 167.441 147.25C168.168 149.474 168.006 151.367 167.927 153.649C167.848 155.909 169.698 157.401 170.25 159.508C170.524 160.554 170.501 161.591 170.373 162.655C170.361 162.757 170.347 162.855 170.332 162.952C168.457 160.85 166.442 158.449 165.423 155.986C164.275 153.21 163.924 150.017 162.884 147.142C162.312 145.563 161.952 143.804 162.504 142.216C163.054 140.628 164.789 139.363 166.402 139.836C166.139 137.599 167.038 135.258 168.728 133.767C170.418 132.278 172.856 131.681 175.044 132.222V132.221Z" fill="#5FB07A"/>
<path d="M181.429 137.616C181.822 141.377 181.459 145.159 180.317 148.734C180.486 148.649 180.654 148.563 180.823 148.479C180.813 148.277 180.874 148.057 181.044 147.839C183.251 145.013 185.449 142.421 186.89 139.086C187.018 138.791 187.496 138.943 187.426 139.26C186.858 141.819 185.925 144.502 184.421 146.74C188.293 144.919 192.215 143.226 196.111 141.621C196.723 141.368 197.249 142.369 196.643 142.68C193.465 144.315 190.311 145.995 187.201 147.754C188.045 148.041 188.865 148.376 189.637 148.722C191.722 149.659 194.352 151.066 195.909 152.752C196.185 153.051 195.919 153.469 195.529 153.341C194.42 152.974 193.421 152.325 192.333 151.893C191.24 151.459 190.115 151.078 189.005 150.689C187.524 150.17 185.978 149.793 184.473 149.326C183.678 149.791 182.887 150.261 182.1 150.739C181.8 150.921 181.501 151.107 181.201 151.292C184.084 151.744 186.964 153.131 189.116 154.581C189.436 154.796 189.091 155.275 188.761 155.131C186.604 154.183 184.239 153.628 181.88 153.526C180.409 153.463 178.904 153.639 177.421 153.669C176.748 154.099 176.076 154.531 175.405 154.964C178.59 156.212 181.455 158.801 183.616 161.138C183.723 161.253 183.589 161.419 183.458 161.326C181.69 160.082 179.588 159.005 177.556 158.263C175.932 157.669 174.207 157.334 172.565 156.796C171.058 157.767 169.548 158.733 168.026 159.68C166.207 160.81 164.343 158.13 166.138 156.92C167.38 156.081 168.647 155.271 169.931 154.481C170.71 152.851 172.009 151.451 173.039 149.978C174.281 148.201 175.096 146.19 175.678 144.111C175.839 143.533 176.629 143.692 176.583 144.282C176.41 146.49 175.874 149.306 174.742 151.671C175.494 151.254 176.25 150.841 177.012 150.436C178.852 146.322 180.204 142.054 180.897 137.584C180.945 137.277 181.398 137.317 181.429 137.615V137.616Z" fill="#B4EDBF"/>
<path d="M162.611 205.645C166.225 204.692 169.815 203.019 172.095 200.059C174.375 197.1 174.982 192.64 172.746 189.647C173.815 188.619 174.899 187.574 175.635 186.286C176.371 184.999 176.725 183.416 176.233 182.017C175.742 180.618 174.25 179.536 172.794 179.821C173.064 176.659 171.919 173.403 169.727 171.106C168.944 170.284 167.956 169.55 166.821 169.492C165.685 169.434 164.461 170.315 164.516 171.449C163.189 169.584 161.556 167.882 159.52 166.834C157.484 165.785 155.005 165.454 152.88 166.308C151.544 166.844 150.416 167.805 149.095 168.381C147.693 168.993 146.14 169.141 144.637 169.424C143.133 169.708 141.586 170.173 140.508 171.257C139.429 172.342 138.999 174.2 139.919 175.422C137.271 174.953 134.823 177.418 134.318 180.059C133.81 182.698 134.706 185.385 135.619 187.913C134.14 189.614 133.56 192.053 134.117 194.236C134.673 196.419 136.348 198.284 138.461 199.071C137.305 200.29 137.641 202.41 138.805 203.624C139.966 204.838 141.698 205.32 143.365 205.531C146.398 205.916 149.404 207.061 152.398 207.304C155.651 207.569 159.502 206.466 162.613 205.645H162.611Z" fill="#7CD18A"/>
<path d="M135.618 187.913C134.705 185.385 133.81 182.698 134.317 180.059C134.492 179.139 134.907 178.244 135.482 177.484C136.11 180.861 138.746 183.963 138.825 187.589C138.853 188.874 138.62 190.107 138.428 191.372C138.307 192.161 138.047 193.208 138.622 193.878C139.262 194.624 140.415 194.943 141.125 195.671C141.983 196.549 142.443 197.582 142.496 198.796C142.528 199.504 142.136 200.339 142.515 200.751C143.14 201.433 144.722 201.397 145.536 201.526C147.849 201.893 149.461 202.9 151.458 204.011C153.434 205.111 155.606 204.147 157.734 204.616C158.791 204.849 159.704 205.342 160.593 205.942C160.678 205.999 160.759 206.056 160.839 206.113C158.112 206.823 155.054 207.52 152.396 207.304C149.401 207.06 146.396 205.915 143.363 205.531C141.696 205.32 139.964 204.838 138.803 203.624C137.64 202.41 137.303 200.291 138.459 199.071C136.346 198.284 134.671 196.419 134.115 194.236C133.559 192.053 134.139 189.614 135.617 187.913H135.618Z" fill="#5FB07A"/>
<path d="M143.335 184.694C146.864 186.06 150.067 188.107 152.73 190.752C152.732 190.563 152.732 190.375 152.735 190.186C152.549 190.102 152.382 189.948 152.265 189.697C150.754 186.445 149.448 183.308 147.135 180.506C146.93 180.259 147.285 179.902 147.534 180.109C149.555 181.781 151.518 183.834 152.826 186.192C152.969 181.917 153.249 177.656 153.596 173.46C153.65 172.8 154.781 172.789 154.782 173.47C154.79 177.041 154.848 180.613 154.997 184.18C155.637 183.56 156.309 182.984 156.97 182.455C158.754 181.028 161.207 179.329 163.419 178.714C163.811 178.605 164.062 179.032 163.77 179.319C162.937 180.139 161.904 180.731 161.023 181.503C160.139 182.278 159.287 183.104 158.434 183.914C157.297 184.994 156.256 186.197 155.153 187.323C155.207 188.241 155.263 189.159 155.33 190.077C155.356 190.428 155.386 190.779 155.414 191.129C157.13 188.772 159.679 186.841 161.951 185.59C162.288 185.403 162.558 185.928 162.279 186.155C160.452 187.643 158.88 189.494 157.714 191.545C156.987 192.825 156.457 194.244 155.808 195.577C155.885 196.372 155.963 197.166 156.042 197.961C158.605 195.696 162.218 194.328 165.285 193.472C165.436 193.43 165.522 193.624 165.379 193.698C163.466 194.703 161.549 196.082 159.961 197.551C158.692 198.725 157.607 200.106 156.38 201.322C156.558 203.104 156.73 204.888 156.879 206.674C157.056 208.808 153.82 209.243 153.56 207.095C153.381 205.607 153.235 204.111 153.117 202.609C152.022 201.174 151.366 199.38 150.523 197.791C149.508 195.876 148.088 194.235 146.502 192.77C146.062 192.364 146.563 191.733 147.067 192.042C148.955 193.203 151.219 194.963 152.809 197.05C152.78 196.19 152.756 195.329 152.744 194.467C149.918 190.955 146.733 187.807 143.068 185.152C142.817 184.969 143.06 184.584 143.338 184.693L143.335 184.694Z" fill="#B4EDBF"/>
<path d="M189.716 160.072C193.937 151.457 189.753 140.65 180.388 135.981C171.024 131.311 159.972 134.521 155.752 143.135C151.532 151.749 155.717 162.557 165.08 167.226C174.445 171.895 185.496 168.686 189.716 160.072Z" fill="#52A15F"/>
<path d="M188.163 158.865C192.041 150.949 188.195 141.02 179.591 136.729C170.987 132.438 160.832 135.387 156.954 143.303C153.076 151.219 156.921 161.148 165.525 165.439C174.129 169.73 184.284 166.781 188.163 158.865Z" fill="#B4EDBF"/>
<path d="M182.057 154.778C184.459 149.983 182.142 143.901 176.891 141.22C171.64 138.539 165.415 140.26 163.013 145.056C160.611 149.851 162.928 155.933 168.179 158.614C173.429 161.294 179.655 159.574 182.057 154.778Z" fill="#7CD18A"/>
<path d="M168.21 144.108C169.542 145.11 170.619 146.272 171.735 147.506C172.02 147.822 171.709 148.373 171.287 148.151C169.842 147.386 168.337 146.754 166.875 146.026C165.391 145.286 166.803 143.047 168.21 144.108Z" fill="#B4EDBF"/>
<path d="M166.776 148.898C168.294 149.004 169.879 149.376 171.281 149.967C171.674 150.134 171.51 150.762 171.102 150.764C170.442 150.765 169.747 150.729 169.092 150.801C168.449 150.872 167.792 151.063 167.161 151.203C165.387 151.596 165.165 148.788 166.776 148.898Z" fill="#B4EDBF"/>
<path d="M170.165 154.452C170.444 153.959 170.753 153.514 171.163 153.121C171.54 152.762 171.885 152.326 172.345 152.067C172.771 151.831 173.283 152.262 173.055 152.719C172.859 153.111 172.571 153.45 172.433 153.873C172.297 154.288 172.197 154.735 172.12 155.164C171.847 156.663 169.402 155.798 170.165 154.453V154.452Z" fill="#B4EDBF"/>
<path d="M175.998 150.343C176.502 150.289 176.984 150.174 177.49 150.15C177.986 150.129 178.501 150.212 178.99 150.139C179.801 150.02 180.413 150.941 180.251 151.661C180.073 152.441 179.176 152.857 178.459 152.492C178.038 152.278 177.514 152.188 177.07 152.018C176.614 151.842 176.207 151.585 175.764 151.382C175.227 151.136 175.487 150.397 175.997 150.343H175.998Z" fill="#B4EDBF"/>
<path d="M173.776 148.746C174.04 148.314 174.298 147.885 174.604 147.481C174.923 147.063 175.258 146.694 175.455 146.204C175.787 145.371 176.971 145.377 177.481 145.985C178.07 146.688 177.71 147.631 176.904 147.945C176.494 148.106 176.152 148.456 175.8 148.719C175.416 149.01 175.007 149.25 174.594 149.498C174.133 149.777 173.462 149.255 173.775 148.747L173.776 148.746Z" fill="#B4EDBF"/>
<path d="M160.947 183.431C171.192 181.675 178.097 171.916 176.339 161.677C174.581 151.439 164.816 144.538 154.572 146.295C144.327 148.052 137.422 157.81 139.18 168.049C140.938 178.288 150.702 185.188 160.948 183.432L160.947 183.431Z" fill="#BA563D"/>
<path d="M140.531 167.56C142.178 177.153 151.296 183.594 160.894 181.948C170.492 180.302 176.938 171.192 175.291 161.599C173.644 152.007 164.529 145.565 154.93 147.211C145.332 148.857 138.885 157.968 140.532 167.559L140.531 167.56Z" fill="#F37757"/>
<path d="M149.81 155.477C149.063 154.104 149.289 153.511 149.438 153.321C149.626 153.081 149.911 152.942 150.188 152.816C153.611 151.257 157.373 150.447 161.135 150.459C161.6 150.46 162.131 150.507 162.409 150.879C162.617 151.154 162.628 151.487 162.618 151.698C162.501 154.038 160.41 158.264 160.41 158.264C158.752 161.615 158.889 161.902 158.989 161.983C159.062 162.042 159.322 162.158 161.851 160.257C163.45 159.055 165.11 157.934 166.701 156.719C167.339 156.233 168.031 155.686 168.82 155.845C169.366 155.956 169.779 156.395 170.128 156.829C171.689 158.77 172.76 161.1 173.215 163.549C173.394 164.512 173.436 165.627 172.763 166.339C172.623 166.487 172.072 166.986 169.964 166.889C168.963 166.842 167.832 166.67 165.91 166.055C163.198 165.188 161.484 164.26 161.152 164.721C161.082 164.819 161.098 164.942 161.108 165.003C161.413 166.954 171.274 169.616 171.113 171.996C171.101 172.156 171.011 172.414 170.661 172.786C168.891 174.666 166.772 176.213 164.441 177.325C163.922 177.573 163.367 177.804 162.793 177.78C161.678 177.735 160.817 176.753 160.376 175.729C159.9 174.628 159.515 173.798 159.247 172.584C158.244 168.057 158.138 165.707 157.121 165.503C157.025 165.484 156.92 165.462 156.802 165.512C155.664 166.002 157.859 171.55 156.424 176.02C155.886 177.696 155.189 178.186 154.706 178.3C154.302 178.396 153.876 178.336 153.468 178.252C151.232 177.789 149.155 176.586 147.641 174.878C147.234 174.418 146.843 173.839 146.963 173.237C147.075 172.679 147.497 172.315 147.65 172.189C148.655 171.363 151.457 168.776 155.289 165.224C155.407 164.63 155.299 164.416 155.181 164.328C154.198 163.587 147.981 168.292 145.496 169.549C145.272 169.662 144.77 169.889 144.216 169.762C143.748 169.655 143.4 169.268 143.143 168.863C142.079 167.181 142.111 165.05 142.233 163.064C142.372 160.823 142.99 158.565 144.44 158.039C146.779 157.189 150.834 161.316 156.081 163.441C156.081 163.441 156.825 163.742 156.928 163.571C157.214 163.093 151.608 158.787 149.809 155.478L149.81 155.477Z" fill="#E06648"/>
<path d="M154.649 156.076C154.416 155.811 154.138 155.48 154.267 155.153C154.364 154.907 154.648 154.802 154.902 154.731C155.971 154.426 157.064 154.209 158.17 154.082C158.428 154.052 158.732 154.044 158.903 154.242C159.027 154.387 159.034 154.595 159.029 154.786C158.978 156.849 158.24 159.127 159.395 160.838C160.12 161.912 161.476 162.451 162.773 162.411C164.069 162.371 165.303 161.82 166.373 161.087C166.889 160.734 167.611 160.339 168.07 160.765C168.235 160.919 168.31 161.144 168.377 161.36C168.634 162.175 168.891 162.99 169.148 163.806C167.463 163.855 165.78 163.989 164.108 164.209C163.528 164.286 162.885 164.408 162.537 164.88C162.175 165.371 162.274 166.059 162.452 166.644C163.114 168.807 164.684 170.677 166.699 171.705C165.953 172.563 165.005 173.245 163.953 173.679C163.682 173.791 163.379 173.887 163.099 173.798C162.614 173.642 162.462 173.049 162.336 172.555C161.701 170.071 159.726 167.972 157.283 167.188C156.993 167.094 156.668 167.02 156.387 167.143C155.991 167.316 155.851 167.798 155.758 168.221C155.286 170.351 154.816 172.482 154.345 174.613C153.466 174.36 152.623 173.981 151.851 173.491C151.63 173.35 151.404 173.189 151.304 172.947C151.151 172.579 151.337 172.165 151.519 171.811C152.119 170.651 152.718 169.492 153.318 168.332C153.711 167.572 154.115 166.724 153.908 165.894C153.62 164.735 152.234 164.163 151.045 164.289C149.856 164.415 148.79 165.036 147.681 165.483C147.469 165.569 147.204 165.641 147.033 165.491C146.936 165.407 146.9 165.275 146.869 165.151C146.526 163.703 146.503 162.18 146.808 160.723C148.684 161.245 150.56 161.767 152.437 162.288C154.202 162.779 155.489 162.711 155.87 160.735C156.182 159.11 155.747 157.326 154.647 156.078L154.649 156.076Z" fill="#FF9175"/>
<path d="M157.461 159.621C157.664 159.595 157.85 159.738 157.977 159.899C158.602 160.696 158.406 162.045 159.259 162.589C159.715 162.879 160.303 162.811 160.835 162.898C161.37 162.985 161.96 163.41 161.837 163.936C161.733 164.375 161.206 164.562 160.959 164.938C160.741 165.267 160.765 165.704 160.892 166.076C161.017 166.45 161.236 166.784 161.391 167.145C161.448 167.276 161.498 167.419 161.462 167.557C161.391 167.832 161.033 167.913 160.752 167.87C159.965 167.751 159.38 167.115 158.769 166.605C158.159 166.095 157.296 165.674 156.595 166.047C156.041 166.342 155.646 167.093 155.03 166.975C154.699 166.91 154.467 166.58 154.431 166.244C154.398 165.909 154.525 165.576 154.694 165.285C154.776 165.145 154.871 165.005 154.886 164.844C154.923 164.462 154.506 164.189 154.128 164.121C153.75 164.054 153.34 164.093 153.005 163.906C152.85 163.819 152.711 163.615 152.82 163.474C152.865 163.414 152.943 163.388 153.014 163.366C154.037 163.06 156.074 163.515 156.693 162.481C157.036 161.905 156.721 159.718 157.46 159.623L157.461 159.621Z" fill="#FFDBA3"/>
<path d="M246.171 182.051C256.415 180.295 263.32 170.536 261.563 160.297C259.804 150.058 250.04 143.158 239.794 144.914C229.55 146.671 222.645 156.429 224.403 166.668C226.161 176.907 235.925 183.807 246.171 182.051Z" fill="#BA563D"/>
<path d="M225.754 166.18C227.401 175.773 236.519 182.214 246.117 180.569C255.716 178.923 262.16 169.813 260.513 160.22C258.866 150.628 249.751 144.186 240.153 145.832C230.555 147.478 224.107 156.588 225.754 166.18Z" fill="#F37757"/>
<path d="M235.033 154.097C234.285 152.724 234.512 152.131 234.661 151.941C234.849 151.701 235.134 151.562 235.411 151.436C238.834 149.876 242.596 149.067 246.358 149.079C246.823 149.08 247.354 149.127 247.631 149.499C247.839 149.774 247.851 150.107 247.841 150.317C247.723 152.657 245.633 156.883 245.633 156.883C243.976 160.235 244.113 160.522 244.212 160.602C244.285 160.662 244.545 160.778 247.073 158.877C248.673 157.675 250.333 156.554 251.924 155.339C252.562 154.853 253.254 154.306 254.043 154.465C254.589 154.576 255.003 155.014 255.351 155.449C256.911 157.39 257.983 159.72 258.438 162.169C258.617 163.131 258.659 164.247 257.986 164.958C257.846 165.106 257.295 165.606 255.188 165.508C254.187 165.461 253.055 165.289 251.133 164.673C248.422 163.806 246.708 162.878 246.376 163.34C246.306 163.437 246.322 163.561 246.331 163.622C246.636 165.573 256.497 168.235 256.336 170.615C256.325 170.776 256.234 171.033 255.884 171.405C254.114 173.285 251.994 174.833 249.665 175.944C249.145 176.192 248.591 176.424 248.017 176.4C246.902 176.355 246.04 175.373 245.599 174.349C245.122 173.248 244.739 172.418 244.47 171.205C243.467 166.678 243.362 164.328 242.345 164.124C242.249 164.104 242.143 164.083 242.026 164.133C240.889 164.622 243.084 170.171 241.648 174.64C241.109 176.317 240.413 176.807 239.93 176.921C239.526 177.016 239.1 176.957 238.691 176.873C236.455 176.41 234.379 175.207 232.864 173.498C232.457 173.038 232.067 172.459 232.186 171.857C232.297 171.3 232.72 170.934 232.873 170.81C233.878 169.984 236.68 167.397 240.512 163.845C240.63 163.251 240.521 163.037 240.404 162.948C239.421 162.208 233.203 166.912 230.718 168.169C230.495 168.282 229.993 168.508 229.439 168.383C228.971 168.276 228.623 167.888 228.366 167.484C227.3 165.801 227.334 163.671 227.455 161.684C227.594 159.445 228.213 157.187 229.662 156.661C232.001 155.81 236.055 159.936 241.303 162.063C241.303 162.063 242.046 162.364 242.15 162.192C242.436 161.714 236.83 157.408 235.031 154.099L235.033 154.097Z" fill="#E06648"/>
<path d="M239.872 154.696C239.639 154.432 239.36 154.1 239.491 153.773C239.587 153.527 239.871 153.422 240.125 153.35C241.195 153.046 242.288 152.829 243.393 152.702C243.652 152.672 243.956 152.664 244.127 152.862C244.251 153.006 244.258 153.215 244.253 153.406C244.203 155.469 243.465 157.747 244.62 159.458C245.345 160.532 246.701 161.072 247.998 161.031C249.293 160.991 250.527 160.439 251.597 159.707C252.113 159.353 252.836 158.958 253.294 159.384C253.46 159.538 253.535 159.764 253.602 159.979C253.859 160.794 254.115 161.609 254.372 162.425C252.687 162.473 251.005 162.608 249.333 162.828C248.752 162.904 248.109 163.027 247.762 163.498C247.4 163.991 247.498 164.678 247.677 165.264C248.339 167.427 249.908 169.297 251.923 170.325C251.178 171.183 250.229 171.864 249.178 172.298C248.907 172.41 248.604 172.507 248.323 172.418C247.839 172.262 247.687 171.668 247.562 171.175C246.927 168.69 244.952 166.591 242.509 165.807C242.218 165.713 241.894 165.639 241.612 165.762C241.217 165.935 241.078 166.417 240.984 166.839C240.512 168.97 240.041 171.101 239.569 173.231C238.691 172.978 237.848 172.599 237.077 172.109C236.855 171.969 236.629 171.808 236.529 171.566C236.376 171.198 236.563 170.784 236.745 170.43C237.344 169.27 237.944 168.111 238.544 166.951C238.936 166.191 239.34 165.343 239.133 164.513C238.846 163.354 237.459 162.782 236.272 162.907C235.082 163.034 234.016 163.654 232.907 164.101C232.695 164.187 232.431 164.259 232.26 164.109C232.163 164.025 232.127 163.893 232.096 163.769C231.751 162.321 231.73 160.798 232.033 159.341C233.909 159.862 235.786 160.385 237.663 160.906C239.427 161.397 240.714 161.329 241.095 159.353C241.407 157.728 240.973 155.944 239.872 154.695V154.696Z" fill="#FF9175"/>
<path d="M242.685 158.241C242.888 158.215 243.074 158.359 243.201 158.52C243.826 159.317 243.629 160.666 244.484 161.21C244.94 161.499 245.528 161.431 246.06 161.519C246.595 161.606 247.185 162.031 247.062 162.557C246.958 162.995 246.43 163.183 246.183 163.559C245.965 163.887 245.99 164.325 246.117 164.697C246.242 165.07 246.46 165.405 246.617 165.765C246.673 165.895 246.723 166.039 246.687 166.177C246.616 166.451 246.258 166.533 245.977 166.49C245.19 166.371 244.605 165.735 243.995 165.225C243.384 164.715 242.522 164.293 241.82 164.667C241.267 164.962 240.872 165.713 240.256 165.594C239.924 165.531 239.692 165.199 239.657 164.865C239.624 164.53 239.751 164.197 239.919 163.906C240.002 163.766 240.096 163.625 240.112 163.465C240.148 163.083 239.733 162.809 239.354 162.742C238.975 162.675 238.565 162.714 238.231 162.527C238.075 162.44 237.937 162.236 238.045 162.095C238.091 162.035 238.168 162.009 238.24 161.987C239.263 161.681 241.299 162.135 241.918 161.101C242.262 160.526 241.945 158.338 242.686 158.243L242.685 158.241Z" fill="#FFDBA3"/>
<path d="M241.344 163.156C243.93 160.459 246.121 157.161 246.522 153.448C246.923 149.734 245.114 145.612 241.644 144.224C242.02 142.79 242.4 141.332 242.357 139.85C242.313 138.369 241.789 136.832 240.639 135.895C239.491 134.957 237.652 134.81 236.559 135.813C235.139 132.974 232.463 130.793 229.396 129.974C228.298 129.682 227.072 129.569 226.073 130.112C225.075 130.653 224.49 132.043 225.128 132.982C223.023 132.082 220.741 131.481 218.457 131.647C216.173 131.814 213.885 132.823 212.517 134.659C211.656 135.812 211.195 137.221 210.369 138.4C209.492 139.653 208.245 140.588 207.109 141.613C205.974 142.639 204.897 143.843 204.541 145.33C204.186 146.818 204.789 148.627 206.212 149.191C203.706 150.17 202.905 153.549 203.851 156.066C204.795 158.582 206.961 160.409 209.059 162.09C208.684 164.312 209.461 166.695 211.075 168.268C212.688 169.841 215.091 170.56 217.305 170.131C216.954 171.774 218.347 173.407 219.973 173.837C221.597 174.267 223.326 173.776 224.859 173.088C227.65 171.836 230.81 171.246 233.493 169.894C236.406 168.425 239.117 165.479 241.344 163.157V163.156Z" fill="#7CD18A"/>
<path d="M209.059 162.09C206.961 160.409 204.795 158.582 203.851 156.066C203.521 155.189 203.409 154.209 203.502 153.261C205.8 155.817 209.668 157.089 211.627 160.142C212.322 161.224 212.766 162.398 213.263 163.577C213.571 164.314 213.895 165.342 214.735 165.614C215.67 165.917 216.821 165.589 217.807 165.84C218.996 166.143 219.928 166.784 220.607 167.792C221.003 168.38 221.104 169.297 221.642 169.451C222.532 169.708 223.864 168.852 224.626 168.538C226.791 167.647 228.692 167.666 230.975 167.574C233.236 167.483 234.586 165.528 236.647 164.82C237.67 164.468 238.707 164.413 239.778 164.461C239.88 164.466 239.98 164.473 240.077 164.48C238.12 166.506 235.875 168.694 233.494 169.894C230.811 171.246 227.651 171.836 224.86 173.088C223.327 173.776 221.599 174.267 219.974 173.837C218.348 173.406 216.955 171.773 217.306 170.131C215.092 170.56 212.69 169.842 211.076 168.268C209.462 166.695 208.684 164.312 209.06 162.09H209.059Z" fill="#5FB07A"/>
<path d="M213.964 155.322C217.687 154.649 221.489 154.726 225.142 155.597C225.045 155.435 224.946 155.273 224.849 155.112C224.648 155.137 224.424 155.093 224.194 154.94C221.207 152.952 218.457 150.957 215.021 149.77C214.716 149.666 214.834 149.177 215.154 149.223C217.751 149.597 220.497 150.327 222.843 151.657C220.736 147.935 218.752 144.153 216.858 140.392C216.56 139.801 217.519 139.203 217.875 139.782C219.745 142.825 221.659 145.843 223.647 148.811C223.869 147.948 224.142 147.105 224.43 146.31C225.207 144.163 226.414 141.435 227.981 139.757C228.258 139.459 228.695 139.693 228.597 140.091C228.313 141.225 227.741 142.269 227.392 143.386C227.041 144.508 226.745 145.656 226.44 146.792C226.033 148.306 225.773 149.876 225.42 151.411C225.944 152.167 226.472 152.921 227.007 153.668C227.213 153.955 227.421 154.238 227.627 154.522C227.861 151.616 229.029 148.641 230.314 146.388C230.505 146.053 231.009 146.361 230.889 146.7C230.106 148.921 229.73 151.32 229.805 153.678C229.852 155.149 230.14 156.635 230.282 158.111C230.763 158.75 231.244 159.387 231.727 160.023C232.733 156.755 235.101 153.706 237.272 151.378C237.379 151.263 237.553 151.384 237.471 151.521C236.362 153.376 235.447 155.553 234.858 157.632C234.388 159.295 234.182 161.039 233.769 162.717C234.851 164.145 235.928 165.576 236.986 167.023C238.251 168.751 235.717 170.809 234.374 169.111C233.444 167.936 232.54 166.735 231.655 165.515C229.971 164.861 228.476 163.671 226.928 162.755C225.062 161.65 222.994 160.989 220.877 160.565C220.289 160.448 220.388 159.649 220.978 159.651C223.195 159.657 226.045 159.981 228.491 160.931C228.017 160.212 227.548 159.49 227.087 158.762C222.843 157.237 218.484 156.211 213.972 155.855C213.662 155.829 213.669 155.375 213.963 155.322H213.964Z" fill="#B4EDBF"/>
<path d="M188.311 148.041C190.039 158.107 199.607 164.868 209.68 163.14C219.754 161.413 226.517 151.852 224.789 141.786C223.06 131.72 213.495 124.959 203.421 126.686C193.35 128.413 186.583 137.974 188.312 148.041H188.311Z" fill="#F37757"/>
<path d="M207.079 159.082C209.202 158.813 210.708 156.9 210.443 154.811C210.177 152.722 208.24 151.247 206.117 151.517C203.993 151.787 202.487 153.699 202.753 155.788C203.019 157.877 204.955 159.352 207.079 159.082Z" fill="#FF9175"/>
<path d="M204.278 139.627C206.776 139.31 208.548 137.061 208.235 134.604C207.923 132.146 205.645 130.411 203.147 130.729C200.649 131.046 198.878 133.295 199.19 135.752C199.503 138.21 201.781 139.944 204.278 139.627Z" fill="#FF9175"/>
<path d="M197.807 153.841C198.781 153.718 199.472 152.841 199.35 151.883C199.228 150.925 198.34 150.249 197.366 150.373C196.393 150.496 195.702 151.373 195.824 152.331C195.946 153.289 196.834 153.965 197.807 153.841Z" fill="#FF9175"/>
<path d="M208.599 145.087C209.276 145.001 209.756 144.391 209.671 143.726C209.586 143.06 208.969 142.589 208.292 142.675C207.615 142.761 207.135 143.371 207.22 144.037C207.305 144.703 207.922 145.173 208.599 145.087Z" fill="#FF9175"/>
<path d="M215.634 141.377C217.057 141.196 218.067 139.915 217.889 138.515C217.711 137.115 216.413 136.127 214.99 136.307C213.567 136.488 212.558 137.769 212.736 139.169C212.914 140.569 214.211 141.558 215.634 141.377Z" fill="#FF9175"/>
<path fill-rule="evenodd" clip-rule="evenodd" d="M141.341 209.521C188.102 208.422 218.726 202.462 263.093 194.613C261.819 171.948 247.924 151.896 227.047 142.59C206.169 133.283 181.776 136.271 163.763 150.338C145.749 164.406 137.106 187.218 141.342 209.52L141.341 209.521Z" fill="#FFC978"/>
<path fill-rule="evenodd" clip-rule="evenodd" d="M159.701 184.577C142.658 178.068 174.179 142.772 188.742 151.756C194.535 155.329 198.676 168.488 186.868 170.084C173.057 171.95 169.194 188.202 159.701 184.577Z" fill="#FABC64"/>
<path fill-rule="evenodd" clip-rule="evenodd" d="M219.625 156.149C224.368 163.171 216.94 166.581 207.698 161.175C203.166 158.523 190.056 152.971 204.56 148.876C213.307 146.406 219.17 155.476 219.625 156.149H219.625Z" fill="#FABC64"/>
<path fill-rule="evenodd" clip-rule="evenodd" d="M200.549 182.578C208.949 189.127 200.69 198.492 187.136 197.004C180.489 196.273 161.983 197.045 178.979 182.247C189.228 173.323 199.743 181.95 200.548 182.578H200.549Z" fill="#FABC64"/>
<path fill-rule="evenodd" clip-rule="evenodd" d="M141.341 209.521C162.702 209.051 183.784 207.343 204.589 204.394C173.943 204.25 154.949 201.947 147.608 197.484C145.98 190.497 144.96 174.954 156.234 157.302C143.093 172.17 138.128 189.576 141.342 209.521H141.341Z" fill="#FABC64"/>
<path fill-rule="evenodd" clip-rule="evenodd" d="M254.276 180.232C242.727 150.825 223.482 137.95 196.541 141.609C219.625 142.811 238.869 155.685 254.276 180.232Z" fill="#FDD8A1"/>
<path fill-rule="evenodd" clip-rule="evenodd" d="M162.372 205.628C171.311 205.8 171.202 201.61 159.732 198.29C147.267 194.681 139.186 187.023 136.42 171.319C129.354 146.868 95.9584 142.67 97.4553 163.576C109 193.629 128.406 211.886 155.854 217.485C166.319 219.619 168.302 215.802 160.844 212.055C168.997 212.595 169.87 207.727 162.372 205.628H162.372Z" fill="#52BA90"/>
<path d="M98.3244 163.243L96.5852 163.91C96.4007 163.43 96.6403 162.891 97.1206 162.708C97.6009 162.523 98.1399 162.763 98.3235 163.243H98.3244ZM155.668 218.397L153.089 217.828L150.558 217.185L148.072 216.467L145.635 215.673L143.244 214.806L140.899 213.863L138.602 212.846L136.353 211.755L134.15 210.59L131.995 209.352L129.887 208.039L127.825 206.654L125.812 205.195L123.846 203.664L121.928 202.06L120.057 200.383L118.234 198.634L116.459 196.814L114.732 194.921L113.052 192.957L111.421 190.922L109.836 188.816L108.299 186.64L106.808 184.393L105.365 182.076L103.969 179.689L102.621 177.232L101.321 174.706L100.066 172.11L98.8598 169.446L97.6994 166.713L96.5861 163.91L98.3253 163.243L99.4224 166.006L100.566 168.699L101.753 171.323L102.987 173.876L104.267 176.359L105.591 178.773L106.96 181.115L108.375 183.388L109.834 185.59L111.339 187.721L112.89 189.781L114.487 191.77L116.128 193.689L117.815 195.537L119.547 197.313L121.325 199.019L123.149 200.653L125.017 202.217L126.932 203.708L128.893 205.129L130.899 206.479L132.952 207.756L135.05 208.961L137.196 210.096L139.387 211.159L141.625 212.149L143.91 213.068L146.243 213.914L148.621 214.688L151.048 215.39L153.522 216.019L156.043 216.574L155.671 218.397H155.668ZM155.668 218.397L156.04 216.574C156.544 216.676 156.869 217.168 156.767 217.672C156.665 218.175 156.172 218.5 155.668 218.398V218.397ZM160.782 212.984L161.262 211.225L161.961 211.591L162.607 211.958L163.201 212.326L163.743 212.696L164.234 213.067L164.673 213.439L165.063 213.814L165.402 214.194L165.691 214.581L165.927 214.978L166.106 215.391L166.22 215.824L166.255 216.271L166.199 216.721L166.049 217.149L165.815 217.535L165.512 217.868L165.158 218.146L164.761 218.376L164.324 218.565L163.848 218.719L163.33 218.84L162.77 218.931L162.167 218.992L161.52 219.025L160.825 219.029L160.084 219.002L159.296 218.946L158.461 218.859L157.578 218.738L156.647 218.585L155.668 218.398L156.04 216.575L156.974 216.754L157.856 216.898L158.686 217.01L159.463 217.093L160.186 217.145L160.856 217.168L161.471 217.165L162.029 217.137L162.53 217.085L162.972 217.014L163.355 216.924L163.674 216.821L163.93 216.711L164.121 216.602L164.251 216.5L164.328 216.416L164.367 216.352L164.386 216.298L164.393 216.236L164.385 216.143L164.349 216.009L164.271 215.833L164.144 215.619L163.962 215.377L163.723 215.109L163.426 214.823L163.071 214.522L162.657 214.209L162.186 213.887L161.657 213.559L161.07 213.225L160.426 212.889L160.905 211.129L160.782 212.986V212.984ZM161.262 211.225L160.426 212.887C159.967 212.656 159.781 212.097 160.013 211.638C160.243 211.179 160.803 210.993 161.263 211.225H161.262ZM162.354 206.559L162.624 204.732L163.338 204.948L164.007 205.182L164.629 205.431L165.205 205.696L165.736 205.975L166.222 206.269L166.662 206.576L167.058 206.898L167.409 207.234L167.716 207.587L167.974 207.956L168.182 208.345L168.333 208.751L168.421 209.171L168.441 209.6L168.388 210.027L168.263 210.438L168.071 210.824L167.822 211.178L167.522 211.496L167.177 211.781L166.791 212.033L166.365 212.255L165.901 212.448L165.399 212.614L164.858 212.753L164.277 212.864L163.659 212.948L162.999 213.003L162.301 213.028L161.562 213.022L160.783 212.986L160.906 211.129L161.614 211.162L162.275 211.167L162.891 211.144L163.46 211.097L163.981 211.027L164.455 210.936L164.88 210.827L165.255 210.703L165.58 210.568L165.854 210.425L166.079 210.278L166.254 210.134L166.386 209.995L166.478 209.867L166.536 209.75L166.569 209.64L166.583 209.531L166.577 209.411L166.547 209.273L166.488 209.114L166.391 208.934L166.252 208.735L166.065 208.52L165.83 208.296L165.545 208.065L165.21 207.831L164.823 207.597L164.385 207.366L163.896 207.142L163.356 206.926L162.764 206.72L162.122 206.526L162.391 204.7L162.355 206.561L162.354 206.559ZM162.624 204.732L162.121 206.525C161.626 206.386 161.337 205.872 161.475 205.378C161.614 204.883 162.128 204.594 162.623 204.732H162.624ZM159.993 197.397L161.055 197.716L162.051 198.041L162.984 198.369L163.852 198.702L164.658 199.037L165.402 199.374L166.085 199.714L166.708 200.056L167.273 200.399L167.778 200.746L168.228 201.097L168.622 201.455L168.96 201.823L169.243 202.207L169.464 202.615L169.613 203.052L169.673 203.516L169.627 203.986L169.472 204.431L169.227 204.826L168.915 205.162L168.551 205.444L168.141 205.683L167.687 205.886L167.19 206.058L166.645 206.205L166.054 206.325L165.414 206.42L164.725 206.491L163.986 206.538L163.196 206.56L162.357 206.556L162.393 204.695L163.177 204.699L163.903 204.679L164.572 204.636L165.183 204.573L165.733 204.491L166.222 204.392L166.647 204.278L167.006 204.153L167.296 204.024L167.516 203.895L167.668 203.779L167.756 203.687L167.795 203.624L167.809 203.586L167.813 203.549L167.804 203.483L167.764 203.369L167.677 203.209L167.529 203.009L167.315 202.776L167.033 202.521L166.683 202.248L166.265 201.961L165.779 201.665L165.226 201.361L164.606 201.053L163.918 200.741L163.164 200.427L162.344 200.114L161.455 199.801L160.5 199.489L159.477 199.181L159.996 197.394L159.993 197.397ZM159.993 197.397L159.475 199.184C158.981 199.041 158.697 198.525 158.84 198.031C158.983 197.538 159.499 197.254 159.993 197.397ZM137.338 171.159L137.609 172.584L137.909 173.961L138.239 175.291L138.599 176.575L138.988 177.815L139.406 179.009L139.852 180.161L140.328 181.27L140.831 182.337L141.363 183.364L141.922 184.35L142.509 185.298L143.124 186.207L143.766 187.079L144.436 187.915L145.132 188.716L145.856 189.482L146.607 190.215L147.386 190.915L148.192 191.584L149.025 192.221L149.885 192.828L150.773 193.406L151.688 193.956L152.631 194.476L153.6 194.971L154.599 195.438L155.624 195.879L156.676 196.295L157.755 196.686L158.861 197.053L159.995 197.397L159.476 199.184L158.298 198.826L157.145 198.444L156.016 198.035L154.914 197.598L153.836 197.134L152.784 196.642L151.758 196.119L150.759 195.567L149.785 194.983L148.839 194.368L147.92 193.72L147.03 193.038L146.168 192.322L145.334 191.572L144.529 190.786L143.753 189.964L143.006 189.106L142.289 188.212L141.603 187.279L140.946 186.308L140.321 185.298L139.727 184.25L139.164 183.162L138.631 182.033L138.13 180.863L137.66 179.653L137.222 178.399L136.816 177.104L136.441 175.765L136.098 174.382L135.786 172.955L135.507 171.481L137.341 171.159H137.338ZM137.338 171.159L135.504 171.481C135.416 170.975 135.754 170.492 136.259 170.404C136.766 170.315 137.249 170.653 137.338 171.159H137.338Z" fill="#176E4F"/>
<path fill-rule="evenodd" clip-rule="evenodd" d="M154.597 146.29C154.867 145.216 155.25 144.16 155.752 143.134C155.826 142.983 155.902 142.834 155.98 142.686C152.005 137.696 147.642 131.407 142.892 123.82C140.587 123.116 138.216 122.472 135.78 121.885C140.67 129.041 147.46 137.396 154.483 146.31C154.513 146.304 154.542 146.3 154.572 146.294C154.58 146.294 154.589 146.292 154.597 146.29Z" fill="#42A67D"/>
</g>
<defs>
<clipPath id="clip0_37_453">
<rect width="272" height="401" fill="white"/>
</clipPath>
</defs>
</svg>
