<svg version="1.2" xmlns="http://www.w3.org/2000/svg" viewBox="0 0 319 318" width="319" height="318">
	<title>7495535-ai</title>
	<style>
		.s0 { fill: #dedfe0 } 
		.s1 { fill: #d2d4da } 
		.s2 { fill: #6e7174 } 
		.s3 { fill: #555a5e } 
		.s4 { fill: #f4f4f4 } 
	</style>
	<g id="OBJECTS">
		<g id="&lt;Group&gt;">
			<path id="&lt;Path&gt;" class="s0" d="m318.5 158.7c0 42.9-17 81.8-44.6 110.4-28.9 30-69.5 48.7-114.5 48.7-44.9 0-85.5-18.7-114.5-48.7-27.6-28.6-44.5-67.5-44.5-110.4 0-87.8 71.2-159.1 159-159.1 87.9 0 159.1 71.3 159.1 159.1z"/>
			<g id="&lt;Group&gt;">
				<path id="&lt;Path&gt;" class="s1" d="m183.7 184.6c-3.5 15.5-13 26.5-24.3 26.5-11.2 0-20.7-11.1-24.2-26.5l2.7-10.5 0.8-3.2h41.5l3.1 12 0.2 1.1z"/>
				<path id="&lt;Path&gt;" class="s2" d="m230.5 237h-145.8v-16.3c0-11.4 9.2-20.6 20.6-20.6h104.6c11.4 0 20.6 9.2 20.6 20.6z"/>
				<g id="&lt;Group&gt;">
					<path id="&lt;Path&gt;" class="s3" d="m160.4 61h-9c-21.3 0-39.4 15.5-42.7 36.6l-1.4 9c-2.2 14.5-2.4 29.2-0.5 43.8 2.1 16.6 16.3 29 33 29z"/>
					<g id="&lt;Group&gt;">
						<path id="&lt;Path&gt;" class="s3" d="m211.8 136.5h-105.7v-27.4c0-28.6 23.2-51.8 51.8-51.8h2.2c28.6 0 51.7 23.2 51.7 51.8z"/>
						<path id="&lt;Path&gt;" class="s3" d="m159.4 61h9c21.3 0 39.5 15.5 42.7 36.6l1.4 9c2.2 14.5 2.4 29.2 0.5 43.8-2.1 16.6-16.2 29-33 29z"/>
						<path id="&lt;Path&gt;" class="s4" d="m211.6 125.8c20.7-23.2 6.9 33.5-4.5 26.8-20.1-11.6 4.5-26.8 4.5-26.8z"/>
						<path id="&lt;Path&gt;" class="s4" d="m273.9 269.1c-10.7 11.1-23.1 20.7-36.6 28.3-20.9 11.8-44.8 19-70.2 20.2q-3.8 0.2-7.7 0.2c-12.8 0-25.3-1.5-37.2-4.4-16.6-4-32.2-10.6-46.4-19.3-11.3-7.1-21.7-15.4-30.9-25l2.8-10.8c4.1-16.2 16.9-28.8 33.2-32.7l1.8-0.4 20-4.8 5.4-1.3q3.5-0.8 6.6-2.3 2.6-1.3 5-3 2.5-1.8 4.6-4c3.9-4.1 6.7-9 8.1-14.6l2.1-8.2 0.6-2.3v-0.1l2.8-10.5 0.8-3.2h41.5l3.1 12 0.2 1.1 0.2 0.6v0.1l0.6 2.3 2.1 8.2c2 7.6 6.6 14.2 12.8 18.6 3.4 2.5 7.3 4.3 11.5 5.3l5.1 1.2 22.2 5.3c16.3 3.9 29 16.5 33.2 32.7z"/>
						<path id="&lt;Path&gt;" class="s1" d="m196.4 291.5h-76.4v-39.2h76.4z"/>
						<path id="&lt;Path&gt;" class="s1" d="m183.7 184.6c-3.5 15.5-13 26.5-24.3 26.5-11.2 0-20.7-11.1-24.2-26.5l2.7-10.5 0.8-3.2h41.5l3.1 12 0.2 1.1z"/>
						<path id="&lt;Path&gt;" class="s4" d="m107.2 125.8c-20.6-23.2-6.8 33.5 4.6 26.8 20.1-11.6-4.6-26.8-4.6-26.8z"/>
						<path id="&lt;Path&gt;" class="s4" d="m207.5 109.1q0 2.6-0.3 5.2c-0.2 2.4-1.8 17.1-4.7 31.9q0 0.1 0 0.2c-2.6 12.9-6.2 25.7-10.8 30.3-5.3 5.3-9.6 10.1-14.4 13.6-4.8 3.5-10.3 5.6-17.9 5.6-7.6 0-13-2.1-17.8-5.6-4.8-3.5-9.1-8.3-14.4-13.6-4.7-4.6-8.2-17.5-10.8-30.3q0 0 0-0.1-0.5-2.5-0.9-4.9-0.2-1.1-0.4-2.1c-2.3-13.5-3.5-25.4-3.5-25.4q-0.2-2.4-0.2-4.8 0-0.7 0-1.3 0.1-5.7 1.6-11 0-0.2 0.1-0.5c5.3-19.5 22.7-34.1 43.6-35.2q1.3-0.1 2.7-0.1c13.3 0 25.3 5.4 34 14.1 8.7 8.7 14.1 20.7 14.1 34z"/>
						<path id="&lt;Path&gt;" class="s0" d="m167 152.3c0 3.3-3.4 6-7.6 6-4.1 0-7.5-2.7-7.5-6q0-0.6 0.2-1.2c0.6 2.8 3.7 4.9 7.3 4.9 3.7 0 6.8-2.1 7.4-4.9q0.2 0.6 0.2 1.2z"/>
						<path id="&lt;Path&gt;" class="s3" d="m111.4 103.8v25l2.4 2.2h3.1c3.9 0 7.4-2.7 8.3-6.5l4-16.6c1.5-6.3 7.2-10.7 13.6-10.7h33.5c6.5 0 12.1 4.4 13.6 10.7l4 16.6c0.9 3.8 4.4 6.5 8.3 6.5h1.5c1 0 1.8-0.6 2-1.6l2-7.7v-17.9c0-23.6-19.1-42.8-42.8-42.8h-10.7c-23.7 0-42.8 19.2-42.8 42.8z"/>
					</g>
				</g>
				<path id="&lt;Path&gt;" class="s2" d="m271.2 258.3c-4.2-16.2-16.9-28.8-33.2-32.7l-7.6-1.8-28.6-16.1v14.2c0 9.2-3.3 18.2-9.3 25.2l-33.5 39.3-36.4-42.6c-6-7.1-9.3-16-9.3-25.3v-10.8l-28.6 16.1 0.3 0.8-2.3 0.6-1.8 0.4c-16.3 3.9-29.1 16.5-33.2 32.7l-2.8 10.8c9.2 9.6 19.6 17.9 30.9 25 14.2 8.7 29.8 15.3 46.4 19.3 11.9 2.9 24.4 4.4 37.2 4.4q3.9 0 7.7-0.2c25.4-1.2 49.3-8.4 70.2-20.2 13.5-7.6 25.9-17.2 36.6-28.3z"/>
				<g id="&lt;Group&gt;">
					<path id="&lt;Path&gt;" class="s1" d="m118.5 295.4h-4.6v-47.9h4.6z"/>
					<path id="&lt;Path&gt;" class="s1" d="m205 295.4h-4.6v-47.9h4.6z"/>
				</g>
			</g>
		</g>
	</g>
</svg>