<?xml version="1.0" encoding="UTF-8"?> <svg xmlns="http://www.w3.org/2000/svg" width="150" height="21" viewBox="0 0 150 21" fill="none"> <g clip-path="url(#clip0_1810_14306)"> <path fill-rule="evenodd" clip-rule="evenodd" d="M9.75445 19.5089C15.1417 19.5089 19.5089 15.1417 19.5089 9.75445C19.5089 4.36721 15.1417 0 9.75445 0C4.36721 0 0 4.36721 0 9.75445C0 15.1417 4.36721 19.5089 9.75445 19.5089ZM12.1412 12.4675C12.4367 12.172 12.2401 11.6069 11.847 10.4766L11.2534 8.76995C10.851 7.61311 10.6498 7.03469 10.2706 6.96322C10.2118 6.95214 10.1518 6.94903 10.0921 6.95397C9.70757 6.98582 9.44762 7.54033 8.92773 8.64934C8.83804 8.84067 8.79319 8.93634 8.72307 9.01222C8.71118 9.02508 8.6988 9.03746 8.68594 9.04934C8.61006 9.11946 8.5144 9.16431 8.32307 9.254L8.32307 9.25401C7.21405 9.7739 6.65955 10.0338 6.62769 10.4184C6.62275 10.478 6.62586 10.5381 6.63694 10.5969C6.70841 10.9761 7.28683 11.1773 8.44368 11.5796L10.1503 12.1733C11.2806 12.5664 11.8458 12.763 12.1412 12.4675Z" fill="#232323"></path> </g> <path d="M32.6791 14.0167C32.2629 14.4589 31.7947 14.784 31.2744 14.9921C30.7672 15.1872 30.1494 15.2978 29.4211 15.3238C28.7448 15.3238 28.1205 15.2197 27.5482 15.0117C26.976 14.7906 26.4817 14.4654 26.0655 14.0362C25.5713 13.516 25.2202 12.9112 25.0121 12.2219C24.817 11.5326 24.7194 10.8302 24.7194 10.1149C24.7194 8.43716 25.1876 7.09104 26.1241 6.07658C26.5403 5.63438 27.0605 5.28972 27.6848 5.04261C28.3091 4.7955 29.0179 4.67194 29.8113 4.67194C30.4095 4.67194 30.9428 4.76298 31.411 4.94507C31.8922 5.11414 32.2954 5.36776 32.6205 5.70591V1.35543H35.3908V15.1677H32.8351L32.6791 14.0167ZM30.0649 12.8852C30.8972 12.8592 31.528 12.5795 31.9572 12.0463C32.3994 11.5001 32.6205 10.8302 32.6205 10.0369C32.6205 9.17849 32.3994 8.48268 31.9572 7.94944C31.515 7.41619 30.8712 7.14307 30.0259 7.13006C29.5967 7.13006 29.2195 7.20159 28.8943 7.34466C28.5822 7.48772 28.3156 7.69582 28.0945 7.96894C27.8864 8.22906 27.7303 8.5347 27.6263 8.88586C27.5222 9.22402 27.4702 9.59468 27.4702 9.99787C27.4702 10.4271 27.5222 10.8172 27.6263 11.1684C27.7303 11.5066 27.8864 11.8057 28.0945 12.0658C28.3156 12.3259 28.5887 12.5275 28.9138 12.6706C29.252 12.8137 29.6357 12.8852 30.0649 12.8852ZM41.2747 13.0803C41.6649 13.0803 41.9966 13.0217 42.2697 12.9047C42.5558 12.7746 42.7899 12.5665 42.972 12.2804H45.8593C45.7163 12.8137 45.4952 13.2754 45.196 13.6655C44.9099 14.0557 44.5587 14.3744 44.1425 14.6215C43.7394 14.8686 43.2907 15.0507 42.7964 15.1677C42.3022 15.2718 41.782 15.3238 41.2357 15.3238C39.571 15.3238 38.3094 14.8556 37.451 13.9192C36.6056 12.9827 36.1829 11.6691 36.1829 9.97836C36.1829 9.21101 36.2935 8.50219 36.5146 7.85189C36.7487 7.20159 37.0738 6.64234 37.49 6.17413C37.9062 5.69291 38.4199 5.32224 39.0312 5.06212C39.6555 4.802 40.3643 4.67194 41.1577 4.67194C42.0811 4.67194 42.881 4.83452 43.5573 5.15966C44.2336 5.48481 44.7668 5.93352 45.157 6.50578C45.5602 7.06503 45.8268 7.72183 45.9569 8.47617C46.0999 9.23052 46.0999 10.0369 45.9569 10.8953H38.9337C38.9857 11.5066 39.2003 12.0268 39.5775 12.456C39.9546 12.8722 40.5204 13.0803 41.2747 13.0803ZM43.4012 9.00292C43.4012 8.67777 43.3427 8.39164 43.2256 8.14452C43.1086 7.88441 42.9525 7.67631 42.7574 7.52024C42.5623 7.35116 42.3282 7.22761 42.0551 7.14957C41.795 7.07153 41.5218 7.03252 41.2357 7.03252C40.5464 7.04552 40.0067 7.23411 39.6165 7.59828C39.2393 7.94943 39.0182 8.41765 38.9532 9.00292H43.4012ZM50.6787 6.87645C50.4836 6.87645 50.295 6.88945 50.1129 6.91546C49.9438 6.94148 49.7877 6.987 49.6447 7.05203C49.5016 7.10405 49.3846 7.19509 49.2935 7.32515C49.2025 7.4422 49.1635 7.59828 49.1765 7.79336C49.1895 8.01446 49.274 8.19004 49.4301 8.3201C49.5992 8.45016 49.8333 8.55421 50.1324 8.63225C50.4185 8.71028 50.7372 8.78832 51.0883 8.86635C51.4395 8.93138 51.7842 9.00292 52.1223 9.08095C52.4605 9.15899 52.7921 9.25003 53.1173 9.35408C53.4424 9.45812 53.7285 9.58818 53.9757 9.74425C54.3138 9.95235 54.5934 10.245 54.8145 10.6222C55.0356 10.9993 55.1397 11.461 55.1267 12.0073C55.1267 12.5405 55.0356 13.0022 54.8536 13.3924C54.6845 13.7696 54.4504 14.0947 54.1512 14.3679C53.7741 14.706 53.2993 14.9531 52.7271 15.1092C52.1548 15.2523 51.5761 15.3238 50.9908 15.3238C50.3145 15.3238 49.6902 15.2523 49.1179 15.1092C48.5587 14.9661 48.045 14.7125 47.5767 14.3484C47.2386 14.0752 46.9525 13.7436 46.7183 13.3534C46.4972 12.9502 46.3672 12.469 46.3282 11.9097H49.0984C49.1765 12.3519 49.3911 12.6576 49.7422 12.8267C50.1064 12.9957 50.5356 13.0803 51.0298 13.0803C51.1729 13.0803 51.3224 13.0738 51.4785 13.0608C51.6476 13.0348 51.7972 12.9957 51.9272 12.9437C52.0703 12.8787 52.1873 12.7876 52.2784 12.6706C52.3824 12.5405 52.4345 12.404 52.4345 12.2609C52.4475 11.9227 52.3304 11.6821 52.0833 11.5391C51.8492 11.396 51.5956 11.2985 51.3224 11.2464C51.0493 11.1814 50.7567 11.1164 50.4445 11.0513C50.1324 10.9863 49.8203 10.9213 49.5081 10.8563C49.209 10.7912 48.9098 10.7132 48.6107 10.6222C48.3116 10.5181 48.0384 10.3815 47.7913 10.2125C47.4142 9.97836 47.0955 9.66622 46.8354 9.27604C46.5883 8.88586 46.4842 8.37213 46.5233 7.73484C46.5493 7.17558 46.6858 6.70087 46.9329 6.31069C47.1931 5.9075 47.5117 5.58886 47.8889 5.35475C48.2791 5.10764 48.7148 4.93206 49.196 4.82801C49.6902 4.72396 50.1909 4.67194 50.6982 4.67194C51.2574 4.67194 51.7842 4.73047 52.2784 4.84752C52.7726 4.96457 53.2018 5.15316 53.566 5.41328C53.9431 5.6734 54.2423 6.01155 54.4634 6.42774C54.6975 6.84393 54.8275 7.35116 54.8536 7.94944H52.2003C52.1483 7.52024 51.9792 7.23411 51.6931 7.09104C51.42 6.94798 51.0818 6.87645 50.6787 6.87645ZM57.3262 0.106861C57.8334 0.106861 58.2431 0.256429 58.5552 0.555566C58.8674 0.854702 59.0235 1.25138 59.0235 1.74561C59.0235 2.26585 58.8674 2.67553 58.5552 2.97467C58.2431 3.2608 57.8334 3.40386 57.3262 3.40386C56.832 3.40386 56.4223 3.2608 56.0971 2.97467C55.785 2.67553 55.6289 2.26585 55.6289 1.74561C55.6289 1.25138 55.785 0.854702 56.0971 0.555566C56.4223 0.256429 56.832 0.106861 57.3262 0.106861ZM58.7113 15.1677H55.9606V4.88654H58.7113V15.1677ZM67.6159 14.1142C67.2257 14.5564 66.7575 14.8686 66.2113 15.0507C65.665 15.2328 65.0733 15.3238 64.436 15.3238C63.7987 15.3238 63.1744 15.2263 62.5631 15.0312C61.9648 14.8231 61.4446 14.4914 61.0024 14.0362C60.5082 13.516 60.1635 12.9177 59.9684 12.2414C59.7733 11.5651 59.6758 10.8693 59.6758 10.1539C59.6758 8.46317 60.144 7.11055 61.0804 6.09609C61.4836 5.65389 62.0039 5.30923 62.6412 5.06212C63.2915 4.81501 63.9873 4.69795 64.7286 4.71096C65.2098 4.68495 65.7301 4.76949 66.2893 4.96458C66.8486 5.15966 67.3298 5.48481 67.733 5.94002L68.0256 4.88654H70.4057V14.5239C70.4057 14.9401 70.3797 15.3498 70.3277 15.753C70.2886 16.1692 70.2171 16.5659 70.1131 16.943C70.009 17.3332 69.8529 17.7039 69.6448 18.055C69.4107 18.4842 69.1246 18.8484 68.7865 19.1475C68.4613 19.4467 68.0971 19.6938 67.694 19.8889C67.2908 20.097 66.8616 20.2465 66.4064 20.3376C65.9512 20.4286 65.4895 20.4741 65.0212 20.4741C64.423 20.4741 63.8507 20.4026 63.3045 20.2595C62.7582 20.1295 62.2575 19.9084 61.8023 19.5962C61.3601 19.2971 60.9894 18.9134 60.6903 18.4452C60.4041 17.977 60.2155 17.4177 60.1245 16.7675H63.0508C63.1029 17.0796 63.311 17.3592 63.6751 17.6063C64.0393 17.8534 64.4815 17.977 65.0017 17.977C65.561 17.977 66.0162 17.8665 66.3674 17.6454C66.7315 17.4243 67.0046 17.1316 67.1867 16.7675C67.3688 16.4033 67.4859 15.9871 67.5379 15.5189C67.5899 15.0507 67.6159 14.5825 67.6159 14.1142ZM65.0603 12.8852C65.4895 12.8852 65.8666 12.8071 66.1918 12.6511C66.5299 12.495 66.8031 12.2869 67.0111 12.0268C67.2192 11.7537 67.3753 11.4415 67.4794 11.0904C67.5834 10.7262 67.6354 10.3425 67.6354 9.93934C67.6354 9.13297 67.4078 8.46967 66.9526 7.94944C66.5104 7.41619 65.8731 7.14307 65.0407 7.13006C64.6116 7.13006 64.2279 7.2081 63.8897 7.36417C63.5646 7.52024 63.2915 7.72833 63.0704 7.98845C62.8623 8.24857 62.7062 8.55421 62.6021 8.90537C62.4981 9.25653 62.4461 9.6337 62.4461 10.0369C62.4461 10.4661 62.4981 10.8563 62.6021 11.2074C62.7192 11.5456 62.8883 11.8447 63.1094 12.1048C63.3305 12.3519 63.6036 12.547 63.9287 12.6901C64.2539 12.8202 64.6311 12.8852 65.0603 12.8852ZM74.3764 6.19363C75.2088 5.19218 76.2362 4.68495 77.4588 4.67194C78.1221 4.65894 78.7074 4.76949 79.2146 5.00359C79.7218 5.22469 80.1315 5.53033 80.4437 5.92051C80.8208 6.37572 81.0809 6.90896 81.224 7.52024C81.3671 8.11851 81.4386 8.78832 81.4386 9.52966V15.1677H78.6683V9.74425C78.6683 9.38009 78.6293 9.03543 78.5513 8.71028C78.4863 8.37213 78.3692 8.086 78.2001 7.85189C78.0311 7.60478 77.8034 7.42269 77.5173 7.30564C77.2442 7.18859 76.9321 7.13006 76.5809 7.13006C76.1387 7.14307 75.7615 7.24061 75.4494 7.42269C75.1502 7.60478 74.9226 7.83888 74.7666 8.12501C74.6105 8.39814 74.4999 8.71028 74.4349 9.06144C74.3829 9.3996 74.3569 9.74425 74.3569 10.0954V15.1677H71.6061V4.88654H74.2398L74.3764 6.19363ZM89.6441 6.19363C90.0603 5.69941 90.5675 5.32874 91.1658 5.08163C91.7771 4.82151 92.3884 4.68495 92.9997 4.67194C93.728 4.65894 94.4043 4.78899 95.0286 5.06212C95.6529 5.32224 96.1731 5.76444 96.5893 6.38872C96.9274 6.84393 97.1746 7.38368 97.3306 8.00796C97.4867 8.61924 97.5647 9.26303 97.5647 9.93934C97.5647 10.7847 97.4607 11.5586 97.2526 12.2609C97.0575 12.9502 96.7193 13.542 96.2381 14.0362C95.8349 14.4654 95.3472 14.7906 94.775 15.0117C94.2157 15.2197 93.65 15.3238 93.0777 15.3238C92.4144 15.3238 91.7901 15.2132 91.2048 14.9921C90.6326 14.758 90.1123 14.3614 89.6441 13.8021V15.1677H86.8934V1.35543H89.6441V6.19363ZM89.6441 10.0564C89.6571 10.8888 89.8912 11.5651 90.3464 12.0853C90.8147 12.6056 91.4585 12.8722 92.2778 12.8852C92.72 12.8982 93.0972 12.8332 93.4093 12.6901C93.7215 12.547 93.9751 12.3454 94.1702 12.0853C94.3783 11.8122 94.5344 11.5001 94.6384 11.1489C94.7555 10.7977 94.814 10.4141 94.814 9.99787C94.814 9.59468 94.7555 9.21751 94.6384 8.86635C94.5344 8.51519 94.3718 8.20955 94.1507 7.94944C93.9426 7.68932 93.6825 7.48772 93.3703 7.34466C93.0582 7.20159 92.681 7.13006 92.2388 7.13006C91.8226 7.13006 91.4454 7.2081 91.1073 7.36417C90.7821 7.52024 90.509 7.73484 90.2879 8.00796C90.0798 8.26808 89.9172 8.58022 89.8002 8.94439C89.6961 9.29555 89.6441 9.66622 89.6441 10.0564ZM105.087 16.7675C105.347 16.3643 105.497 15.9221 105.536 15.4408C105.575 14.9596 105.594 14.4849 105.594 14.0167C105.217 14.4979 104.755 14.8361 104.209 15.0312C103.663 15.2263 103.071 15.3238 102.434 15.3238C101.692 15.3238 101.049 15.2132 100.502 14.9921C99.9691 14.771 99.5464 14.4329 99.2343 13.9777C98.9221 13.5615 98.7076 13.0738 98.5905 12.5145C98.4734 11.9423 98.4149 11.3245 98.4149 10.6612V4.88654H101.166V10.3295C101.166 10.6807 101.192 11.0253 101.244 11.3635C101.309 11.6886 101.439 11.9618 101.634 12.1829C101.946 12.6511 102.512 12.8852 103.331 12.8852C103.721 12.8852 104.086 12.8071 104.424 12.6511C104.762 12.482 105.028 12.2219 105.224 11.8707C105.393 11.5716 105.497 11.2594 105.536 10.9343C105.575 10.5961 105.594 10.232 105.594 9.8418V4.88654H108.364V13.3339C108.364 13.8021 108.358 14.2833 108.345 14.7775C108.345 15.2588 108.306 15.7335 108.228 16.2017C108.163 16.6699 108.039 17.1251 107.857 17.5673C107.675 18.0095 107.422 18.4192 107.096 18.7964C106.641 19.3166 106.043 19.7328 105.302 20.0449C104.573 20.3571 103.695 20.5067 102.668 20.4937C101.914 20.5067 101.166 20.4026 100.424 20.1815C99.683 19.9734 99.0002 19.6678 98.3759 19.2646L99.2538 16.9235C99.592 17.1706 100.041 17.3982 100.6 17.6063C101.172 17.8144 101.842 17.9185 102.609 17.9185C103.234 17.9185 103.741 17.8144 104.131 17.6063C104.534 17.4112 104.853 17.1316 105.087 16.7675ZM116.643 6.21314C117.033 5.71892 117.449 5.34175 117.892 5.08163C118.347 4.82151 118.86 4.68495 119.433 4.67194C120.174 4.65894 120.772 4.802 121.228 5.10114C121.683 5.40027 122.04 5.80996 122.301 6.3302C122.756 5.77094 123.243 5.35475 123.764 5.08163C124.284 4.8085 124.876 4.67194 125.539 4.67194C126.059 4.67194 126.501 4.74347 126.866 4.88654C127.23 5.0296 127.548 5.22469 127.822 5.47181C128.199 5.82297 128.465 6.27167 128.621 6.81792C128.791 7.35116 128.875 7.95594 128.875 8.63225V15.1677H126.124V9.37358C126.124 9.10046 126.105 8.82083 126.066 8.5347C126.027 8.24857 125.942 8.00146 125.812 7.79336C125.695 7.57226 125.52 7.40319 125.285 7.28613C125.051 7.15607 124.752 7.10405 124.388 7.13006C124.063 7.15607 123.777 7.26012 123.53 7.4422C123.283 7.61128 123.107 7.83238 123.003 8.10551C122.899 8.37863 122.827 8.67126 122.788 8.98341C122.762 9.29555 122.749 9.60119 122.749 9.90032V15.1677H119.999V9.37358C119.999 9.10046 119.979 8.82083 119.94 8.5347C119.901 8.24857 119.816 8.00146 119.686 7.79336C119.556 7.57226 119.381 7.40319 119.16 7.28613C118.939 7.15607 118.646 7.10405 118.282 7.13006C117.905 7.15607 117.605 7.26012 117.384 7.4422C117.163 7.61128 116.994 7.83238 116.877 8.10551C116.773 8.36562 116.702 8.65826 116.662 8.98341C116.636 9.29555 116.623 9.60119 116.623 9.90032V15.1677H113.873V4.88654H116.506L116.643 6.21314ZM136.461 13.8996C136.071 14.4199 135.596 14.7906 135.037 15.0117C134.478 15.2328 133.828 15.3368 133.086 15.3238C132.137 15.2978 131.343 15.0312 130.706 14.5239C130.368 14.2378 130.101 13.8996 129.906 13.5095C129.724 13.1063 129.633 12.6316 129.633 12.0853C129.646 11.5261 129.77 11.0318 130.004 10.6026C130.251 10.1604 130.622 9.79628 131.116 9.51015C131.532 9.28905 132 9.13297 132.52 9.04193C133.054 8.95089 133.633 8.90537 134.257 8.90537H136.364C136.403 8.26808 136.253 7.79336 135.915 7.48122C135.59 7.15607 135.128 6.987 134.53 6.97399C134.335 6.97399 134.133 6.987 133.925 7.01301C133.717 7.03902 133.522 7.09104 133.34 7.16908C133.171 7.24711 133.021 7.35767 132.891 7.50073C132.774 7.63079 132.696 7.79336 132.657 7.98845H129.828C129.893 7.36417 130.062 6.84393 130.336 6.42774C130.622 5.99855 130.979 5.65389 131.408 5.39377C131.838 5.13365 132.312 4.95157 132.833 4.84752C133.366 4.73047 133.912 4.67194 134.471 4.67194C134.784 4.67194 135.102 4.69145 135.427 4.73047C135.752 4.75648 136.071 4.82151 136.383 4.92556C136.695 5.0166 136.988 5.14666 137.261 5.31574C137.547 5.47181 137.814 5.6799 138.061 5.94002C138.503 6.44725 138.776 7.03252 138.88 7.69582C138.997 8.34612 139.049 8.98341 139.036 9.60769V15.1677H136.52L136.461 13.8996ZM136.364 10.6222H134.354C134.159 10.6222 133.938 10.6417 133.691 10.6807C133.444 10.7197 133.229 10.7912 133.047 10.8953C132.865 10.9993 132.709 11.1359 132.579 11.305C132.462 11.474 132.403 11.6821 132.403 11.9292C132.403 12.1373 132.442 12.3194 132.52 12.4755C132.612 12.6316 132.722 12.7616 132.852 12.8657C132.995 12.9697 133.164 13.0543 133.359 13.1193C133.554 13.1713 133.75 13.1973 133.945 13.1973C134.322 13.2103 134.673 13.1453 134.998 13.0022C135.336 12.8592 135.629 12.6576 135.876 12.3975C136.032 12.1894 136.149 11.9553 136.227 11.6951C136.318 11.422 136.364 11.0644 136.364 10.6222ZM146.238 4.88654H149.359L146.062 9.97836L149.535 15.1677H146.433L144.306 11.7537L142.258 15.1677H139.175L142.57 9.93934L139.351 4.88654H142.512L144.404 8.22256L146.238 4.88654Z" fill="#232323"></path> <defs> <clipPath id="clip0_1810_14306"> <rect width="19.5089" height="19.5089" rx="9.75445" fill="white"></rect> </clipPath> </defs> </svg> 