<svg width="100" height="89" viewBox="0 0 100 89" fill="none" xmlns="http://www.w3.org/2000/svg">
<g clip-path="url(#clip0_23_469)">
<path fill-rule="evenodd" clip-rule="evenodd" d="M33.9352 13.6826C33.2047 12.0478 32.8868 10.274 33.2945 8.44263C34.1822 4.44683 38.0505 2.23889 41.6878 1.16969C47.2516 -0.466428 53.9578 -0.151007 59.629 0.693394C65.338 1.54341 72.012 3.24346 76.7883 6.63371C79.9534 8.88029 82.6777 12.2705 82.072 16.3879C81.8313 18.0226 81.1106 19.4522 80.107 20.6857C81.2404 22.4518 82.1233 24.383 82.7121 26.4216L99.7514 69.6392C100.478 71.4805 99.5676 73.5795 97.7282 74.3059L84.5837 79.4988C82.7444 80.2252 80.6481 79.3147 79.9218 77.4735L77.8691 72.2666L75.8577 85.7974C75.5539 87.8437 73.6394 89.2635 71.5951 88.9586L22.0954 81.5866C20.0511 81.2824 18.6328 79.366 18.9374 77.3196L20.9487 63.7881L17.4699 68.1717C16.2397 69.7214 13.9694 69.982 12.4213 68.7506L1.35625 59.9525C-0.191883 58.721 -0.452245 56.4484 0.777984 54.898L29.6501 18.515C30.8368 16.6899 32.286 15.0637 33.9359 13.6819L33.9352 13.6826Z" fill="#1C5444"/>
<path fill-rule="evenodd" clip-rule="evenodd" d="M55.39 26.5726C68.5555 25.7542 89.3108 8.20656 58.7951 3.66211C28.8569 -0.796632 44.3769 21.6404 55.39 26.5726Z" fill="#F37757"/>
<path fill-rule="evenodd" clip-rule="evenodd" d="M50.7764 10.5726L64.8065 12.6618C75.6449 14.2761 83.1926 24.4729 81.5799 35.3222L74.1164 85.5381C73.955 86.6235 72.9367 87.3786 71.8531 87.2171L22.3534 79.8451C21.2699 79.6835 20.5147 78.6642 20.6762 77.5795L28.1396 27.3636C29.7523 16.5143 39.9388 8.95894 50.7771 10.5733L50.7764 10.5726Z" fill="#F37757"/>
<path fill-rule="evenodd" clip-rule="evenodd" d="M41.6631 16.7693L45.3222 19.679C48.149 21.9263 48.6248 26.0802 46.3791 28.9098L16.0915 67.0765C15.4641 67.8675 14.304 68.0003 13.5145 67.3722L2.44946 58.5742C1.65925 57.9461 1.52661 56.7849 2.15401 55.9939L32.4409 17.8273C34.6867 14.9983 38.8363 14.522 41.6624 16.7693H41.6631Z" fill="#F37757"/>
<path fill-rule="evenodd" clip-rule="evenodd" d="M71.7234 21.2463L67.3765 22.9639C64.0185 24.2902 62.3559 28.1259 63.6809 31.4873L81.5568 76.8271C81.9273 77.7671 82.9975 78.2321 83.9365 77.8612L97.081 72.6684C98.0199 72.2974 98.4845 71.2261 98.114 70.2862L80.2381 24.9464C78.9132 21.5849 75.0814 19.9207 71.7241 21.247L71.7234 21.2463Z" fill="#F37757"/>
<path fill-rule="evenodd" clip-rule="evenodd" d="M59.3691 2.43485C30.3397 -1.88831 24.6419 15.7324 55.7731 26.6295C39.5682 16.6028 41.6343 2.55709 58.9677 5.13876C76.3003 7.72044 71.044 22.4342 55.7731 26.6295C86.5001 26.4307 89.3339 6.89711 59.3691 2.43485Z" fill="#FF9175"/>
<path fill-rule="evenodd" clip-rule="evenodd" d="M43.4724 36.4533C42.8141 36.3549 42.2007 36.8101 42.1032 37.4691C42.0169 38.2221 42.3018 39.0384 42.958 39.918C42.4885 39.8533 42.1179 39.6861 41.6912 39.4684C40.3466 38.7834 39.581 37.2344 39.8161 35.6517L40.1824 33.1859C41.2933 33.3517 42.066 34.116 41.8379 35.6475C42.0597 34.154 42.8057 33.7339 43.9468 33.266C44.9026 34.0458 45.4935 34.6647 45.271 36.1589C45.4984 34.6275 46.4599 34.121 47.5708 34.2868L47.2045 36.7525C46.9694 38.3352 45.7861 39.5934 44.3012 39.8576C43.8296 39.9411 43.426 39.9931 42.9587 39.918C43.8422 39.2675 44.3517 38.5699 44.4885 37.8245C44.5868 37.1656 44.132 36.5516 43.4738 36.4533H43.4724Z" fill="white"/>
<path d="M54.5795 36.1245C55.1184 35.3545 55.5956 35.0012 56.4266 35.1248C57.3431 35.2611 57.9768 36.1168 57.8406 37.0349C57.5936 38.6977 55.6855 40.1133 53.7766 41.5288C52.3625 39.6187 50.9484 37.7079 51.1962 36.0458C51.3323 35.1276 52.1871 34.494 53.1043 34.6303C53.9352 34.7539 54.2882 35.2316 54.5802 36.1245H54.5795Z" fill="white"/>
<path fill-rule="evenodd" clip-rule="evenodd" d="M60.1566 42.0297L63.9434 40.2285L64.5189 36.357C64.3181 36.3795 64.1273 36.4785 63.9925 36.6492L60.3411 41.2506C60.2317 41.3644 60.1559 41.5119 60.1306 41.6798C60.1131 41.8014 60.1229 41.9194 60.1573 42.029L60.1566 42.0297ZM64.3617 40.291L67.4425 43.1017C67.5765 42.8965 67.6123 42.6317 67.5162 42.3865L65.3364 36.8586C65.288 36.73 65.2052 36.6134 65.0901 36.5221C65.041 36.4835 64.9898 36.4518 64.9357 36.4266L64.361 40.2917L64.3617 40.291ZM64.0985 40.6226L60.3882 42.3872C60.4983 42.4842 60.6359 42.5516 60.791 42.5741L66.6726 43.4501L66.6733 43.4466C66.8046 43.4663 66.9421 43.4529 67.0741 43.4009C67.0902 43.3946 67.107 43.3876 67.1225 43.3799L64.0992 40.6219L64.0985 40.6226Z" fill="white"/>
<path fill-rule="evenodd" clip-rule="evenodd" d="M41.4392 56.6929C39.7423 59.8302 37.9632 61.8548 32.4725 62.2257C32.4725 62.2257 31.9223 65.9286 30.8212 73.3336C42.1739 75.0245 53.5267 76.7154 64.8795 78.4056C65.9799 71.0006 66.5301 67.2978 66.5301 67.2978C61.3853 65.3427 60.2723 62.8875 59.5607 59.3912L41.4392 56.6922V56.6929Z" fill="#FF9175"/>
</g>
<defs>
<clipPath id="clip0_23_469">
<rect width="100" height="89" fill="white"/>
</clipPath>
</defs>
</svg>
