<svg width="83" height="84" viewBox="0 0 83 84" fill="none" xmlns="http://www.w3.org/2000/svg">
<g clip-path="url(#clip0_23_438)">
<path fill-rule="evenodd" clip-rule="evenodd" d="M4.47225 66.7286C4.27857 64.4259 4.22602 62.1136 4.29998 59.8693C4.39341 57.0034 4.75254 52.6364 5.93699 49.8464C5.46302 43.3266 4.61629 36.7737 3.72771 30.3015C2.58122 21.9538 1.2975 13.6217 0.0235077 5.29242C-0.0621386 4.73499 0.0935818 4.22037 0.472177 3.80206C0.851746 3.38472 1.34908 3.18043 1.91259 3.21059C17.3406 4.05402 33.1492 3.58415 48.2443 0.0518605C48.8107 -0.0804423 49.3548 0.0450508 49.8044 0.413748C50.2551 0.782445 50.4857 1.28928 50.4682 1.87102L49.238 41.5833C49.2925 44.9424 49.5446 49.0623 51.7432 51.7881C54.3135 54.975 59.4104 56.1171 63.2373 56.7154C68.4296 57.5277 74.9669 59.2545 79.2687 62.4044C80.7957 63.5232 82.3062 65.0388 82.8191 66.9144C82.933 67.3317 82.9914 67.7423 82.9972 68.1431C83.0021 68.2267 83.0011 68.3114 82.9943 68.398C82.9894 68.5254 82.9797 68.6509 82.9641 68.7764C82.9349 69.3571 82.9554 70.0226 82.9544 70.5965C82.9534 70.9555 82.8629 71.2629 82.6702 71.5654C79.732 76.1688 71.6725 78.309 66.6797 79.2818C55.169 81.5241 43.3041 82.0699 31.7301 80.0688C31.7331 80.1359 31.736 80.204 31.7389 80.2712C31.7759 81.1097 31.2562 81.8413 30.4532 82.0835C22.6263 84.4455 14.5298 84.8969 6.81389 81.8802C6.11218 81.6059 5.6713 80.9687 5.66254 80.2157C5.63821 78.1524 5.62653 76.0871 5.60901 74.0237C5.03965 71.6763 4.66398 69.2229 4.47419 66.7296L4.47225 66.7286Z" fill="#1C5444"/>
<path fill-rule="evenodd" clip-rule="evenodd" d="M81.1849 68.2762C39.8236 66.8014 15.2344 68.641 7.41626 73.795C7.45324 78.0598 7.47174 80.1932 7.47174 80.1932C14.1434 82.8023 21.6287 82.8538 29.9276 80.3498C29.8556 78.6951 29.8196 77.8682 29.8196 77.8682C40.6061 80.0541 52.8156 80.1377 66.3312 77.5043C74.4452 75.9235 79.3397 73.4146 81.1412 70.5915C81.145 69.2276 81.1596 68.4562 81.184 68.2772L81.1849 68.2762Z" fill="#1C5444"/>
<path fill-rule="evenodd" clip-rule="evenodd" d="M1.81445 5.01795C16.9563 5.84582 33.1435 5.44404 48.6581 1.81447L47.4269 41.5686C47.5797 51.3191 49.8484 56.4526 62.9581 58.5033C76.4756 60.6172 84.4281 66.5942 79.917 70.7734C72.6965 77.4635 46.551 80.2934 29.6466 75.7173C18.4347 77.9139 9.91679 77.4207 7.41747 73.794C5.56342 66.3199 5.76586 57.6219 7.77758 50.177C6.98924 38.9069 4.54151 22.837 1.81445 5.01698V5.01795Z" fill="#FFC978"/>
<path d="M37.7866 76.8856C37.8002 77.2855 37.4868 77.6191 37.0868 77.6337C36.6868 77.6473 36.353 77.3341 36.3394 76.9343C36.2303 73.6072 37.0274 70.6742 38.5136 68.069C39.9063 65.6272 41.9015 63.4822 44.321 61.5774C43.4402 59.05 43.2855 56.7289 43.6991 54.7191C44.1857 52.3551 45.4548 50.4251 47.2544 49.0855C47.5746 48.8481 48.0271 48.9143 48.2646 49.2343C48.5021 49.5544 48.4359 50.0068 48.1157 50.2451C46.5994 51.3736 45.5288 53.0059 45.1161 55.009C44.7307 56.8846 44.9166 59.0928 45.8432 61.5327C45.9775 61.8323 45.8928 62.1961 45.6203 62.4033C43.1589 64.276 41.1414 66.3851 39.771 68.7869C38.4143 71.1665 37.6863 73.8466 37.7856 76.8866L37.7866 76.8856Z" fill="#E06648"/>
<path fill-rule="evenodd" clip-rule="evenodd" d="M7.41631 73.796C5.22941 64.7138 6.0012 53.7696 7.77641 50.178C9.34433 51.1362 10.083 51.787 9.78326 54.329C11.611 53.6013 13.83 54.2453 14.2232 56.5402C11.4514 56.4575 10.4684 59.1094 11.5935 60.341C15.8651 65.0144 28.3909 60.6951 29.6444 75.7202C20.3577 77.9732 9.47669 77.7232 7.41534 73.7969L7.41631 73.796Z" fill="#E06648"/>
<path fill-rule="evenodd" clip-rule="evenodd" d="M2.83807 11.7265C17.4476 13.1711 32.6459 12.2596 48.435 8.99093L48.6569 1.81447C33.1423 5.44502 16.9551 5.84484 1.81323 5.01795C2.15971 7.28461 2.5023 9.52306 2.83709 11.7265H2.83807Z" fill="#E06648"/>
<path fill-rule="evenodd" clip-rule="evenodd" d="M33.2181 45.3645C36.0328 45.74 37.4781 43.3371 36.9321 40.8993C34.1252 42.519 31.5617 41.1969 29.4117 36.1723C26.2711 28.8325 32.7938 26.0823 33.7671 31.8608C40.1857 31.8871 37.9121 22.1473 30.3363 24.7116C30.8317 21.6006 30.1641 19.6131 25.836 17.3357C22.2379 20.3301 21.5985 22.0802 22.4549 25.1085C15.0894 21.8428 12.956 32.3103 19.4096 32.6167C19.5517 26.7185 25.9411 28.526 24.7703 35.9486C24.2691 39.1433 21.6004 42.8245 18.0179 41.374C17.6179 43.879 19.0485 45.8791 21.5167 45.489C20.0276 47.7693 22.8812 50.4581 27.7426 53.0507C31.8896 50.6109 34.6955 48.4162 33.2181 45.3645ZM27.5295 46.455C29.5353 45.4841 30.4823 44.3547 30.4181 42.6075C28.4443 42.2982 27.6239 40.9246 27.2862 38.8126C27.0545 40.8107 25.7533 42.5404 24.0141 42.9616C24.5143 44.6563 26.1192 46.3062 27.5304 46.456L27.5295 46.455Z" fill="#2E7662"/>
</g>
<defs>
<clipPath id="clip0_23_438">
<rect width="83" height="84" fill="white"/>
</clipPath>
</defs>
</svg>
