<svg width="85" height="53" viewBox="0 0 85 53" fill="none" xmlns="http://www.w3.org/2000/svg">
<g clip-path="url(#clip0_23_426)">
<path fill-rule="evenodd" clip-rule="evenodd" d="M78.4174 8.86421L84.8721 33.6892C84.8861 33.7448 84.8963 33.792 84.9057 33.8486C84.9094 33.8708 84.9131 33.893 84.9169 33.9153C85.2638 36.1452 84.4924 38.0852 83.1978 39.7185C82.5225 40.5718 81.7044 41.3416 80.8267 42.0253C80.8248 42.0272 80.822 42.0291 80.8202 42.0309C80.7204 42.1087 80.6196 42.1856 80.518 42.2616C77.5312 44.4952 73.6351 46.1193 70.1466 47.3237C62.0129 50.1308 52.259 51.9596 43.6981 52.6424C35.1373 53.3252 25.2145 53.0648 16.7348 51.5825C13.8582 51.0795 9.55254 50.1623 6.03043 48.4011C5.38123 48.0759 4.74975 47.7183 4.15558 47.3246C1.71828 45.708 -0.00640037 43.5392 0.00106172 40.619C0.00106172 40.5625 0.00386 40.5134 0.00852381 40.4569L2.39266 14.9287C2.24902 11.6899 5.43719 9.1088 9.59731 7.12713C11.0879 6.4147 12.5374 5.85883 13.6427 5.46231C21.6486 2.58756 31.0191 1.11636 39.4793 0.441913C47.7678 -0.218641 57.0431 -0.26311 65.2822 1.21086C66.9127 1.49991 69.1261 1.95943 71.2724 2.6941C74.2255 3.70392 77.1367 5.26313 78.1096 7.67003C78.2625 8.04802 78.367 8.44546 78.4164 8.86607L78.4174 8.86421Z" fill="#1C5444"/>
<path fill-rule="evenodd" clip-rule="evenodd" d="M4.22272 14.9565L76.6162 9.18476L83.1054 34.1422C84.6808 43.6661 58.5607 49.6389 43.5526 50.8349C28.5445 52.0319 1.7994 50.2744 1.82552 40.6227L4.22272 14.9565Z" fill="#2E7662"/>
<path d="M41.2133 21.8949C61.2043 20.3009 77.0548 14.6102 76.6163 9.18428C76.1777 3.7584 59.6162 0.652048 39.6251 2.24604C19.634 3.84003 3.78356 9.53075 4.22211 14.9566C4.66066 20.3825 21.2222 23.4889 41.2133 21.8949Z" fill="#62B19E"/>
<path fill-rule="evenodd" clip-rule="evenodd" d="M12.2734 48.7569L13.6874 20.7088C7.97988 19.4247 4.42233 17.432 4.22272 14.9565L1.82552 40.6227C1.81526 44.5027 6.13208 47.1069 12.2743 48.7569H12.2734Z" fill="#276654"/>
<path fill-rule="evenodd" clip-rule="evenodd" d="M4.2227 14.9565C4.42324 17.432 7.97986 19.4247 13.6874 20.7088C11.321 18.4974 10.1523 16.4212 10.1812 14.4812C10.2427 10.3465 15.746 6.82974 26.6929 3.93275C13.2313 6.4323 3.88504 10.7727 4.22363 14.9565H4.2227Z" fill="#58A690"/>
<path fill-rule="evenodd" clip-rule="evenodd" d="M44.2223 41.2981C44.2372 41.2601 44.2522 41.2221 44.2671 41.1841C44.2867 41.135 44.3072 41.0869 44.3277 41.0387C44.3398 41.0109 44.352 40.984 44.3641 40.9562C45.9787 37.7174 49.2462 35.5625 52.9343 35.3874L53.1638 34.8954C53.1899 31.8317 49.3945 30.6282 47.3527 31.0044C46.8732 28.1759 45.6103 26.8706 43.0256 25.9599C41.6283 26.4259 40.5929 27.3736 40.023 28.5984L39.7936 29.0903C39.4512 29.8259 39.2759 30.6616 39.2899 31.5528C37.582 31.765 35.3266 32.8962 34.5197 34.6277L34.2903 35.1196C34.0132 35.7144 33.9069 36.3796 34.0524 37.1032C38.1258 36.3351 42.2187 38.1769 43.9481 41.9095L44.1775 41.4176C44.1925 41.3778 44.2074 41.3379 44.2232 41.299L44.2223 41.2981ZM44.3548 37.7906C44.3426 37.8147 44.3305 37.8387 44.3174 37.8638C44.2055 38.0833 44.0824 38.3057 43.9499 38.5317C42.5527 36.765 41.9734 35.102 42.2458 34.07C42.4948 33.7318 42.9024 33.5271 43.4714 33.4984C45.1317 33.4141 45.447 35.2901 44.3818 37.7359C44.3725 37.7544 44.3641 37.773 44.3548 37.7906ZM41.9921 42.571L41.7626 43.063C38.9886 41.8623 35.4068 42.5664 34.016 45.2355C32.8463 47.4802 29.5742 46.8512 29.8429 44.3378C25.6902 44.6815 23.8573 42.9833 24.3442 39.2423L24.5737 38.7504C31.7765 43.4715 33.9433 34.51 41.9911 42.5719L41.9921 42.571ZM58.002 43.566L58.2314 43.0741C58.3704 42.7767 58.4339 42.4293 58.3947 42.0402C60.6408 41.7835 62.0604 41.0211 62.6509 39.7528L62.8803 39.2608C63.3178 38.3233 63.3019 37.1087 62.8337 35.6181C56.5609 41.5047 52.8671 33.0509 46.3434 42.3728L46.1139 42.8647C48.6371 41.2064 52.287 41.2851 54.1217 43.6744C55.2988 45.2077 57.3882 44.8844 58.0029 43.566H58.002Z" fill="#C9892F"/>
<path fill-rule="evenodd" clip-rule="evenodd" d="M39.5426 31.526C37.2471 31.6927 33.6914 33.6744 34.28 36.6103C38.3534 35.8423 42.4463 37.684 44.1757 41.4167C45.5869 37.6516 49.123 35.0863 53.1628 34.8936C53.1889 31.8298 49.3945 30.6264 47.3517 31.0034C46.8723 28.1741 45.6093 26.8697 43.0246 25.959C40.6442 26.7538 39.315 28.9458 39.5417 31.526H39.5426ZM43.6999 33.0064C45.642 32.9082 45.7446 35.4911 43.949 38.5308C41.702 35.6875 41.5676 33.1139 43.6999 33.0064Z" fill="#FABC64"/>
<path fill-rule="evenodd" clip-rule="evenodd" d="M34.2455 44.7426C35.6363 42.0745 39.2181 41.3694 41.9921 42.571C33.9442 34.5091 31.7774 43.4706 24.5746 38.7494C24.0877 42.4904 25.9206 44.1895 30.0733 43.8458C29.8046 46.3593 33.0758 46.9883 34.2455 44.7435V44.7426Z" fill="#FABC64"/>
<path fill-rule="evenodd" clip-rule="evenodd" d="M54.3502 43.1816C52.5164 40.7923 48.8656 40.7126 46.3425 42.3718C52.8662 33.05 56.5609 41.5047 62.8328 35.6171C63.9633 39.2182 62.4531 41.2064 58.3033 41.5807C59.0047 44.0107 55.8921 45.191 54.3493 43.1816H54.3502Z" fill="#FABC64"/>
<path fill-rule="evenodd" clip-rule="evenodd" d="M73.3226 13.7734C77.3839 31.802 79.4145 40.8173 79.4145 40.8173C82.0579 38.8449 83.514 36.6131 83.1054 34.1413L76.6162 9.18384C76.7412 10.7254 75.5501 12.2893 73.3226 13.7734Z" fill="#3B826E"/>
<path fill-rule="evenodd" clip-rule="evenodd" d="M73.3226 13.7734C75.55 12.2893 76.7402 10.7264 76.6162 9.18384C76.3858 6.3378 71.7211 4.13009 64.4511 2.9044C70.2258 4.64148 73.4849 6.79825 74.2283 9.37469C74.6182 10.7254 74.316 12.192 73.3226 13.7734Z" fill="#86D1BF"/>
</g>
<defs>
<clipPath id="clip0_23_426">
<rect width="85" height="53" fill="white"/>
</clipPath>
</defs>
</svg>
