<svg width="58" height="73" viewBox="0 0 58 73" fill="none" xmlns="http://www.w3.org/2000/svg">
<g clip-path="url(#clip0_23_452)">
<path fill-rule="evenodd" clip-rule="evenodd" d="M57.3134 58.0396C57.315 58.0479 57.3167 58.0562 57.3184 58.0645L57.9424 61.3049C58.2746 63.0321 57.1353 64.7118 55.4037 65.0438L14.2115 72.9424C12.4798 73.2739 10.797 72.1366 10.4642 70.4088L0.0577247 16.3787C-0.27507 14.6509 0.865306 12.9718 2.59695 12.6397L4.67081 12.2418L4.35521 10.6031C3.93145 8.40099 5.38577 6.25867 7.5933 5.83529C9.80029 5.41247 11.9474 6.86356 12.3717 9.06621L12.6873 10.7044L14.6885 10.3208L14.3729 8.68213C13.9491 6.48004 15.4034 4.33772 17.6104 3.91434C19.8174 3.49097 21.965 4.94261 22.3894 7.1447L22.705 8.78341L24.7062 8.39988L24.3906 6.76118C23.9668 4.55909 25.4211 2.41621 27.6286 1.99339C29.8356 1.57057 31.9827 3.02222 32.407 5.22431L32.7226 6.86246L34.7238 6.47893L34.4082 4.84023C33.9845 2.63814 35.4388 0.495817 37.6458 0.0729974C39.8527 -0.350375 42.0004 1.10127 42.4247 3.30336L42.7403 4.94151L43.7892 4.74061C45.5202 4.40911 47.2031 5.5464 47.5359 7.27421L57.3134 58.0391V58.0396Z" fill="#1C5444"/>
<path d="M44.1311 6.51896L2.93922 14.4176C2.18744 14.5617 1.69512 15.2867 1.8396 16.0368L12.2461 70.0671C12.3905 70.8172 13.1171 71.3084 13.8689 71.1642L55.0608 63.2656C55.8126 63.1215 56.3049 62.3965 56.1604 61.6464L45.754 7.61615C45.6095 6.86603 44.8829 6.37481 44.1311 6.51896Z" fill="#62B19E"/>
<path d="M11.1405 12.2663C10.6001 9.46089 9.16527 7.37783 7.93561 7.61362C6.70595 7.84941 6.14713 10.3148 6.68745 13.1201L6.77413 13.5702C7.31446 16.3755 8.74932 18.4586 9.97898 18.2228C11.2086 17.987 11.7675 15.5217 11.2271 12.7163L11.1405 12.2663Z" fill="#E6E6E6"/>
<path d="M21.158 10.3454C20.6177 7.54005 19.1829 5.457 17.9532 5.69279C16.7235 5.92858 16.1647 8.39392 16.705 11.1993L16.7917 11.6493C17.332 14.4547 18.7669 16.5377 19.9966 16.302C21.2262 16.0662 21.785 13.6008 21.2447 10.7954L21.158 10.3454Z" fill="#E6E6E6"/>
<path d="M41.1932 6.50364C40.6529 3.69827 39.218 1.61521 37.9883 1.851C36.7587 2.08679 36.1999 4.55214 36.7402 7.35751L36.8269 7.80753C37.3672 10.6129 38.802 12.696 40.0317 12.4602C41.2614 12.2244 41.8202 9.75903 41.2799 6.95366L41.1932 6.50364Z" fill="#E6E6E6"/>
<path d="M31.1756 8.42452C30.6353 5.61915 29.2004 3.53609 27.9708 3.77188C26.7411 4.00767 26.1823 6.47302 26.7226 9.27839L26.8093 9.72841C27.3496 12.5338 28.7845 14.6168 30.0141 14.381C31.2438 14.1453 31.8026 11.6799 31.2623 8.87454L31.1756 8.42452Z" fill="#E6E6E6"/>
<path fill-rule="evenodd" clip-rule="evenodd" d="M31.9738 37.6619C30.2305 37.9962 29.0884 39.6775 29.4234 41.4169C29.8711 43.3822 31.3076 45.1775 33.7348 46.8051C32.4974 47.0575 31.4169 46.965 30.1506 46.7951C26.1626 46.2611 22.8691 43.0518 22.0648 38.8756L20.8113 32.3673C23.7526 31.8033 26.3706 33.0402 27.1494 37.0825C26.39 33.1393 27.8954 31.4309 30.3542 29.2515C33.4469 30.3666 35.4798 31.3966 36.2391 35.3392C35.4603 31.2975 37.4322 29.1801 40.3735 28.6156L41.627 35.1239C42.4313 39.3006 40.5654 43.4989 37.06 45.4697C35.9468 46.0956 34.9778 46.581 33.7343 46.8046C35.3832 44.3955 36.0511 42.1962 35.7371 40.206C35.4021 38.4661 33.7171 37.3276 31.9738 37.6614V37.6619Z" fill="white"/>
<path fill-rule="evenodd" clip-rule="evenodd" d="M55.5362 58.4061L16.8472 65.8248C15.6347 66.1004 14.9569 65.4639 14.7195 64.232L5.04737 14.0134L2.93967 14.4174C2.19033 14.5613 1.69613 15.2896 1.83978 16.0367L12.2463 70.0668C12.3905 70.8139 13.1204 71.3076 13.8692 71.1643L55.0609 63.2657C55.8096 63.1224 56.3044 62.3935 56.1607 61.6464L55.5368 58.4061H55.5362Z" fill="#2E7662"/>
</g>
<defs>
<clipPath id="clip0_23_452">
<rect width="58" height="73" fill="white"/>
</clipPath>
</defs>
</svg>
