<svg width="51" height="74" viewBox="0 0 51 74" fill="none" xmlns="http://www.w3.org/2000/svg">
<g clip-path="url(#clip0_23_409)">
<path fill-rule="evenodd" clip-rule="evenodd" d="M9.24488 71.3373C9.24248 71.3361 9.23963 71.3349 9.23693 71.3337C9.23423 71.3325 9.23108 71.331 9.22837 71.3298C6.81507 70.1875 5.02111 68.5621 4.93467 66.257C4.93407 66.2467 4.93377 66.236 4.93347 66.2255C4.93106 66.1495 4.92881 66.0735 4.92641 65.9975C4.92056 65.8106 4.91456 65.6239 4.9084 65.4373C4.22858 64.605 3.81378 63.6466 3.77041 62.5433C3.76981 62.5294 3.76921 62.5154 3.76891 62.5013C3.76741 62.4484 3.76561 62.3952 3.76395 62.3422C3.27922 46.7592 1.85549 31.2551 1.40107 15.674C0.810689 15.2675 0.312 14.7434 0.0903433 14.0412C0.0832899 14.0191 0.0765367 13.9971 0.0702337 13.9747C0.0219105 13.8065 0 13.6537 0 13.4852C0 13.457 0.000600288 13.4282 0.00180086 13.3988C0.0838902 11.4548 0.345616 9.02437 1.141 6.98547C1.43814 6.22388 1.80957 5.51703 2.27374 4.91017C2.45578 4.17144 2.68479 3.39738 2.99934 2.72361C3.0244 2.67008 3.04976 2.61685 3.07632 2.56453C3.09643 2.51686 3.1185 2.46995 3.14266 2.42469C3.2315 2.25583 3.3472 2.10457 3.48617 1.97391C3.63669 1.8276 3.81078 1.71137 4.00482 1.62777C4.03288 1.61529 4.0617 1.60326 4.09036 1.59229C8.68331 -0.474737 20.6543 -0.0441003 25.624 0.252714C31.5094 0.60426 42.933 1.62236 48.1317 4.40285C48.216 4.4433 48.2984 4.49066 48.3784 4.54509C48.8576 4.86206 49.1447 5.36081 49.1777 5.93865C49.2186 6.47108 49.2568 7.00441 49.2959 7.53744C50.6458 10.3409 51.4103 13.5199 50.7704 16.616C50.6867 17.0214 50.4974 17.3455 50.1856 17.6169C49.867 17.8942 49.4691 18.1441 49.0036 18.3691L39.6056 65.2412C39.4169 66.2795 38.8689 67.1323 38.0695 67.8309L37.886 68.7461C36.876 74.302 25.0749 74.1683 20.9727 73.8993C18.3496 73.7273 13.0374 73.1271 9.24488 71.3376V71.3373Z" fill="#1C5444"/>
<path fill-rule="evenodd" clip-rule="evenodd" d="M6.01465 50.5443C6.30084 55.3184 6.56376 60.3548 6.7425 66.1696C6.9496 72.9262 35.0085 74.4547 36.1086 68.4046L39.1837 53.0687L6.0148 50.5443H6.01465Z" fill="#E6E6E6"/>
<path fill-rule="evenodd" clip-rule="evenodd" d="M47.7346 15.4906L3.12952 12.4044C3.54702 31.6838 4.98576 43.1693 5.57794 62.4454C5.80515 69.8658 36.62 71.5441 37.8282 64.8998L47.7346 15.4907V15.4906Z" fill="#F37757"/>
<path fill-rule="evenodd" clip-rule="evenodd" d="M3.90068 5.78083C2.73748 7.10236 1.97046 9.67219 1.81018 13.475C2.94352 17.4385 43.817 20.7617 48.9981 16.2483C49.5673 13.4933 48.819 10.6115 47.5168 8.02197C33.0573 11.3171 17.9806 10.4435 3.90068 5.78083Z" fill="white"/>
<path fill-rule="evenodd" clip-rule="evenodd" d="M4.73894 3.28948C18.539 7.5348 33.1402 8.48163 47.3712 6.05223C47.3712 6.05223 47.4196 6.70916 47.5169 8.02197C43.7685 12.8805 6.31124 9.32982 3.89343 5.93179C4.16311 4.72709 4.44435 3.84642 4.73909 3.28948H4.73894Z" fill="#E6E6E6"/>
<path fill-rule="evenodd" clip-rule="evenodd" d="M47.3712 6.05223C39.9102 1.95562 10.7631 0.430501 4.73889 3.28948C8.69869 7.21317 41.3381 9.35147 47.3712 6.05223Z" fill="white"/>
<path fill-rule="evenodd" clip-rule="evenodd" d="M24.5236 38.277C22.8729 38.1513 21.4328 39.3898 21.3074 41.0441C21.228 42.9291 22.0801 44.9042 23.8645 46.9703C22.6886 46.8944 21.7391 46.5459 20.6415 46.082C17.184 44.6212 15.0084 40.9135 15.3095 36.9423L15.7786 30.7544C18.5639 30.9661 20.6156 32.7266 20.3243 36.5695C20.6086 32.8205 22.3826 31.6461 25.1297 30.2805C27.6389 32.0463 29.2157 33.4757 28.9313 37.2246C29.2226 33.3814 31.5163 31.9521 34.3015 32.1641L33.8321 38.3519C33.5312 42.3231 30.8218 45.659 27.184 46.5797C26.0286 46.8723 25.0377 47.0729 23.8643 46.9702C25.9392 45.1979 27.0796 43.3744 27.2855 41.499C27.4107 39.8448 26.1741 38.4023 24.5234 38.2769L24.5236 38.277Z" fill="white"/>
<path fill-rule="evenodd" clip-rule="evenodd" d="M8.82559 12.7985C8.92389 10.9913 9.32954 9.44048 10.0418 8.14617C6.745 7.46473 4.43644 6.69457 3.89333 5.93164C3.90428 5.88397 3.91434 5.83586 3.92545 5.7894C3.91779 5.78609 3.90924 5.78353 3.90068 5.78083C2.73748 7.10236 1.97046 9.67219 1.81018 13.475C1.91958 13.8578 2.39936 14.2345 3.18229 14.5986C4.43164 15.1801 6.45191 15.7303 8.96786 16.222C8.81584 14.9933 8.76842 13.8527 8.82559 12.7985Z" fill="#E6E6E6"/>
<path fill-rule="evenodd" clip-rule="evenodd" d="M3.89331 5.93164C4.43627 6.69442 6.74483 7.46473 10.0418 8.14617C10.086 7.95461 10.1288 7.76981 10.1698 7.58983C10.3554 6.77592 10.505 6.08411 10.6183 5.51393C7.71729 4.87595 5.58042 4.12294 4.73897 3.28933C4.45623 3.82357 4.1855 4.65717 3.92543 5.78925C3.91447 5.83631 3.90442 5.88382 3.89331 5.93149V5.93164Z" fill="#CCCCCC"/>
<path fill-rule="evenodd" clip-rule="evenodd" d="M4.73901 3.28948C5.58047 4.12294 7.71734 4.8761 10.6184 5.51408C9.74091 5.13562 9.14993 4.78092 8.84528 4.44952C7.77602 3.28708 10.2333 2.41438 16.218 1.83142C10.996 1.9051 6.67449 2.37092 4.73916 3.28948H4.73901Z" fill="#E6E6E6"/>
<path fill-rule="evenodd" clip-rule="evenodd" d="M8.74826 66.1087C8.74826 66.1087 8.36558 49.3853 7.60051 15.9376C5.71771 15.522 4.19613 15.0708 3.18164 14.5964C3.65587 32.5788 5.00892 43.9112 5.57784 62.4453C5.62211 63.8909 6.82719 65.1184 8.74826 66.1087Z" fill="#E06648"/>
<path fill-rule="evenodd" clip-rule="evenodd" d="M10.0105 69.6944C10.0105 69.6944 9.99643 68.6862 9.96867 66.6694C9.53616 66.492 9.12827 66.3049 8.74829 66.1091C7.91794 65.6811 7.2216 65.2086 6.6947 64.6933C6.71121 65.1802 6.72712 65.6722 6.74227 66.1697C6.78535 67.5794 8.04085 68.7615 10.0104 69.6945L10.0105 69.6944Z" fill="#CCCCCC"/>
</g>
<defs>
<clipPath id="clip0_23_409">
<rect width="51" height="74" fill="white"/>
</clipPath>
</defs>
</svg>
