<svg width="61" height="57" viewBox="0 0 61 57" fill="none" xmlns="http://www.w3.org/2000/svg">
<g clip-path="url(#clip0_23_390)">
<path fill-rule="evenodd" clip-rule="evenodd" d="M34.7383 55.2397C34.7365 55.2415 34.7348 55.2433 34.7331 55.2451C33.012 57.0839 30.5302 57.1135 28.2349 56.9218C25.7236 56.7113 23.2114 56.4999 20.7227 56.0816C17.1383 55.4788 13.3596 54.2509 11.119 51.0891C10.5716 50.317 10.1761 49.4589 10.163 48.4835C10.1604 48.3143 10.1674 48.1521 10.1839 47.9963C10.1821 47.9542 10.1804 47.9121 10.1795 47.87C10.1587 46.7979 10.5057 45.8923 10.9195 44.9393C11.9951 42.4619 13.0708 39.9853 14.1464 37.5079C11.5154 37.9566 8.75689 37.5473 6.43556 36.1303C3.64059 34.4249 1.72957 31.496 0.768422 28.3388C0.294787 26.7829 0.0440906 25.1582 0.0102596 23.528C-0.0253064 21.7725 -0.00188489 20.351 0.398016 18.6152C1.04688 15.8037 2.44523 13.0862 3.93987 10.6633C5.24713 8.46982 6.91093 6.60411 8.83062 5.37434C17.7768 -0.353553 25.3567 -1.05487 35.5294 1.17538C43.5751 2.93987 53.413 8.11602 57.9897 15.4391C60.4603 19.3918 61.5212 24.9638 60.75 29.9537C60.5201 32.9103 59.4748 35.7962 57.7633 38.1805C55.6493 41.1246 52.5516 43.2787 49.1277 44.2326C47.5698 44.667 45.9494 44.8587 44.3367 44.8005C43.17 44.7584 42.0076 44.5846 40.8773 44.2837C40.0012 44.0499 39.1502 43.7355 38.3781 43.2519C37.9609 46.539 37.2652 49.7787 36.1462 52.9037C35.8773 53.6552 35.5788 54.3413 35.0393 54.9378C34.9421 55.0462 34.8406 55.1465 34.7374 55.2397H34.7383Z" fill="#1C5444"/>
<path d="M36.907 38.8541C37.4527 39.8671 38.1006 40.8559 39.0184 41.5232C39.702 42.0212 40.5061 42.3168 41.3163 42.5326C42.3243 42.8014 43.3601 42.9554 44.4002 42.993C45.8393 43.045 47.2845 42.8739 48.6724 42.487C51.7172 41.6379 54.4792 39.7202 56.3573 37.1039C58.2353 34.4876 59.2104 31.1861 59.0256 27.9348C58.054 31.2238 55.7674 34.2306 52.6194 35.3493C51.2783 35.8258 49.8426 35.9485 48.4235 35.9521C44.7844 35.9628 41.1454 35.2087 37.7918 33.7487C36.8567 33.3421 34.4261 32.7437 34.9335 34.6211C35.3109 36.0139 36.2269 37.5912 36.9062 38.8532L36.907 38.8541Z" fill="#B38558"/>
<path d="M2.44009 27.7969C3.27633 30.5448 4.92537 33.1074 7.32738 34.5736C10.7669 36.6731 15.4104 36.141 18.5905 33.6439C19.6358 32.8216 20.5787 31.737 20.8294 30.4051C20.8702 30.1874 20.8893 29.951 20.793 29.753C20.6707 29.4978 20.3922 29.3706 20.1285 29.2909C18.8152 28.8977 17.4168 29.2398 16.0575 29.3948C13.5965 29.6733 10.9785 29.2756 8.96254 27.7915C7.02723 26.3665 5.82493 24.0726 5.22118 21.6991C4.85511 20.2606 4.68856 18.7773 4.59921 17.2959C4.54976 16.4862 6.50068 10.0194 5.43197 11.6119C1.49542 17.9829 1.71316 21.0766 1.76173 23.4904C1.7921 24.9495 2.0159 26.4041 2.43922 27.7969H2.44009Z" fill="#B38558"/>
<path d="M20.3576 27.0517C20.316 27.7637 20.041 28.4454 19.7599 29.101C19.0815 30.681 18.306 32.2816 17.0274 33.3967C14.5421 35.5633 10.6255 35.2866 7.95026 33.377C5.27501 31.4665 3.69883 28.2635 2.9077 25.0068C1.43562 18.9502 4.61747 10.2021 9.75632 6.91135C18.2609 1.4665 25.2961 0.779507 35.1678 2.94437C41.587 4.35238 51.8049 8.872 56.5204 16.4199C59.7352 21.562 60.3069 29.8363 57.1675 35.0277C56.0528 36.8719 54.743 38.6929 52.884 39.713C51.7719 40.3239 50.521 40.6132 49.2753 40.7959C47.2151 41.0996 45.1167 41.1291 43.0496 40.8837C41.4421 40.6929 39.7948 40.3105 38.5084 39.2965C36.9365 38.0578 36.1983 35.8885 36.4499 33.8795C35.834 33.6081 35.3395 33.0545 35.0429 32.4267C34.6846 31.6671 34.5814 30.8055 34.5588 29.9617C34.5085 28.0942 34.9049 26.0718 36.2512 24.825C37.3651 23.7941 38.9308 23.4743 40.4255 23.3847C42.0997 23.2835 43.8433 23.4367 45.3206 24.258C46.6461 24.9943 47.7113 26.3611 47.8761 27.8847C48.047 27.1878 48.0661 26.4417 47.9412 25.7368C47.6705 24.2043 46.8161 22.8429 45.8246 21.6686C41.8932 17.0129 35.8461 14.8793 29.9457 13.8681C26.8046 13.3289 23.5108 13.0647 20.4999 14.1314C18.8404 14.7199 17.3327 15.6917 15.8997 16.7388C15.3272 17.1571 14.7182 17.7249 14.1847 18.3582C14.4398 18.2838 14.6983 18.2256 14.9594 18.1826C16.9996 17.8521 19.2117 18.549 20.597 20.1307C21.9832 21.7116 22.4195 24.1667 21.5122 26.0816C21.2814 26.5671 20.8512 27.0642 20.3576 27.0535V27.0517Z" fill="#BA936C"/>
<path d="M16.8096 19.5691C19.4571 19.4169 20.5857 21.7492 20.6559 23.8165C20.7193 25.6607 20.4339 27.452 19.7026 29.1359C17.3084 34.6506 14.9133 40.1645 12.5183 45.6783C12.2198 46.3653 11.9162 47.08 11.9319 47.8324C11.9674 49.6659 13.7821 50.8544 15.4173 51.5719C20.25 53.6946 25.5181 54.7524 30.7688 54.6548C31.8419 54.6351 33.0294 54.5151 33.7616 53.7045C34.1216 53.3068 34.3237 52.7873 34.5058 52.2759C36.7387 46.0428 37.2158 39.2867 37.1924 32.6407C37.1889 31.625 37.2531 30.6084 37.5255 29.633C38.2463 27.0499 39.8702 25.8443 41.5288 25.8443C44.5762 25.8434 45.5035 27.2863 45.8045 28.5421C46.0483 29.5632 45.8791 30.4588 46.0977 30.3549C48.1562 29.3769 48.8268 26.525 48.5631 24.8062C48.2994 23.0883 47.4362 21.5226 46.3962 20.1549C43.4442 16.273 39.0418 13.7732 34.4469 12.4153C28.7121 10.7216 22.1853 10.7852 17.1687 14.118C15.3453 15.3299 12.6961 17.7384 12.1478 22.4595C11.8538 24.9979 13.4603 19.759 16.8113 19.5673L16.8096 19.5691Z" fill="#D4AF8A"/>
<path d="M11.9145 48.4576C11.9224 49.029 12.206 49.5584 12.533 50.0206C14.4389 52.7085 17.8202 53.7609 21.0047 54.2965C23.4457 54.7059 25.9128 54.9128 28.3764 55.1197C30.1703 55.2702 32.2236 55.3257 33.4745 53.9893C33.6558 53.795 33.818 53.5621 33.8457 53.2943C33.9091 52.6664 33.2472 52.2427 32.6677 52.0439C31.3171 51.5817 29.8849 51.4519 28.4683 51.305C26.3439 51.0855 24.2126 50.8204 22.1645 50.1997C20.1303 49.5826 18.2141 48.6278 16.212 47.9175C15.0999 47.5243 11.8824 46.0813 11.9145 48.4585V48.4576Z" fill="#B38558"/>
</g>
<defs>
<clipPath id="clip0_23_390">
<rect width="61" height="57" fill="white"/>
</clipPath>
</defs>
</svg>
