<svg width="66" height="64" viewBox="0 0 66 64" fill="none" xmlns="http://www.w3.org/2000/svg">
<g clip-path="url(#clip0_23_491)">
<path fill-rule="evenodd" clip-rule="evenodd" d="M33.2176 62.1257C31.5733 64.7014 27.261 64.6199 25.8628 61.8962C25.6314 61.8564 25.4013 61.8129 25.173 61.765C20.7947 60.8492 16.8503 58.7185 12.5551 57.6173C9.83332 56.9193 7.12099 55.7341 5.4009 53.4258C3.90894 51.4241 3.50296 48.5378 4.58109 46.3091C2.13835 44.3985 0.468548 41.5338 0.0852981 38.4561C-0.339395 35.0465 0.840531 31.4975 3.18167 28.9789C2.37474 25.2489 1.79373 21.3699 3.01389 17.6623C3.73814 15.4614 5.26752 13.4607 7.19523 12.1601C8.4343 11.3238 9.83312 10.7829 11.2768 10.6533C11.3565 8.66417 12.4386 6.69422 14.0304 5.46388C16.0993 3.86403 18.6977 3.38687 21.2501 3.23427C23.2473 3.11463 25.4532 3.19073 27.3825 2.62929C29.3692 2.05106 31.1317 0.898215 33.1964 0.362935C36.9151 -0.600769 40.9258 0.430444 44.0439 2.55798C46.2128 4.03819 47.972 5.99376 49.4191 8.15825C50.5177 7.42524 51.9278 7.10427 53.2439 7.33855C55.3648 7.71625 56.9976 9.18327 58.2346 10.851C60.8646 14.3967 62.0802 18.9278 61.6328 23.3019C63.7214 24.0417 65.3655 25.9719 65.8334 28.1398C66.3981 30.7543 65.4681 33.4488 63.8828 35.537C62.7817 36.9877 61.4189 38.1469 59.9869 39.2405C62.0399 44.4381 60.0819 50.6757 56.1888 54.5628C52.0751 58.6707 46.2875 60.5314 40.6265 61.2768C38.2692 61.587 35.7454 61.9473 33.2174 62.1255L33.2176 62.1257Z" fill="#1C5444"/>
<path d="M40.3873 59.4844C45.7035 58.785 51.1167 57.0637 54.8977 53.2882C58.6786 49.5128 60.349 43.3148 57.7071 38.6818C59.4152 37.4209 61.1479 36.1362 62.4287 34.4489C63.7098 32.7616 64.4992 30.5847 64.053 28.5187C63.6068 26.4527 61.6789 24.6533 59.5554 24.7971C60.5114 20.3744 59.4699 15.5645 56.7682 11.923C55.8016 10.6194 54.5271 9.40399 52.9225 9.11817C51.318 8.83255 49.4153 9.85897 49.2881 11.4716C47.7374 8.59587 45.7198 5.8959 43.0123 4.04819C40.3048 2.20067 36.8356 1.2875 33.6564 2.11239C31.657 2.6299 29.8778 3.78794 27.8945 4.36456C25.7874 4.97814 23.5509 4.90883 21.3594 5.03906C19.1677 5.17088 16.8809 5.55137 15.1489 6.89037C13.4174 8.22937 12.4688 10.7805 13.5568 12.6738C9.87176 11.5343 5.9433 14.5808 4.74446 18.2241C3.54543 21.8658 4.33244 25.8255 5.17519 29.5645C2.76203 31.7028 1.49539 35.0483 1.89212 38.2346C2.28885 41.4209 4.33566 44.3604 7.20008 45.8518C5.33352 47.3677 5.42888 50.4256 6.86451 52.3508C8.29832 54.2762 10.6755 55.2683 13.0102 55.8669C17.2589 56.956 21.329 59.1133 25.5482 59.9959C30.1297 60.9539 35.81 60.0872 40.3871 59.4846L40.3873 59.4844Z" fill="#7CD18A"/>
<path d="M5.17579 29.5645C4.33284 25.8255 3.54582 21.8658 4.74506 18.2241C5.16211 16.9544 5.91493 15.7642 6.86993 14.7923C7.15259 19.6816 10.3439 24.5402 9.80054 29.6815C9.60821 31.5045 9.05315 33.2052 8.5508 34.96C8.23575 36.0543 7.67566 37.487 8.37195 38.538C9.14851 39.7068 10.7322 40.3657 11.6108 41.523C12.6718 42.9181 13.1399 44.4608 12.9969 46.1873C12.9134 47.1948 12.205 48.3049 12.6682 48.9556C13.4345 50.0333 15.6943 50.2658 16.8302 50.5952C20.0555 51.5297 22.1669 53.2426 24.8082 55.1722C27.4228 57.0827 30.6889 56.1086 33.633 57.154C35.0946 57.6729 36.3055 58.5351 37.4629 59.5416C37.5738 59.638 37.678 59.7337 37.7804 59.8286C33.7704 60.3429 29.293 60.7789 25.5486 59.9961C21.3294 59.1135 17.2593 56.9562 13.0106 55.8671C10.6761 55.2685 8.29892 54.2764 6.8649 52.351C5.42928 50.4256 5.33392 47.3679 7.20047 45.852C4.33626 44.3604 2.28925 41.4213 1.89252 38.2348C1.49579 35.0485 2.76242 31.703 5.17559 29.5647L5.17579 29.5645Z" fill="#5FB07A"/>
<path d="M16.7417 26.3977C21.5183 28.9623 25.7063 32.4318 29.0181 36.6517C29.0547 36.3851 29.0887 36.1179 29.1264 35.8512C28.8777 35.7002 28.6669 35.4514 28.5466 35.0763C26.984 30.2068 25.6934 25.5371 22.9081 21.1588C22.661 20.7717 23.2298 20.3321 23.5482 20.6684C26.1217 23.3956 28.5446 26.6516 29.9794 30.2202C30.9569 24.2019 32.127 18.2271 33.3789 12.3556C33.5759 11.4327 35.1867 11.6204 35.0656 12.5823C34.4299 17.6339 33.8672 22.6953 33.4326 27.7671C34.4552 27.0055 35.5171 26.3107 36.5536 25.6815C39.3502 23.9838 43.1497 22.0226 46.4094 21.5493C46.9874 21.4648 47.2675 22.1139 46.7997 22.469C45.4661 23.4783 43.8874 24.1308 42.4944 25.0627C41.0946 25.9993 39.7324 27.0143 38.372 28.007C36.5584 29.3304 34.8594 30.8446 33.086 32.2393C32.9951 33.5471 32.91 34.8556 32.8396 36.1648C32.8126 36.6655 32.7913 37.1665 32.7673 37.6674C35.6372 34.6416 39.6139 32.3699 43.0746 31.0069C43.5887 30.8044 43.8769 31.5951 43.4394 31.8658C40.5695 33.6408 37.9966 35.9758 35.9653 38.6672C34.6983 40.3464 33.6879 42.258 32.5229 44.0266C32.4881 45.1643 32.4555 46.3016 32.4255 47.4392C36.4846 44.6975 41.873 43.4118 46.3933 42.7519C46.6154 42.7196 46.7031 43.0092 46.4867 43.0893C43.5812 44.1668 40.6031 45.7737 38.0785 47.5649C36.0597 48.9971 34.2653 50.7552 32.298 52.2542C32.2286 54.8065 32.1511 57.3587 32.0393 59.9101C31.9057 62.9594 27.2212 62.9941 27.2393 59.9101C27.2522 57.7745 27.3161 55.6326 27.42 53.4873C26.1203 51.2605 25.513 48.6061 24.6006 46.2085C23.5005 43.3192 21.7772 40.7436 19.7847 38.3866C19.2317 37.7329 20.0591 36.9314 20.7198 37.4593C23.1976 39.4396 26.1006 42.3357 27.9867 45.5701C28.1009 44.349 28.2237 43.128 28.3607 41.9073C24.9752 36.4326 21.0107 31.4098 16.2751 26.9983C15.95 26.6941 16.3655 26.1948 16.7419 26.3975L16.7417 26.3977Z" fill="#B4EDBF"/>
</g>
<defs>
<clipPath id="clip0_23_491">
<rect width="66" height="64" fill="white"/>
</clipPath>
</defs>
</svg>
