<svg width="55" height="54" viewBox="0 0 55 54" fill="none" xmlns="http://www.w3.org/2000/svg">
<g clip-path="url(#clip0_23_367)">
<path fill-rule="evenodd" clip-rule="evenodd" d="M50.9875 42.7885C47.0806 48.7698 40.8824 52.5522 33.9025 53.6599C26.6516 54.811 19.2557 52.9925 13.1761 48.902C7.0755 44.7972 2.56756 38.5859 0.797684 31.3941C-0.905305 24.4746 0.0946152 17.2076 4.01129 11.2116C7.91821 5.23035 14.1164 1.44844 21.0964 0.340157C28.3472 -0.810881 35.7431 1.00758 41.8227 5.09814C47.9233 9.20295 52.4312 15.4142 54.2011 22.606C55.9036 29.5255 54.9042 36.7925 50.987 42.7885H50.9875Z" fill="#1C5444"/>
<path d="M49.5088 41.8094C56.8646 30.5497 52.9753 14.7458 40.84 6.57989C28.7043 -1.58599 12.8466 0.930863 5.49128 12.1911C-1.86409 23.4508 2.02476 39.2547 14.1605 47.4206C26.2963 55.587 42.1534 53.0696 49.5088 41.8094Z" fill="#52A15F"/>
<path d="M47.5709 39.8524C54.3296 29.5063 50.7562 14.9851 39.6052 7.48176C28.4542 -0.0216148 13.8841 2.29127 7.12537 12.6373C0.366631 22.9834 3.94007 37.5046 15.091 45.008C26.242 52.5113 40.8121 50.1984 47.5704 39.8524H47.5709Z" fill="#B4EDBF"/>
<path d="M39.842 33.0759C44.0092 26.8169 41.8726 17.9301 35.0792 13.2645C28.2858 8.59937 19.3686 9.89539 15.2019 16.1539C11.0348 22.4123 13.1713 31.2997 19.9647 35.9653C26.7581 40.6304 35.6749 39.3343 39.842 33.0759Z" fill="#7CD18A"/>
<path d="M22.5588 15.7533C24.2256 17.3865 25.5116 19.1951 26.8382 21.1138C27.1775 21.6038 26.6492 22.3175 26.1049 21.9331C24.2398 20.6111 22.2692 19.4644 20.3739 18.1905C18.4502 16.896 20.7982 14.0258 22.5588 15.7538V15.7533Z" fill="#B4EDBF"/>
<path d="M19.7319 22.1759C21.8132 22.5917 23.942 23.3913 25.7773 24.4632C26.2919 24.7655 25.954 25.6118 25.3901 25.542C24.4766 25.4275 23.5211 25.2531 22.6013 25.2378C21.699 25.2226 20.7567 25.373 19.8578 25.4565C17.3341 25.6895 17.5216 21.737 19.7319 22.1759Z" fill="#B4EDBF"/>
<path d="M23.4439 30.5153C23.9161 29.8778 24.4234 29.3126 25.0586 28.8374C25.644 28.4024 26.1981 27.8564 26.8797 27.5772C27.5105 27.3222 28.1433 28.0132 27.7473 28.6103C27.407 29.1229 26.949 29.5436 26.6839 30.1088C26.4227 30.6632 26.2074 31.2677 26.0238 31.8526C25.3818 33.8947 22.1511 32.2556 23.4439 30.5153Z" fill="#B4EDBF"/>
<path d="M32.2377 25.8212C32.9437 25.8364 33.6317 25.7603 34.3372 25.8178C35.0266 25.8748 35.7257 26.0817 36.4146 26.0674C37.5576 26.0443 38.2416 27.4362 37.8921 28.4098C37.5098 29.4655 36.1939 29.8882 35.2663 29.2522C34.7224 28.8797 34.0115 28.6614 33.4281 28.3454C32.829 28.0201 32.3105 27.5895 31.7324 27.2288C31.0332 26.7909 31.5229 25.806 32.2382 25.8212H32.2377Z" fill="#B4EDBF"/>
<path d="M29.4444 23.2016C29.8858 22.6458 30.3184 22.0943 30.813 21.5852C31.3271 21.0578 31.8564 20.6032 32.2167 19.9564C32.8221 18.854 34.4592 19.0722 35.0587 20.0095C35.7501 21.0917 35.0861 22.3435 33.9158 22.6384C33.3196 22.7893 32.7845 23.2173 32.2518 23.5226C31.6694 23.8592 31.061 24.1212 30.4463 24.3935C29.7589 24.7006 28.9225 23.8538 29.4449 23.2016H29.4444Z" fill="#B4EDBF"/>
</g>
<defs>
<clipPath id="clip0_23_367">
<rect width="55" height="54" fill="white"/>
</clipPath>
</defs>
</svg>
