<svg width="63" height="60" viewBox="0 0 63 60" fill="none" xmlns="http://www.w3.org/2000/svg">
<g clip-path="url(#clip0_23_342)">
<path fill-rule="evenodd" clip-rule="evenodd" d="M61.7767 49.3618L61.1972 50.0885C60.1208 51.4399 58.4724 52.0612 56.8125 52.332C53.3356 52.9 49.8519 53.476 46.3885 54.121C45.5877 54.2702 44.7537 54.4148 43.9609 54.6032C43.332 54.7524 42.7201 54.5802 42.2624 54.125C41.8048 53.6699 41.6301 53.0593 41.7777 52.4319C42.2719 50.333 41.9354 48.2077 40.3324 46.6726C39.1159 45.5083 37.2881 44.8701 35.618 45.2409C34.763 45.4306 33.9885 45.9 33.3779 46.5206C33.1897 46.8131 33.0306 47.1231 32.904 47.4432C32.6678 48.0402 32.5479 48.6446 32.5276 49.245C32.4884 50.5903 32.9453 51.9484 33.7455 53.1451C33.7489 53.1498 33.7516 53.1546 33.755 53.16C33.7583 53.1654 33.7617 53.1708 33.7658 53.1755C33.9851 53.5091 34.086 53.8799 34.065 54.2527C34.0508 54.5431 33.9641 54.8308 33.8064 55.0915C33.7421 55.2009 33.6683 55.3015 33.5864 55.392L32.9907 56.1396C32.6772 56.5326 32.2656 56.7589 31.7654 56.8122C27.5086 57.2661 22.4503 57.8732 18.4426 59.415C13.8589 61.179 11.8151 58.7734 10.9384 54.4701C9.29882 46.422 7.48928 38.3537 5.3108 30.4319C4.10309 26.0415 2.72343 21.2019 0.897644 17.0229C0.030448 15.0381 -0.591009 12.6048 0.897644 10.7361L1.40334 10.1013C1.65585 9.73929 1.97605 9.40905 2.37005 9.11527C3.18241 8.49936 4.18229 8.14007 5.1727 7.90438C7.99498 7.23241 10.8118 6.51722 13.6422 5.88171C15.7584 5.40695 17.987 4.93826 20.1526 4.7836C20.2007 4.78023 20.2481 4.7782 20.2955 4.7782C20.812 4.7782 21.271 4.98283 21.625 5.3725C22.0116 5.79797 22.1653 6.32542 22.0678 6.89136C21.6393 9.38541 22.103 11.6546 23.2315 13.349C24.8251 15.7411 27.7421 16.9878 31.3402 16.1024C31.349 16.1004 31.3585 16.0977 31.3673 16.0956C32.6711 15.7701 33.7834 15.1421 34.6431 14.2688C34.6662 14.2445 34.6899 14.2209 34.7122 14.1966C35.599 12.8742 36.0133 11.2196 35.884 9.63664C35.7832 8.39873 35.3086 6.98996 34.2634 6.22884C33.8504 5.92764 33.6054 5.5177 33.5363 5.01187C33.4679 4.50604 33.5952 4.04545 33.9134 3.64565L34.4962 2.91357C34.6343 2.70489 34.8158 2.52795 35.0331 2.39288C35.1475 2.32062 35.2727 2.26119 35.4102 2.21391C35.4115 2.21324 35.4135 2.21324 35.4149 2.21256C37.5941 1.45753 39.8091 1.01652 42.0668 0.565393C43.7788 0.222993 45.6527 -0.390896 47.3417 0.341854C49.4044 1.23601 50.6277 4.02046 51.4861 5.94587C56.8409 17.9582 60.8107 30.573 62.7962 43.5863C62.7962 43.5883 62.7969 43.591 62.7969 43.593C62.9634 44.6851 63.0887 45.7528 62.9181 46.8171C62.8179 47.4715 62.6101 48.107 62.2404 48.7135C62.1017 48.9458 61.9466 49.1606 61.7767 49.3598V49.3618ZM18.228 30.3427C17.6675 31.5131 17.57 32.9361 17.9654 34.2226C18.7093 36.6464 21.1837 38.5023 23.7534 37.7168C24.3857 37.5237 24.9496 37.1853 25.4195 36.7261C26.2074 35.4497 26.3462 33.864 25.9082 32.4377C25.1642 30.0138 22.6899 28.158 20.1201 28.9434C19.4879 29.1366 18.9239 29.4749 18.4535 29.9342C18.3715 30.0672 18.2957 30.2036 18.228 30.3427ZM48.3599 38.64C48.3612 38.6434 48.3619 38.6468 48.3633 38.6508C48.6252 39.5045 49.4931 40.2534 50.4206 39.9698C50.4483 39.961 50.4754 39.9522 50.5018 39.9421C50.5688 39.9171 50.6331 39.8867 50.6941 39.8516C50.8369 39.4437 50.8328 38.9919 50.7056 38.5772C50.4436 37.7229 49.5757 36.9746 48.6483 37.2576C48.5535 37.2866 48.4628 37.3258 48.3775 37.3738C48.2414 37.7756 48.238 38.2348 48.3599 38.6394V38.64Z" fill="#1C5444"/>
<path fill-rule="evenodd" clip-rule="evenodd" d="M42.4229 2.33952C46.3689 1.55004 47.1989 0.778798 49.831 6.68267C54.4147 16.9662 58.8285 29.5951 61.0057 43.8605C61.2013 45.1423 61.4565 46.8225 60.483 48.0807C60.481 48.0827 60.4797 48.0847 60.4776 48.0874C60.4702 48.0969 60.4634 48.1063 60.456 48.1151L59.779 48.9647C59.1988 49.6927 58.1969 50.2756 56.5194 50.5498C45.8693 52.2894 43.5412 52.8459 43.5412 52.8459C45.0671 46.366 39.5749 42.5125 35.224 43.4782C33.9865 43.7531 32.8458 44.4345 31.9509 45.3955C30.4162 47.6579 30.0865 50.9469 32.2501 54.1669L31.5725 55.0172C25.9597 55.6155 21.313 56.3753 17.7907 57.7307C14.6726 58.9301 13.4656 57.805 12.7135 54.1122C8.71395 34.4846 5.01499 21.9259 2.55828 16.303C1.64911 14.2222 1.55704 12.8148 2.31592 11.8626L2.99289 11.013C3.49046 10.3883 4.35427 9.95945 5.59312 9.66432C11.9959 8.13939 16.8186 6.83597 20.2813 6.5888C18.9429 14.3749 24.8122 19.573 31.7735 17.8603C33.2777 17.4902 34.5098 16.8203 35.4853 15.9639C35.4921 15.9579 35.4989 15.9518 35.5063 15.9457C35.6112 15.8532 35.7128 15.758 35.8123 15.6614C35.8949 15.579 35.9768 15.4966 36.056 15.4115C36.0811 15.3852 36.1054 15.3588 36.1298 15.3325C38.5777 11.8221 38.1045 6.79343 35.331 4.77347L36.0079 3.92321C37.8567 3.28298 39.3799 2.94868 42.4215 2.34087L42.4229 2.33952ZM19.5894 27.2159C22.9262 26.1961 26.5304 28.2971 27.6399 31.9089C28.2946 34.0403 27.9331 36.2203 26.8425 37.86C26.1533 38.584 25.2875 39.1384 24.2835 39.4457C20.9468 40.4655 17.3419 38.3652 16.233 34.7534C15.5784 32.6227 15.9392 30.442 17.0298 28.8023C17.719 28.0783 18.5848 27.5238 19.5894 27.2166V27.2159ZM46.9234 36.2074C46.4448 37.057 46.3087 38.1301 46.6309 39.1803C47.226 41.1185 49.1601 42.2457 50.9507 41.698C51.4056 41.5589 51.8077 41.3245 52.1448 41.0213C52.6235 40.1717 52.7602 39.0993 52.438 38.0484C51.8429 36.1109 49.9088 34.9837 48.1182 35.5307C47.6626 35.6699 47.2605 35.9035 46.9241 36.2074H46.9234Z" fill="#F0B158"/>
<path fill-rule="evenodd" clip-rule="evenodd" d="M42.4229 2.33952C46.3689 1.55004 47.1989 0.778798 49.831 6.68267C54.4147 16.9662 58.8285 29.5951 61.0057 43.8605C61.3171 45.9007 61.7808 48.9505 57.1977 49.6995C46.5477 51.4392 44.2196 51.9957 44.2196 51.9957C45.7455 45.5157 40.2532 41.6622 35.903 42.6279C31.7931 43.5397 28.7421 48.9431 32.2515 54.1662C26.6387 54.7646 21.992 55.525 18.4697 56.8798C15.3516 58.0792 14.1439 56.9547 13.3918 53.2619C9.39296 33.6344 5.69333 21.0756 3.23661 15.4527C1.73171 12.0071 2.46622 10.4086 5.59449 9.66365C11.9973 8.13872 16.82 6.8353 20.2833 6.58812C18.9443 14.3742 24.8143 19.5723 31.7749 17.8596C39.2276 16.0261 40.0136 6.838 36.01 3.92186C37.8588 3.28163 39.382 2.94733 42.4236 2.33952H42.4229ZM20.2671 26.3656C16.9303 27.3854 15.1242 31.1403 16.2337 34.7521C17.3426 38.3638 20.9474 40.4641 24.2842 39.4444C27.621 38.4246 29.4271 34.6697 28.3176 31.0579C27.208 27.4462 23.6039 25.3452 20.2671 26.3649V26.3656ZM48.7959 34.6805C47.0053 35.2275 46.0366 37.2421 46.6316 39.1803C47.2267 41.1185 49.1608 42.2457 50.9513 41.698C52.7412 41.151 53.7107 39.1364 53.1156 37.1988C52.5206 35.2613 50.5865 34.1341 48.7959 34.6812V34.6805Z" fill="#FFC978"/>
</g>
<defs>
<clipPath id="clip0_23_342">
<rect width="63" height="60" fill="white"/>
</clipPath>
</defs>
</svg>
