<svg width="57" height="57" viewBox="0 0 57 57" fill="none" xmlns="http://www.w3.org/2000/svg">
<g clip-path="url(#clip0_23_366)">
<path fill-rule="evenodd" clip-rule="evenodd" d="M29.7397 56.9724C14.0616 57.6554 0.710753 45.4175 0.0277465 29.74C-0.65526 14.0625 11.5815 0.709881 27.259 0.0268743C42.9371 -0.656132 56.2879 11.5817 56.9709 27.2593C57.6539 42.9368 45.4172 56.2894 29.7397 56.9724Z" fill="#1C5444"/>
<path d="M29.6611 55.1771C44.3704 54.5363 55.8157 42.0477 55.1749 27.3378C54.534 12.628 42.0466 1.18268 27.3374 1.82292C12.6281 2.46375 1.18279 14.9523 1.82362 29.6622C2.46446 44.372 14.9525 55.8173 29.6611 55.1771Z" fill="#BA563D"/>
<path d="M3.80944 29.2164C4.40985 42.9972 16.0702 53.6822 29.8504 53.0818C43.6324 52.4814 54.3156 40.8234 53.7152 27.042C53.1148 13.2612 41.4586 2.57563 27.676 3.17604C13.8958 3.77646 3.20903 15.435 3.80885 29.2164H3.80944Z" fill="#F37757"/>
<path d="M19.006 13.8833C18.2023 11.8197 18.6264 11.0265 18.8689 10.7852C19.1764 10.4818 19.6011 10.3371 20.0123 10.2094C25.1009 8.62839 30.5316 8.16153 35.8158 8.85039C36.4683 8.93533 37.2064 9.09524 37.5309 9.66754C37.7734 10.0928 37.7312 10.5626 37.6791 10.8561C37.0951 14.1252 33.4024 19.6941 33.4024 19.6941C30.4747 24.1097 30.6171 24.5385 30.7419 24.6691C30.8338 24.7663 31.1783 24.9754 35.0707 22.7542C37.5327 21.3489 40.0655 20.0696 42.5182 18.6462C43.5005 18.0757 44.5719 17.4307 45.6514 17.7957C46.4 18.0481 46.9009 18.7388 47.3133 19.4112C49.159 22.4186 50.2485 25.8875 50.4501 29.4109C50.5291 30.7962 50.3903 32.3714 49.3172 33.2524C49.0946 33.4351 48.2312 34.0396 45.2877 33.5253C43.8889 33.2816 42.3301 32.8382 39.7393 31.6292C36.0841 29.9252 33.8423 28.3155 33.2923 28.9054C33.1763 29.0295 33.1775 29.2059 33.1792 29.2937C33.2589 32.0908 46.639 37.5947 45.9882 40.9119C45.9437 41.1368 45.7703 41.4818 45.2121 41.9422C42.3899 44.2695 39.1342 46.0666 35.6623 47.2136C34.8879 47.4696 34.069 47.6957 33.2648 47.5598C31.706 47.2979 30.6716 45.7632 30.2352 44.2449C29.7619 42.6118 29.3712 41.3752 29.2107 39.6214C28.6097 33.0772 28.8815 29.7547 27.4897 29.2861C27.3579 29.2416 27.2132 29.1924 27.0392 29.2416C25.354 29.7266 27.4469 37.9192 24.6311 43.9467C23.5756 46.2078 22.5089 46.7719 21.8106 46.8469C21.2255 46.909 20.6379 46.7485 20.0785 46.5575C17.0196 45.5072 14.3163 43.4453 12.4934 40.7725C12.0037 40.0531 11.5585 39.1698 11.835 38.3444C12.0904 37.5794 12.75 37.1424 12.9866 36.9937C14.5459 36.0119 18.9451 32.8739 24.9638 28.5644C25.2362 27.7508 25.122 27.4298 24.9732 27.2857C23.7243 26.0691 14.147 31.5735 10.4309 32.8968C10.097 33.0157 9.35074 33.2453 8.59569 32.9688C7.9572 32.7357 7.5372 32.1271 7.24842 31.5132C6.05228 28.9581 6.4793 25.9689 7.00532 23.197C7.60047 20.0714 8.87393 17.0078 11.0038 16.5269C14.4422 15.7496 19.4025 22.2745 26.396 26.2015C26.396 26.2015 27.3877 26.7568 27.5623 26.5342C28.0502 25.9133 20.9414 18.8571 19.0054 13.8839L19.006 13.8833Z" fill="#E06648"/>
<path d="M25.6979 15.5902C25.4184 15.1773 25.0857 14.6612 25.3265 14.2248C25.5069 13.8968 25.924 13.7995 26.2942 13.7439C27.85 13.5078 29.4263 13.3977 31.002 13.4159C31.371 13.42 31.7998 13.4627 32.0042 13.7714C32.1524 13.997 32.1255 14.2916 32.0845 14.5587C31.6452 17.4501 30.1995 20.5218 31.5175 23.1332C32.3452 24.7728 34.154 25.7721 35.9834 25.9478C37.811 26.123 39.6438 25.5682 41.2781 24.7282C42.0666 24.3235 43.1514 23.8976 43.7196 24.5783C43.9252 24.8237 43.9897 25.1541 44.0453 25.4698C44.2609 26.6619 44.4758 27.8539 44.6914 29.0459C42.3149 28.814 39.9268 28.7027 37.538 28.7126C36.7091 28.7162 35.7836 28.7741 35.2107 29.3751C34.6138 30.0025 34.6297 30.9866 34.7761 31.8412C35.3197 35.0009 37.1912 37.9104 39.8389 39.7163C38.6375 40.7894 37.183 41.5779 35.629 42.0008C35.2271 42.1103 34.7849 42.1918 34.4065 42.016C33.7522 41.7114 33.6462 40.8492 33.5583 40.1328C33.1102 36.5268 30.7091 33.2225 27.4171 31.6831C27.0258 31.4997 26.5829 31.3369 26.1653 31.4599C25.5784 31.6339 25.2966 32.2858 25.0892 32.8634C24.046 35.7753 23.0039 38.6871 21.9601 41.599C20.7715 41.0864 19.6551 40.4034 18.6575 39.5763C18.3711 39.3402 18.0829 39.072 17.9856 38.7146C17.8362 38.1693 18.1725 37.621 18.4917 37.1559C19.5414 35.6323 20.5911 34.1082 21.6408 32.5852C22.3279 31.5858 23.0478 30.467 22.9055 29.2627C22.7087 27.5815 20.8623 26.5301 19.1706 26.4949C17.4772 26.4598 15.8669 27.1416 14.2291 27.5733C13.9169 27.6553 13.5314 27.7092 13.3176 27.4679C13.1964 27.3326 13.1694 27.1404 13.1489 26.9606C12.9234 24.8636 13.1653 22.7179 13.853 20.7233C16.3958 21.7918 18.9387 22.8608 21.4832 23.9292C23.8744 24.9338 25.6961 25.0686 26.5829 22.3588C27.3128 20.1294 27.0199 17.5438 25.6973 15.5908L25.6979 15.5902Z" fill="#FF9175"/>
<path d="M29.0168 21.076C29.3061 21.0754 29.5422 21.3115 29.6916 21.5604C30.4279 22.7929 29.9101 24.6539 31.0137 25.5712C31.6024 26.0597 32.4406 26.0685 33.1722 26.287C33.9085 26.5049 34.6612 27.2078 34.3953 27.9248C34.1698 28.5234 33.3966 28.6927 32.9818 29.1766C32.6169 29.6001 32.5724 30.2187 32.6843 30.7652C32.7938 31.3123 33.0398 31.8219 33.1956 32.3573C33.2519 32.55 33.297 32.7615 33.2214 32.9483C33.072 33.3221 32.5548 33.3724 32.167 33.2623C31.0834 32.9536 30.374 31.9543 29.6072 31.1284C28.8405 30.3024 27.7041 29.5556 26.6514 29.9556C25.8214 30.2708 25.1314 31.2572 24.2879 30.9802C23.8333 30.8314 23.5662 30.3241 23.5767 29.8467C23.5896 29.3687 23.8274 28.9241 24.1168 28.5451C24.2574 28.3635 24.415 28.1825 24.4659 27.9588C24.5854 27.4281 24.05 26.9694 23.5299 26.8077C23.0097 26.6461 22.4269 26.6273 21.9899 26.304C21.7866 26.154 21.6285 25.8424 21.8071 25.6631C21.8809 25.5876 21.9957 25.5641 22.0994 25.5466C23.592 25.2976 26.3732 26.301 27.4264 24.9579C28.0116 24.2087 27.9589 21.0777 29.0162 21.076H29.0168Z" fill="#FFDBA3"/>
</g>
<defs>
<clipPath id="clip0_23_366">
<rect width="56.9979" height="57" fill="white"/>
</clipPath>
</defs>
</svg>
