<svg width="212" height="138" viewBox="0 0 212 138" fill="none" xmlns="http://www.w3.org/2000/svg">
<g clip-path="url(#clip0_37_576)">
<g clip-path="url(#clip1_37_576)">
<path fill-rule="evenodd" clip-rule="evenodd" d="M25.1451 84.431C24.3904 71.9621 26.5908 59.5473 31.5218 48.1512C32.6217 45.5875 33.8536 43.1112 35.2081 40.7202C39.8138 32.5369 45.807 25.2723 52.8889 19.221C52.9067 19.2054 52.9244 19.1897 52.9422 19.1741C52.9683 19.151 52.9951 19.1291 53.0218 19.1076C56.3913 16.2408 60.006 13.6483 63.8336 11.361C89.4063 -3.91972 121.399 -3.77694 146.834 11.734C159.291 19.331 169.439 30.1802 176.161 43.1659C182.85 56.0875 185.873 70.6562 184.854 85.1861C184.789 86.1025 184.062 86.8176 183.148 86.8623C157.991 88.0957 132.796 89.5429 107.606 89.8475C96.05 90.0143 84.4903 89.8787 72.9414 89.4473C71.3557 89.3892 69.7699 89.3248 68.1841 89.2545C65.4673 89.1342 62.7518 88.9964 60.0375 88.8424C48.9284 88.216 37.8346 87.3178 26.7685 86.1543C26.7648 86.154 26.7611 86.1534 26.7573 86.1531C26.1404 86.089 25.6257 85.725 25.353 85.208C25.2301 84.9749 25.1563 84.7115 25.1451 84.431Z" fill="#1C5444"/>
<path fill-rule="evenodd" clip-rule="evenodd" d="M26.9418 84.3576C86.1597 90.4949 125.782 87.8683 183.06 85.0596C185.089 56.1097 170.765 28.441 145.9 13.2771C121.033 -1.88674 89.7557 -2.02795 64.753 12.9122C39.7503 27.8521 25.1756 55.3914 26.9422 84.3576H26.9418Z" fill="#FFC978"/>
<path fill-rule="evenodd" clip-rule="evenodd" d="M54.1282 55.6798C33.655 44.6796 79.1201 4.99318 96.0646 18.7311C102.806 24.1973 105.921 41.5513 90.7554 41.6741C73.0176 41.8175 65.5311 61.8058 54.1282 55.6798Z" fill="#FABC64"/>
<path fill-rule="evenodd" clip-rule="evenodd" d="M134.353 29.2783C139.214 38.9475 129.288 42.0755 118.487 33.7307C113.19 29.6379 97.529 20.4854 116.501 17.6276C127.941 15.904 133.887 28.3507 134.353 29.2783H134.353Z" fill="#FABC64"/>
<path fill-rule="evenodd" clip-rule="evenodd" d="M106.024 59.7238C115.577 69.3828 103.647 79.9302 86.7719 75.8593C78.4967 73.8623 55.0065 71.8603 78.8428 55.8304C93.2158 46.1639 105.108 58.7975 106.024 59.7235V59.7238Z" fill="#FABC64"/>
<path fill-rule="evenodd" clip-rule="evenodd" d="M26.9415 84.3576C53.9882 87.2022 80.8814 88.4304 107.622 88.0423C68.9519 82.9236 45.3401 76.9438 36.7873 70.1023C35.8539 60.9795 37.0611 41.1011 54.1289 20.5301C35.1495 37.2704 26.0872 58.5457 26.9418 84.3576H26.9415Z" fill="#FABC64"/>
<path fill-rule="evenodd" clip-rule="evenodd" d="M174.236 65.4021C164.376 26.2459 142.144 6.81837 107.54 7.11986C136.493 12.3627 158.725 31.7902 174.236 65.4021Z" fill="#FDD8A1"/>
</g>
</g>
<g clip-path="url(#clip2_37_576)">
<path fill-rule="evenodd" clip-rule="evenodd" d="M175.911 66.8355C169.77 55.0594 164.384 58.1869 168.218 75.5041C179.407 126.046 160.934 152.286 148.215 184.255C139.683 205.698 178.132 229.181 198.67 198.83C218.076 170.153 210.641 105.84 196.018 66.8847C190.088 51.0901 184.959 51.8573 185.383 64.2483C180.281 53.2361 173.31 55.5654 175.911 66.8355Z" fill="#52BA90"/>
<path d="M167.241 75.7199L166.904 74.1169L166.62 72.5956L166.387 71.1559L166.203 69.7965L166.068 68.5182L165.98 67.3201L165.938 66.2025L165.939 65.1632L165.985 64.2016L166.076 63.3172L166.208 62.5067L166.387 61.7687L166.614 61.1007L166.895 60.5013L167.238 59.97L167.654 59.5158L168.149 59.1562L168.713 58.9165L169.316 58.8148L169.926 58.8485L170.52 59.0001L171.098 59.2528L171.663 59.5942L172.221 60.0186L172.778 60.524L173.338 61.111L173.902 61.7797L174.471 62.53L175.045 63.3645L175.625 64.282L176.21 65.2843L176.798 66.3716L175.025 67.2962L174.466 66.2627L173.916 65.3193L173.376 64.4647L172.85 63.7008L172.338 63.0276L171.847 62.4451L171.379 61.954L170.938 61.5536L170.533 61.2445L170.17 61.0248L169.86 60.8888L169.61 60.824L169.421 60.8123L169.274 60.8363L169.142 60.8933L168.994 61.0015L168.827 61.1855L168.649 61.4628L168.473 61.8412L168.31 62.3214L168.17 62.9013L168.059 63.5777L167.982 64.3487L167.94 65.2111L167.938 66.1649L167.978 67.2074L168.061 68.338L168.19 69.5555L168.367 70.8604L168.591 72.2502L168.867 73.7262L169.195 75.2871L167.243 75.7192L167.241 75.7199ZM147.286 183.885L148.499 180.893L149.738 177.93L150.997 174.992L152.269 172.074L153.548 169.17L154.828 166.274L156.101 163.382L157.362 160.487L158.604 157.583L159.819 154.666L161.003 151.73L162.149 148.77L163.25 145.779L164.3 142.753L165.292 139.685L166.221 136.571L167.08 133.404L167.863 130.178L168.562 126.889L169.174 123.531L169.69 120.098L170.104 116.583L170.41 112.982L170.603 109.288L170.674 105.497L170.618 101.601L170.428 97.5953L170.099 93.4738L169.621 89.2318L168.99 84.8628L168.199 80.3616L167.242 75.7218L169.194 75.2897L170.163 79.9858L170.964 84.546L171.604 88.9765L172.088 93.282L172.423 97.4676L172.616 101.539L172.673 105.501L172.601 109.36L172.405 113.119L172.093 116.786L171.67 120.364L171.146 123.859L170.524 127.278L169.811 130.623L169.016 133.902L168.143 137.119L167.201 140.28L166.195 143.39L165.132 146.453L164.018 149.477L162.862 152.466L161.668 155.427L160.444 158.363L159.196 161.28L157.932 164.186L156.656 167.083L155.376 169.979L154.099 172.878L152.83 175.787L151.577 178.711L150.345 181.656L149.141 184.626L147.283 183.886L147.286 183.885ZM199.498 199.39L197.476 202.143L195.353 204.589L193.14 206.739L190.851 208.6L188.498 210.181L186.093 211.492L183.651 212.54L181.185 213.336L178.708 213.89L176.234 214.213L173.775 214.315L171.344 214.205L168.954 213.897L166.617 213.4L164.344 212.726L162.148 211.884L160.04 210.884L158.031 209.74L156.135 208.458L154.362 207.049L152.724 205.524L151.233 203.892L149.902 202.162L148.743 200.343L147.769 198.446L146.994 196.48L146.431 194.456L146.095 192.384L145.999 190.278L146.158 188.149L146.583 186.012L147.284 183.884L149.143 184.623L148.516 186.524L148.139 188.42L147.999 190.307L148.084 192.179L148.384 194.027L148.89 195.845L149.59 197.621L150.477 199.348L151.539 201.013L152.764 202.606L154.144 204.117L155.665 205.534L157.317 206.846L159.087 208.042L160.963 209.112L162.934 210.045L164.986 210.832L167.108 211.462L169.289 211.925L171.516 212.212L173.777 212.314L176.062 212.22L178.359 211.92L180.658 211.407L182.947 210.667L185.217 209.692L187.458 208.471L189.659 206.992L191.809 205.245L193.897 203.216L195.911 200.895L197.841 198.268L199.497 199.389L199.498 199.39ZM196.954 66.5322L198.311 70.2779L199.621 74.1597L200.882 78.1678L202.089 82.2892L203.238 86.515L204.327 90.8322L205.352 95.2316L206.31 99.701L207.196 104.229L208.008 108.806L208.741 113.42L209.392 118.06L209.957 122.715L210.433 127.374L210.817 132.026L211.104 136.66L211.291 141.264L211.374 145.829L211.35 150.342L211.214 154.793L210.964 159.171L210.595 163.466L210.104 167.665L209.486 171.759L208.738 175.736L207.856 179.585L206.835 183.296L205.671 186.858L204.36 190.26L202.898 193.489L201.279 196.536L199.5 199.389L197.844 198.268L199.546 195.538L201.103 192.608L202.516 189.487L203.787 186.188L204.92 182.721L205.917 179.097L206.78 175.328L207.515 171.426L208.122 167.4L208.606 163.264L208.97 159.029L209.217 154.706L209.351 150.306L209.375 145.841L209.292 141.323L209.108 136.762L208.823 132.169L208.443 127.557L207.971 122.937L207.41 118.319L206.764 113.716L206.037 109.137L205.231 104.596L204.352 100.103L203.402 95.6683L202.385 91.3045L201.305 87.023L200.166 82.8335L198.97 78.749L197.722 74.7804L196.425 70.9388L195.083 67.2359L196.956 66.5329L196.954 66.5322ZM186.29 63.8271L184.383 64.2813L184.359 63.1274L184.368 62.0389L184.408 61.0171L184.479 60.0614L184.582 59.1731L184.716 58.3502L184.882 57.5928L185.082 56.9001L185.317 56.2703L185.594 55.7021L185.918 55.1954L186.302 54.7548L186.755 54.3926L187.278 54.1328L187.849 54.0006L188.436 54.0045L189.008 54.1322L189.555 54.3648L190.08 54.6862L190.593 55.0905L191.099 55.5732L191.604 56.1369L192.113 56.7829L192.626 57.5118L193.145 58.3256L193.67 59.2268L194.202 60.2162L194.741 61.295L195.285 62.4645L195.836 63.7274L196.391 65.0828L196.952 66.5335L195.079 67.2365L194.533 65.8221L193.994 64.5055L193.462 63.2861L192.939 62.1626L192.426 61.1356L191.923 60.2033L191.435 59.3655L190.962 58.623L190.506 57.9744L190.07 57.4204L189.658 56.961L189.275 56.595L188.929 56.3215L188.629 56.1369L188.382 56.0313L188.197 55.9891L188.064 55.9878L187.954 56.0138L187.837 56.0734L187.692 56.19L187.523 56.3863L187.339 56.6734L187.156 57.0517L186.98 57.5221L186.82 58.0794L186.679 58.7221L186.562 59.4458L186.469 60.2493L186.403 61.1292L186.365 62.0849L186.358 63.1131L186.38 64.214L184.473 64.6682L186.288 63.8278L186.29 63.8271ZM186.382 64.2133L186.551 69.1479L184.475 64.6675L186.382 64.2133ZM176.798 66.3729L174.937 67.0597L174.713 65.9899L174.544 64.9701L174.428 63.9995L174.364 63.0801L174.351 62.2112L174.387 61.3929L174.47 60.6257L174.602 59.9085L174.782 59.2424L175.01 58.6282L175.29 58.0658L175.622 57.5597L176.008 57.1139L176.449 56.7375L176.94 56.4388L177.473 56.2282L178.035 56.1116L178.612 56.0883L179.194 56.1557L179.774 56.3073L180.349 56.5373L180.918 56.8425L181.481 57.2189L182.041 57.6666L182.594 58.185L183.144 58.7739L183.688 59.4335L184.225 60.165L184.755 60.9691L185.278 61.8477L185.789 62.8002L186.29 63.8284L184.475 64.6688L184.008 63.7099L183.536 62.8306L183.06 62.0291L182.583 61.3061L182.108 60.6601L181.639 60.0905L181.177 59.5962L180.729 59.177L180.297 58.8303L179.886 58.5549L179.499 58.3476L179.143 58.2044L178.82 58.1195L178.531 58.0865L178.275 58.0962L178.045 58.1442L177.831 58.229L177.624 58.3554L177.42 58.5297L177.219 58.7616L177.026 59.0571L176.847 59.4193L176.687 59.8495L176.552 60.3478L176.448 60.9128L176.38 61.5432L176.349 62.2378L176.361 62.9939L176.418 63.8109L176.523 64.6869L176.678 65.6206L176.886 66.6113L175.025 67.2981L176.798 66.3735V66.3729ZM176.886 66.61L178.647 74.2452L175.024 67.2975L176.885 66.6106L176.886 66.61Z" fill="#1C5444"/>
</g>
<g clip-path="url(#clip3_37_576)">
<path fill-rule="evenodd" clip-rule="evenodd" d="M35.4619 66.8355C41.603 55.0594 46.9892 58.1869 43.1554 75.5041C31.9657 126.046 50.4388 152.286 63.1583 184.255C71.6896 205.698 33.2408 229.181 12.7027 198.83C-6.70339 170.153 0.732246 105.84 15.3554 66.8847C21.2846 51.0901 26.4136 51.8573 25.9905 64.2483C31.0916 53.2361 38.0633 55.5654 35.4619 66.8355Z" fill="#52BA90"/>
<path d="M44.1318 75.7199L44.4687 74.1169L44.7532 72.5956L44.9864 71.1559L45.1698 69.7965L45.3052 68.5182L45.3933 67.3201L45.4355 66.2025L45.4335 65.1632L45.3875 64.2016L45.2974 63.3172L45.1646 62.5067L44.9858 61.7687L44.759 61.1007L44.4785 60.5013L44.1351 59.97L43.7191 59.5158L43.2241 59.1562L42.6604 58.9165L42.0565 58.8148L41.4475 58.8485L40.8527 59.0001L40.2753 59.2528L39.7104 59.5942L39.1518 60.0186L38.5946 60.524L38.0348 61.111L37.4711 61.7797L36.9022 62.53L36.3275 63.3645L35.7476 64.282L35.1632 65.2843L34.5749 66.3716L36.3482 67.2962L36.9068 66.2627L37.4569 65.3193L37.9966 64.4647L38.5233 63.7008L39.0346 63.0276L39.5257 62.4451L39.9941 61.954L40.4347 61.5536L40.8403 61.2445L41.2025 61.0248L41.5129 60.8888L41.763 60.824L41.9522 60.8123L42.0986 60.8363L42.2314 60.8933L42.3785 61.0015L42.5457 61.1855L42.7239 61.4628L42.9001 61.8412L43.0627 62.3214L43.2027 62.9013L43.3135 63.5777L43.3912 64.3487L43.4327 65.2111L43.4347 66.1649L43.3951 67.2074L43.3115 68.338L43.1826 69.5555L43.0064 70.8604L42.7815 72.2502L42.5055 73.7262L42.1777 75.2871L44.1299 75.7192L44.1318 75.7199ZM64.0874 183.885L62.8745 180.893L61.635 177.93L60.3761 174.992L59.1035 172.074L57.8245 169.17L56.5449 166.274L55.2717 163.382L54.0108 160.487L52.7694 157.583L51.5539 154.666L50.3701 151.73L49.2239 148.77L48.1231 145.779L47.0734 142.753L46.0808 139.685L45.1523 136.571L44.2932 133.404L43.5105 130.178L42.8107 126.889L42.199 123.531L41.6833 120.098L41.2686 116.583L40.9628 112.982L40.7704 109.288L40.6991 105.497L40.7548 101.601L40.9447 97.5953L41.2745 93.4738L41.752 89.2318L42.3831 84.8628L43.1735 80.3616L44.1312 75.7218L42.179 75.2897L41.2097 79.9858L40.4095 84.546L39.7693 88.9765L39.2853 93.282L38.9503 97.4676L38.7572 101.539L38.6996 105.501L38.7722 109.36L38.9678 113.119L39.2801 116.786L39.7026 120.364L40.2274 123.859L40.8494 127.278L41.5615 130.623L42.3571 133.902L43.2299 137.119L44.172 140.28L45.1782 143.39L46.2415 146.453L47.3546 149.477L48.5112 152.466L49.7047 155.427L50.9286 158.363L52.1765 161.28L53.4413 164.186L54.717 167.083L55.9967 169.979L57.2744 172.878L58.5431 175.787L59.7962 178.711L61.0279 181.656L62.2317 184.626L64.09 183.886L64.0874 183.885ZM11.8747 199.39L13.8969 202.143L16.0201 204.589L18.2328 206.739L20.5219 208.6L22.8752 210.181L25.2797 211.492L27.7217 212.54L30.1877 213.336L32.6648 213.89L35.1386 214.213L37.5981 214.315L40.0285 214.205L42.4187 213.897L44.7558 213.4L47.0287 212.726L49.2252 211.884L51.3329 210.884L53.3415 209.74L55.238 208.458L57.0114 207.049L58.6493 205.524L60.1402 203.892L61.4711 202.162L62.6302 200.343L63.604 198.446L64.379 196.48L64.942 194.456L65.2783 192.384L65.3735 190.278L65.2154 188.149L64.7904 186.012L64.0887 183.884L62.2304 184.623L62.857 186.524L63.2341 188.42L63.374 190.307L63.2885 192.179L62.9885 194.027L62.4831 195.845L61.7827 197.621L60.8963 199.348L59.8344 201.013L58.6085 202.606L57.2291 204.117L55.7077 205.534L54.0562 206.846L52.286 208.042L50.4096 209.112L48.4393 210.045L46.3873 210.832L44.2646 211.462L42.0837 211.925L39.8568 212.212L37.5955 212.314L35.3109 212.22L33.014 211.92L30.7151 211.407L28.426 210.667L26.1557 209.692L23.9145 208.471L21.7141 206.992L19.5636 205.245L17.476 203.216L15.4616 200.895L13.5321 198.268L11.876 199.389L11.8747 199.39ZM14.4191 66.5322L13.0623 70.2779L11.7516 74.1597L10.4913 78.1678L9.28424 82.2892L8.13482 86.515L7.04565 90.8322L6.02062 95.2316L5.06298 99.701L4.17662 104.229L3.36541 108.806L2.63195 113.42L1.98143 118.06L1.41579 122.715L0.940208 127.374L0.555992 132.026L0.268959 136.66L0.0817032 141.264L-0.00122833 145.829L0.0233917 150.342L0.158806 154.793L0.408905 159.171L0.778229 163.466L1.26936 167.665L1.88684 171.759L2.63519 175.736L3.51703 179.585L4.53817 183.296L5.70184 186.858L7.01261 190.26L8.47498 193.489L10.0935 196.536L11.8734 199.389L13.5295 198.268L11.8267 195.538L10.2697 192.608L8.85726 189.487L7.58602 186.188L6.45344 182.721L5.45628 179.097L4.59259 175.328L3.85848 171.426L3.25072 167.4L2.76672 163.264L2.40259 159.029L2.15573 154.706L2.02225 150.306L1.99828 145.841L2.08057 141.323L2.26523 136.762L2.54967 132.169L2.93 127.557L3.40234 122.937L3.96345 118.319L4.60944 113.716L5.33641 109.137L6.14179 104.596L7.02103 100.103L7.97089 95.6683L8.98749 91.3045L10.0676 87.023L11.2073 82.8335L12.4034 78.749L13.6513 74.7804L14.9478 70.9388L16.2897 67.2359L14.4171 66.5329L14.4191 66.5322ZM25.0827 63.8271L26.9896 64.2813L27.0135 63.1274L27.0051 62.0389L26.9649 61.0171L26.8937 60.0614L26.7906 59.1731L26.6565 58.3502L26.4907 57.5928L26.2911 56.9001L26.0559 56.2703L25.7792 55.7021L25.4546 55.1954L25.071 54.7548L24.6181 54.3926L24.0953 54.1328L23.5238 54.0006L22.9374 54.0045L22.3653 54.1322L21.8184 54.3648L21.293 54.6862L20.7798 55.0905L20.2744 55.5732L19.769 56.1369L19.2604 56.7829L18.7473 57.5118L18.2283 58.3256L17.7028 59.2268L17.1708 60.2162L16.6324 61.295L16.0875 62.4645L15.5368 63.7274L14.9815 65.0828L14.421 66.5335L16.2935 67.2365L16.8397 65.8221L17.3795 64.5055L17.9114 63.2861L18.4343 62.1626L18.9475 61.1356L19.4496 60.2033L19.9381 59.3655L20.4111 58.623L20.8673 57.9744L21.3033 57.4204L21.7154 56.961L22.0977 56.595L22.4437 56.3215L22.7443 56.1369L22.9905 56.0313L23.1758 55.9891L23.3093 55.9878L23.4188 56.0138L23.5361 56.0734L23.6806 56.19L23.8503 56.3863L24.0337 56.6734L24.2171 57.0517L24.3927 57.5221L24.5527 58.0794L24.6939 58.7221L24.8112 59.4458L24.9039 60.2493L24.97 61.1292L25.0075 62.0849L25.0153 63.1131L24.9926 64.214L26.8995 64.6682L25.0846 63.8278L25.0827 63.8271ZM24.9907 64.2133L24.8222 69.1479L26.8976 64.6675L24.9907 64.2133ZM34.5749 66.3729L36.4357 67.0597L36.6599 65.9899L36.829 64.9701L36.945 63.9995L37.0091 63.0801L37.0221 62.2112L36.9865 61.3929L36.9029 60.6257L36.7713 59.9085L36.5912 59.2424L36.3625 58.6282L36.0832 58.0658L35.7509 57.5597L35.3647 57.1139L34.9241 56.7375L34.433 56.4388L33.8997 56.2282L33.338 56.1116L32.7607 56.0883L32.1788 56.1557L31.5989 56.3073L31.0242 56.5373L30.4553 56.8425L29.8916 57.2189L29.3325 57.6666L28.7785 58.185L28.229 58.7739L27.6854 59.4335L27.1477 60.165L26.6176 60.9691L26.0954 61.8477L25.5836 62.8002L25.0834 63.8284L26.8982 64.6688L27.3647 63.7099L27.8371 62.8306L28.3133 62.0291L28.7902 61.3061L29.2651 60.6601L29.7342 60.0905L30.1955 59.5962L30.6439 59.177L31.076 58.8303L31.4875 58.5549L31.8736 58.3476L32.23 58.2044L32.5527 58.1195L32.8417 58.0865L33.0976 58.0962L33.3276 58.1442L33.5421 58.229L33.7494 58.3554L33.9529 58.5297L34.1537 58.7616L34.3468 59.0571L34.5263 59.4193L34.6863 59.8495L34.8211 60.3478L34.9247 60.9128L34.9934 61.5432L35.0239 62.2378L35.0122 62.9939L34.9552 63.8109L34.8502 64.6869L34.6954 65.6206L34.4874 66.6113L36.3482 67.2981L34.5749 66.3735V66.3729ZM34.4874 66.61L32.7257 74.2452L36.3489 67.2975L34.488 66.6106L34.4874 66.61Z" fill="#1C5444"/>
</g>
<defs>
<clipPath id="clip0_37_576">
<rect width="160" height="90" fill="white" transform="translate(25)"/>
</clipPath>
<clipPath id="clip1_37_576">
<rect width="160.047" height="89.9172" fill="white" transform="translate(25)"/>
</clipPath>
<clipPath id="clip2_37_576">
<rect width="65.373" height="160.316" fill="white" transform="translate(146 54)"/>
</clipPath>
<clipPath id="clip3_37_576">
<rect width="65.373" height="160.316" fill="white" transform="matrix(-1 0 0 1 65.373 54)"/>
</clipPath>
</defs>
</svg>
