<svg width="160" height="90" viewBox="0 0 160 90" fill="none" xmlns="http://www.w3.org/2000/svg">
<g clip-path="url(#clip0_37_613)">
<g clip-path="url(#clip1_37_613)">
<path fill-rule="evenodd" clip-rule="evenodd" d="M0.145074 84.431C-0.60968 71.9621 1.59078 59.5473 6.52173 48.1512C7.62165 45.5875 8.85354 43.1112 10.208 40.7202C14.8138 32.5369 20.807 25.2723 27.8889 19.221C27.9066 19.2054 27.9244 19.1897 27.9421 19.1741C27.9683 19.151 27.995 19.1291 28.0218 19.1076C31.3913 16.2408 35.006 13.6483 38.8336 11.361C64.4062 -3.91972 96.3991 -3.77694 121.834 11.734C134.291 19.331 144.439 30.1802 151.161 43.1659C157.85 56.0875 160.873 70.6562 159.854 85.1861C159.789 86.1025 159.062 86.8176 158.148 86.8623C132.991 88.0957 107.796 89.5429 82.6062 89.8475C71.05 90.0143 59.4902 89.8787 47.9414 89.4473C46.3556 89.3892 44.7699 89.3248 43.1841 89.2545C40.4673 89.1342 37.7518 88.9964 35.0374 88.8424C23.9284 88.216 12.8346 87.3178 1.7685 86.1543C1.76476 86.154 1.76103 86.1534 1.75729 86.1531C1.14042 86.089 0.625626 85.725 0.352981 85.208C0.230042 84.9749 0.156278 84.7115 0.145074 84.431Z" fill="#1C5444"/>
<path fill-rule="evenodd" clip-rule="evenodd" d="M1.94184 84.3576C61.1597 90.4949 100.782 87.8683 158.06 85.0596C160.089 56.1097 145.765 28.441 120.9 13.2771C96.0334 -1.88674 64.7557 -2.02795 39.753 12.9122C14.7503 27.8521 0.175564 55.3914 1.94216 84.3576H1.94184Z" fill="#FFC978"/>
<path fill-rule="evenodd" clip-rule="evenodd" d="M29.1282 55.6798C8.65495 44.6796 54.1201 4.99318 71.0646 18.7311C77.8063 24.1973 80.9206 41.5513 65.7554 41.6741C48.0176 41.8175 40.5311 61.8058 29.1282 55.6798Z" fill="#FABC64"/>
<path fill-rule="evenodd" clip-rule="evenodd" d="M109.353 29.2783C114.214 38.9475 104.288 42.0755 93.4868 33.7307C88.1898 29.6379 72.5289 20.4854 91.5005 17.6276C102.941 15.904 108.887 28.3507 109.353 29.2783H109.353Z" fill="#FABC64"/>
<path fill-rule="evenodd" clip-rule="evenodd" d="M81.0236 59.7238C90.5771 69.3828 78.6467 79.9302 61.7719 75.8593C53.4967 73.8623 30.0066 71.8603 53.8428 55.8304C68.2158 46.1639 80.1076 58.7975 81.0236 59.7235V59.7238Z" fill="#FABC64"/>
<path fill-rule="evenodd" clip-rule="evenodd" d="M1.94153 84.3576C28.9882 87.2022 55.8814 88.4304 82.6224 88.0423C43.9519 82.9236 20.3401 76.9438 11.7873 70.1023C10.8539 60.9794 12.0611 41.1011 29.1289 20.5301C10.1495 37.2704 1.08718 58.5457 1.94184 84.3576H1.94153Z" fill="#FABC64"/>
<path fill-rule="evenodd" clip-rule="evenodd" d="M149.236 65.4021C139.376 26.2459 117.144 6.81837 82.5403 7.11986C111.493 12.3627 133.725 31.7902 149.236 65.4021Z" fill="#FDD8A1"/>
</g>
</g>
<defs>
<clipPath id="clip0_37_613">
<rect width="160" height="90" fill="white"/>
</clipPath>
<clipPath id="clip1_37_613">
<rect width="160.047" height="89.9172" fill="white"/>
</clipPath>
</defs>
</svg>
