<svg width="158" height="88" viewBox="0 0 158 88" fill="none" xmlns="http://www.w3.org/2000/svg">
<path fill-rule="evenodd" clip-rule="evenodd" d="M0.941845 83.3576C60.1597 89.4949 99.7819 86.8683 157.06 84.0596C159.089 55.1097 144.765 27.441 119.9 12.2771C95.0334 -2.88674 63.7557 -3.02795 38.753 11.9122C13.7503 26.8521 -0.824435 54.3914 0.942156 83.3576H0.941845Z" fill="#FFC978"/>
<path fill-rule="evenodd" clip-rule="evenodd" d="M28.1282 54.6798C7.65495 43.6796 53.1201 3.99318 70.0646 17.7311C76.8063 23.1973 79.9206 40.5513 64.7554 40.6741C47.0176 40.8175 39.5311 60.8058 28.1282 54.6798Z" fill="#FABC64"/>
<path fill-rule="evenodd" clip-rule="evenodd" d="M108.353 28.2783C113.214 37.9475 103.288 41.0755 92.4868 32.7307C87.1898 28.6379 71.5289 19.4854 90.5005 16.6276C101.941 14.904 107.887 27.3507 108.353 28.2783H108.353Z" fill="#FABC64"/>
<path fill-rule="evenodd" clip-rule="evenodd" d="M80.0236 58.7238C89.5771 68.3828 77.6467 78.9302 60.7719 74.8593C52.4967 72.8623 29.0066 70.8603 52.8428 54.8304C67.2158 45.1639 79.1076 57.7975 80.0236 58.7235V58.7238Z" fill="#FABC64"/>
<path fill-rule="evenodd" clip-rule="evenodd" d="M0.941527 83.3576C27.9882 86.2022 54.8814 87.4304 81.6224 87.0423C42.9519 81.9236 19.3401 75.9438 10.7873 69.1023C9.85385 59.9795 11.0611 40.1011 28.1289 19.5301C9.14952 36.2704 0.0871769 57.5457 0.941839 83.3576H0.941527Z" fill="#FABC64"/>
<path fill-rule="evenodd" clip-rule="evenodd" d="M148.236 64.4021C138.376 25.2459 116.144 5.81837 81.5403 6.11986C110.493 11.3627 132.725 30.7902 148.236 64.4021Z" fill="#FDD8A1"/>
</svg>
