<svg width="212" height="84" viewBox="0 0 212 84" fill="none" xmlns="http://www.w3.org/2000/svg">
<g clip-path="url(#clip0_37_612)">
<path fill-rule="evenodd" clip-rule="evenodd" d="M175.911 12.8355C169.77 1.05936 164.384 4.18692 168.218 21.5041C179.407 72.0465 160.934 98.2857 148.215 130.255C139.683 151.698 178.132 175.181 198.67 144.83C218.076 116.153 210.641 51.8395 196.018 12.8847C190.088 -2.90985 184.959 -2.1427 185.383 10.2483C180.281 -0.763909 173.31 1.5654 175.911 12.8355Z" fill="#52BA90"/>
<path d="M167.241 21.7199L166.904 20.1169L166.62 18.5956L166.387 17.1559L166.203 15.7965L166.068 14.5182L165.98 13.3201L165.938 12.2025L165.939 11.1632L165.985 10.2016L166.076 9.31722L166.208 8.50666L166.387 7.76867L166.614 7.10066L166.895 6.50132L167.238 5.97002L167.654 5.51582L168.149 5.15622L168.713 4.91649L169.316 4.81476L169.926 4.84845L170.52 5.00007L171.098 5.25276L171.663 5.59422L172.221 6.01862L172.778 6.524L173.338 7.11102L173.902 7.77969L174.471 8.52999L175.045 9.36452L175.625 10.282L176.21 11.2843L176.798 12.3716L175.025 13.2962L174.466 12.2627L173.916 11.3193L173.376 10.4647L172.85 9.7008L172.338 9.0276L171.847 8.44511L171.379 7.95398L170.938 7.55356L170.533 7.2445L170.17 7.02485L169.86 6.88878L169.61 6.82399L169.421 6.81233L169.274 6.8363L169.142 6.89332L168.994 7.00152L168.827 7.18554L168.649 7.46285L168.473 7.84124L168.31 8.32136L168.17 8.90125L168.059 9.57769L167.982 10.3487L167.94 11.2111L167.938 12.1649L167.978 13.2074L168.061 14.338L168.19 15.5555L168.367 16.8604L168.591 18.2502L168.867 19.7262L169.195 21.2871L167.243 21.7192L167.241 21.7199ZM147.286 129.885L148.498 126.893L149.738 123.93L150.997 120.992L152.269 118.074L153.548 115.17L154.828 112.274L156.101 109.382L157.362 106.487L158.604 103.583L159.819 100.666L161.003 97.7304L162.149 94.77L163.25 91.7792L164.3 88.7527L165.292 85.6854L166.221 82.5708L167.08 79.4037L167.863 76.1783L168.562 72.8894L169.174 69.5312L169.69 66.0979L170.104 62.5835L170.41 58.9823L170.603 55.2884L170.674 51.4968L170.618 47.6008L170.428 43.5953L170.099 39.4738L169.621 35.2318L168.99 30.8628L168.199 26.3616L167.242 21.7218L169.194 21.2897L170.163 25.9858L170.964 30.546L171.604 34.9765L172.088 39.282L172.423 43.4676L172.616 47.5392L172.673 51.5013L172.601 55.3597L172.405 59.119L172.093 62.7856L171.67 66.3635L171.146 69.8591L170.524 73.2776L169.811 76.6235L169.016 79.902L168.143 83.1189L167.201 86.2796L166.195 89.3896L165.131 92.453L164.018 95.4769L162.862 98.4665L161.668 101.427L160.444 104.363L159.196 107.28L157.932 110.186L156.656 113.083L155.376 115.979L154.099 118.878L152.83 121.787L151.577 124.711L150.345 127.656L149.141 130.626L147.283 129.886L147.286 129.885ZM199.498 145.39L197.476 148.143L195.353 150.589L193.14 152.739L190.851 154.6L188.498 156.181L186.093 157.492L183.651 158.54L181.185 159.336L178.708 159.89L176.234 160.213L173.775 160.315L171.344 160.205L168.954 159.897L166.617 159.4L164.344 158.726L162.148 157.884L160.04 156.884L158.031 155.74L156.135 154.458L154.362 153.049L152.724 151.524L151.233 149.892L149.902 148.162L148.743 146.343L147.769 144.446L146.994 142.48L146.431 140.456L146.095 138.384L145.999 136.278L146.158 134.149L146.583 132.012L147.284 129.884L149.143 130.623L148.516 132.524L148.139 134.42L147.999 136.307L148.084 138.179L148.384 140.027L148.89 141.845L149.59 143.621L150.477 145.348L151.539 147.013L152.764 148.606L154.144 150.117L155.665 151.534L157.317 152.846L159.087 154.042L160.963 155.112L162.934 156.045L164.986 156.832L167.108 157.462L169.289 157.925L171.516 158.212L173.777 158.314L176.062 158.22L178.359 157.92L180.658 157.407L182.947 156.667L185.217 155.692L187.458 154.471L189.659 152.992L191.809 151.245L193.897 149.216L195.911 146.895L197.841 144.268L199.497 145.389L199.498 145.39ZM196.954 12.5322L198.311 16.2779L199.621 20.1597L200.882 24.1678L202.089 28.2892L203.238 32.515L204.327 36.8322L205.352 41.2316L206.31 45.701L207.196 50.2294L208.008 54.8064L208.741 59.4203L209.392 64.0601L209.957 68.7148L210.433 73.3741L210.817 78.0256L211.104 82.6596L211.291 87.2644L211.374 91.8291L211.35 96.3419L211.214 100.793L210.964 105.171L210.595 109.466L210.104 113.665L209.486 117.759L208.738 121.736L207.856 125.585L206.835 129.296L205.671 132.858L204.36 136.26L202.898 139.489L201.279 142.536L199.5 145.389L197.843 144.268L199.546 141.538L201.103 138.608L202.516 135.487L203.787 132.188L204.92 128.721L205.917 125.097L206.78 121.328L207.514 117.426L208.122 113.4L208.606 109.264L208.97 105.029L209.217 100.706L209.351 96.3063L209.375 91.8414L209.292 87.3227L209.108 82.7619L208.823 78.1694L208.443 73.5575L207.971 68.9371L207.41 64.3193L206.764 59.7158L206.037 55.1375L205.231 50.5961L204.352 46.1028L203.402 41.6683L202.385 37.3045L201.305 33.023L200.166 28.8335L198.97 24.749L197.722 20.7804L196.425 16.9388L195.083 13.2359L196.956 12.5329L196.954 12.5322ZM186.29 9.82714L184.383 10.2813L184.359 9.12738L184.368 8.03886L184.408 7.01707L184.479 6.06138L184.582 5.17307L184.716 4.3502L184.882 3.59277L185.082 2.90013L185.317 2.27034L185.594 1.70211L185.918 1.19543L186.302 0.754838L186.755 0.392646L187.278 0.132826L187.849 0.000648499L188.436 0.00453607L189.008 0.132178L189.555 0.364785L190.08 0.686158L190.593 1.09047L191.099 1.57317L191.604 2.13687L192.113 2.78286L192.626 3.51178L193.145 4.32558L193.67 5.22685L194.202 6.21623L194.741 7.29504L195.285 8.46455L195.836 9.72736L196.391 11.0828L196.952 12.5335L195.079 13.2365L194.533 11.8221L193.993 10.5055L193.462 9.28612L192.939 8.16261L192.426 7.13564L191.923 6.20327L191.435 5.3655L190.962 4.62298L190.506 3.9744L190.07 3.42042L189.658 2.96104L189.275 2.59496L188.929 2.32153L188.629 2.13687L188.382 2.03126L188.197 1.98914L188.064 1.98785L187.954 2.01376L187.837 2.07337L187.692 2.19L187.523 2.38632L187.339 2.67336L187.156 3.05175L186.98 3.52214L186.82 4.07936L186.679 4.72211L186.562 5.44585L186.469 6.24928L186.403 7.12917L186.365 8.08486L186.358 9.11312L186.38 10.214L184.473 10.6682L186.288 9.82779L186.29 9.82714ZM186.382 10.2133L186.551 15.1479L184.475 10.6675L186.382 10.2133ZM176.798 12.3729L174.937 13.0597L174.713 11.9899L174.544 10.9701L174.428 9.99949L174.364 9.08008L174.351 8.21121L174.387 7.39287L174.47 6.62572L174.602 5.90847L174.782 5.2424L175.01 4.62816L175.29 4.06576L175.622 3.55972L176.008 3.11395L176.449 2.7375L176.94 2.43881L177.473 2.22823L178.035 2.1116L178.612 2.08828L179.194 2.15566L179.774 2.30728L180.349 2.53729L180.918 2.84247L181.481 3.21891L182.041 3.66663L182.594 4.18498L183.144 4.77394L183.688 5.43354L184.225 6.16505L184.755 6.96913L185.278 7.84772L185.789 8.80018L186.29 9.82844L184.475 10.6688L184.008 9.70987L183.536 8.83063L183.06 8.02914L182.583 7.30605L182.108 6.66007L181.639 6.09054L181.177 5.59617L180.729 5.17696L180.297 4.83031L179.885 4.55494L179.499 4.34761L179.143 4.20441L178.82 4.11953L178.531 4.08649L178.275 4.09621L178.045 4.14416L177.831 4.22903L177.624 4.35538L177.42 4.52967L177.219 4.76163L177.026 5.05709L176.847 5.41928L176.687 5.84951L176.552 6.34776L176.448 6.91276L176.38 7.54319L176.349 8.23777L176.361 8.99391L176.418 9.81095L176.523 10.6869L176.678 11.6206L176.886 12.6113L175.025 13.2981L176.798 12.3735V12.3729ZM176.886 12.61L178.647 20.2452L175.024 13.2975L176.885 12.6106L176.886 12.61Z" fill="#1C5444"/>
</g>
<g clip-path="url(#clip1_37_612)">
<path fill-rule="evenodd" clip-rule="evenodd" d="M35.4619 12.8355C41.603 1.05936 46.9892 4.18692 43.1554 21.5041C31.9657 72.0465 50.4388 98.2857 63.1583 130.255C71.6896 151.698 33.2408 175.181 12.7027 144.83C-6.70339 116.153 0.732246 51.8395 15.3554 12.8847C21.2846 -2.90985 26.4136 -2.1427 25.9905 10.2483C31.0916 -0.763909 38.0633 1.5654 35.4619 12.8355Z" fill="#52BA90"/>
<path d="M44.1319 21.7199L44.4688 20.1169L44.7532 18.5956L44.9865 17.1559L45.1698 15.7965L45.3053 14.5182L45.3934 13.3201L45.4355 12.2025L45.4335 11.1632L45.3875 10.2016L45.2975 9.31722L45.1647 8.50666L44.9858 7.76867L44.759 7.10066L44.4785 6.50132L44.1351 5.97002L43.7191 5.51582L43.2241 5.15622L42.6604 4.91649L42.0565 4.81476L41.4475 4.84845L40.8527 5.00007L40.2754 5.25276L39.7104 5.59422L39.1519 6.01862L38.5946 6.524L38.0348 7.11102L37.4711 7.77969L36.9023 8.52999L36.3275 9.36452L35.7476 10.282L35.1632 11.2843L34.5749 12.3716L36.3483 13.2962L36.9068 12.2627L37.4569 11.3193L37.9966 10.4647L38.5234 9.7008L39.0346 9.0276L39.5257 8.44511L39.9942 7.95398L40.4348 7.55356L40.8404 7.2445L41.2026 7.02485L41.5129 6.88878L41.763 6.82399L41.9522 6.81233L42.0987 6.8363L42.2315 6.89332L42.3786 7.00152L42.5457 7.18554L42.7239 7.46285L42.9001 7.84124L43.0628 8.32136L43.2027 8.90125L43.3135 9.57769L43.3913 10.3487L43.4327 11.2111L43.4347 12.1649L43.3952 13.2074L43.3116 14.338L43.1826 15.5555L43.0064 16.8604L42.7816 18.2502L42.5056 19.7262L42.1777 21.2871L44.1299 21.7192L44.1319 21.7199ZM64.0874 129.885L62.8745 126.893L61.635 123.93L60.3761 120.992L59.1036 118.074L57.8245 115.17L56.5449 112.274L55.2717 109.382L54.0108 106.487L52.7694 103.583L51.5539 100.666L50.3701 97.7304L49.2239 94.77L48.1231 91.7792L47.0735 88.7527L46.0808 85.6854L45.1523 82.5708L44.2932 79.4037L43.5105 76.1783L42.8107 72.8894L42.1991 69.5312L41.6833 66.0979L41.2687 62.5835L40.9628 58.9823L40.7704 55.2884L40.6991 51.4968L40.7548 47.6008L40.9447 43.5953L41.2745 39.4738L41.752 35.2318L42.3831 30.8628L43.1736 26.3616L44.1312 21.7218L42.179 21.2897L41.2097 25.9858L40.4095 30.546L39.7693 34.9765L39.2853 39.282L38.9504 43.4676L38.7573 47.5392L38.6996 51.5013L38.7722 55.3597L38.9679 59.119L39.2802 62.7856L39.7026 66.3635L40.2274 69.8591L40.8494 73.2776L41.5615 76.6235L42.3572 79.902L43.2299 83.1189L44.172 86.2796L45.1783 89.3896L46.2415 92.453L47.3547 95.4769L48.5112 98.4665L49.7047 101.427L50.9286 104.363L52.1765 107.28L53.4413 110.186L54.7171 113.083L55.9967 115.979L57.2745 118.878L58.5431 121.787L59.7962 124.711L61.0279 127.656L62.2318 130.626L64.09 129.886L64.0874 129.885ZM11.8747 145.39L13.8969 148.143L16.0201 150.589L18.2328 152.739L20.522 154.6L22.8752 156.181L25.2797 157.492L27.7218 158.54L30.1878 159.336L32.6648 159.89L35.1386 160.213L37.5981 160.315L40.0285 160.205L42.4187 159.897L44.7558 159.4L47.0287 158.726L49.2252 157.884L51.3329 156.884L53.3415 155.74L55.238 154.458L57.0114 153.049L58.6494 151.524L60.1402 149.892L61.4711 148.162L62.6302 146.343L63.6041 144.446L64.379 142.48L64.942 140.456L65.2783 138.384L65.3736 136.278L65.2155 134.149L64.7904 132.012L64.0887 129.884L62.2305 130.623L62.857 132.524L63.2341 134.42L63.3741 136.307L63.2885 138.179L62.9885 140.027L62.4832 141.845L61.7827 143.621L60.8964 145.348L59.8344 147.013L58.6085 148.606L57.2291 150.117L55.7078 151.534L54.0562 152.846L52.286 154.042L50.4096 155.112L48.4393 156.045L46.3873 156.832L44.2647 157.462L42.0837 157.925L39.8568 158.212L37.5955 158.314L35.3109 158.22L33.014 157.92L30.7152 157.407L28.426 156.667L26.1557 155.692L23.9145 154.471L21.7141 152.992L19.5637 151.245L17.476 149.216L15.4616 146.895L13.5321 144.268L11.876 145.389L11.8747 145.39ZM14.4191 12.5322L13.0624 16.2779L11.7516 20.1597L10.4914 24.1678L9.28428 28.2892L8.13485 32.515L7.04568 36.8322L6.02065 41.2316L5.06301 45.701L4.17665 50.2294L3.36544 54.8064L2.63198 59.4203L1.98146 64.0601L1.41582 68.7148L0.940239 73.3741L0.556023 78.0256L0.26899 82.6596L0.0817337 87.2644L-0.00119781 91.8291L0.0234222 96.3419L0.158836 100.793L0.408936 105.171L0.778259 109.466L1.26939 113.665L1.88687 117.759L2.63522 121.736L3.51706 125.585L4.5382 129.296L5.70187 132.858L7.01264 136.26L8.47501 139.489L10.0935 142.536L11.8734 145.389L13.5295 144.268L11.8268 141.538L10.2698 138.608L8.85729 135.487L7.58605 132.188L6.45347 128.721L5.45631 125.097L4.59262 121.328L3.85851 117.426L3.25076 113.4L2.76675 109.264L2.40262 105.029L2.15576 100.706L2.02229 96.3063L1.99831 91.8414L2.0806 87.3227L2.26526 82.7619L2.5497 78.1694L2.93003 73.5575L3.40237 68.9371L3.96348 64.3193L4.60947 59.7158L5.33644 55.1375L6.14182 50.5961L7.02106 46.1028L7.97092 41.6683L8.98752 37.3045L10.0676 33.023L11.2073 28.8335L12.4034 24.749L13.6513 20.7804L14.9478 16.9388L16.2897 13.2359L14.4172 12.5329L14.4191 12.5322ZM25.0827 9.82714L26.9896 10.2813L27.0136 9.12738L27.0051 8.03886L26.965 7.01707L26.8937 6.06138L26.7907 5.17307L26.6566 4.3502L26.4907 3.59277L26.2911 2.90013L26.0559 2.27034L25.7793 1.70211L25.4546 1.19543L25.0711 0.754838L24.6182 0.392646L24.0953 0.132826L23.5238 0.000648499L22.9374 0.00453607L22.3653 0.132178L21.8185 0.364785L21.293 0.686158L20.7798 1.09047L20.2745 1.57317L19.7691 2.13687L19.2604 2.78286L18.7473 3.51178L18.2283 4.32558L17.7028 5.22685L17.1709 6.21623L16.6324 7.29504L16.0875 8.46455L15.5368 9.72736L14.9815 11.0828L14.4211 12.5335L16.2936 13.2365L16.8398 11.8221L17.3795 10.5055L17.9115 9.28612L18.4343 8.16261L18.9475 7.13564L19.4496 6.20327L19.9382 5.3655L20.4112 4.62298L20.8673 3.9744L21.3034 3.42042L21.7154 2.96104L22.0977 2.59496L22.4437 2.32153L22.7444 2.13687L22.9906 2.03126L23.1759 1.98914L23.3093 1.98785L23.4188 2.01376L23.5361 2.07337L23.6806 2.19L23.8504 2.38632L24.0337 2.67336L24.2171 3.05175L24.3927 3.52214L24.5527 4.07936L24.694 4.72211L24.8112 5.44585L24.9039 6.24928L24.97 7.12917L25.0076 8.08486L25.0154 9.11312L24.9927 10.214L26.8995 10.6682L25.0847 9.82779L25.0827 9.82714ZM24.9907 10.2133L24.8223 15.1479L26.8976 10.6675L24.9907 10.2133ZM34.5749 12.3729L36.4358 13.0597L36.6599 11.9899L36.829 10.9701L36.945 9.99949L37.0092 9.08008L37.0221 8.21121L36.9865 7.39287L36.9029 6.62572L36.7714 5.90847L36.5913 5.2424L36.3625 4.62816L36.0833 4.06576L35.7509 3.55972L35.3647 3.11395L34.9241 2.7375L34.433 2.43881L33.8998 2.22823L33.338 2.1116L32.7607 2.08828L32.1789 2.15566L31.599 2.30728L31.0242 2.53729L30.4554 2.84247L29.8917 3.21891L29.3325 3.66663L28.7785 4.18498L28.2291 4.77394L27.6855 5.43354L27.1477 6.16505L26.6177 6.96913L26.0954 7.84772L25.5836 8.80018L25.0834 9.82844L26.8982 10.6688L27.3647 9.70987L27.8371 8.83063L28.3133 8.02914L28.7902 7.30605L29.2651 6.66007L29.7342 6.09054L30.1955 5.59617L30.6439 5.17696L31.0761 4.83031L31.4875 4.55494L31.8737 4.34761L32.23 4.20441L32.5527 4.11953L32.8417 4.08649L33.0976 4.09621L33.3276 4.14416L33.5421 4.22903L33.7494 4.35538L33.9529 4.52967L34.1537 4.76163L34.3468 5.05709L34.5263 5.41928L34.6863 5.84951L34.8211 6.34776L34.9248 6.91276L34.9935 7.54319L35.0239 8.23777L35.0122 8.99391L34.9552 9.81095L34.8503 10.6869L34.6954 11.6206L34.4874 12.6113L36.3483 13.2981L34.5749 12.3735V12.3729ZM34.4874 12.61L32.7257 20.2452L36.3489 13.2975L34.4881 12.6106L34.4874 12.61Z" fill="#1C5444"/>
</g>
<defs>
<clipPath id="clip0_37_612">
<rect width="65.373" height="160.316" fill="white" transform="translate(146)"/>
</clipPath>
<clipPath id="clip1_37_612">
<rect width="65.373" height="160.316" fill="white" transform="matrix(-1 0 0 1 65.373 0)"/>
</clipPath>
</defs>
</svg>
