<svg width="30" height="25" viewBox="0 0 30 25" fill="none" xmlns="http://www.w3.org/2000/svg">
<path d="M4.68479 13.5002C4.18047 13.0466 3.52331 12.8005 2.84512 12.8113C2.16694 12.822 1.5179 13.0888 1.0282 13.5581C0.5385 14.0274 0.244359 14.6645 0.204779 15.3416C0.165198 16.0187 0.383106 16.6858 0.814793 17.2089L6.78104 23.4708C7.03084 23.7328 7.33099 23.9417 7.66351 24.0849C7.99602 24.228 8.35403 24.3025 8.71605 24.3039C9.07614 24.306 9.43299 24.2357 9.76539 24.0972C10.0978 23.9587 10.399 23.7548 10.651 23.4977L28.8723 4.68518C29.1193 4.43107 29.3139 4.13079 29.4449 3.80148C29.5759 3.47218 29.6408 3.12029 29.6358 2.76592C29.6308 2.41155 29.5561 2.06163 29.4158 1.73614C29.2756 1.41066 29.0727 1.11598 28.8185 0.868928C28.5644 0.621879 28.2642 0.427299 27.9349 0.296298C27.6055 0.165297 27.2537 0.10044 26.8993 0.105431C26.5449 0.110422 26.195 0.185163 25.8695 0.325387C25.544 0.46561 25.2493 0.66857 25.0023 0.922678L8.74292 17.7464L4.68479 13.5002Z" fill="white"/>
</svg>
