<svg width="37" height="45" viewBox="0 0 37 45" fill="none" xmlns="http://www.w3.org/2000/svg">
<path fill-rule="evenodd" clip-rule="evenodd" d="M16.9851 0.403346C15.5071 2.8552 14.4879 3.48479 10.7317 6.58084C7.97139 8.85607 7.16146 9.7247 6.48784 11.1323C5.85512 12.4546 5.69052 13.6248 5.90319 15.2891C6.23985 17.9246 7.13728 19.8507 10.2246 24.5641C13.0411 28.864 14.0976 31.1788 14.4263 33.7705C14.5622 34.842 14.4967 36.6717 14.3224 36.6717C14.2833 36.6717 13.3197 36.318 12.1814 35.8856C7.34101 34.0475 3.37375 33.2673 1.49316 33.7835C1.18654 33.8677 0.724855 34.123 0.467192 34.3508C0.0109308 34.7542 -0.00138083 34.7965 8.48367e-05 35.9718C0.00140393 36.9865 0.0667726 37.3166 0.409738 38.0435C1.29632 39.9225 2.72329 41.2445 5.17197 42.4556C7.32093 43.5184 9.7507 44.2021 13.2629 44.7321C15.5887 45.0832 21.1311 45.0906 23.5958 44.7459C30.9779 43.7136 35.7035 41.0612 36.79 37.3402C37.1519 36.1011 37.0389 34.916 36.5067 34.3669C35.1901 33.0082 31.1901 33.5117 24.9658 35.8194C23.7016 36.2881 22.6214 36.6717 22.5653 36.6717C22.5092 36.6717 22.4919 35.7752 22.5267 34.6794C22.5833 32.9074 22.6428 32.535 23.0652 31.3107C23.7035 29.4606 24.5788 27.8557 26.825 24.4179C29.8938 19.7206 30.925 17.3967 31.1073 14.7672C31.198 13.459 30.9694 12.129 30.4769 11.0983C29.8828 9.8551 28.8124 8.72161 26.1595 6.52665C22.3901 3.408 21.7502 3.46773 19.8214 0.403264C19.6684 0.160136 18.8831 0.190295 18.8777 0.69843C18.8627 2.12764 19.4128 2.55589 20.391 4.02553C20.6994 4.48875 22.1817 6.11443 23.6852 7.63797C26.0761 10.0608 26.4896 10.5499 26.9844 11.5395C27.4481 12.4671 27.5587 12.8555 27.5976 13.6958C27.6418 14.6425 27.6015 14.8088 27.0691 15.8797C25.5851 18.8646 22.0359 22.6876 19.7851 23.7253C18.7744 24.1914 18.0247 24.1642 16.9851 23.6234C14.6255 22.3965 11.299 18.7894 9.91061 15.9521C9.44321 14.997 9.37886 14.7329 9.37886 13.7711C9.37886 12.7897 9.43837 12.5576 9.95443 11.5253C10.4671 10.4993 10.813 10.0942 13.1282 7.80706C15.8463 5.12192 16.9471 3.72256 17.5088 2.23872C17.9625 1.03974 18.224 1.06029 18.1728 0.403346L17.5088 1.61734e-06L16.9851 0.403346ZM17.0736 11.3268C14.1168 12.6472 13.3939 17.0442 15.7334 19.4781C17.7472 21.5731 20.8404 20.9019 22.1442 18.087C22.5052 17.3078 22.5628 17.0046 22.564 15.8797C22.565 14.7559 22.5087 14.4556 22.1568 13.7063C21.1193 11.4977 18.9571 10.4855 17.0736 11.3268Z" fill="#F2A3F1"/>
</svg>
