<svg width="44" height="45" viewBox="0 0 44 45" fill="none" xmlns="http://www.w3.org/2000/svg">
<path fill-rule="evenodd" clip-rule="evenodd" d="M35.7447 0.0265573C35.6292 0.0583688 34.1647 1.34315 32.4539 2.91345C29.1025 5.98966 29.718 5.33479 24.4272 11.4535C24.1651 11.7567 23.5138 12.2947 22.6349 12.9342C20.0146 14.8403 19.4246 15.3753 18.3358 16.8323C17.5489 17.8854 15.1376 21.49 14.8984 21.9709C14.4468 22.8787 13.9989 24.6276 13.7772 26.3486L13.6448 27.376L12.7446 27.4225C12.2494 27.448 11.2669 27.503 10.5612 27.5446C9.85541 27.5863 8.92802 27.6378 8.50029 27.6591C3.09249 27.9284 2.72954 27.9596 2.26518 28.1956C1.77198 28.4462 1.43998 28.84 1.27278 29.3729C1.16717 29.7097 1.15348 29.9777 1.19462 30.905C1.27325 32.6778 0.945605 36.1896 0.289626 40.6056C-0.0462569 42.8664 -0.0603327 43.077 0.09676 43.4895C0.342431 44.1343 0.997088 44.5235 1.69638 44.4405C2.24776 44.375 2.64835 44.0875 2.92614 43.558C3.02374 43.3718 3.03012 43.3315 3.52683 39.7479C3.72304 38.3328 4.02112 36.2055 4.18934 35.0207C4.35755 33.8359 4.4952 32.7746 4.4952 32.6621V32.4578H10.3519C15.7844 32.4578 20.0211 32.5689 20.9817 32.7364C21.1312 32.7625 21.6736 33.0048 22.1871 33.2749C25.3191 34.9221 26.4648 35.5227 29.2256 36.9642L32.2975 38.5681L36.9247 41.6446C39.4697 43.3366 41.692 44.7854 41.8631 44.8642C42.4007 45.1117 43.1469 45.012 43.56 44.6375C43.8039 44.4162 44.0018 43.9458 44 43.591C43.9982 43.2452 43.806 42.7551 43.5597 42.4683C43.4402 42.3292 41.2286 40.5992 35.4322 36.1108C34.6782 35.5269 34.229 35.1118 33.8936 34.6885C33.2839 33.9193 32.6021 33.2503 31.8698 32.7029C30.9916 32.0465 29.9232 31.1178 29.4231 30.5763C28.7485 29.8457 28.456 29.3603 28.3688 28.8266C28.3273 28.5724 28.2931 26.8377 28.2929 24.9716L28.2924 21.5788L27.4696 18.2273C26.715 15.1532 26.6495 14.8272 26.679 14.2909C26.701 13.892 26.7657 13.6 26.8826 13.3723C26.9767 13.1887 27.9411 11.7677 29.0255 10.2146C30.9566 7.44885 31.0552 7.32426 33.8054 4.17351C36.2697 1.3504 36.6137 0.925154 36.6137 0.701694C36.6137 0.227406 36.1954 -0.0974919 35.7447 0.0265573ZM30.9754 13.0747C30.4387 13.2454 29.9906 13.5145 29.5544 13.928C27.748 15.6409 28.2035 18.5267 30.4574 19.6507C30.9567 19.8996 31.1159 19.9395 31.7275 19.9689C32.5945 20.0103 33.2436 19.8507 33.8772 19.4402C34.7066 18.9027 35.283 18.01 35.4525 17.0003C35.7292 15.3521 34.6589 13.6174 33.0596 13.1222C32.4752 12.9412 31.4676 12.9182 30.9754 13.0747ZM23.3541 22.9772C22.143 23.286 21.4488 23.9518 21.4488 24.8044C21.4488 25.2132 21.6794 25.8831 22.0117 26.4393C22.3507 27.0069 23.6367 28.3581 24.0843 28.6169C24.2815 28.731 24.7328 29.0103 25.0872 29.2376C25.4415 29.4649 25.7652 29.6509 25.8065 29.6509C25.8991 29.6509 25.9015 29.7413 25.764 28.0525C25.7012 27.2806 25.5944 25.8947 25.5267 24.9727C25.3714 22.8565 25.4007 22.9121 24.4348 22.8923C24.0543 22.8844 23.568 22.9227 23.3541 22.9772Z" fill="#B272D0"/>
</svg>
