<svg width="34" height="66" viewBox="0 0 34 66" fill="none" xmlns="http://www.w3.org/2000/svg">
<path fill-rule="evenodd" clip-rule="evenodd" d="M25.8437 2.83596C25.9586 2.40635 26.4951 1.58121 27.0361 1.00271C28.2617 -0.307941 28.6348 -0.332755 28.2422 0.922592C27.8159 2.28497 28.1254 3.68112 29.904 8.42358C31.6135 12.9819 32.8139 17.9184 32.6662 19.7821L32.5707 20.986L31.6587 19.7459C31.1572 19.0637 30.2259 18.1327 29.5891 17.6768C28.4677 16.8738 28.4801 16.904 29.9916 18.6389C32.7276 21.7795 33.9949 25.1072 34 29.1632C34.0057 33.6304 32.806 35.7943 29.2274 37.774C27.9744 38.467 27.9146 38.5429 28.7498 38.3779C29.2751 38.2738 30.4039 37.7868 31.2582 37.2953C32.1125 36.8035 32.8852 36.4708 32.9757 36.5557C33.0661 36.6403 32.9785 38.0245 32.7814 39.6314C32.4404 42.41 31.5425 45.3064 30.351 47.4691L29.8078 48.4559L31.1095 49.7014C31.8256 50.3863 32.4114 51.0351 32.4114 51.1427C32.4114 51.471 28.0792 49.6847 23.7142 47.5567C20.4919 45.9856 19.1527 45.1371 17.624 43.6976C15.2885 41.4988 13.7942 39.1172 14.0798 38.0487C14.3514 37.0332 16.407 35.7168 19.4319 34.6214C22.9573 33.3448 24.7321 33.1786 26.1923 33.9876C27.3192 34.6119 27.3287 34.6121 26.9868 34.0121C26.7967 33.6785 26.3022 33.2602 25.8882 33.0833L25.1355 32.7613L25.8039 31.4695C26.3926 30.3319 26.427 30.0344 26.0911 28.9818C25.5068 27.1512 22.722 24.9132 20.312 24.338C19.7675 24.2079 19.8949 24.3431 20.7151 24.7649C22.0922 25.4734 24.9684 27.9668 24.6996 28.2188C24.6006 28.3118 23.6088 28.1061 22.4953 27.7617C17.1206 26.0992 4.99662 25.1138 1.84121 26.0827C0.928659 26.3632 0.106532 26.5216 0.0141933 26.4349C-0.0778263 26.3482 0.287386 25.8908 0.825812 25.4184C2.0832 24.3156 4.56264 23.5915 8.1705 23.2737C10.8992 23.0333 17.0945 23.3296 17.7908 23.7338C17.9692 23.8372 18.6451 23.6743 19.2931 23.3717C20.5718 22.7747 24.664 22.6055 26.6005 23.0695L27.6353 23.3176L27.6576 20.6778C27.6701 19.226 27.7863 17.7844 27.9162 17.4741C28.0493 17.1551 27.7815 15.1356 27.3001 12.8294C26.0761 6.96793 25.6046 3.73105 25.8437 2.83596ZM18.6945 17.927C18.2252 16.4564 18.9161 14.8435 20.3725 14.01C20.952 13.6782 21.8709 13.4061 22.4141 13.4055C24.8031 13.4028 26.7769 15.9515 26.0303 18.0753C24.8343 21.4781 19.7952 21.3762 18.6945 17.927ZM20.1318 39.7824C20.2009 39.7175 21.3802 39.4876 22.7523 39.2712C24.852 38.9399 25.7749 38.7132 26.1526 39.0293C26.5082 39.3269 26.3808 40.1056 26.2974 41.7311L26.1481 44.646L26.9536 44.6926C27.7331 44.738 28.5906 45.4827 28.5906 46.1151C28.5906 46.2846 28.3674 46.1243 28.0948 45.759C27.5026 44.965 27.0874 44.9261 26.3038 45.5919C25.7542 46.0592 25.6676 46.0454 24.891 45.3676C23.781 44.399 19.9738 39.931 20.1318 39.7824ZM22.8592 60.1272C22.8592 56.8466 23.1894 54.7052 24.2004 51.4273C24.8464 49.3325 24.9098 49.2479 25.6982 49.4261C27.5876 49.853 28.909 50.2049 28.909 50.2808C28.909 50.3254 28.1209 52.48 27.1581 55.069C25.141 60.4904 24.5411 63.2537 25.0244 64.8971L25.3489 66L24.6092 65.545C23.3041 64.742 22.8592 63.3652 22.8592 60.1272Z" fill="#B272D0"/>
</svg>
