<svg width="62" height="62" viewBox="0 0 62 62" fill="none" xmlns="http://www.w3.org/2000/svg">
<circle cx="30.5919" cy="31.2301" r="29.9983" transform="rotate(0.856641 30.5919 31.2301)" fill="white"/>
<path d="M23.3025 13.1199L38.4199 13.346C44.179 13.4321 48.7906 18.0253 48.7073 23.5924L48.4888 38.2059C48.4488 40.882 47.3107 43.4321 45.3248 45.2951C43.339 47.1581 40.6681 48.1815 37.8997 48.1401L22.7822 47.9141C17.0232 47.828 12.4116 43.2348 12.4949 37.6677L12.7134 23.0542C12.7534 20.3781 13.8915 17.828 15.8774 15.965C17.8632 14.1019 20.5341 13.0785 23.3025 13.1199ZM22.8905 16.594C21.1722 16.5683 19.5144 17.2035 18.2818 18.3598C17.0492 19.5162 16.3428 21.099 16.318 22.76L16.0891 38.0695C16.0373 41.5315 18.8929 44.3757 22.4743 44.4293L38.3117 44.6661C40.03 44.6918 41.6878 44.0566 42.9204 42.9002C44.153 41.7439 44.8594 40.1611 44.8842 38.5L45.1131 23.1906C45.1649 19.7286 42.3093 16.8843 38.7279 16.8308L22.8905 16.594ZM40.2186 19.4632C40.8152 19.4721 41.384 19.7098 41.7998 20.1239C42.2156 20.5381 42.4443 21.0947 42.4357 21.6715C42.4271 22.2482 42.1818 22.7978 41.7538 23.1993C41.3258 23.6008 40.7502 23.8214 40.1536 23.8125C39.5569 23.8036 38.9881 23.5659 38.5724 23.1518C38.1566 22.7376 37.9278 22.181 37.9364 21.6042C37.9451 21.0275 38.1904 20.4779 38.6183 20.0764C39.0463 19.6748 39.6219 19.4543 40.2186 19.4632ZM30.7312 21.9315C33.1177 21.9672 35.3928 22.9179 37.056 24.5744C38.7191 26.2309 39.6341 28.4576 39.5996 30.7646C39.5651 33.0716 38.5839 35.2699 36.872 36.876C35.1601 38.482 32.8576 39.3642 30.471 39.3286C28.0845 39.2929 25.8094 38.3422 24.1462 36.6857C22.4831 35.0292 21.5681 32.8025 21.6026 30.4955C21.6371 28.1885 22.6182 25.9902 24.3302 24.3841C26.0421 22.778 28.3446 21.8958 30.7312 21.9315ZM30.6791 25.4109C29.2472 25.3895 27.8657 25.9188 26.8385 26.8825C25.8114 27.8461 25.2227 29.1651 25.202 30.5493C25.1813 31.9335 25.7303 33.2695 26.7282 34.2634C27.7261 35.2573 29.0911 35.8277 30.5231 35.8491C31.955 35.8706 33.3365 35.3412 34.3636 34.3776C35.3908 33.414 35.9795 32.095 36.0002 30.7108C36.0209 29.3266 35.4719 27.9906 34.474 26.9966C33.4761 26.0027 32.1111 25.4323 30.6791 25.4109Z" fill="url(#paint0_linear_432_125)"/>
<defs>
<linearGradient id="paint0_linear_432_125" x1="15.9694" y1="46.0721" x2="45.0708" y2="15.0862" gradientUnits="userSpaceOnUse">
<stop stop-color="#FFC400"/>
<stop offset="1" stop-color="#DA00AE"/>
</linearGradient>
</defs>
</svg>
