<svg width="61" height="62" viewBox="0 0 61 62" fill="none" xmlns="http://www.w3.org/2000/svg">
<circle cx="30.4444" cy="31.0167" r="29.9983" transform="rotate(0.856641 30.4444 31.0167)" fill="white"/>
<path d="M50.0573 23.1624C50.3475 22.342 50.079 21.7096 48.7538 21.6898L44.4361 21.6252C43.3246 21.6086 42.8251 22.1313 42.5384 22.7162C42.5384 22.7162 40.2632 27.6111 37.0943 30.7843C36.0546 31.6917 35.6013 31.9795 35.0456 31.9712C34.7677 31.967 34.3232 31.6658 34.3359 30.8216L34.4539 22.9291C34.4688 21.9278 34.2191 21.4724 33.3 21.4587L26.4815 21.3567C25.7975 21.3465 25.3844 21.8116 25.3776 22.2632C25.3635 23.2056 26.9631 23.4651 27.0298 26.1565L26.9423 32.0071C26.9229 33.3029 26.6629 33.5347 26.1285 33.5267C24.6751 33.5049 21.1584 28.4841 19.1269 22.7981C18.7158 21.6923 18.3165 21.2347 17.205 21.218L12.866 21.1532C11.6476 21.1349 11.3832 21.6612 11.3744 22.2502C11.3585 23.3104 12.7553 28.5548 18.017 35.5459C21.5157 40.3308 26.522 42.9585 31.1175 43.0272C33.8748 43.0685 34.2253 42.5042 34.24 41.5226L34.2934 37.9494C34.3102 36.8303 34.5702 36.5985 35.4465 36.6116C36.0878 36.6212 37.1735 36.932 39.7046 39.2282C42.6138 41.9816 43.0658 43.2059 44.7331 43.2308L49.0507 43.2954C50.2904 43.3139 50.9188 42.7538 50.5935 41.6296C50.2255 40.5048 48.8392 38.8542 47.0084 36.9023C46.0199 35.8075 44.5199 34.6068 44.0588 33.9911C43.4287 33.2355 43.6261 32.9046 44.0852 32.2242C44.0852 32.2242 49.4666 25.4904 50.0573 23.1624Z" fill="#627DA1"/>
</svg>
