<svg xmlns="http://www.w3.org/2000/svg" xmlns:xlink="http://www.w3.org/1999/xlink" viewBox="0 0 410.52 360.44"><defs><style>.cls-1{fill:none;}.cls-2{isolation:isolate;}.cls-3{fill:#5c62ec;}.cls-4{fill:#26292d;}.cls-5{fill:#1c1e22;}.cls-6{clip-path:url(#clip-path);}.cls-7{fill:#fff;}.cls-8{fill:#d8d9da;}.cls-9{fill:#ececed;mix-blend-mode:multiply;}</style><clipPath id="clip-path" transform="translate(-34.3 -66.24)"><polygon class="cls-1" points="144.76 125.42 144.76 217.71 219.81 274.41 280.78 274.41 355.83 217.71 355.83 125.42 144.76 125.42"/></clipPath></defs><g class="cls-2"><g id="OBJECTS"><path class="cls-3" d="M199.12,135.42a4.51,4.51,0,1,1-4.51-4.51A4.51,4.51,0,0,1,199.12,135.42Z" transform="translate(-34.3 -66.24)"/><path class="cls-3" d="M43.32,302.17a4.51,4.51,0,1,1-4.51-4.51A4.51,4.51,0,0,1,43.32,302.17Z" transform="translate(-34.3 -66.24)"/><circle class="cls-3" cx="26.8" cy="50.7" r="13.89"/><path class="cls-3" d="M444.82,108.32a6.18,6.18,0,1,1-6.18-6.18A6.18,6.18,0,0,1,444.82,108.32Z" transform="translate(-34.3 -66.24)"/><path class="cls-3" d="M388.09,225.56a2.51,2.51,0,1,1-2.51-2.5A2.51,2.51,0,0,1,388.09,225.56Z" transform="translate(-34.3 -66.24)"/><path class="cls-4" d="M144.76,338.32a7.78,7.78,0,0,0,7.78,7.79H348.05a7.78,7.78,0,0,0,7.78-7.79V217.71H144.76Z" transform="translate(-34.3 -66.24)"/><polygon class="cls-4" points="110.46 151.47 216 71.73 321.54 151.47 110.46 151.47"/><polygon class="cls-5" points="321.54 151.47 110.46 151.47 185.51 208.17 246.49 208.17 321.54 151.47"/><path class="cls-5" d="M152.54,346.11H348.05a7.78,7.78,0,0,0,7.78-7.79l-75.05-63.91h-61l-75.05,63.91A7.78,7.78,0,0,0,152.54,346.11Z" transform="translate(-34.3 -66.24)"/><g class="cls-6"><polygon class="cls-7" points="275.4 93.94 131.49 93.94 131.49 167.35 185.51 208.17 246.49 208.17 300.51 167.35 300.51 119.03 275.4 119.03 275.4 93.94"/><polygon class="cls-8" points="275.4 119.03 300.51 119.03 275.4 93.94 275.4 119.03"/><rect class="cls-3" x="156.6" y="125.91" width="55.15" height="5.87"/><rect class="cls-3" x="156.6" y="143.68" width="81.03" height="5.87"/><rect class="cls-3" x="156.6" y="161.46" width="118.79" height="5.87"/><rect class="cls-3" x="156.6" y="179.23" width="118.79" height="5.87"/><rect class="cls-3" x="156.6" y="197.01" width="118.79" height="5.87"/><polygon class="cls-9" points="275.4 93.94 217.7 93.94 217.7 208.17 246.49 208.17 300.51 167.35 300.51 119.03 275.4 119.03 275.4 93.94"/></g><path class="cls-3" d="M438.64,216a2.51,2.51,0,1,1-2.5-2.51A2.5,2.5,0,0,1,438.64,216Z" transform="translate(-34.3 -66.24)"/><path class="cls-3" d="M289.84,71.26a5,5,0,1,1-5-5A5,5,0,0,1,289.84,71.26Z" transform="translate(-34.3 -66.24)"/><path class="cls-3" d="M149.77,421.67a5,5,0,1,1-5-5A5,5,0,0,1,149.77,421.67Z" transform="translate(-34.3 -66.24)"/></g></g></svg>